<?xml version="1.0" encoding="UTF-8"?>
<!DOCTYPE svg PUBLIC "-//W3C//DTD SVG 1.1//EN" "http://www.w3.org/Graphics/SVG/1.1/DTD/svg11.dtd">
<!-- Creator: CorelDRAW 2019 (64 Bit) -->
<svg xmlns="http://www.w3.org/2000/svg" xml:space="preserve" width="297mm" height="210mm" version="1.1" style="shape-rendering:geometricPrecision; text-rendering:geometricPrecision; image-rendering:optimizeQuality; fill-rule:evenodd; clip-rule:evenodd"
viewBox="0 0 29700 21000"
 xmlns:xlink="http://www.w3.org/1999/xlink"
 xmlns:xodm="http://www.corel.com/coreldraw/odm/2003">
 <defs>
  <style type="text/css">
   <![CDATA[
    .str20 {stroke:#1A03DA;stroke-width:53.78;stroke-miterlimit:10}
    .str22 {stroke:#1A03DA;stroke-width:56.39;stroke-miterlimit:10}
    .str24 {stroke:#1A03DA;stroke-width:58.99;stroke-miterlimit:10}
    .str26 {stroke:#1A03DA;stroke-width:61.59;stroke-miterlimit:10}
    .str28 {stroke:#1A03DA;stroke-width:64.19;stroke-miterlimit:10}
    .str30 {stroke:#1A03DA;stroke-width:66.8;stroke-miterlimit:10}
    .str32 {stroke:#1A03DA;stroke-width:69.4;stroke-miterlimit:10}
    .str34 {stroke:#1A03DA;stroke-width:72;stroke-miterlimit:10}
    .str36 {stroke:#1A03DA;stroke-width:74.6;stroke-miterlimit:10}
    .str38 {stroke:#1A03DA;stroke-width:77.21;stroke-miterlimit:10}
    .str40 {stroke:#1A03DA;stroke-width:79.81;stroke-miterlimit:10}
    .str42 {stroke:#1A03DA;stroke-width:82.41;stroke-miterlimit:10}
    .str44 {stroke:#1A03DA;stroke-width:85.01;stroke-miterlimit:10}
    .str46 {stroke:#1A03DA;stroke-width:87.62;stroke-miterlimit:10}
    .str48 {stroke:#1A03DA;stroke-width:90.22;stroke-miterlimit:10}
    .str50 {stroke:#1A03DA;stroke-width:92.82;stroke-miterlimit:10}
    .str52 {stroke:#1A03DA;stroke-width:95.42;stroke-miterlimit:10}
    .str54 {stroke:#1A03DA;stroke-width:98.03;stroke-miterlimit:10}
    .str1 {stroke:#1A03DA;stroke-width:29.06;stroke-miterlimit:10}
    .str3 {stroke:#1A03DA;stroke-width:31.66;stroke-miterlimit:10}
    .str5 {stroke:#1A03DA;stroke-width:34.27;stroke-miterlimit:10}
    .str7 {stroke:#1A03DA;stroke-width:36.87;stroke-miterlimit:10}
    .str9 {stroke:#1A03DA;stroke-width:39.47;stroke-miterlimit:10}
    .str11 {stroke:#1A03DA;stroke-width:42.07;stroke-miterlimit:10}
    .str13 {stroke:#1A03DA;stroke-width:44.68;stroke-miterlimit:10}
    .str15 {stroke:#1A03DA;stroke-width:47.28;stroke-miterlimit:10}
    .str17 {stroke:#1A03DA;stroke-width:49.88;stroke-miterlimit:10}
    .str19 {stroke:#1A03DA;stroke-width:52.48;stroke-miterlimit:10}
    .str21 {stroke:#1A03DA;stroke-width:55.09;stroke-miterlimit:10}
    .str23 {stroke:#1A03DA;stroke-width:57.69;stroke-miterlimit:10}
    .str25 {stroke:#1A03DA;stroke-width:60.29;stroke-miterlimit:10}
    .str27 {stroke:#1A03DA;stroke-width:62.89;stroke-miterlimit:10}
    .str29 {stroke:#1A03DA;stroke-width:65.5;stroke-miterlimit:10}
    .str31 {stroke:#1A03DA;stroke-width:68.1;stroke-miterlimit:10}
    .str33 {stroke:#1A03DA;stroke-width:70.7;stroke-miterlimit:10}
    .str35 {stroke:#1A03DA;stroke-width:73.3;stroke-miterlimit:10}
    .str37 {stroke:#1A03DA;stroke-width:75.91;stroke-miterlimit:10}
    .str39 {stroke:#1A03DA;stroke-width:78.51;stroke-miterlimit:10}
    .str41 {stroke:#1A03DA;stroke-width:81.11;stroke-miterlimit:10}
    .str43 {stroke:#1A03DA;stroke-width:83.71;stroke-miterlimit:10}
    .str45 {stroke:#1A03DA;stroke-width:86.31;stroke-miterlimit:10}
    .str47 {stroke:#1A03DA;stroke-width:88.92;stroke-miterlimit:10}
    .str49 {stroke:#1A03DA;stroke-width:91.52;stroke-miterlimit:10}
    .str51 {stroke:#1A03DA;stroke-width:94.12;stroke-miterlimit:10}
    .str53 {stroke:#1A03DA;stroke-width:96.72;stroke-miterlimit:10}
    .str55 {stroke:#1A03DA;stroke-width:99.33;stroke-miterlimit:10}
    .str0 {stroke:#1A03DA;stroke-width:27.76;stroke-miterlimit:10}
    .str2 {stroke:#1A03DA;stroke-width:30.36;stroke-miterlimit:10}
    .str4 {stroke:#1A03DA;stroke-width:32.96;stroke-miterlimit:10}
    .str6 {stroke:#1A03DA;stroke-width:35.57;stroke-miterlimit:10}
    .str8 {stroke:#1A03DA;stroke-width:38.17;stroke-miterlimit:10}
    .str10 {stroke:#1A03DA;stroke-width:40.77;stroke-miterlimit:10}
    .str12 {stroke:#1A03DA;stroke-width:43.37;stroke-miterlimit:10}
    .str14 {stroke:#1A03DA;stroke-width:45.98;stroke-miterlimit:10}
    .str16 {stroke:#1A03DA;stroke-width:48.58;stroke-miterlimit:10}
    .str18 {stroke:#1A03DA;stroke-width:51.18;stroke-miterlimit:10}
    .fil5 {fill:none}
    .fil4 {fill:none;fill-rule:nonzero}
    .fil6 {fill:#373435}
    .fil2 {fill:#373435;fill-rule:nonzero}
    .fil1 {fill:#373435}
    .fil0 {fill:#373435;fill-rule:nonzero}
    .fil3 {fill:url(#id6);fill-rule:nonzero}
   ]]>
  </style>
     <clipPath id="id0" style="clip-rule:nonzero">
      <path d="M14538.09 1542.85l5825.79 0c1600.3,0 2975.33,491.4 4125.57,1474.18 1150.07,982.79 1725.19,2169.25 1725.19,3559.24 0,561.55 -145.86,1116.16 -437.43,1663.83 -291.72,547.52 -662.69,1003.75 -1112.76,1368.87 650.2,379.14 1137.59,930.2 1462.76,1653.18 325.03,723.14 487.54,1421.6 487.54,2095.55 0,1390 -571.26,2576.61 -1712.7,3559.25 -1141.6,982.47 -2513.7,1434.24 -4113.08,1474.17l-7612.5 190.42c2396.52,-531.63 4764.21,-3171.15 5021.7,-4181.38 2004.43,0 1217.15,73.55 3100.69,-7.4 2072.58,-89.28 1905.44,-3027.76 -80.02,-3011.88l-1817.55 14.65 0 -2926.46c3732.08,127.66 3768.78,-3144.02 1197.57,-3342.92 -185.34,-14.34 -997.59,-89.89 -1795.66,-17.89l101.92 4863.66 -4315.99 -0.46 -51.04 -8428.61z"/>
     </clipPath>
      <clipPath id="id1">
       <path d="M14538.09 1542.85l5825.79 0c1600.3,0 2975.33,491.4 4125.57,1474.18 1150.07,982.79 1725.19,2169.25 1725.19,3559.24 0,561.55 -145.86,1116.16 -437.43,1663.83 -291.72,547.52 -662.69,1003.75 -1112.76,1368.87 650.2,379.14 1137.59,930.2 1462.76,1653.18 325.03,723.14 487.54,1421.6 487.54,2095.55 0,1390 -571.26,2576.61 -1712.7,3559.25 -1141.6,982.47 -2513.7,1434.24 -4113.08,1474.17l-7612.5 190.42c2396.52,-531.63 4764.21,-3171.15 5021.7,-4181.38 2004.43,0 1217.15,73.55 3100.69,-7.4 2072.58,-89.28 1905.44,-3027.76 -80.02,-3011.88l-1817.55 14.65 0 -2926.46c3732.08,127.66 3768.78,-3144.02 1197.57,-3342.92 -185.34,-14.34 -997.59,-89.89 -1795.66,-17.89l101.92 4863.66 -4315.99 -0.46 -51.04 -8428.61z"/>
      </clipPath>
      <clipPath id="id2">
       <path d="M14538.09 1542.85l5825.79 0c1600.3,0 2975.33,491.4 4125.57,1474.18 1150.07,982.79 1725.19,2169.25 1725.19,3559.24 0,561.55 -145.86,1116.16 -437.43,1663.83 -291.72,547.52 -662.69,1003.75 -1112.76,1368.87 650.2,379.14 1137.59,930.2 1462.76,1653.18 325.03,723.14 487.54,1421.6 487.54,2095.55 0,1390 -571.26,2576.61 -1712.7,3559.25 -1141.6,982.47 -2513.7,1434.24 -4113.08,1474.17l-7612.5 190.42c2396.52,-531.63 4764.21,-3171.15 5021.7,-4181.38 2004.43,0 1217.15,73.55 3100.69,-7.4 2072.58,-89.28 1905.44,-3027.76 -80.02,-3011.88l-1817.55 14.65 0 -2926.46c3732.08,127.66 3768.78,-3144.02 1197.57,-3342.92 -185.34,-14.34 -997.59,-89.89 -1795.66,-17.89l101.92 4863.66 -4315.99 -0.46 -51.04 -8428.61z"/>
      </clipPath>
    <clipPath id="id3">
     <path d="M10443.81 1660.4c1338.58,0 2604.55,309.98 3730.79,861.65l0 4176.56c-928.91,-1002.28 -2256.55,-1629.86 -3730.79,-1629.86 -2808.73,0 -5085.76,2277.02 -5085.76,5085.76 0,2808.74 2277.03,5085.76 5085.76,5085.76 2242.32,0 4145.28,-1451.35 4821.81,-3465.69l-5057.53 0 0 -1505.9 5320.09 0 1702.2 0 1706.15 0c-61.16,4638.34 -3839.88,8379.94 -8492.72,8379.94 -4690.97,0 -8494.11,-3803.13 -8494.11,-8494.11 0,-4690.98 3803.14,-8494.11 8494.11,-8494.11z"/>
    </clipPath>
     <clipPath id="id4">
      <path d="M10443.81 1660.4c1338.58,0 2604.55,309.98 3730.79,861.65l0 4176.56c-928.91,-1002.28 -2256.55,-1629.86 -3730.79,-1629.86 -2808.73,0 -5085.76,2277.02 -5085.76,5085.76 0,2808.74 2277.03,5085.76 5085.76,5085.76 2242.32,0 4145.28,-1451.35 4821.81,-3465.69l-5057.53 0 0 -1505.9 5320.09 0 1702.2 0 1706.15 0c-61.16,4638.34 -3839.88,8379.94 -8492.72,8379.94 -4690.97,0 -8494.11,-3803.13 -8494.11,-8494.11 0,-4690.98 3803.14,-8494.11 8494.11,-8494.11z"/>
     </clipPath>
     <clipPath id="id5">
      <path d="M10443.81 1660.4c1338.58,0 2604.55,309.98 3730.79,861.65l0 4176.56c-928.91,-1002.28 -2256.55,-1629.86 -3730.79,-1629.86 -2808.73,0 -5085.76,2277.02 -5085.76,5085.76 0,2808.74 2277.03,5085.76 5085.76,5085.76 2242.32,0 4145.28,-1451.35 4821.81,-3465.69l-5057.53 0 0 -1505.9 5320.09 0 1702.2 0 1706.15 0c-61.16,4638.34 -3839.88,8379.94 -8492.72,8379.94 -4690.97,0 -8494.11,-3803.13 -8494.11,-8494.11 0,-4690.98 3803.14,-8494.11 8494.11,-8494.11z"/>
     </clipPath>
  <linearGradient id="id6" gradientUnits="objectBoundingBox" x1="106.073%" y1="4.40099%" x2="0%" y2="101.228%">
   <stop offset="0" style="stop-opacity:1; stop-color:#F449E2"/>
   <stop offset="0" style="stop-opacity:1; stop-color:#F449E2"/>
   <stop offset="1" style="stop-opacity:1; stop-color:#1801D8"/>
  </linearGradient>
 </defs>
 <g id="Camada_x0020_1">
  <metadata id="CorelCorpID_0Corel-Layer"/>
  <g id="_1907269638080">
   <g>
    <path class="fil0" d="M14665.24 1924.29l5825.78 0c1600.3,0 2975.34,491.39 4125.57,1474.17 1150.08,982.79 1725.19,2169.25 1725.19,3559.24 0,561.55 -145.86,1116.16 -437.43,1663.83 -291.72,547.52 -662.69,1003.76 -1112.76,1368.87 650.2,379.14 1137.59,930.21 1462.77,1653.19 325.02,723.13 487.54,1421.6 487.54,2095.55 0,1389.99 -571.27,2576.61 -1712.71,3559.24 -1141.6,982.47 -2513.24,1477.72 -4113.08,1474.17l-8507.08 -18.81c191.19,-42.24 568.02,-123.96 769.23,-172.38 2549.32,-613.66 4910.07,-2870.18 5147.06,-3799.77 2004.42,0 1217.14,73.55 3100.69,-7.4 2072.57,-89.27 1905.43,-3027.76 -80.03,-3011.88l-1817.55 14.65 -127.2 -381.46 127.2 -2545c3732.09,127.66 3768.78,-3144.02 1197.57,-3342.92 -185.33,-14.34 -997.59,-89.89 -1795.66,-17.89l169.15 4611.41 -4315.99 -0.46 -194.43 -129.21 76.17 -8047.14z"/>
   </g>
   <path class="fil1" d="M10660.01 1944.06c1255.66,0 3601.54,725.2 3514.55,577.97l163.32 276.31 0 4140.83c-915.74,-993.71 -2224.54,-1615.92 -3677.87,-1615.92 -2768.9,0 -5013.62,2257.54 -5013.62,5042.13 0,2784.83 2244.72,5042.38 5013.62,5042.38 2210.51,0 4086.48,-1438.94 4753.42,-3436.17l-4985.8 0 0 -1492.89 5244.63 0 1678.06 0 1586.18 -210.01 95.76 210.01c-60.29,4598.66 -3785.41,8308.25 -8372.25,8308.25 -4624.44,0 -8373.63,-3770.6 -8373.63,-8421.57 0,-4650.73 3749.19,-8421.32 8373.63,-8421.32z"/>
  </g>
  <g id="_1907123769328">
   <g>
    <path class="fil2" d="M14538.09 1542.85l5825.79 0c1600.3,0 2975.33,491.4 4125.57,1474.18 1150.07,982.79 1725.19,2169.25 1725.19,3559.24 0,561.55 -145.86,1116.16 -437.43,1663.83 -291.72,547.52 -662.69,1003.75 -1112.76,1368.87 650.2,379.14 1137.59,930.2 1462.76,1653.18 325.03,723.14 487.54,1421.6 487.54,2095.55 0,1390 -571.26,2576.61 -1712.7,3559.25 -1141.6,982.47 -2513.7,1434.24 -4113.08,1474.17l-7612.5 190.42c2396.52,-531.63 4764.21,-3171.15 5021.7,-4181.38 2004.43,0 1217.15,73.55 3100.69,-7.4 2072.58,-89.28 1905.44,-3027.76 -80.02,-3011.88l-1817.55 14.65 0 -2926.46c3732.08,127.66 3768.78,-3144.02 1197.57,-3342.92 -185.34,-14.34 -997.59,-89.89 -1795.66,-17.89l101.92 4863.66 -4315.99 -0.46 -51.04 -8428.61z"/>
    <g style="clip-path:url(#id0)">
     <g>
      <g>
      </g>
     </g>
     <g style="clip-path:url(#id1)">
      <g>
       <g>
        <polygon id="1" class="fil3" points="-25167.25,43617.42 -25167.25,-22986.14 95383.86,-22986.14 95383.86,43617.42 "/>
        <g>
         <path class="fil4 str0" d="M-25167.26 -17577.53c2548.91,3700.99 2444.16,7799.84 0,11279.86"/>
         <path class="fil4 str1" d="M-25167.26 -19154.37c429.67,391.13 838.84,791.74 1224.21,1202.59 4233.25,4512.55 4064.17,9929.32 166.77,14131.27 -419.84,452.11 -883.75,889.71 -1390.98,1310.23m0 33338.64c656.77,1287.09 1050.39,2642.94 1104.16,4042.7 57.42,1500.96 -277.7,3048.77 -1104.16,4611.48"/>
         <path class="fil4 str2" d="M-25167.26 -20139.86c1312.08,962.26 2523.79,1976.11 3565.92,3065.65 4259.84,4453.65 4136.64,9833.15 314.25,14034.72 -727.17,797.8 -1592.22,1551.22 -2589.45,2245.75 -419.11,292.11 -850.73,575.59 -1290.72,853.19m0 28363.82c1847.84,2103.49 3047.53,4503.07 3150.45,7049.66 61.9,1539.75 -280.74,3127.77 -1135.23,4728.98 -457.47,860.68 -984.12,1661.62 -1546.83,2423.86 -153.78,206.94 -310.11,411.14 -468.39,613.05"/>
         <path class="fil4 str3" d="M-25167.26 -21008.52c2161.72,1421.2 4199.51,2907.75 5831.54,4581.98 4284.47,4395.23 4208.98,9736.98 461.47,13938.08 -712.96,797.33 -1563.81,1550.94 -2547.08,2246.5 -1175.66,832.71 -2452.42,1596.28 -3745.93,2352.54m0 24669.57c2918.5,2519.93 4975.96,5659.18 5120.64,9064.65 64.57,1534.15 -263.51,3114.97 -1091.54,4707.55 -442.91,856.6 -952.93,1654.03 -1497.55,2412.95 -159.61,220.32 -322.01,437.41 -486.23,652.13"/>
         <path class="fil4 str4" d="M-25167.26 -21951.71c400.42,253.32 800.12,509.58 1197.5,768.21 2504.24,1630.14 4936.02,3285.21 6833.26,5195.7 4307.54,4337.57 4281.32,9640.81 608.95,13841.52 -698.77,796.86 -1535.78,1550.66 -2504.73,2247.17 -1892.99,1362.69 -4059.56,2543.18 -6134.98,3804.85m0 21462.98l11.41 8.06c3865.72,2718.15 6827.92,6473.68 7013.14,10631.05 67.36,1528.56 -246.39,3102.17 -1047.97,4686.11 -428.45,852.44 -919.3,1647.49 -1448.26,2402.05 -123.2,175.74 -248.22,349.3 -374.45,521.44"/>
         <path class="fil4 str5" d="M-25071.13 -22986.15c1029.03,648.34 2076.63,1321.71 3115.13,2006.56 2526.33,1666.46 5017.59,3319.83 6962.28,5242.83 4329.14,4280.38 4353.78,9544.65 756.3,13744.89 -684.44,796.28 -1507.37,1550.37 -2462.24,2247.83 -2609.6,1909.73 -5762.36,3467.12 -8467.6,5376.75m0 18281.14c679.35,493.84 1371.44,979.33 2049.81,1471.18 3749.2,2712.94 6628.98,6453.1 6822.09,10598.05 70.16,1522.87 -229.04,3089.36 -1004.27,4664.58 -413.89,848.36 -887.5,1640.19 -1398.86,2391.24 -132.79,195.09 -267.76,387.71 -404.07,578.53"/>
         <path class="fil4 str6" d="M-23083.1 -22986.15c1015.07,663.99 2056.12,1350.26 3094.37,2043.74 2548.31,1702.78 5098.67,3354.35 7091.43,5289.87 4348.92,4223.95 4426.12,9448.48 903.65,13648.43 -670.36,795.72 -1479.22,1549.99 -2420.01,2248.4 -2898.83,2156.98 -6497.77,3871.62 -9388.84,6129.22 -476.16,371.78 -933.14,758.73 -1364.76,1165.41m0 14573.23c1247.15,1096.75 2672.23,2091.25 4041.72,3114.4 3632.8,2707.72 6429.93,6432.62 6631.05,10565.04 72.94,1517.28 -211.81,3076.56 -960.58,4643.15 -399.33,844.28 -855.7,1632.7 -1349.58,2380.33 -179.4,271.63 -362.43,538.7 -548.02,802.36"/>
         <path class="fil4 str7" d="M-20918.83 -22986.15c934.84,633.64 1896.38,1283.11 2860.72,1935.34 2570.27,1739.1 5179.38,3388.96 7220.45,5336.91 4367.37,4167.99 4498.46,9352.3 1051.12,13551.79 -656.16,795.24 -1451.06,1549.7 -2377.64,2249.16 -2855.39,2160.86 -6420.83,3884.98 -9299.51,6132.82 -915.18,714.63 -1760.57,1483.41 -2493.32,2340.21 -462.57,540.22 -867.12,1108.98 -1210.25,1696.33m0 9218.96c1442.32,2129 3791.44,3747.47 5996.98,5447.12 3516.28,2702.41 6230.98,6412.04 6440.12,10532.04 75.61,1511.58 -194.69,3063.66 -917,4621.62 -384.77,840.2 -824.03,1625.29 -1300.19,2369.51 -255.38,399.1 -518.4,788.61 -785.31,1171.77"/>
         <path class="fil4 str8" d="M-18618.63 -22986.15c804.97,561.84 1631.91,1132.31 2464.55,1702.31 2592,1775.43 5259.49,3423.68 7349.36,5383.95 4384.36,4112.8 4570.92,9256.33 1198.47,13455.34 -641.96,794.67 -1422.78,1549.33 -2335.17,2249.73 -2812.05,2164.75 -6343.86,3898.36 -9210.17,6136.52 -911.18,711.59 -1754.99,1475.54 -2488.59,2325.32 -2260.39,2614.49 -3172.05,5886.42 -2342.44,8731.38 120.04,409.62 275.76,810.89 468.39,1200.41 1267.29,2555.5 3855.65,4371.71 6272.5,6295 3399.76,2697.19 6031.93,6391.55 6249.07,10499.03 78.41,1505.99 -181.7,3049.72 -873.18,4600.19 -372.63,835.45 -792.35,1617.8 -1251.03,2358.61 -353.81,571.51 -722.55,1123.68 -1095.54,1665.79"/>
         <path class="fil4 str9" d="M-16212.09 -22986.15c637.1,453.91 1288.17,910.76 1945.06,1365.81 2614.08,1811.85 5339.47,3458.39 7478.37,5431.09 4400.15,4058.08 4643.38,9160.07 1345.95,13358.69 -627.76,794.2 -1394.62,1549.05 -2292.81,2250.4 -2768.6,2168.64 -6266.79,3911.73 -9120.84,6140.22 -907.29,708.46 -1749.28,1467.57 -2483.73,2310.43 -2264.04,2593.44 -3210.9,5826.29 -2448.29,8641.66 110.46,405.35 255.87,802.55 437.69,1188.36 1195.19,2531.13 3687.05,4341.27 6020.64,6261.14 3283.36,2691.98 5832.99,6371.07 6058.15,10466.03 81.08,1500.3 -164.95,3036.82 -829.61,4578.75 -358.3,831.29 -760.55,1610.31 -1201.63,2347.71 -467.78,782.06 -962.03,1528.93 -1456.76,2263.29"/>
         <path class="fil4 str10" d="M-13720.23 -22986.15c438.9,316.11 884.23,632.31 1333.32,946.99 2636.06,1848.08 5419.1,3493.11 7607.52,5478.04 4414.47,4004.01 4715.6,9063.99 1493.17,13262.14 -613.43,793.73 -1366.33,1548.76 -2250.32,2251.16 -2725.27,2172.34 -6189.72,3925.1 -9031.39,6143.82 -903.52,705.43 -1743.57,1459.8 -2478.99,2295.54 -2267.68,2572.38 -3249.86,5766.07 -2554.13,8552.03 100.86,400.99 236.08,794.21 406.73,1176.32 1123.47,2506.66 3518.71,4310.73 5769.03,6227.19 3166.84,2686.67 5634.06,6350.58 5867.23,10433.12 83.87,1494.6 -148.21,3023.83 -785.92,4557.22 -344.1,827.21 -728.99,1602.91 -1152.35,2336.89 -590.37,1023.44 -1223.96,1987.4 -1844.44,2943.12"/>
         <path class="fil4 str11" d="M-11157 -22986.15c216.41,155.92 434.28,311.65 653.25,466.81 2657.9,1884.4 5498.11,3528.01 7736.42,5525.08 4427.7,3950.52 4788.18,8967.82 1640.65,13165.59 -599.24,793.16 -1338.06,1548.48 -2207.96,2251.73 -2681.82,2176.32 -6112.65,3938.47 -8941.94,6147.61 -899.64,702.4 -1737.99,1451.83 -2474.26,2280.56 -2271.32,2551.33 -3288.7,5705.94 -2659.85,8462.31 91.28,396.72 216.17,785.95 375.91,1164.37 1051.6,2482.19 3350.23,4280.19 5517.17,6193.33 3050.43,2681.45 5435.12,6330 5676.3,10400.11 86.66,1488.92 -131.33,3010.93 -742.34,4535.7 -329.78,823.03 -697.19,1595.42 -1102.95,2326.08 -714.67,1286.52 -1493.54,2481.05 -2230.78,3684.3"/>
         <path class="fil4 str12" d="M-8532.6 -22986.15c2658.64,1897.78 5523.12,3528.1 7790.32,5518.54 4439.59,3897.5 4860.52,8871.65 1788.12,13069.04 -585.16,792.59 -1310.02,1548.1 -2165.73,2252.39 -2638.36,2180.12 -6035.57,3951.85 -8852.48,6151.22 -895.76,699.36 -1732.28,1443.96 -2469.65,2265.76 -2274.84,2530.18 -3327.41,5645.72 -2765.44,8372.59 81.57,392.46 196.14,777.61 344.95,1152.33 979.75,2457.72 3181.89,4249.65 5265.56,6159.37 2933.92,2676.24 5236.07,6309.52 5485.25,10367.11 89.46,1483.32 -114.58,2998.13 -698.64,4514.26 -315.46,818.96 -665.51,1587.93 -1053.67,2315.17 -833.74,1561.76 -1756.44,2990.64 -2588.84,4465.8"/>
         <path class="fil4 str13" d="M-5850.05 -22986.15c2462.61,1704.59 5056.42,3212.28 7155.51,5025.93 4450.52,3845.15 4932.99,8775.58 1935.47,12972.5 -570.83,792.11 -1281.74,1547.81 -2123.24,2253.14 -2595.03,2183.91 -5958.62,3965.13 -8763.15,6154.83 -891.87,696.32 -1726.7,1436.18 -2464.79,2250.77 -2278.6,2509.22 -3366.38,5585.68 -2871.41,8282.97 72.1,388.19 176.36,769.36 314.25,1140.28 907.89,2433.34 3013.41,4219.21 5013.7,6125.61 2817.52,2670.93 5037.25,6288.93 5294.33,10334.01 92.24,1477.73 -97.71,2985.23 -654.83,4492.83 -301.26,814.78 -633.83,1580.43 -1004.51,2304.26 -941.4,1838.79 -1998.1,3497.47 -2894.71,5266.45"/>
         <path class="fil4 str14" d="M-3121.02 -22986.15c2254.81,1516.8 4580.26,2898.73 6504.57,4535.32 4460.22,3793.37 5016.37,8684.15 2082.82,12875.85 -554.57,792.49 -1253.45,1547.53 -2080.88,2253.81 -2551.58,2187.8 -5881.54,3978.5 -8673.81,6158.62 -887.87,693.19 -1720.88,1428.21 -2460.06,2235.79 -2282.13,2488.16 -3405.1,5525.45 -2977.01,8193.25 62.51,383.92 156.46,761 283.3,1128.33 836.04,2408.97 2845.06,4188.66 4762.09,6091.66 2700.99,2665.7 4838.07,6268.44 5103.27,10301.09 94.92,1472.04 -80.83,2972.43 -611.25,4471.3 -286.81,810.7 -602.03,1572.85 -955.11,2293.45 -1032.79,2108.14 -2206.75,3984.95 -3132.85,6065.11"/>
         <path class="fil4 str15" d="M-362.38 -22986.15c2044.96,1343.15 4117.22,2601.12 5868.68,4067.65 4469.09,3742.16 5089.45,8588.17 2230.3,12779.31 -540.25,792.02 -1225.3,1547.24 -2038.52,2254.47 -2508.25,2191.69 -5804.47,3991.87 -8584.36,6162.22 -883.99,690.16 -1715.29,1420.35 -2455.33,2221 -2285.76,2467.01 -3443.94,5465.23 -3082.84,8103.53 52.92,379.65 136.67,752.66 252.46,1116.28 764.19,2384.5 2676.6,4158.23 4510.36,6057.8 2584.47,2660.4 4639.13,6247.87 4912.35,10268.1 97.71,1466.34 -63.97,2959.52 -567.56,4449.77 -272.61,806.62 -570.47,1565.45 -905.83,2282.64 -1104.16,2361.26 -2372.43,4439.33 -3295.37,6840.81"/>
         <path class="fil4 str16" d="M2398.82 -22986.15c1846.38,1191.02 3692.16,2332.53 5282.8,3644 4476.85,3691.51 5162.38,8492.19 2377.64,12682.85 -525.92,791.45 -1197.14,1546.77 -1996.16,2255.04 -2464.79,2195.58 -5727.39,4005.25 -8495.02,6166.02 -880.11,687.03 -1709.59,1412.37 -2450.48,2206.01 -2289.4,2445.96 -3482.78,5405.1 -3188.56,8013.81 43.33,375.38 116.77,744.41 221.51,1104.33 692.46,2360.03 2508.13,4127.69 4258.62,6023.85 2468.07,2655.27 4440.2,6227.38 4721.43,10235.09 100.38,1460.74 -47.09,2946.72 -523.98,4428.33 -258.17,802.55 -538.67,1557.86 -856.44,2271.74 -1153.44,2591.35 -2488.34,4850.47 -3382.64,7572.51"/>
         <path class="fil4 str17" d="M5134.89 -22986.15c1674.03,1066.11 3331.67,2105.95 4784.3,3285.59 4483.65,3641.25 5235.46,8396.12 2525,12586.21 -511.6,790.98 -1168.74,1546.48 -1953.8,2255.8 -2421.34,2199.37 -5650.32,4018.62 -8405.57,6169.62 -876.1,684 -1703.88,1404.51 -2445.62,2191.12 -2293.17,2424.81 -3521.74,5344.97 -3294.4,7924.09 33.74,371.11 96.86,736.16 190.68,1092.38 620.48,2335.57 2339.78,4097.15 4006.89,5989.9 2351.55,2649.96 4241.26,6206.89 4530.38,10202.08 103.29,1455.15 -30.23,2933.92 -480.17,4406.9 -243.97,798.38 -507.11,1550.28 -807.27,2260.83 -1179.3,2792.7 -2551.1,5210.11 -3401.58,8239.06"/>
         <path class="fil4 str18" d="M7817.07 -22986.15c1543.06,973.45 3062.7,1933.91 4411.92,3013.3 4489.72,3591.64 5308.4,8300.04 2672.47,12489.76 -497.28,790.4 -1140.58,1546.19 -1911.44,2256.37 -2377.89,2203.26 -5573.25,4031.99 -8316.12,6173.32 -872.33,680.96 -1698.3,1396.63 -2441,2176.22 -2296.69,2403.76 -3560.58,5284.76 -3400.12,7834.47 24.15,366.75 76.95,727.72 159.85,1080.24 548.62,2311.19 2171.31,4066.71 3755.15,5956.14 2235.03,2644.65 4042.2,6186.31 4339.45,10169.08 105.97,1449.46 -13.35,2921.11 -436.59,4385.37 -229.52,794.29 -475.43,1542.59 -757.87,2250.01 -1182.21,2960.85 -2559.96,5512.09 -3361.89,8819.3"/>
         <path class="fil4 str19" d="M10417.2 -22986.15c1468.05,918.45 2911.22,1829.68 4203.88,2848.47 4494.7,3542.51 5381.23,8203.87 2819.82,12393.01 -483.08,789.94 -1112.42,1545.92 -1869.08,2257.13 -2334.56,2207.06 -5496.29,4045.37 -8226.78,6177.02 -868.45,677.93 -1692.6,1388.76 -2436.27,2161.25 -2300.33,2382.69 -3599.3,5224.62 -3505.84,7744.84 14.56,362.48 57.04,719.37 128.9,1068.19 476.89,2286.82 2002.95,4036.17 3503.53,5922.28 2118.63,2639.43 3843.27,6165.73 4148.41,10136.07 108.76,1443.77 3.52,2908.22 -392.89,4363.84 -215.2,790.22 -443.76,1535.11 -708.48,2239.21 -1162.79,3092.11 -2515.77,5751.37 -3273.28,9292.27"/>
         <path class="fil4 str20" d="M12910.52 -22986.15c1462.71,907.07 2902.72,1806.35 4197.44,2811.86 4499.07,3493.95 5454.18,8107.8 2967.18,12296.56 -468.64,789.37 -1084.14,1545.54 -1826.6,2257.7 -2291.23,2210.94 -5419.34,4058.74 -8137.45,6180.72 -864.57,674.89 -1686.89,1380.89 -2431.42,2146.35 -2303.97,2361.65 -3638.26,5164.49 -3611.68,7655.12 4.98,358.22 37.26,711.12 98.07,1056.25 405.04,2262.34 1829.51,4007.99 3251.8,5888.32 1995.07,2637.54 3644.21,6145.25 3957.37,10103.07 111.54,1438.17 20.63,2895.51 -349.2,4342.41 -200.76,786.14 -412.08,1527.42 -659.2,2228.29 -1122.13,3182.97 -2421.22,5922.37 -3144.5,9636.93"/>
         <path class="fil4 str21" d="M15279.91 -22986.15c1540.27,946.61 3064.88,1877.39 4433.4,2924.72 4502.71,3445.87 5527.01,8011.72 3114.65,12200.01 -454.44,788.89 -1055.98,1545.25 -1784.36,2258.46 -2247.65,2214.74 -5342.15,4072.01 -8048,6184.32 -860.56,671.86 -1681.18,1373.02 -2426.68,2131.47 -2307.49,2340.59 -3677.1,5104.26 -3717.4,7565.4 -4.61,353.94 17.36,702.87 67.24,1044.2 333.18,2237.88 1660.8,3977.46 3000.07,5854.46 1878.18,2632.23 3445.27,6124.67 3766.44,10070.07 114.33,1432.58 37.5,2882.7 -305.51,4320.97 -186.56,782.06 -380.64,1519.74 -609.92,2217.39 -1061.8,3229.44 -2280.42,6018.44 -2981.01,9832.11"/>
         <path class="fil4 str22" d="M17495.03 -22986.15c1711.17,1047.53 3424.4,2056.64 4951.2,3208.2 4505.5,3398.26 5599.95,7915.56 3261.99,12103.37 -439.99,788.42 -1027.69,1544.97 -1741.87,2259.12 -2204.32,2218.63 -5265.2,4085.39 -7958.67,6188.02 -856.67,668.82 -1675.48,1365.15 -2421.94,2116.58 -2311.14,2319.53 -3715.83,5044.04 -3823.12,7475.68 -14.2,349.68 -2.55,694.52 36.41,1032.25 261.32,2213.41 1491.96,3946.92 2748.21,5820.51 1761.42,2626.91 3246.46,6104.18 3575.63,10037.06 116.89,1426.89 54.38,2869.99 -261.93,4299.54 -172.11,777.98 -348.96,1512.05 -560.64,2206.58 -983.63,3227.26 -2098.11,6031.24 -2784.74,9856.67"/>
         <path class="fil4 str23" d="M19530.52 -22986.15c1978.44,1225.45 4002.76,2359.28 5783.59,3683.17 4507.69,3351.22 5672.66,7819.38 3409.47,12006.91 -425.91,787.85 -999.53,1544.59 -1699.63,2259.79 -2160.87,2222.42 -5188,4098.76 -7869.21,6191.62 -852.79,665.79 -1669.9,1357.28 -2417.22,2101.69 -2314.77,2298.48 -3754.66,4983.91 -3928.84,7386.05 -23.91,345.32 -22.45,686.18 5.47,1020.21 189.46,2189.03 1323.36,3916.38 2496.59,5786.65 1644.53,2621.6 3047.4,6083.6 3384.47,10004.06 119.79,1421.19 71.49,2857.19 -218.12,4278.01 -157.79,773.9 -317.4,1504.46 -511.36,2195.67 -889.45,3171.11 -1880.49,5950.06 -2554.25,9689.75"/>
         <path class="fil4 str24" d="M21387.7 -22986.15c2326.31,1506.84 4799.96,2804.65 6937.16,4370.96 4509.02,3304.55 5745.36,7723.12 3556.82,11910.27 -411.59,787.37 -971.38,1544.3 -1657.16,2260.45 -2117.53,2226.3 -5111.04,4112.13 -7779.87,6195.32 -848.91,662.66 -1664.2,1349.4 -2412.36,2086.79 -2318.54,2277.33 -3793.75,4923.79 -4034.8,7296.34 -33.38,341.05 -42.24,677.93 -25.25,1008.16 117.62,2164.57 1154.66,3885.84 2244.74,5752.8 1527.77,2616.29 2848.47,6063.11 3193.54,9971.05 122.59,1415.6 88.48,2844.48 -174.42,4256.48 -143.34,769.92 -285.84,1496.78 -462.08,2184.86 -781.66,3053.89 -1633.85,5760.28 -2285.64,9310.1"/>
         <path class="fil4 str25" d="M23120.96 -22986.15c2707.18,1933.44 5773.64,3419.7 8365.76,5292.43 4509.87,3258.37 5818.06,7626.96 3704.05,11813.73 -397.27,786.8 -943.1,1544.02 -1614.8,2261.11 -2073.96,2230.2 -5033.85,4125.51 -7690.29,6199.02 -845.03,659.62 -1658.62,1341.53 -2407.63,2071.81 -2322.18,2256.37 -3832.47,4863.66 -4140.52,7206.62 -42.97,336.87 -62.14,669.67 -56.2,996.21 45.76,2140.19 986.07,3855.21 1993.13,5718.94 1410.88,2610.88 2649.41,6042.53 3002.61,9938.04 125.26,1409.91 105.48,2831.68 -130.84,4235.05 -129.03,765.84 -254.41,1489.01 -412.68,2173.95 -662.84,2867.15 -1366.95,5442.38 -1975.41,8696.67"/>
         <path class="fil4 str26" d="M24848.03 -22986.15c95.4,79.67 191.53,158.86 288.39,237.58 2986.95,2429.65 6640.15,4071.82 9671.65,6231.17 4510.35,3212.75 5891.01,7530.79 3851.64,11717.18 -383.06,786.23 -914.94,1543.64 -1572.43,2261.77 -2030.75,2233.99 -4956.9,4138.88 -7600.97,6202.72 -841.14,656.59 -1652.78,1333.57 -2402.89,2056.92 -2325.7,2235.22 -3871.31,4803.43 -4246.24,7116.9 -52.55,332.61 -82.05,661.33 -87.03,984.26 -26.09,2115.72 817.35,3824.58 1741.39,5684.89 1294.12,2605.58 2450.48,6022.14 2811.57,9905.14 128.05,1404.31 122.59,2818.96 -87.15,4213.51 -114.58,761.86 -222.84,1481.42 -363.4,2163.14 -535.75,2599.8 -1087.9,4971.87 -1621.83,7828.4"/>
         <path class="fil4 str27" d="M26757.52 -22986.15c567.92,563.36 1180.75,1113.06 1827.21,1642.56 3008.92,2465.97 6713.34,4109.95 9800.67,6278.21 4510.11,3167.52 5963.6,7434.52 3998.99,11620.63 -368.74,785.67 -886.65,1543.35 -1530.07,2262.44 -1987.3,2237.78 -4879.94,4152.25 -7511.63,6206.32 -837.14,653.56 -1647.08,1325.79 -2398.04,2042.13 -2329.34,2214.17 -3910.15,4743.2 -4352.08,7027.17 -62.02,328.25 -101.83,652.99 -117.85,972.22 -97.95,2091.26 648.75,3793.94 1489.65,5651.03 1177.35,2600.17 2251.54,6001.56 2620.64,9872.13 130.85,1398.63 139.59,2806.17 -43.45,4192.09 -100.14,757.68 -191.41,1473.64 -314.12,2152.23 -404.67,2238.64 -808.25,4317.75 -1232.95,6684.42"/>
         <path class="fil4 str28" d="M29002.99 -22986.15c863.96,1039.94 1901.12,2051.33 3047.04,2996.89 3030.77,2502.3 6786.16,4148.37 9929.7,6325.35 4509.38,3122.66 6036.3,7338.16 4146.46,11523.99 -354.54,785.19 -858.49,1543.07 -1487.71,2263.1 -1943.85,2241.67 -4802.87,4165.62 -7422.3,6210.12 -833.37,650.42 -1641.5,1317.82 -2393.43,2027.14 -2332.73,2193.02 -3948.74,4682.98 -4457.67,6937.45 -71.61,323.98 -121.62,644.74 -148.69,960.18 -169.8,2066.88 480.17,3763.4 1237.92,5617.17 1060.71,2594.76 2052.48,5981.07 2429.6,9839.12 133.51,1393.03 156.69,2793.56 0.24,4170.65 -85.69,753.71 -159.97,1465.87 -264.84,2141.33 -292.04,1882.7 -573.75,3659.36 -885.81,5591.09"/>
         <path class="fil4 str29" d="M31527.5 -22986.15c975.14,1423.76 2304.46,2815.65 3833.2,4086.34 3052.86,2538.62 6858.87,4187.24 10058.96,6372.29 4508.05,3078.46 6108.76,7241.99 4293.7,11427.53 -340.22,784.63 -830.22,1542.69 -1445.24,2263.77 -1900.51,2245.56 -4725.91,4179 -7332.84,6213.72 -829.49,647.39 -1635.91,1309.95 -2388.69,2012.25 -2336.62,2171.96 -3987.83,4622.95 -4563.52,6847.83 -81.32,319.71 -141.64,636.39 -179.64,948.13 -241.66,2042.51 311.58,3732.67 986.19,5583.31 943.94,2589.27 1853.66,5960.5 2238.79,9806.12 136.31,1387.34 173.81,2780.75 43.82,4149.12 -71.25,749.63 -128.54,1458.19 -215.45,2130.52 -207.55,1606.61 -400.66,3141.24 -621.81,4762.65"/>
         <path class="fil4 str30" d="M34213.08 -22986.15c975.38,1719.19 2500.24,3412.49 4313,4929.95 3074.71,2574.85 6930.96,4226.23 10187.86,6419.34 4506.47,3034.54 6181.47,7145.63 4441.17,11330.89 -326.02,784.14 -801.94,1542.5 -1402.87,2264.43 -1857.06,2249.44 -4648.85,4192.36 -7243.51,6217.42 -825.61,644.44 -1630.09,1302.17 -2383.84,1997.36 -2340.26,2150.9 -4026.67,4562.72 -4669.36,6758.11 -90.91,315.44 -161.55,628.13 -210.46,936.18 -313.4,2018.03 142.98,3702.03 734.57,5549.45 827.18,2583.76 1654.6,5939.91 2047.74,9773.02 138.98,1381.75 190.93,2768.14 87.39,4127.69 -56.68,745.64 -97.22,1450.41 -166.04,2119.7 -145.17,1409.72 -273.82,2768.04 -426.64,4180.04"/>
         <path class="fil4 str31" d="M36974.15 -22986.15c923.07,1934.58 2570.15,3852.08 4580.76,5546.7 3096.68,2611.27 7002.82,4265.78 10316.89,6466.48 4504.28,2991.01 6253.92,7049.37 4588.64,11234.34 -311.82,783.48 -773.78,1542.12 -1360.63,2265.09 -1813.61,2253.24 -4571.77,4205.65 -7154.06,6221.12 -821.72,641.32 -1624.51,1294.21 -2379.1,1982.38 -2343.79,2129.94 -4065.51,4502.59 -4775.08,6668.48 -100.5,311.08 -181.34,619.79 -241.3,924.14 -385.37,1993.56 -25.61,3671.3 482.72,5515.49 710.66,2578.27 1455.67,5919.43 1856.82,9740.12 141.76,1376.05 208.04,2755.33 131.08,4106.15 -42.24,741.57 -65.78,1442.64 -116.76,2108.8 -98.44,1288.04 -178.55,2536.72 -280.62,3824.29"/>
         <path class="fil4 str32" d="M39749.92 -22986.15c860.19,2078.45 2573.67,4146.09 4706.37,5955.85 3118.65,2647.59 7074.32,4305.61 10445.91,6513.52 4501.74,2948.04 6326.4,6953 4736,11137.78 -297.62,783.02 -745.62,1541.75 -1318.27,2265.76 -1770.16,2257.13 -4494.58,4219.02 -7064.61,6224.82 -817.71,638.19 -1618.8,1286.34 -2374.36,1967.49 -2347.43,2108.79 -4104.35,4442.37 -4880.8,6578.76 -110.09,306.81 -201.24,611.44 -272.25,912.09 -457.1,1969.1 -193.96,3640.58 231.1,5481.64 594.02,2572.76 1256.61,5898.85 1665.78,9707.11 144.55,1370.36 225.27,2742.62 174.78,4084.63 -27.68,737.58 -34.47,1434.95 -67.49,2097.98 -61.29,1235.88 -101.1,2438.75 -164.34,3676.15"/>
         <path class="fil4 str33" d="M42502.37 -22986.15c811.89,2158.78 2548.55,4306.84 4736.97,6176.36 3140.62,2684.01 7145.44,4345.82 10574.93,6560.55 4498.95,2905.47 6398.85,6856.75 4883.47,11041.24 -283.42,782.44 -717.34,1541.46 -1275.91,2266.43 -1726.83,2260.92 -4417.63,4232.39 -6975.27,6228.51 -813.83,635.16 -1613.1,1278.37 -2369.52,1952.6 -2351.06,2087.74 -4143.19,4382.24 -4986.63,6489.04 -119.68,302.55 -221.15,603.19 -303.08,900.14 -528.96,1944.63 -362.55,3609.85 -20.63,5447.69 477.49,2567.26 1057.67,5878.36 1474.84,9674.1 147.35,1364.77 242.51,2730.01 218.48,4063.2 -13.23,733.5 -3.28,1427.08 -18.21,2087.08 -28.15,1246.5 -29.73,2462.84 -60.2,3716.64"/>
         <path class="fil4 str34" d="M45211.5 -22986.15c788.95,2181.92 2515.16,4347.25 4701.76,6227.38 3162.59,2720.24 7216.2,4386.32 10704.08,6607.6 4495.55,2863.16 6471.2,6760.39 5030.7,10944.69 -269.09,781.87 -689.06,1541.17 -1233.43,2267.09 -1683.37,2264.81 -4340.55,4245.76 -6885.94,6232.21 -809.94,632.12 -1607.39,1270.5 -2364.78,1937.61 -2354.7,2066.69 -4182.03,4322.11 -5092.35,6399.33 -129.27,298.37 -241.06,594.94 -333.91,888.19 -600.81,1920.25 -531.02,3579.22 -272.37,5413.83 360.98,2561.76 858.62,5857.78 1283.8,9641.1 150.14,1359.07 259.87,2717.2 262.18,4041.76 1.33,729.42 27.91,1419.3 31.19,2076.17 6.43,1312.89 47.34,2596.18 47.09,3926.62"/>
         <path class="fil4 str35" d="M47873.53 -22986.15c791.37,2153.76 2478.15,4280.1 4613.64,6127.99 3184.56,2756.56 7286.73,4427.29 10833.11,6654.73 4492.02,2821.34 6543.53,6663.93 5178.04,10848.05 -254.89,781.3 -660.77,1540.79 -1190.94,2267.75 -1640.04,2268.61 -4263.6,4259.14 -6796.48,6235.82 -806.19,629.08 -1601.81,1262.72 -2360.05,1922.81 -2358.47,2045.54 -4220.99,4261.8 -5198.2,6309.61 -138.85,294.01 -260.96,586.59 -364.85,876.15 -672.67,1895.78 -699.38,3548.48 -524.11,5379.97 244.58,2556.16 659.8,5837.29 1092.88,9607.99 152.93,1353.49 277.1,2704.6 305.87,4020.33 15.9,725.44 59.11,1411.62 80.47,2065.36 46.61,1427.36 140.31,2824.47 168.71,4287.02"/>
         <path class="fil4 str36" d="M50491.62 -22986.15c811.65,2079.21 2436.03,4118.49 4478.8,5897.14 3206.4,2792.99 7356.63,4468.64 10962,6701.87 4488.02,2779.9 6615.76,6567.58 5325.52,10751.5 -240.81,780.74 -632.61,1540.51 -1148.71,2268.42 -1596.58,2272.49 -4186.52,4272.51 -6707.02,6239.42 -802.3,626.05 -1596.23,1254.85 -2355.32,1907.93 -2361.98,2024.48 -4259.83,4201.75 -5304.03,6219.98 -148.32,289.74 -280.75,578.25 -395.57,864.1 -744.52,1871.41 -867.72,3517.76 -775.84,5346.01 128.18,2550.67 460.75,5816.81 901.95,9575.09 155.61,1347.89 294.34,2691.89 349.45,3998.8 30.46,721.46 90.3,1403.84 129.75,2054.55 96.01,1582.05 258.04,3132.99 311.33,4778.77"/>
         <path class="fil4 str37" d="M53077.06 -22986.15c838.72,1963.79 2379.23,3875.98 4294.79,5554.1 3228.38,2829.31 7426.55,4510.47 11091.15,6748.91 4483.9,2738.93 6687.97,6471.31 5472.87,10654.96 -226.61,780.16 -604.45,1540.22 -1106.34,2269.08 -1553.14,2276.28 -4109.45,4285.88 -6617.7,6243.21 -798.29,622.92 -1590.4,1246.88 -2350.46,1892.94 -2365.63,2003.43 -4298.67,4141.53 -5409.75,6130.26 -157.91,285.47 -300.65,570 -426.52,852.15 -816.38,1846.94 -1035.95,3487.03 -1027.45,5312.07 11.77,2545.16 261.69,5796.32 710.9,9542.17 158.4,1342.1 311.82,2679.08 393.14,3977.27 45.03,717.38 121.38,1396.07 179.03,2043.64 157.67,1768.89 407.83,3506.48 476.04,5382.82"/>
         <path class="fil4 str38" d="M55641.87 -22986.15c860.44,1812.9 2298.63,3566.32 4059.2,5117.93 3250.34,2865.63 7495.85,4552.57 11220.05,6795.85 4479.53,2698.34 6760.31,6374.96 5620.34,10558.41 -212.4,779.69 -576.17,1539.94 -1063.98,2269.84 -1509.68,2280.17 -4032.38,4299.16 -6528.24,6246.82 -794.41,619.88 -1584.82,1239 -2345.73,1878.05 -2369.27,1982.37 -4337.51,4081.4 -5515.59,6040.54 -167.5,281.2 -320.43,561.74 -457.23,840.1 -888.23,1822.57 -1204.42,3456.4 -1279.31,5278.3 -104.5,2539.57 62.76,5775.75 519.98,9509.08 161.07,1336.51 329.18,2666.47 436.84,3955.83 59.59,713.4 152.32,1388.29 228.31,2032.83 233.28,1979.72 595.47,3929.76 657.37,6080"/>
         <path class="fil4 str39" d="M58198.43 -22986.15c866.38,1633.17 2185.02,3203.55 3768.74,4607.59 3272.19,2902.05 7564.92,4595.25 11349.08,6842.99 4474.79,2658.02 6832.41,6278.59 5767.69,10461.85 -198.33,779.03 -548.02,1539.56 -1021.51,2270.41 -1466.47,2284.07 -3955.42,4312.63 -6438.9,6250.52 -790.53,616.85 -1579.11,1231.14 -2341.11,1863.16 -2372.79,1961.32 -4376.24,4021.18 -5621.2,5950.82 -177.21,276.94 -340.34,553.4 -488.17,828.16 -960.09,1798.09 -1372.65,3425.67 -1531.05,5244.34 -220.66,2534.07 -136.18,5755.26 328.93,9476.08 163.98,1330.91 346.66,2653.75 480.66,3934.4 74.16,709.32 183.4,1380.51 277.58,2021.92 324.2,2206.39 824.88,4388.5 844.54,6851.34"/>
         <path class="fil4 str40" d="M60757.41 -22986.15c847.94,1431.16 2031,2802.09 3421.85,4042.24 3294.16,2938.37 7633.74,4638.31 11478.22,6890.03 4469.93,2618.1 6904.51,6182.24 5915.04,10365.31 -184.12,778.46 -519.73,1539.27 -979.14,2271.07 -1423.02,2287.86 -3878.35,4326 -6349.45,6254.22 -786.64,613.81 -1573.53,1223.26 -2336.38,1848.27 -2376.43,1940.17 -4415.07,3961.05 -5726.91,5861.19 -186.8,272.58 -360.25,545.06 -519.13,816.11 -1031.94,1773.63 -1540.75,3394.94 -1782.66,5210.4 -336.94,2528.56 -335.24,5734.67 137.89,9443.16 166.77,1325.22 364.13,2640.95 524.22,3912.87 88.85,705.24 214.47,1372.73 326.99,2011.02 430.64,2441.78 1098.7,4869.15 1022.36,7677.69"/>
         <path class="fil4 str41" d="M63325.74 -22986.15c800.36,1214.64 1833.88,2376.25 3021.18,3440.94 3316.13,2974.7 7702.08,4681.94 11607.13,6937.17 4464.83,2578.55 6976.48,6085.78 6062.51,10268.67 -169.92,777.98 -491.57,1538.99 -936.78,2271.83 -1379.57,2291.74 -3801.27,4339.27 -6260.12,6257.82 -782.76,610.78 -1567.82,1215.39 -2331.52,1833.38 -2380.08,1919.11 -4454.04,3900.82 -5832.75,5771.47 -196.27,268.31 -380.16,536.71 -549.96,804.07 -1103.8,1749.25 -1708.98,3364.31 -2034.39,5176.63 -453.1,2523.06 -534.18,5714.1 -53.05,9410.06 169.45,1319.63 381.49,2628.34 567.92,3891.34 103.54,701.36 245.31,1365.06 376.27,2000.21 552.27,2679.08 1415.74,5359.86 1171.77,8539.99"/>
         <path class="fil4 str42" d="M65906.57 -22986.15c721.83,991.47 1594.28,1940.65 2572.58,2822.86 3338.1,3011.02 7770.28,4725.85 11736.26,6984.21 4459.5,2539.38 7048.46,5989.42 6209.87,10172.12 -155.85,777.32 -463.29,1538.61 -894.42,2272.4 -1336.12,2295.63 -3724.2,4352.74 -6170.67,6261.61 -778.87,607.75 -1562.11,1207.52 -2326.79,1818.4 -2383.83,1898.06 -4492.87,3840.69 -5938.59,5681.85 -205.85,263.94 -399.93,528.36 -580.78,792.02 -1175.54,1724.78 -1877.22,3333.67 -2286.13,5142.68 -569.14,2517.65 -733.12,5693.61 -243.97,9377.06 172.23,1314.02 398.97,2615.63 611.62,3870 118.1,697.18 276.25,1357.27 425.54,1989.29 688.21,2912.68 1775.62,5850.29 1275.55,9419.08"/>
         <path class="fil4 str43" d="M68498.45 -22986.15c614.77,769.64 1317.66,1509.4 2087.07,2206.96 3359.94,3047.35 7838.01,4770.43 11865.16,7031.25 4454.16,2500.59 7120.44,5893.07 6357.35,10075.57 -141.77,776.85 -435.14,1538.33 -852.07,2273.16 -1292.78,2299.43 -3647.24,4366.02 -6081.33,6265.22 -774.99,604.61 -1556.41,1199.65 -2322.05,1803.5 -2387.36,1877.01 -4531.72,3780.57 -6044.19,5592.13 -215.57,259.77 -419.97,520.11 -611.74,780.07 -1247.39,1700.32 -2045.32,3302.95 -2537.87,5108.82 -685.17,2512.16 -932.05,5673.03 -434.89,9344.06 174.91,1308.24 416.57,2602.82 655.19,3848.38 132.91,693.19 307.09,1349.68 474.95,1978.48 837.13,3137.83 2175.07,6331.14 1317.79,10295.98"/>
         <path class="fil4 str44" d="M71095.05 -22986.15c484.42,557.39 1013.98,1096.46 1579.96,1612.4 3382.04,3083.67 7905.5,4815.38 11994.32,7078.3 4448.57,2462.17 7192.29,5796.7 6504.69,9979.01 -127.69,776.28 -406.98,1538.05 -809.7,2273.83 -1249.33,2303.22 -3570.17,4379.39 -5991.88,6268.91 -771.11,601.58 -1550.83,1191.69 -2317.32,1788.62 -2391,1855.85 -4570.56,3720.34 -6150.03,5502.31 -225.03,255.51 -439.75,511.86 -642.57,768.12 -1319.24,1675.95 -2213.42,3272.32 -2789.6,5074.87 -801.21,2506.85 -1130.99,5652.54 -625.94,9311.15 177.82,1302.64 434.17,2590.11 699.01,3826.94 147.59,689.12 337.91,1341.91 524.23,1967.58 997.23,3350.08 2608.26,6795 1286.47,11151.54"/>
         <path class="fil4 str45" d="M73685.47 -22986.15c339.49,362.01 697.56,715.3 1071.76,1058.24 3403.88,3120.09 7972.5,4860.81 12123.21,7125.43 4442.99,2423.96 7264.15,5700.35 6652.17,9882.38 -113.61,775.71 -378.7,1537.66 -767.34,2274.48 -1205.88,2307.11 -3493.1,4392.77 -5902.55,6272.53 -767.22,598.64 -1545,1183.9 -2312.46,1773.72 -2394.64,1834.9 -4609.4,3660.21 -6255.87,5412.69 -234.63,251.24 -459.54,503.61 -673.28,756.08 -1391.22,1651.47 -2381.53,3241.77 -3041.33,5041 -917.25,2501.44 -1330.05,5632.06 -816.99,9278.14 180.49,1296.96 451.76,2577.32 742.7,3805.42 162.16,685.13 368.62,1334.32 573.51,1956.77 1103.8,3355.29 2868.37,6837.39 1452.03,11211.48 -84.24,260.05 -184.5,511.57 -299.2,755.22"/>
         <path class="fil4 str46" d="M76253.8 -22986.15c190.93,190.73 386.71,378.7 587.47,563.55 3425.85,3156.32 8039.37,4906.81 12252.35,7172.47 2986.48,1606.05 5275.88,3588.89 6290.22,5988.76m0 5612.62c-66.51,154.21 -138.49,307.38 -215.68,459.6 -1162.55,2311 -3416.02,4406.14 -5813.09,6276.22 -763.34,595.51 -1539.42,1176.03 -2307.73,1758.83 -2398.28,1813.75 -4648.24,3599.99 -6361.71,5322.97 -244.21,246.97 -479.44,495.27 -704.11,744.03 -1463.07,1627.1 -2549.64,3211.24 -3293.07,5007.15 -1033.28,2496.13 -1528.98,5611.58 -1007.91,9245.14 183.28,1291.36 469.36,2564.6 786.28,3783.98 176.97,680.96 399.45,1326.64 622.9,1945.86 1201.27,3331.3 3099.23,6819.28 1652.67,11156.47 -186.68,559.76 -448.85,1079.77 -768.56,1565.93"/>
         <path class="fil4 str47" d="M78779.41 -22986.15c52.07,49.32 104.5,98.45 157.3,147.39 3447.7,3192.74 8105.77,4953.47 12381.26,7219.6 1566.37,830.25 2950.67,1761.78 4065.87,2803.89m0 12269.44c-1034.49,1122.92 -2256.51,2181.83 -3525.26,3171.69 -759.45,592.47 -1533.83,1168.06 -2303,1743.84 -2401.92,1792.7 -4687.07,3539.86 -6467.3,5233.35 -253.92,242.6 -499.47,486.92 -735.18,731.99 -1534.81,1602.63 -2717.62,3180.69 -3544.81,4973.29 -1149.19,2490.72 -1727.91,5590.9 -1198.71,9212.13 185.95,1285.67 486.96,2551.7 829.85,3762.45 191.78,676.98 430.28,1319.05 672.18,1935.05 1298.73,3307.31 3329.73,6800.79 1853.3,11101.27 -292.39,851.68 -760.3,1611.45 -1342.91,2298.2"/>
         <path class="fil4 str48" d="M81239.1 -22986.15c3450.5,3121.14 8062.69,4869.73 12323.73,7095.56 637.59,333.08 1246.54,682.57 1821.01,1049.23m0 16295.55c-328.2,274.56 -662.83,544.01 -1001.23,808.04 -755.45,589.35 -1528.01,1160.2 -2298.27,1728.96 -2405.44,1771.64 -4725.79,3479.64 -6573.15,5143.63 -263.26,238.33 -519.12,478.57 -765.88,720.03 -1606.66,1578.16 -2881.36,3151.49 -3796.42,4939.34 -1259.16,2487.41 -1926.97,5570.41 -1389.88,9179.13 188.86,1280.07 504.68,2538.9 873.67,3741.02 206.46,672.8 460.86,1311.46 721.46,1924.14 1395.95,3283.5 3559.85,6782.29 2053.93,11046.17 -397.02,1124.06 -1101.73,2087.27 -1975.4,2932.78"/>
         <path class="fil4 str49" d="M83610.07 -22986.15c3324.51,2923.11 7673.55,4637.93 11773.77,6709.55m0 19464.11c-246.51,181.43 -493.51,361.91 -740.64,541.92 -2409.2,1750.49 -4764.75,3419.51 -6678.98,5053.91 -272.98,234.07 -539.04,470.22 -796.72,707.99 -1678.52,1553.78 -3049.83,3120.94 -4048.27,4905.48 -1375.56,2482.09 -2125.91,5549.83 -1580.81,9146.02 191.53,1274.48 522.4,2526.2 917.36,3719.59 221.27,668.72 491.58,1303.88 770.74,1913.33 1493.06,3259.79 3789.62,6763.42 2254.57,10991.16 -494.49,1361.83 -1443.53,2486.55 -2602.07,3450.52"/>
         <path class="fil4 str50" d="M85867.8 -22986.15c2719.81,2377.68 6117.14,3957.45 9516.04,5574.02m0 22336.09c-1762.38,1248.58 -3457.65,2453.07 -4927.28,3643.71 -282.56,229.8 -559.06,461.97 -827.66,696.04 -1750.5,1529.31 -3218.3,3090.4 -4300.01,4871.52 -1492.09,2476.88 -2324.85,5529.35 -1771.74,9113.12 194.33,1268.69 540.13,2513.3 960.94,3698.06 236.08,664.64 522.28,1296.29 820.14,1902.42 1590.04,3236.27 4018.9,6744.36 2455.09,10936.06 -577.51,1547.81 -1745.64,2788.24 -3146.93,3832.54"/>
         <path class="fil4 str51" d="M87999.05 -22986.15c2139.38,1906.98 4710.63,3305.6 7384.79,4603.79m0 25145.1c-833.49,586.78 -1635.3,1166.55 -2386.26,1744.13 -292.15,225.54 -578.84,453.63 -858.5,684 -1822.22,1504.94 -3386.52,3059.96 -4551.62,4837.67 -1608.48,2471.56 -2523.78,5508.86 -1962.78,9080.11 197.12,1263.1 557.85,2500.49 1004.64,3676.62 251,660.47 552.99,1288.8 869.42,1891.52 1687.01,3212.94 4248.06,6725.1 2655.84,10880.95 -637.47,1663.9 -1961.69,2971.29 -3530.48,4059.69"/>
         <path class="fil4 str52" d="M90001.52 -22986.15c1584.82,1481.99 3425.13,2662.67 5382.32,3715.32m0 28047.81c-228.91,170.15 -454.79,341.81 -676.91,515.09 -1894.08,1480.47 -3555.12,3029.42 -4803.48,4803.81 -1725,2466.34 -2722.72,5488.27 -2153.71,9047.1 199.79,1257.41 575.69,2487.6 1048.33,3655.09 265.7,656.4 583.46,1281.4 918.7,1880.71 1783.87,3189.8 4476.86,6705.66 2856.48,10825.85 -665.99,1693.4 -2047.14,3016.05 -3679.9,4112.8"/>
         <path class="fil4 str53" d="M91890.51 -22986.15c123.68,124.34 249.18,247.54 376.99,369.31 953.78,908.77 2002.71,1705.63 3116.34,2428.32m0 31324.3c-1173.83,1002.29 -2226.53,2062.61 -3097.04,3220.43 -1841.4,2461.14 -2921.78,5467.8 -2344.63,9014.11 202.58,1251.81 593.41,2474.69 1091.9,3633.65 280.62,652.23 614.17,1273.91 967.98,1869.9 1227,2066.02 2855.51,4282.08 3381.79,6707.46m0 3039.76c-78.65,337.26 -185.22,678.21 -324.56,1023.43 -655.19,1623.88 -1971.39,2905.94 -3542.13,3972.91"/>
         <path class="fil4 str54" d="M93698.41 -22986.15c318.13,355.09 653.73,701.35 1004.88,1037.47 221.75,212.35 448.73,418.44 680.55,619.13m0 35409.97c-220.9,244.88 -433.31,494.21 -636.74,748.29 -1957.92,2455.92 -3120.71,5447.31 -2535.55,8981.1 205.24,1246.22 611.25,2461.8 1135.6,3612.22 295.43,648.06 644.63,1266.52 1017.25,1858.99 321.89,511.86 669.76,1033.77 1019.44,1566.3m0 12089.81c-274.31,236.25 -563.43,462.73 -863.95,680.3"/>
         <path class="fil4 str55" d="M95383.84 18467.68c-833.97,1791.08 -1190.58,3793.66 -816.74,6012.94 159.61,951.45 444.36,1883.93 816.74,2781.99"/>
        </g>
       </g>
      </g>
     </g>
     <g style="clip-path:url(#id2)">
      <polygon class="fil5" points="94607.07,42166.2 94607.07,-21858.83 -22273.81,-21858.83 -22273.81,42166.2 "/>
     </g>
    </g>
    <path class="fil4" d="M14538.09 1542.85l5825.79 0c1600.3,0 2975.33,491.4 4125.57,1474.18 1150.07,982.79 1725.19,2169.25 1725.19,3559.24 0,561.55 -145.86,1116.16 -437.43,1663.83 -291.72,547.52 -662.69,1003.75 -1112.76,1368.87 650.2,379.14 1137.59,930.2 1462.76,1653.18 325.03,723.14 487.54,1421.6 487.54,2095.55 0,1390 -571.26,2576.61 -1712.7,3559.25 -1141.6,982.47 -2513.7,1434.24 -4113.08,1474.17l-7612.5 190.42c2396.52,-531.63 4764.21,-3171.15 5021.7,-4181.38 2004.43,0 1217.15,73.55 3100.69,-7.4 2072.58,-89.28 1905.44,-3027.76 -80.02,-3011.88l-1817.55 14.65 0 -2926.46c3732.08,127.66 3768.78,-3144.02 1197.57,-3342.92 -185.34,-14.34 -997.59,-89.89 -1795.66,-17.89l101.92 4863.66 -4315.99 -0.46 -51.04 -8428.61z"/>
   </g>
   <path class="fil6" d="M10443.81 1660.4c1338.58,0 2604.55,309.98 3730.79,861.65l0 4176.56c-928.91,-1002.28 -2256.55,-1629.86 -3730.79,-1629.86 -2808.73,0 -5085.76,2277.02 -5085.76,5085.76 0,2808.74 2277.03,5085.76 5085.76,5085.76 2242.32,0 4145.28,-1451.35 4821.81,-3465.69l-5057.53 0 0 -1505.9 5320.09 0 1702.2 0 1706.15 0c-61.16,4638.34 -3839.88,8379.94 -8492.72,8379.94 -4690.97,0 -8494.11,-3803.13 -8494.11,-8494.11 0,-4690.98 3803.14,-8494.11 8494.11,-8494.11z"/>
   <g style="clip-path:url(#id3)">
    <g id="_1907123768784">
     <g>
     </g>
    </g>
    <g style="clip-path:url(#id4)">
     <g id="_1907123768560">
      <g>
       <polygon id="1" class="fil3" points="-25167.25,43617.42 -25167.25,-22986.14 95383.86,-22986.14 95383.86,43617.42 "/>
       <g>
        <path class="fil4 str0" d="M-25167.26 -17577.53c2548.91,3700.99 2444.16,7799.84 0,11279.86"/>
        <path class="fil4 str1" d="M-25167.26 -19154.37c429.67,391.13 838.84,791.74 1224.21,1202.59 4233.25,4512.55 4064.17,9929.32 166.77,14131.27 -419.84,452.11 -883.75,889.71 -1390.98,1310.23m0 33338.64c656.77,1287.09 1050.39,2642.94 1104.16,4042.7 57.42,1500.96 -277.7,3048.77 -1104.16,4611.48"/>
        <path class="fil4 str2" d="M-25167.26 -20139.86c1312.08,962.26 2523.79,1976.11 3565.92,3065.65 4259.84,4453.65 4136.64,9833.15 314.25,14034.72 -727.17,797.8 -1592.22,1551.22 -2589.45,2245.75 -419.11,292.11 -850.73,575.59 -1290.72,853.19m0 28363.82c1847.84,2103.49 3047.53,4503.07 3150.45,7049.66 61.9,1539.75 -280.74,3127.77 -1135.23,4728.98 -457.47,860.68 -984.12,1661.62 -1546.83,2423.86 -153.78,206.94 -310.11,411.14 -468.39,613.05"/>
        <path class="fil4 str3" d="M-25167.26 -21008.52c2161.72,1421.2 4199.51,2907.75 5831.54,4581.98 4284.47,4395.23 4208.98,9736.98 461.47,13938.08 -712.96,797.33 -1563.81,1550.94 -2547.08,2246.5 -1175.66,832.71 -2452.42,1596.28 -3745.93,2352.54m0 24669.57c2918.5,2519.93 4975.96,5659.18 5120.64,9064.65 64.57,1534.15 -263.51,3114.97 -1091.54,4707.55 -442.91,856.6 -952.93,1654.03 -1497.55,2412.95 -159.61,220.32 -322.01,437.41 -486.23,652.13"/>
        <path class="fil4 str4" d="M-25167.26 -21951.71c400.42,253.32 800.12,509.58 1197.5,768.21 2504.24,1630.14 4936.02,3285.21 6833.26,5195.7 4307.54,4337.57 4281.32,9640.81 608.95,13841.52 -698.77,796.86 -1535.78,1550.66 -2504.73,2247.17 -1892.99,1362.69 -4059.56,2543.18 -6134.98,3804.85m0 21462.98l11.41 8.06c3865.72,2718.15 6827.92,6473.68 7013.14,10631.05 67.36,1528.56 -246.39,3102.17 -1047.97,4686.11 -428.45,852.44 -919.3,1647.49 -1448.26,2402.05 -123.2,175.74 -248.22,349.3 -374.45,521.44"/>
        <path class="fil4 str5" d="M-25071.13 -22986.15c1029.03,648.34 2076.63,1321.71 3115.13,2006.56 2526.33,1666.46 5017.59,3319.83 6962.28,5242.83 4329.14,4280.38 4353.78,9544.65 756.3,13744.89 -684.44,796.28 -1507.37,1550.37 -2462.24,2247.83 -2609.6,1909.73 -5762.36,3467.12 -8467.6,5376.75m0 18281.14c679.35,493.84 1371.44,979.33 2049.81,1471.18 3749.2,2712.94 6628.98,6453.1 6822.09,10598.05 70.16,1522.87 -229.04,3089.36 -1004.27,4664.58 -413.89,848.36 -887.5,1640.19 -1398.86,2391.24 -132.79,195.09 -267.76,387.71 -404.07,578.53"/>
        <path class="fil4 str6" d="M-23083.1 -22986.15c1015.07,663.99 2056.12,1350.26 3094.37,2043.74 2548.31,1702.78 5098.67,3354.35 7091.43,5289.87 4348.92,4223.95 4426.12,9448.48 903.65,13648.43 -670.36,795.72 -1479.22,1549.99 -2420.01,2248.4 -2898.83,2156.98 -6497.77,3871.62 -9388.84,6129.22 -476.16,371.78 -933.14,758.73 -1364.76,1165.41m0 14573.23c1247.15,1096.75 2672.23,2091.25 4041.72,3114.4 3632.8,2707.72 6429.93,6432.62 6631.05,10565.04 72.94,1517.28 -211.81,3076.56 -960.58,4643.15 -399.33,844.28 -855.7,1632.7 -1349.58,2380.33 -179.4,271.63 -362.43,538.7 -548.02,802.36"/>
        <path class="fil4 str7" d="M-20918.83 -22986.15c934.84,633.64 1896.38,1283.11 2860.72,1935.34 2570.27,1739.1 5179.38,3388.96 7220.45,5336.91 4367.37,4167.99 4498.46,9352.3 1051.12,13551.79 -656.16,795.24 -1451.06,1549.7 -2377.64,2249.16 -2855.39,2160.86 -6420.83,3884.98 -9299.51,6132.82 -915.18,714.63 -1760.57,1483.41 -2493.32,2340.21 -462.57,540.22 -867.12,1108.98 -1210.25,1696.33m0 9218.96c1442.32,2129 3791.44,3747.47 5996.98,5447.12 3516.28,2702.41 6230.98,6412.04 6440.12,10532.04 75.61,1511.58 -194.69,3063.66 -917,4621.62 -384.77,840.2 -824.03,1625.29 -1300.19,2369.51 -255.38,399.1 -518.4,788.61 -785.31,1171.77"/>
        <path class="fil4 str8" d="M-18618.63 -22986.15c804.97,561.84 1631.91,1132.31 2464.55,1702.31 2592,1775.43 5259.49,3423.68 7349.36,5383.95 4384.36,4112.8 4570.92,9256.33 1198.47,13455.34 -641.96,794.67 -1422.78,1549.33 -2335.17,2249.73 -2812.05,2164.75 -6343.86,3898.36 -9210.17,6136.52 -911.18,711.59 -1754.99,1475.54 -2488.59,2325.32 -2260.39,2614.49 -3172.05,5886.42 -2342.44,8731.38 120.04,409.62 275.76,810.89 468.39,1200.41 1267.29,2555.5 3855.65,4371.71 6272.5,6295 3399.76,2697.19 6031.93,6391.55 6249.07,10499.03 78.41,1505.99 -181.7,3049.72 -873.18,4600.19 -372.63,835.45 -792.35,1617.8 -1251.03,2358.61 -353.81,571.51 -722.55,1123.68 -1095.54,1665.79"/>
        <path class="fil4 str9" d="M-16212.09 -22986.15c637.1,453.91 1288.17,910.76 1945.06,1365.81 2614.08,1811.85 5339.47,3458.39 7478.37,5431.09 4400.15,4058.08 4643.38,9160.07 1345.95,13358.69 -627.76,794.2 -1394.62,1549.05 -2292.81,2250.4 -2768.6,2168.64 -6266.79,3911.73 -9120.84,6140.22 -907.29,708.46 -1749.28,1467.57 -2483.73,2310.43 -2264.04,2593.44 -3210.9,5826.29 -2448.29,8641.66 110.46,405.35 255.87,802.55 437.69,1188.36 1195.19,2531.13 3687.05,4341.27 6020.64,6261.14 3283.36,2691.98 5832.99,6371.07 6058.15,10466.03 81.08,1500.3 -164.95,3036.82 -829.61,4578.75 -358.3,831.29 -760.55,1610.31 -1201.63,2347.71 -467.78,782.06 -962.03,1528.93 -1456.76,2263.29"/>
        <path class="fil4 str10" d="M-13720.23 -22986.15c438.9,316.11 884.23,632.31 1333.32,946.99 2636.06,1848.08 5419.1,3493.11 7607.52,5478.04 4414.47,4004.01 4715.6,9063.99 1493.17,13262.14 -613.43,793.73 -1366.33,1548.76 -2250.32,2251.16 -2725.27,2172.34 -6189.72,3925.1 -9031.39,6143.82 -903.52,705.43 -1743.57,1459.8 -2478.99,2295.54 -2267.68,2572.38 -3249.86,5766.07 -2554.13,8552.03 100.86,400.99 236.08,794.21 406.73,1176.32 1123.47,2506.66 3518.71,4310.73 5769.03,6227.19 3166.84,2686.67 5634.06,6350.58 5867.23,10433.12 83.87,1494.6 -148.21,3023.83 -785.92,4557.22 -344.1,827.21 -728.99,1602.91 -1152.35,2336.89 -590.37,1023.44 -1223.96,1987.4 -1844.44,2943.12"/>
        <path class="fil4 str11" d="M-11157 -22986.15c216.41,155.92 434.28,311.65 653.25,466.81 2657.9,1884.4 5498.11,3528.01 7736.42,5525.08 4427.7,3950.52 4788.18,8967.82 1640.65,13165.59 -599.24,793.16 -1338.06,1548.48 -2207.96,2251.73 -2681.82,2176.32 -6112.65,3938.47 -8941.94,6147.61 -899.64,702.4 -1737.99,1451.83 -2474.26,2280.56 -2271.32,2551.33 -3288.7,5705.94 -2659.85,8462.31 91.28,396.72 216.17,785.95 375.91,1164.37 1051.6,2482.19 3350.23,4280.19 5517.17,6193.33 3050.43,2681.45 5435.12,6330 5676.3,10400.11 86.66,1488.92 -131.33,3010.93 -742.34,4535.7 -329.78,823.03 -697.19,1595.42 -1102.95,2326.08 -714.67,1286.52 -1493.54,2481.05 -2230.78,3684.3"/>
        <path class="fil4 str12" d="M-8532.6 -22986.15c2658.64,1897.78 5523.12,3528.1 7790.32,5518.54 4439.59,3897.5 4860.52,8871.65 1788.12,13069.04 -585.16,792.59 -1310.02,1548.1 -2165.73,2252.39 -2638.36,2180.12 -6035.57,3951.85 -8852.48,6151.22 -895.76,699.36 -1732.28,1443.96 -2469.65,2265.76 -2274.84,2530.18 -3327.41,5645.72 -2765.44,8372.59 81.57,392.46 196.14,777.61 344.95,1152.33 979.75,2457.72 3181.89,4249.65 5265.56,6159.37 2933.92,2676.24 5236.07,6309.52 5485.25,10367.11 89.46,1483.32 -114.58,2998.13 -698.64,4514.26 -315.46,818.96 -665.51,1587.93 -1053.67,2315.17 -833.74,1561.76 -1756.44,2990.64 -2588.84,4465.8"/>
        <path class="fil4 str13" d="M-5850.05 -22986.15c2462.61,1704.59 5056.42,3212.28 7155.51,5025.93 4450.52,3845.15 4932.99,8775.58 1935.47,12972.5 -570.83,792.11 -1281.74,1547.81 -2123.24,2253.14 -2595.03,2183.91 -5958.62,3965.13 -8763.15,6154.83 -891.87,696.32 -1726.7,1436.18 -2464.79,2250.77 -2278.6,2509.22 -3366.38,5585.68 -2871.41,8282.97 72.1,388.19 176.36,769.36 314.25,1140.28 907.89,2433.34 3013.41,4219.21 5013.7,6125.61 2817.52,2670.93 5037.25,6288.93 5294.33,10334.01 92.24,1477.73 -97.71,2985.23 -654.83,4492.83 -301.26,814.78 -633.83,1580.43 -1004.51,2304.26 -941.4,1838.79 -1998.1,3497.47 -2894.71,5266.45"/>
        <path class="fil4 str14" d="M-3121.02 -22986.15c2254.81,1516.8 4580.26,2898.73 6504.57,4535.32 4460.22,3793.37 5016.37,8684.15 2082.82,12875.85 -554.57,792.49 -1253.45,1547.53 -2080.88,2253.81 -2551.58,2187.8 -5881.54,3978.5 -8673.81,6158.62 -887.87,693.19 -1720.88,1428.21 -2460.06,2235.79 -2282.13,2488.16 -3405.1,5525.45 -2977.01,8193.25 62.51,383.92 156.46,761 283.3,1128.33 836.04,2408.97 2845.06,4188.66 4762.09,6091.66 2700.99,2665.7 4838.07,6268.44 5103.27,10301.09 94.92,1472.04 -80.83,2972.43 -611.25,4471.3 -286.81,810.7 -602.03,1572.85 -955.11,2293.45 -1032.79,2108.14 -2206.75,3984.95 -3132.85,6065.11"/>
        <path class="fil4 str15" d="M-362.38 -22986.15c2044.96,1343.15 4117.22,2601.12 5868.68,4067.65 4469.09,3742.16 5089.45,8588.17 2230.3,12779.31 -540.25,792.02 -1225.3,1547.24 -2038.52,2254.47 -2508.25,2191.69 -5804.47,3991.87 -8584.36,6162.22 -883.99,690.16 -1715.29,1420.35 -2455.33,2221 -2285.76,2467.01 -3443.94,5465.23 -3082.84,8103.53 52.92,379.65 136.67,752.66 252.46,1116.28 764.19,2384.5 2676.6,4158.23 4510.36,6057.8 2584.47,2660.4 4639.13,6247.87 4912.35,10268.1 97.71,1466.34 -63.97,2959.52 -567.56,4449.77 -272.61,806.62 -570.47,1565.45 -905.83,2282.64 -1104.16,2361.26 -2372.43,4439.33 -3295.37,6840.81"/>
        <path class="fil4 str16" d="M2398.82 -22986.15c1846.38,1191.02 3692.16,2332.53 5282.8,3644 4476.85,3691.51 5162.38,8492.19 2377.64,12682.85 -525.92,791.45 -1197.14,1546.77 -1996.16,2255.04 -2464.79,2195.58 -5727.39,4005.25 -8495.02,6166.02 -880.11,687.03 -1709.59,1412.37 -2450.48,2206.01 -2289.4,2445.96 -3482.78,5405.1 -3188.56,8013.81 43.33,375.38 116.77,744.41 221.51,1104.33 692.46,2360.03 2508.13,4127.69 4258.62,6023.85 2468.07,2655.27 4440.2,6227.38 4721.43,10235.09 100.38,1460.74 -47.09,2946.72 -523.98,4428.33 -258.17,802.55 -538.67,1557.86 -856.44,2271.74 -1153.44,2591.35 -2488.34,4850.47 -3382.64,7572.51"/>
        <path class="fil4 str17" d="M5134.89 -22986.15c1674.03,1066.11 3331.67,2105.95 4784.3,3285.59 4483.65,3641.25 5235.46,8396.12 2525,12586.21 -511.6,790.98 -1168.74,1546.48 -1953.8,2255.8 -2421.34,2199.37 -5650.32,4018.62 -8405.57,6169.62 -876.1,684 -1703.88,1404.51 -2445.62,2191.12 -2293.17,2424.81 -3521.74,5344.97 -3294.4,7924.09 33.74,371.11 96.86,736.16 190.68,1092.38 620.48,2335.57 2339.78,4097.15 4006.89,5989.9 2351.55,2649.96 4241.26,6206.89 4530.38,10202.08 103.29,1455.15 -30.23,2933.92 -480.17,4406.9 -243.97,798.38 -507.11,1550.28 -807.27,2260.83 -1179.3,2792.7 -2551.1,5210.11 -3401.58,8239.06"/>
        <path class="fil4 str18" d="M7817.07 -22986.15c1543.06,973.45 3062.7,1933.91 4411.92,3013.3 4489.72,3591.64 5308.4,8300.04 2672.47,12489.76 -497.28,790.4 -1140.58,1546.19 -1911.44,2256.37 -2377.89,2203.26 -5573.25,4031.99 -8316.12,6173.32 -872.33,680.96 -1698.3,1396.63 -2441,2176.22 -2296.69,2403.76 -3560.58,5284.76 -3400.12,7834.47 24.15,366.75 76.95,727.72 159.85,1080.24 548.62,2311.19 2171.31,4066.71 3755.15,5956.14 2235.03,2644.65 4042.2,6186.31 4339.45,10169.08 105.97,1449.46 -13.35,2921.11 -436.59,4385.37 -229.52,794.29 -475.43,1542.59 -757.87,2250.01 -1182.21,2960.85 -2559.96,5512.09 -3361.89,8819.3"/>
        <path class="fil4 str19" d="M10417.2 -22986.15c1468.05,918.45 2911.22,1829.68 4203.88,2848.47 4494.7,3542.51 5381.23,8203.87 2819.82,12393.01 -483.08,789.94 -1112.42,1545.92 -1869.08,2257.13 -2334.56,2207.06 -5496.29,4045.37 -8226.78,6177.02 -868.45,677.93 -1692.6,1388.76 -2436.27,2161.25 -2300.33,2382.69 -3599.3,5224.62 -3505.84,7744.84 14.56,362.48 57.04,719.37 128.9,1068.19 476.89,2286.82 2002.95,4036.17 3503.53,5922.28 2118.63,2639.43 3843.27,6165.73 4148.41,10136.07 108.76,1443.77 3.52,2908.22 -392.89,4363.84 -215.2,790.22 -443.76,1535.11 -708.48,2239.21 -1162.79,3092.11 -2515.77,5751.37 -3273.28,9292.27"/>
        <path class="fil4 str20" d="M12910.52 -22986.15c1462.71,907.07 2902.72,1806.35 4197.44,2811.86 4499.07,3493.95 5454.18,8107.8 2967.18,12296.56 -468.64,789.37 -1084.14,1545.54 -1826.6,2257.7 -2291.23,2210.94 -5419.34,4058.74 -8137.45,6180.72 -864.57,674.89 -1686.89,1380.89 -2431.42,2146.35 -2303.97,2361.65 -3638.26,5164.49 -3611.68,7655.12 4.98,358.22 37.26,711.12 98.07,1056.25 405.04,2262.34 1829.51,4007.99 3251.8,5888.32 1995.07,2637.54 3644.21,6145.25 3957.37,10103.07 111.54,1438.17 20.63,2895.51 -349.2,4342.41 -200.76,786.14 -412.08,1527.42 -659.2,2228.29 -1122.13,3182.97 -2421.22,5922.37 -3144.5,9636.93"/>
        <path class="fil4 str21" d="M15279.91 -22986.15c1540.27,946.61 3064.88,1877.39 4433.4,2924.72 4502.71,3445.87 5527.01,8011.72 3114.65,12200.01 -454.44,788.89 -1055.98,1545.25 -1784.36,2258.46 -2247.65,2214.74 -5342.15,4072.01 -8048,6184.32 -860.56,671.86 -1681.18,1373.02 -2426.68,2131.47 -2307.49,2340.59 -3677.1,5104.26 -3717.4,7565.4 -4.61,353.94 17.36,702.87 67.24,1044.2 333.18,2237.88 1660.8,3977.46 3000.07,5854.46 1878.18,2632.23 3445.27,6124.67 3766.44,10070.07 114.33,1432.58 37.5,2882.7 -305.51,4320.97 -186.56,782.06 -380.64,1519.74 -609.92,2217.39 -1061.8,3229.44 -2280.42,6018.44 -2981.01,9832.11"/>
        <path class="fil4 str22" d="M17495.03 -22986.15c1711.17,1047.53 3424.4,2056.64 4951.2,3208.2 4505.5,3398.26 5599.95,7915.56 3261.99,12103.37 -439.99,788.42 -1027.69,1544.97 -1741.87,2259.12 -2204.32,2218.63 -5265.2,4085.39 -7958.67,6188.02 -856.67,668.82 -1675.48,1365.15 -2421.94,2116.58 -2311.14,2319.53 -3715.83,5044.04 -3823.12,7475.68 -14.2,349.68 -2.55,694.52 36.41,1032.25 261.32,2213.41 1491.96,3946.92 2748.21,5820.51 1761.42,2626.91 3246.46,6104.18 3575.63,10037.06 116.89,1426.89 54.38,2869.99 -261.93,4299.54 -172.11,777.98 -348.96,1512.05 -560.64,2206.58 -983.63,3227.26 -2098.11,6031.24 -2784.74,9856.67"/>
        <path class="fil4 str23" d="M19530.52 -22986.15c1978.44,1225.45 4002.76,2359.28 5783.59,3683.17 4507.69,3351.22 5672.66,7819.38 3409.47,12006.91 -425.91,787.85 -999.53,1544.59 -1699.63,2259.79 -2160.87,2222.42 -5188,4098.76 -7869.21,6191.62 -852.79,665.79 -1669.9,1357.28 -2417.22,2101.69 -2314.77,2298.48 -3754.66,4983.91 -3928.84,7386.05 -23.91,345.32 -22.45,686.18 5.47,1020.21 189.46,2189.03 1323.36,3916.38 2496.59,5786.65 1644.53,2621.6 3047.4,6083.6 3384.47,10004.06 119.79,1421.19 71.49,2857.19 -218.12,4278.01 -157.79,773.9 -317.4,1504.46 -511.36,2195.67 -889.45,3171.11 -1880.49,5950.06 -2554.25,9689.75"/>
        <path class="fil4 str24" d="M21387.7 -22986.15c2326.31,1506.84 4799.96,2804.65 6937.16,4370.96 4509.02,3304.55 5745.36,7723.12 3556.82,11910.27 -411.59,787.37 -971.38,1544.3 -1657.16,2260.45 -2117.53,2226.3 -5111.04,4112.13 -7779.87,6195.32 -848.91,662.66 -1664.2,1349.4 -2412.36,2086.79 -2318.54,2277.33 -3793.75,4923.79 -4034.8,7296.34 -33.38,341.05 -42.24,677.93 -25.25,1008.16 117.62,2164.57 1154.66,3885.84 2244.74,5752.8 1527.77,2616.29 2848.47,6063.11 3193.54,9971.05 122.59,1415.6 88.48,2844.48 -174.42,4256.48 -143.34,769.92 -285.84,1496.78 -462.08,2184.86 -781.66,3053.89 -1633.85,5760.28 -2285.64,9310.1"/>
        <path class="fil4 str25" d="M23120.96 -22986.15c2707.18,1933.44 5773.64,3419.7 8365.76,5292.43 4509.87,3258.37 5818.06,7626.96 3704.05,11813.73 -397.27,786.8 -943.1,1544.02 -1614.8,2261.11 -2073.96,2230.2 -5033.85,4125.51 -7690.29,6199.02 -845.03,659.62 -1658.62,1341.53 -2407.63,2071.81 -2322.18,2256.37 -3832.47,4863.66 -4140.52,7206.62 -42.97,336.87 -62.14,669.67 -56.2,996.21 45.76,2140.19 986.07,3855.21 1993.13,5718.94 1410.88,2610.88 2649.41,6042.53 3002.61,9938.04 125.26,1409.91 105.48,2831.68 -130.84,4235.05 -129.03,765.84 -254.41,1489.01 -412.68,2173.95 -662.84,2867.15 -1366.95,5442.38 -1975.41,8696.67"/>
        <path class="fil4 str26" d="M24848.03 -22986.15c95.4,79.67 191.53,158.86 288.39,237.58 2986.95,2429.65 6640.15,4071.82 9671.65,6231.17 4510.35,3212.75 5891.01,7530.79 3851.64,11717.18 -383.06,786.23 -914.94,1543.64 -1572.43,2261.77 -2030.75,2233.99 -4956.9,4138.88 -7600.97,6202.72 -841.14,656.59 -1652.78,1333.57 -2402.89,2056.92 -2325.7,2235.22 -3871.31,4803.43 -4246.24,7116.9 -52.55,332.61 -82.05,661.33 -87.03,984.26 -26.09,2115.72 817.35,3824.58 1741.39,5684.89 1294.12,2605.58 2450.48,6022.14 2811.57,9905.14 128.05,1404.31 122.59,2818.96 -87.15,4213.51 -114.58,761.86 -222.84,1481.42 -363.4,2163.14 -535.75,2599.8 -1087.9,4971.87 -1621.83,7828.4"/>
        <path class="fil4 str27" d="M26757.52 -22986.15c567.92,563.36 1180.75,1113.06 1827.21,1642.56 3008.92,2465.97 6713.34,4109.95 9800.67,6278.21 4510.11,3167.52 5963.6,7434.52 3998.99,11620.63 -368.74,785.67 -886.65,1543.35 -1530.07,2262.44 -1987.3,2237.78 -4879.94,4152.25 -7511.63,6206.32 -837.14,653.56 -1647.08,1325.79 -2398.04,2042.13 -2329.34,2214.17 -3910.15,4743.2 -4352.08,7027.17 -62.02,328.25 -101.83,652.99 -117.85,972.22 -97.95,2091.26 648.75,3793.94 1489.65,5651.03 1177.35,2600.17 2251.54,6001.56 2620.64,9872.13 130.85,1398.63 139.59,2806.17 -43.45,4192.09 -100.14,757.68 -191.41,1473.64 -314.12,2152.23 -404.67,2238.64 -808.25,4317.75 -1232.95,6684.42"/>
        <path class="fil4 str28" d="M29002.99 -22986.15c863.96,1039.94 1901.12,2051.33 3047.04,2996.89 3030.77,2502.3 6786.16,4148.37 9929.7,6325.35 4509.38,3122.66 6036.3,7338.16 4146.46,11523.99 -354.54,785.19 -858.49,1543.07 -1487.71,2263.1 -1943.85,2241.67 -4802.87,4165.62 -7422.3,6210.12 -833.37,650.42 -1641.5,1317.82 -2393.43,2027.14 -2332.73,2193.02 -3948.74,4682.98 -4457.67,6937.45 -71.61,323.98 -121.62,644.74 -148.69,960.18 -169.8,2066.88 480.17,3763.4 1237.92,5617.17 1060.71,2594.76 2052.48,5981.07 2429.6,9839.12 133.51,1393.03 156.69,2793.56 0.24,4170.65 -85.69,753.71 -159.97,1465.87 -264.84,2141.33 -292.04,1882.7 -573.75,3659.36 -885.81,5591.09"/>
        <path class="fil4 str29" d="M31527.5 -22986.15c975.14,1423.76 2304.46,2815.65 3833.2,4086.34 3052.86,2538.62 6858.87,4187.24 10058.96,6372.29 4508.05,3078.46 6108.76,7241.99 4293.7,11427.53 -340.22,784.63 -830.22,1542.69 -1445.24,2263.77 -1900.51,2245.56 -4725.91,4179 -7332.84,6213.72 -829.49,647.39 -1635.91,1309.95 -2388.69,2012.25 -2336.62,2171.96 -3987.83,4622.95 -4563.52,6847.83 -81.32,319.71 -141.64,636.39 -179.64,948.13 -241.66,2042.51 311.58,3732.67 986.19,5583.31 943.94,2589.27 1853.66,5960.5 2238.79,9806.12 136.31,1387.34 173.81,2780.75 43.82,4149.12 -71.25,749.63 -128.54,1458.19 -215.45,2130.52 -207.55,1606.61 -400.66,3141.24 -621.81,4762.65"/>
        <path class="fil4 str30" d="M34213.08 -22986.15c975.38,1719.19 2500.24,3412.49 4313,4929.95 3074.71,2574.85 6930.96,4226.23 10187.86,6419.34 4506.47,3034.54 6181.47,7145.63 4441.17,11330.89 -326.02,784.14 -801.94,1542.5 -1402.87,2264.43 -1857.06,2249.44 -4648.85,4192.36 -7243.51,6217.42 -825.61,644.44 -1630.09,1302.17 -2383.84,1997.36 -2340.26,2150.9 -4026.67,4562.72 -4669.36,6758.11 -90.91,315.44 -161.55,628.13 -210.46,936.18 -313.4,2018.03 142.98,3702.03 734.57,5549.45 827.18,2583.76 1654.6,5939.91 2047.74,9773.02 138.98,1381.75 190.93,2768.14 87.39,4127.69 -56.68,745.64 -97.22,1450.41 -166.04,2119.7 -145.17,1409.72 -273.82,2768.04 -426.64,4180.04"/>
        <path class="fil4 str31" d="M36974.15 -22986.15c923.07,1934.58 2570.15,3852.08 4580.76,5546.7 3096.68,2611.27 7002.82,4265.78 10316.89,6466.48 4504.28,2991.01 6253.92,7049.37 4588.64,11234.34 -311.82,783.48 -773.78,1542.12 -1360.63,2265.09 -1813.61,2253.24 -4571.77,4205.65 -7154.06,6221.12 -821.72,641.32 -1624.51,1294.21 -2379.1,1982.38 -2343.79,2129.94 -4065.51,4502.59 -4775.08,6668.48 -100.5,311.08 -181.34,619.79 -241.3,924.14 -385.37,1993.56 -25.61,3671.3 482.72,5515.49 710.66,2578.27 1455.67,5919.43 1856.82,9740.12 141.76,1376.05 208.04,2755.33 131.08,4106.15 -42.24,741.57 -65.78,1442.64 -116.76,2108.8 -98.44,1288.04 -178.55,2536.72 -280.62,3824.29"/>
        <path class="fil4 str32" d="M39749.92 -22986.15c860.19,2078.45 2573.67,4146.09 4706.37,5955.85 3118.65,2647.59 7074.32,4305.61 10445.91,6513.52 4501.74,2948.04 6326.4,6953 4736,11137.78 -297.62,783.02 -745.62,1541.75 -1318.27,2265.76 -1770.16,2257.13 -4494.58,4219.02 -7064.61,6224.82 -817.71,638.19 -1618.8,1286.34 -2374.36,1967.49 -2347.43,2108.79 -4104.35,4442.37 -4880.8,6578.76 -110.09,306.81 -201.24,611.44 -272.25,912.09 -457.1,1969.1 -193.96,3640.58 231.1,5481.64 594.02,2572.76 1256.61,5898.85 1665.78,9707.11 144.55,1370.36 225.27,2742.62 174.78,4084.63 -27.68,737.58 -34.47,1434.95 -67.49,2097.98 -61.29,1235.88 -101.1,2438.75 -164.34,3676.15"/>
        <path class="fil4 str33" d="M42502.37 -22986.15c811.89,2158.78 2548.55,4306.84 4736.97,6176.36 3140.62,2684.01 7145.44,4345.82 10574.93,6560.55 4498.95,2905.47 6398.85,6856.75 4883.47,11041.24 -283.42,782.44 -717.34,1541.46 -1275.91,2266.43 -1726.83,2260.92 -4417.63,4232.39 -6975.27,6228.51 -813.83,635.16 -1613.1,1278.37 -2369.52,1952.6 -2351.06,2087.74 -4143.19,4382.24 -4986.63,6489.04 -119.68,302.55 -221.15,603.19 -303.08,900.14 -528.96,1944.63 -362.55,3609.85 -20.63,5447.69 477.49,2567.26 1057.67,5878.36 1474.84,9674.1 147.35,1364.77 242.51,2730.01 218.48,4063.2 -13.23,733.5 -3.28,1427.08 -18.21,2087.08 -28.15,1246.5 -29.73,2462.84 -60.2,3716.64"/>
        <path class="fil4 str34" d="M45211.5 -22986.15c788.95,2181.92 2515.16,4347.25 4701.76,6227.38 3162.59,2720.24 7216.2,4386.32 10704.08,6607.6 4495.55,2863.16 6471.2,6760.39 5030.7,10944.69 -269.09,781.87 -689.06,1541.17 -1233.43,2267.09 -1683.37,2264.81 -4340.55,4245.76 -6885.94,6232.21 -809.94,632.12 -1607.39,1270.5 -2364.78,1937.61 -2354.7,2066.69 -4182.03,4322.11 -5092.35,6399.33 -129.27,298.37 -241.06,594.94 -333.91,888.19 -600.81,1920.25 -531.02,3579.22 -272.37,5413.83 360.98,2561.76 858.62,5857.78 1283.8,9641.1 150.14,1359.07 259.87,2717.2 262.18,4041.76 1.33,729.42 27.91,1419.3 31.19,2076.17 6.43,1312.89 47.34,2596.18 47.09,3926.62"/>
        <path class="fil4 str35" d="M47873.53 -22986.15c791.37,2153.76 2478.15,4280.1 4613.64,6127.99 3184.56,2756.56 7286.73,4427.29 10833.11,6654.73 4492.02,2821.34 6543.53,6663.93 5178.04,10848.05 -254.89,781.3 -660.77,1540.79 -1190.94,2267.75 -1640.04,2268.61 -4263.6,4259.14 -6796.48,6235.82 -806.19,629.08 -1601.81,1262.72 -2360.05,1922.81 -2358.47,2045.54 -4220.99,4261.8 -5198.2,6309.61 -138.85,294.01 -260.96,586.59 -364.85,876.15 -672.67,1895.78 -699.38,3548.48 -524.11,5379.97 244.58,2556.16 659.8,5837.29 1092.88,9607.99 152.93,1353.49 277.1,2704.6 305.87,4020.33 15.9,725.44 59.11,1411.62 80.47,2065.36 46.61,1427.36 140.31,2824.47 168.71,4287.02"/>
        <path class="fil4 str36" d="M50491.62 -22986.15c811.65,2079.21 2436.03,4118.49 4478.8,5897.14 3206.4,2792.99 7356.63,4468.64 10962,6701.87 4488.02,2779.9 6615.76,6567.58 5325.52,10751.5 -240.81,780.74 -632.61,1540.51 -1148.71,2268.42 -1596.58,2272.49 -4186.52,4272.51 -6707.02,6239.42 -802.3,626.05 -1596.23,1254.85 -2355.32,1907.93 -2361.98,2024.48 -4259.83,4201.75 -5304.03,6219.98 -148.32,289.74 -280.75,578.25 -395.57,864.1 -744.52,1871.41 -867.72,3517.76 -775.84,5346.01 128.18,2550.67 460.75,5816.81 901.95,9575.09 155.61,1347.89 294.34,2691.89 349.45,3998.8 30.46,721.46 90.3,1403.84 129.75,2054.55 96.01,1582.05 258.04,3132.99 311.33,4778.77"/>
        <path class="fil4 str37" d="M53077.06 -22986.15c838.72,1963.79 2379.23,3875.98 4294.79,5554.1 3228.38,2829.31 7426.55,4510.47 11091.15,6748.91 4483.9,2738.93 6687.97,6471.31 5472.87,10654.96 -226.61,780.16 -604.45,1540.22 -1106.34,2269.08 -1553.14,2276.28 -4109.45,4285.88 -6617.7,6243.21 -798.29,622.92 -1590.4,1246.88 -2350.46,1892.94 -2365.63,2003.43 -4298.67,4141.53 -5409.75,6130.26 -157.91,285.47 -300.65,570 -426.52,852.15 -816.38,1846.94 -1035.95,3487.03 -1027.45,5312.07 11.77,2545.16 261.69,5796.32 710.9,9542.17 158.4,1342.1 311.82,2679.08 393.14,3977.27 45.03,717.38 121.38,1396.07 179.03,2043.64 157.67,1768.89 407.83,3506.48 476.04,5382.82"/>
        <path class="fil4 str38" d="M55641.87 -22986.15c860.44,1812.9 2298.63,3566.32 4059.2,5117.93 3250.34,2865.63 7495.85,4552.57 11220.05,6795.85 4479.53,2698.34 6760.31,6374.96 5620.34,10558.41 -212.4,779.69 -576.17,1539.94 -1063.98,2269.84 -1509.68,2280.17 -4032.38,4299.16 -6528.24,6246.82 -794.41,619.88 -1584.82,1239 -2345.73,1878.05 -2369.27,1982.37 -4337.51,4081.4 -5515.59,6040.54 -167.5,281.2 -320.43,561.74 -457.23,840.1 -888.23,1822.57 -1204.42,3456.4 -1279.31,5278.3 -104.5,2539.57 62.76,5775.75 519.98,9509.08 161.07,1336.51 329.18,2666.47 436.84,3955.83 59.59,713.4 152.32,1388.29 228.31,2032.83 233.28,1979.72 595.47,3929.76 657.37,6080"/>
        <path class="fil4 str39" d="M58198.43 -22986.15c866.38,1633.17 2185.02,3203.55 3768.74,4607.59 3272.19,2902.05 7564.92,4595.25 11349.08,6842.99 4474.79,2658.02 6832.41,6278.59 5767.69,10461.85 -198.33,779.03 -548.02,1539.56 -1021.51,2270.41 -1466.47,2284.07 -3955.42,4312.63 -6438.9,6250.52 -790.53,616.85 -1579.11,1231.14 -2341.11,1863.16 -2372.79,1961.32 -4376.24,4021.18 -5621.2,5950.82 -177.21,276.94 -340.34,553.4 -488.17,828.16 -960.09,1798.09 -1372.65,3425.67 -1531.05,5244.34 -220.66,2534.07 -136.18,5755.26 328.93,9476.08 163.98,1330.91 346.66,2653.75 480.66,3934.4 74.16,709.32 183.4,1380.51 277.58,2021.92 324.2,2206.39 824.88,4388.5 844.54,6851.34"/>
        <path class="fil4 str40" d="M60757.41 -22986.15c847.94,1431.16 2031,2802.09 3421.85,4042.24 3294.16,2938.37 7633.74,4638.31 11478.22,6890.03 4469.93,2618.1 6904.51,6182.24 5915.04,10365.31 -184.12,778.46 -519.73,1539.27 -979.14,2271.07 -1423.02,2287.86 -3878.35,4326 -6349.45,6254.22 -786.64,613.81 -1573.53,1223.26 -2336.38,1848.27 -2376.43,1940.17 -4415.07,3961.05 -5726.91,5861.19 -186.8,272.58 -360.25,545.06 -519.13,816.11 -1031.94,1773.63 -1540.75,3394.94 -1782.66,5210.4 -336.94,2528.56 -335.24,5734.67 137.89,9443.16 166.77,1325.22 364.13,2640.95 524.22,3912.87 88.85,705.24 214.47,1372.73 326.99,2011.02 430.64,2441.78 1098.7,4869.15 1022.36,7677.69"/>
        <path class="fil4 str41" d="M63325.74 -22986.15c800.36,1214.64 1833.88,2376.25 3021.18,3440.94 3316.13,2974.7 7702.08,4681.94 11607.13,6937.17 4464.83,2578.55 6976.48,6085.78 6062.51,10268.67 -169.92,777.98 -491.57,1538.99 -936.78,2271.83 -1379.57,2291.74 -3801.27,4339.27 -6260.12,6257.82 -782.76,610.78 -1567.82,1215.39 -2331.52,1833.38 -2380.08,1919.11 -4454.04,3900.82 -5832.75,5771.47 -196.27,268.31 -380.16,536.71 -549.96,804.07 -1103.8,1749.25 -1708.98,3364.31 -2034.39,5176.63 -453.1,2523.06 -534.18,5714.1 -53.05,9410.06 169.45,1319.63 381.49,2628.34 567.92,3891.34 103.54,701.36 245.31,1365.06 376.27,2000.21 552.27,2679.08 1415.74,5359.86 1171.77,8539.99"/>
        <path class="fil4 str42" d="M65906.57 -22986.15c721.83,991.47 1594.28,1940.65 2572.58,2822.86 3338.1,3011.02 7770.28,4725.85 11736.26,6984.21 4459.5,2539.38 7048.46,5989.42 6209.87,10172.12 -155.85,777.32 -463.29,1538.61 -894.42,2272.4 -1336.12,2295.63 -3724.2,4352.74 -6170.67,6261.61 -778.87,607.75 -1562.11,1207.52 -2326.79,1818.4 -2383.83,1898.06 -4492.87,3840.69 -5938.59,5681.85 -205.85,263.94 -399.93,528.36 -580.78,792.02 -1175.54,1724.78 -1877.22,3333.67 -2286.13,5142.68 -569.14,2517.65 -733.12,5693.61 -243.97,9377.06 172.23,1314.02 398.97,2615.63 611.62,3870 118.1,697.18 276.25,1357.27 425.54,1989.29 688.21,2912.68 1775.62,5850.29 1275.55,9419.08"/>
        <path class="fil4 str43" d="M68498.45 -22986.15c614.77,769.64 1317.66,1509.4 2087.07,2206.96 3359.94,3047.35 7838.01,4770.43 11865.16,7031.25 4454.16,2500.59 7120.44,5893.07 6357.35,10075.57 -141.77,776.85 -435.14,1538.33 -852.07,2273.16 -1292.78,2299.43 -3647.24,4366.02 -6081.33,6265.22 -774.99,604.61 -1556.41,1199.65 -2322.05,1803.5 -2387.36,1877.01 -4531.72,3780.57 -6044.19,5592.13 -215.57,259.77 -419.97,520.11 -611.74,780.07 -1247.39,1700.32 -2045.32,3302.95 -2537.87,5108.82 -685.17,2512.16 -932.05,5673.03 -434.89,9344.06 174.91,1308.24 416.57,2602.82 655.19,3848.38 132.91,693.19 307.09,1349.68 474.95,1978.48 837.13,3137.83 2175.07,6331.14 1317.79,10295.98"/>
        <path class="fil4 str44" d="M71095.05 -22986.15c484.42,557.39 1013.98,1096.46 1579.96,1612.4 3382.04,3083.67 7905.5,4815.38 11994.32,7078.3 4448.57,2462.17 7192.29,5796.7 6504.69,9979.01 -127.69,776.28 -406.98,1538.05 -809.7,2273.83 -1249.33,2303.22 -3570.17,4379.39 -5991.88,6268.91 -771.11,601.58 -1550.83,1191.69 -2317.32,1788.62 -2391,1855.85 -4570.56,3720.34 -6150.03,5502.31 -225.03,255.51 -439.75,511.86 -642.57,768.12 -1319.24,1675.95 -2213.42,3272.32 -2789.6,5074.87 -801.21,2506.85 -1130.99,5652.54 -625.94,9311.15 177.82,1302.64 434.17,2590.11 699.01,3826.94 147.59,689.12 337.91,1341.91 524.23,1967.58 997.23,3350.08 2608.26,6795 1286.47,11151.54"/>
        <path class="fil4 str45" d="M73685.47 -22986.15c339.49,362.01 697.56,715.3 1071.76,1058.24 3403.88,3120.09 7972.5,4860.81 12123.21,7125.43 4442.99,2423.96 7264.15,5700.35 6652.17,9882.38 -113.61,775.71 -378.7,1537.66 -767.34,2274.48 -1205.88,2307.11 -3493.1,4392.77 -5902.55,6272.53 -767.22,598.64 -1545,1183.9 -2312.46,1773.72 -2394.64,1834.9 -4609.4,3660.21 -6255.87,5412.69 -234.63,251.24 -459.54,503.61 -673.28,756.08 -1391.22,1651.47 -2381.53,3241.77 -3041.33,5041 -917.25,2501.44 -1330.05,5632.06 -816.99,9278.14 180.49,1296.96 451.76,2577.32 742.7,3805.42 162.16,685.13 368.62,1334.32 573.51,1956.77 1103.8,3355.29 2868.37,6837.39 1452.03,11211.48 -84.24,260.05 -184.5,511.57 -299.2,755.22"/>
        <path class="fil4 str46" d="M76253.8 -22986.15c190.93,190.73 386.71,378.7 587.47,563.55 3425.85,3156.32 8039.37,4906.81 12252.35,7172.47 2986.48,1606.05 5275.88,3588.89 6290.22,5988.76m0 5612.62c-66.51,154.21 -138.49,307.38 -215.68,459.6 -1162.55,2311 -3416.02,4406.14 -5813.09,6276.22 -763.34,595.51 -1539.42,1176.03 -2307.73,1758.83 -2398.28,1813.75 -4648.24,3599.99 -6361.71,5322.97 -244.21,246.97 -479.44,495.27 -704.11,744.03 -1463.07,1627.1 -2549.64,3211.24 -3293.07,5007.15 -1033.28,2496.13 -1528.98,5611.58 -1007.91,9245.14 183.28,1291.36 469.36,2564.6 786.28,3783.98 176.97,680.96 399.45,1326.64 622.9,1945.86 1201.27,3331.3 3099.23,6819.28 1652.67,11156.47 -186.68,559.76 -448.85,1079.77 -768.56,1565.93"/>
        <path class="fil4 str47" d="M78779.41 -22986.15c52.07,49.32 104.5,98.45 157.3,147.39 3447.7,3192.74 8105.77,4953.47 12381.26,7219.6 1566.37,830.25 2950.67,1761.78 4065.87,2803.89m0 12269.44c-1034.49,1122.92 -2256.51,2181.83 -3525.26,3171.69 -759.45,592.47 -1533.83,1168.06 -2303,1743.84 -2401.92,1792.7 -4687.07,3539.86 -6467.3,5233.35 -253.92,242.6 -499.47,486.92 -735.18,731.99 -1534.81,1602.63 -2717.62,3180.69 -3544.81,4973.29 -1149.19,2490.72 -1727.91,5590.9 -1198.71,9212.13 185.95,1285.67 486.96,2551.7 829.85,3762.45 191.78,676.98 430.28,1319.05 672.18,1935.05 1298.73,3307.31 3329.73,6800.79 1853.3,11101.27 -292.39,851.68 -760.3,1611.45 -1342.91,2298.2"/>
        <path class="fil4 str48" d="M81239.1 -22986.15c3450.5,3121.14 8062.69,4869.73 12323.73,7095.56 637.59,333.08 1246.54,682.57 1821.01,1049.23m0 16295.55c-328.2,274.56 -662.83,544.01 -1001.23,808.04 -755.45,589.35 -1528.01,1160.2 -2298.27,1728.96 -2405.44,1771.64 -4725.79,3479.64 -6573.15,5143.63 -263.26,238.33 -519.12,478.57 -765.88,720.03 -1606.66,1578.16 -2881.36,3151.49 -3796.42,4939.34 -1259.16,2487.41 -1926.97,5570.41 -1389.88,9179.13 188.86,1280.07 504.68,2538.9 873.67,3741.02 206.46,672.8 460.86,1311.46 721.46,1924.14 1395.95,3283.5 3559.85,6782.29 2053.93,11046.17 -397.02,1124.06 -1101.73,2087.27 -1975.4,2932.78"/>
        <path class="fil4 str49" d="M83610.07 -22986.15c3324.51,2923.11 7673.55,4637.93 11773.77,6709.55m0 19464.11c-246.51,181.43 -493.51,361.91 -740.64,541.92 -2409.2,1750.49 -4764.75,3419.51 -6678.98,5053.91 -272.98,234.07 -539.04,470.22 -796.72,707.99 -1678.52,1553.78 -3049.83,3120.94 -4048.27,4905.48 -1375.56,2482.09 -2125.91,5549.83 -1580.81,9146.02 191.53,1274.48 522.4,2526.2 917.36,3719.59 221.27,668.72 491.58,1303.88 770.74,1913.33 1493.06,3259.79 3789.62,6763.42 2254.57,10991.16 -494.49,1361.83 -1443.53,2486.55 -2602.07,3450.52"/>
        <path class="fil4 str50" d="M85867.8 -22986.15c2719.81,2377.68 6117.14,3957.45 9516.04,5574.02m0 22336.09c-1762.38,1248.58 -3457.65,2453.07 -4927.28,3643.71 -282.56,229.8 -559.06,461.97 -827.66,696.04 -1750.5,1529.31 -3218.3,3090.4 -4300.01,4871.52 -1492.09,2476.88 -2324.85,5529.35 -1771.74,9113.12 194.33,1268.69 540.13,2513.3 960.94,3698.06 236.08,664.64 522.28,1296.29 820.14,1902.42 1590.04,3236.27 4018.9,6744.36 2455.09,10936.06 -577.51,1547.81 -1745.64,2788.24 -3146.93,3832.54"/>
        <path class="fil4 str51" d="M87999.05 -22986.15c2139.38,1906.98 4710.63,3305.6 7384.79,4603.79m0 25145.1c-833.49,586.78 -1635.3,1166.55 -2386.26,1744.13 -292.15,225.54 -578.84,453.63 -858.5,684 -1822.22,1504.94 -3386.52,3059.96 -4551.62,4837.67 -1608.48,2471.56 -2523.78,5508.86 -1962.78,9080.11 197.12,1263.1 557.85,2500.49 1004.64,3676.62 251,660.47 552.99,1288.8 869.42,1891.52 1687.01,3212.94 4248.06,6725.1 2655.84,10880.95 -637.47,1663.9 -1961.69,2971.29 -3530.48,4059.69"/>
        <path class="fil4 str52" d="M90001.52 -22986.15c1584.82,1481.99 3425.13,2662.67 5382.32,3715.32m0 28047.81c-228.91,170.15 -454.79,341.81 -676.91,515.09 -1894.08,1480.47 -3555.12,3029.42 -4803.48,4803.81 -1725,2466.34 -2722.72,5488.27 -2153.71,9047.1 199.79,1257.41 575.69,2487.6 1048.33,3655.09 265.7,656.4 583.46,1281.4 918.7,1880.71 1783.87,3189.8 4476.86,6705.66 2856.48,10825.85 -665.99,1693.4 -2047.14,3016.05 -3679.9,4112.8"/>
        <path class="fil4 str53" d="M91890.51 -22986.15c123.68,124.34 249.18,247.54 376.99,369.31 953.78,908.77 2002.71,1705.63 3116.34,2428.32m0 31324.3c-1173.83,1002.29 -2226.53,2062.61 -3097.04,3220.43 -1841.4,2461.14 -2921.78,5467.8 -2344.63,9014.11 202.58,1251.81 593.41,2474.69 1091.9,3633.65 280.62,652.23 614.17,1273.91 967.98,1869.9 1227,2066.02 2855.51,4282.08 3381.79,6707.46m0 3039.76c-78.65,337.26 -185.22,678.21 -324.56,1023.43 -655.19,1623.88 -1971.39,2905.94 -3542.13,3972.91"/>
        <path class="fil4 str54" d="M93698.41 -22986.15c318.13,355.09 653.73,701.35 1004.88,1037.47 221.75,212.35 448.73,418.44 680.55,619.13m0 35409.97c-220.9,244.88 -433.31,494.21 -636.74,748.29 -1957.92,2455.92 -3120.71,5447.31 -2535.55,8981.1 205.24,1246.22 611.25,2461.8 1135.6,3612.22 295.43,648.06 644.63,1266.52 1017.25,1858.99 321.89,511.86 669.76,1033.77 1019.44,1566.3m0 12089.81c-274.31,236.25 -563.43,462.73 -863.95,680.3"/>
        <path class="fil4 str55" d="M95383.84 18467.68c-833.97,1791.08 -1190.58,3793.66 -816.74,6012.94 159.61,951.45 444.36,1883.93 816.74,2781.99"/>
       </g>
      </g>
     </g>
    </g>
    <g style="clip-path:url(#id5)">
     <polygon class="fil5" points="94607.07,42166.2 94607.07,-21858.83 -22273.81,-21858.83 -22273.81,42166.2 "/>
    </g>
   </g>
   <path class="fil5" d="M10443.81 1660.4c1338.58,0 2604.55,309.98 3730.79,861.65l0 4176.56c-928.91,-1002.28 -2256.55,-1629.86 -3730.79,-1629.86 -2808.73,0 -5085.76,2277.02 -5085.76,5085.76 0,2808.74 2277.03,5085.76 5085.76,5085.76 2242.32,0 4145.28,-1451.35 4821.81,-3465.69l-5057.53 0 0 -1505.9 5320.09 0 1702.2 0 1706.15 0c-61.16,4638.34 -3839.88,8379.94 -8492.72,8379.94 -4690.97,0 -8494.11,-3803.13 -8494.11,-8494.11 0,-4690.98 3803.14,-8494.11 8494.11,-8494.11z"/>
  </g>
 </g>
</svg>
