<?xml version="1.0" encoding="UTF-8"?>
<!DOCTYPE svg PUBLIC "-//W3C//DTD SVG 1.1//EN" "http://www.w3.org/Graphics/SVG/1.1/DTD/svg11.dtd">
<!-- Creator: CorelDRAW 2019 (64 Bit) -->
<svg xmlns="http://www.w3.org/2000/svg" xml:space="preserve" width="80mm" height="80mm" version="1.1" style="shape-rendering:geometricPrecision; text-rendering:geometricPrecision; image-rendering:optimizeQuality; fill-rule:evenodd; clip-rule:evenodd"
viewBox="0 0 8000 8000"
 xmlns:xlink="http://www.w3.org/1999/xlink"
 xmlns:xodm="http://www.corel.com/coreldraw/odm/2003">
 <defs>
  <style type="text/css">
   <![CDATA[
    .str0 {stroke:#FEFEFE;stroke-width:20;stroke-miterlimit:22.9256}
    .fil0 {fill:#FEFEFE}
    .fil2 {fill:#201E1E}
    .fil1 {fill:#3189BD}
   ]]>
  </style>
 </defs>
 <g id="Camada_x0020_1">
  <metadata id="CorelCorpID_0Corel-Layer"/>
  <g id="_954513024">
   <g id="_1138982736">
    <path class="fil0 str0" d="M1915.42 5930.67c-73.77,17.19 -113.68,45.58 -169.07,82.66 -56.42,-29.86 -88.01,-104.34 -141.19,-36l-76.28 96.55c-34.62,44.41 10.6,67.74 47.91,97.75 8.61,6.91 16.04,15.4 26.79,18.28 -1.42,17.14 -7.33,24.38 -12.76,39.84 -5.39,15.37 -7.87,27.77 -12.07,44.28 -6.7,26.46 -12.72,69.32 -12.72,99.98 -23.85,5.56 -47.38,10.87 -72.97,17.21 -70.71,17.52 -54.77,48.16 -29.97,145.84 8.75,34.51 9.49,81.16 50.33,81.16 34.14,0 76.01,-19.8 108.95,-22.54 8.88,33.23 83.52,119.46 112.72,139 -71.29,134.74 -64.25,127.83 40.02,177.88 45.25,21.73 83.7,47.94 110.19,24.95 12.39,-10.74 47.76,-84.1 52.66,-105.15 25.58,0 53.08,7.53 97.68,7.53 34.38,0 55.9,-7.53 86.43,-7.53 5.44,23.37 18.33,44.11 28.8,65.13 39.31,78.96 57.67,43.9 126.83,15.36 78.15,-32.25 111.7,-45.92 83.61,-105.57 -11.69,-24.83 -24.05,-49.32 -36.36,-72.6 15.88,-23.72 61.44,-58.43 88.61,-102.99 8.95,-14.68 15.34,-26.7 24.09,-39.77 16.97,3.95 33.65,7.76 51.87,12.02 98.52,23.08 85.24,10.58 114.91,-119.51 12.65,-55.37 22.85,-83.53 -37.5,-96.94 -27.6,-6.13 -51.21,-11.31 -76.68,-17.24l-12.81 -96.15c-6.3,-28.53 -17.67,-61.59 -28.51,-84.19 7.27,-4.87 15.21,-12.06 23.04,-18.28 60.81,-48.45 86.99,-59 39.25,-119.15l-63.86 -78.91c-36.04,-46.35 -57.52,-28.24 -93.54,1.01l-43.91 34.99c-17,-4.53 -79.95,-58.13 -169.06,-78.9 0,-25.34 2.7,-70.63 -0.3,-93.63 -3.54,-27.12 -24.8,-37.87 -56.06,-37.87 -32.45,0 -128.07,-4.71 -150.34,7.47 -30.01,16.39 -18.73,77.54 -18.73,124.03zm112.54 266.93c98.7,0 178.71,80.01 178.71,178.72 0,98.7 -80.01,178.71 -178.71,178.71 -98.71,0 -178.72,-80.01 -178.72,-178.71 0,-98.71 80.01,-178.72 178.72,-178.72z"/>
    <path class="fil0 str0" d="M2730.71 5415.96c-44.01,21.12 -28.43,1.18 -105.21,52.6 -12.67,-17.3 -37.46,-33.81 -60.11,-33.81 -28.84,0 -75.14,72.37 -75.14,82.64 0,21.03 6.14,27.87 17.69,38.69 7.66,7.18 23.4,19.99 31.15,25.2 -14.35,29.92 -22.53,67.98 -22.53,112.7 -9.05,0.75 -42.22,8.36 -49,11.12 -41.98,17 -23.83,64.12 -14.21,100.91 2.38,9.07 4.61,18.93 11.57,26.02 24.46,24.87 59.31,3.14 85.45,0.97 32.95,62.26 49.71,59.65 67.62,86.4 -10.2,43.82 -51.73,72.31 14.98,105.26 38.49,19 72.01,40.01 96.31,-1.49 6.76,-11.55 17.31,-31.19 20.21,-43.66 45.38,10.59 68.54,3.68 112.71,0 3.75,16.08 22.3,52.63 33.84,60.15 30.14,19.62 111.71,-22 118.01,-54.63 4.3,-22.34 -19.03,-47.62 -24.11,-69.39 6.97,-4.65 13.63,-10.46 20.34,-17.24l51.04 -65.4c28.39,0 79.15,28.53 94.16,-26.09 28.42,-103.44 3.25,-101 -64.09,-116.69 0,-70.39 -12.14,-68.02 -22.54,-112.71 29.71,-19.9 62.15,-44.4 39.85,-81.12l-29.69 -38c-25.08,-29.98 -40.62,-37.08 -74.11,-12.46 -11.93,8.77 -11.54,11.1 -26.22,18.87 -17.35,-9.19 -27.94,-17.79 -47.55,-27.6 -19.22,-9.62 -36.67,-12.98 -53.9,-21.24 0,-82.56 -18.17,-82.66 -86.41,-82.66 -55.67,0 -60.11,27.35 -60.11,82.66zm73.33 160.85c66.59,0 120.57,53.98 120.57,120.57 0,66.6 -53.98,120.58 -120.57,120.58 -66.58,0 -120.57,-53.98 -120.57,-120.58 0,-66.59 53.99,-120.57 120.57,-120.57z"/>
    <path class="fil0 str0" d="M2929.83 6156.1l0 33.81c-18.59,0.41 -43.07,12.17 -56.44,18.7 -18.48,9.02 -32.45,19.23 -48.75,30.15 -34.23,-22.93 -56.35,-62.72 -103.64,-2.2 -19.24,24.65 -54.54,59.88 -12.99,92.51 10.38,8.15 18.82,14.77 30.21,22.39 -22.49,42.52 -18.97,81.44 -24.92,102.82 -7.95,28.53 -40.78,5.9 -64.39,33.29 -20.58,23.89 -9.9,40.82 0.53,84.18 14.48,60.17 48.99,43.33 100.05,31.44 3.63,15.55 21.11,37.22 29.99,48.93 11.66,15.35 27.58,26.22 37.63,41.24 -46.61,88.09 -13.46,86.86 37.61,112.67 24.29,12.29 54.42,22.73 71.56,-11.03 5.62,-11.09 15.65,-28.94 18.58,-41.53 24.63,0 84.51,9.78 112.72,-3.75 36.16,68.34 32.78,86.29 113.97,46.34 73.64,-36.2 27.03,-65.65 17.51,-106.46 17.34,-25.88 35.36,-25.41 67.64,-86.41 37.14,0.83 81.59,29.79 97.83,-29.91 15.32,-56.35 26.63,-109.1 -64.02,-109.1 0,-62.73 -13.2,-72.64 -22.54,-112.72 24.88,-37.14 75.72,-37.58 22.54,-105.2 -6.81,-8.66 -20.93,-28.45 -29.28,-34.63 -38.77,-28.68 -72.73,22.15 -83.43,23.36l-48.27 -26.87c-18.64,-9.84 -39.15,-13.44 -56.93,-21.96 0,-88.7 -5.01,-78.91 -105.2,-78.91 -24.39,0 -37.57,24.13 -37.57,48.85zm71.24 206.18c59.21,0 107.23,48.01 107.23,107.23 0,59.22 -48.02,107.24 -107.23,107.24 -59.21,0 -107.23,-48.02 -107.23,-107.24 0,-59.22 48.02,-107.23 107.23,-107.23z"/>
   </g>
   <path class="fil0" d="M2271.93 1884.64l240.21 0.72 2281.96 -1.15 240.21 1.15 280.24 3.69c0,-295.44 -50.71,-424.09 -293.58,-480.68 -1.29,-57.44 -19.64,-157.95 -30.31,-223.25 -31.49,-192.89 -127.69,-382.96 -245.71,-528.3 -136.53,-168.18 -436.95,-396.11 -631.43,-396.11 -52.22,108.81 -200.18,656.05 -200.18,800.7l-520.45 0c0,-73.36 -24.54,-146.33 -36.77,-203.44 -16.06,-74.96 -26.28,-141.39 -43.13,-210.41 -39.45,-161.54 -119.39,-383.13 -120.27,-386.85 -85.29,0 -197.11,55.13 -257.84,89.12 -223.85,125.28 -416.04,306.33 -525.14,542.43 -70.52,152.6 -80.23,244.52 -121.88,398.58 -20,73.96 3.19,105.5 -52.65,134.19 -36.39,18.69 -84.51,24.91 -120.2,53.27 -112.1,89.05 -123.31,258.4 -123.31,410.47l280.23 -4.13z"/>
   <path class="fil0 str0" d="M737.28 6759.63c0,375.49 57.01,373.47 360.3,493.76 1358.72,539.01 2660.99,410.18 4069.96,378.78 -400.23,-33.83 -741.5,-83.29 -992.16,-232.33 -869.68,-7.92 -2181.48,-28.76 -2964.85,-432.87 -48.34,-24.94 -69.18,-58.72 -90.85,-109.32 -71.47,-166.86 -12.69,-466.16 3.37,-633.04 32.64,-339.13 178.85,-1254.91 494.76,-1480.27 35.83,-25.57 917.39,-424.68 1041.12,-453.49 24.28,104.19 256.44,421.74 337.29,490.07 201.96,170.69 336.91,270.57 636.88,270.57 117.03,0 364.63,-72.26 452.93,-160.92 54.49,-54.74 56.62,-52.07 54.49,-159.04 -2.94,-147.21 40.07,-222.25 187.33,-269.26 260.14,-90.95 701.38,-144.74 986.7,-144.74 -74.84,-102.11 -804.78,-208.94 -827.37,-480.41l-26.7 0c-984.27,2022.15 -1614.83,87.91 -1734.82,0 -66.11,283.74 -1055.37,537.29 -1214.01,627.58 -135.98,77.38 -238.82,154.07 -326.23,287.63 -223.33,341.23 -341.81,999.39 -402.61,1438.98 -24.92,180.2 -45.53,375.81 -45.53,568.32z"/>
   <path class="fil1" d="M5634.82 7546.97c542.31,0 953.81,10 1491,-83.68 538.39,-93.92 417.31,-112.01 417.31,-676.98 -223.81,149.88 -453.19,159.06 -751,196.49 -291.71,36.66 -607.93,30.4 -930.44,30.38 -76.6,0 -147.16,-1.58 -221.3,5.7 -91.82,9.01 -568.5,-26.07 -672.35,-32.83 -123.69,-8.06 -306.53,-40.66 -417.58,-62.85 -224,-44.76 -205.69,-44.57 -343.53,-136.89 0,564.97 -121.09,583.06 417.31,676.98 302,52.65 665.06,83.68 1010.58,83.68z"/>
   <path class="fil1" d="M5634.82 6879.73c542.31,0 953.81,10 1491,-83.69 538.39,-93.9 417.31,-112 417.31,-676.96 -223.81,149.86 -453.19,159.05 -751,196.48 -291.71,36.66 -607.93,30.4 -930.44,30.39 -76.6,-0.02 -147.16,-1.59 -221.3,5.69 -91.82,9.01 -568.5,-26.07 -672.35,-32.84 -150.85,-9.82 -466.13,-63.82 -609.69,-110.93 -99.39,-32.6 -85.08,-44.37 -151.42,-88.79 0,564.96 -121.09,583.06 417.31,676.96 302,52.67 665.06,83.69 1010.58,83.69z"/>
   <path class="fil1" d="M5634.82 6212.5c542.31,0 953.81,10 1491,-83.7 98.29,-17.14 368.57,-70.12 406.77,-140.37 33.39,-61.41 10.54,-435 10.54,-536.59 -223.81,149.87 -453.19,159.04 -751,196.47 -291.71,36.67 -607.93,30.4 -930.44,30.39 -76.6,0 -147.16,-1.57 -221.3,5.71 -91.82,9.01 -568.5,-26.09 -672.35,-32.85 -150.85,-9.83 -466.13,-63.81 -609.69,-110.92 -99.39,-32.62 -85.08,-44.37 -151.42,-88.8 0,564.95 -121.09,583.06 417.31,676.96 302,52.67 665.06,83.7 1010.58,83.7z"/>
   <path class="fil1" d="M5634.82 5545.25c542.31,0 953.81,10 1491,-83.7 538.39,-93.9 417.31,-111.99 417.31,-676.95 -121.06,81.07 -162.41,100.44 -332.37,134.7 -462.04,93.17 -859.87,92.18 -1349.07,92.16 -76.6,0 -147.16,-1.58 -221.3,5.7 -91.82,9.01 -568.5,-26.07 -672.35,-32.83 -150.85,-9.83 -466.13,-63.83 -609.69,-110.93 -99.39,-32.61 -85.08,-44.37 -151.42,-88.8 0,101.58 -22.85,475.18 10.54,536.6 93.31,171.64 1212.41,224.05 1417.35,224.05z"/>
   <path class="fil2" d="M4206.93 4611.12c0,357.8 3336.2,357.8 3336.2,0 0,-187.73 -1138.22,-253.55 -1427.89,-253.55l-480.42 0c-289.67,0 -1427.89,65.82 -1427.89,253.55z"/>
   <path class="fil0" d="M5034.31 1885.36l-240.21 -1.15 -53.38 204.75 -20.27 120.09c-11.5,68.17 19.78,105.72 73.65,120.1 0,68.57 -3.78,99.67 -16.51,156.98 -8.19,36.94 -18.85,95.89 -31.56,141.91 -20.65,74.8 -32.28,58.14 -68.4,105.1 -48.48,63.05 -37.95,302.73 -241.06,626.35 -126.15,201 -309.23,409.24 -522.82,518.06 -71.87,36.62 -174.14,77.06 -280.21,80.18 -239.51,7.08 -369.78,-88.19 -498.32,-196.55 -489.21,-412.38 -516.87,-963.04 -548.04,-1013.32 -27.94,-45.09 -42.89,-33.62 -70.04,-103.43 -22.72,-58.42 -58.38,-228.74 -58.38,-301.92 64.94,-5.41 105.28,-54.46 103.04,-120.11 -37.24,-47.44 -45.5,-66.8 -23.46,-146.8 -3.96,-58.49 -24.94,-128.05 -26.2,-190.24l-240.21 -0.72c1.33,66.54 28.14,144.91 27.73,205.18 -0.93,138.32 -166.61,67.36 -22.26,580.84 61.45,218.65 49.36,21.9 130.62,349.79 33.25,134.19 73.82,235.91 130.81,349.61 54.76,109.25 105.34,193.16 177.12,289.94 107.05,144.35 216.19,252.75 362.18,358.44 39.73,28.76 105.26,69.85 150.52,89.69 471.69,206.82 848.86,15.91 1175.38,-314.12 28.58,-28.88 31.16,-36.5 54.58,-65.52 21.35,-26.44 34.73,-37.42 55.49,-64.62 338.16,-443.1 325.72,-732.66 382.67,-818.35 87.61,-131.83 164.54,-414.42 130.3,-575.82 -26.7,-125.89 -61.76,-78.84 -36.56,-183.23 12.32,-51 29.12,-166.03 43.8,-201.11z"/>
   <path class="fil0 str0" d="M2538.34 2075.6c-22.04,80 -13.78,99.36 23.46,146.8 69.58,42.91 35.56,127.63 53.04,217.57 46.62,240.05 220.54,317.01 484.34,316.44 632.05,-1.38 362.78,-534.01 533.92,-534.01 74.36,19.85 75.48,96.58 80.4,186.51 14.96,273.18 197.09,346.97 467.03,347.61 158.48,0.38 325.97,-47.99 395.1,-138.73 154.27,-202.51 15.64,-342.8 144.82,-408.74l20.27 -120.09c-97.25,-65.13 -72.65,-49.36 -234.2,-72.73 -185.85,-26.91 -400.55,-31.43 -581.08,4.75 -592.21,118.67 -467.24,-81.11 -1130.74,-9.78 -99.91,10.73 -186.66,18.82 -256.36,64.4zm558.26 20.72c289.12,7.75 379.29,-6.37 343.16,264.46 -36.13,270.83 -163.63,283.24 -391.72,282.04 -228.1,-1.2 -328.56,-131.14 -328.56,-277.76 0,-82.72 7.71,-181.7 28,-204.29 45.99,-51.15 212.5,-68.11 349.12,-64.45zm1094.23 0c-289.13,7.75 -379.3,-6.37 -343.16,264.46 36.13,270.83 163.62,283.24 391.72,282.04 228.1,-1.2 328.55,-131.14 328.55,-277.76 0,-82.72 -7.7,-181.7 -27.99,-204.29 -46,-51.15 -212.51,-68.11 -349.12,-64.45z"/>
  </g>
 </g>
</svg>
