<svg xmlns="http://www.w3.org/2000/svg" xmlns:xlink="http://www.w3.org/1999/xlink" viewBox="0 0 448 260.21"><defs><style>.cls-1,.cls-10,.cls-13,.cls-8{fill:none;}.cls-2{opacity:0.2;fill:url(#linear-gradient);}.cls-3{fill:#475666;}.cls-4{fill:#2e7edd;}.cls-5{fill:#faa285;}.cls-6{fill:#fff;}.cls-7{fill:#fcc7a3;}.cls-8{stroke:#de7d68;stroke-linecap:round;stroke-linejoin:round;stroke-width:2px;}.cls-9{fill:#3b4854;}.cls-10{stroke:#475666;}.cls-10,.cls-13{stroke-miterlimit:10;stroke-width:1.5px;}.cls-11{fill:#1666b9;}.cls-12{clip-path:url(#clip-path);}.cls-13{stroke:#596675;}</style><linearGradient id="linear-gradient" x1="224" y1="260.21" x2="224" y2="214.08" gradientUnits="userSpaceOnUse"><stop offset="0" stop-color="#042a37" stop-opacity="0"/><stop offset="1" stop-color="#042a37"/></linearGradient><clipPath id="clip-path"><polygon class="cls-1" points="365.48 81.19 347.74 76.92 342.44 92.12 360.69 96.28 365.48 81.19"/></clipPath></defs><title>Ativo 1</title><g id="Camada_2" data-name="Camada 2"><g id="OBJECTS"><path class="cls-2" d="M17.83,214.08H430.17a10.62,10.62,0,0,1,10.62,10.62v35.51a0,0,0,0,1,0,0H7.22a0,0,0,0,1,0,0V224.7A10.62,10.62,0,0,1,17.83,214.08Z"/><path class="cls-3" d="M161.39,65.9s-.77,26,1.32,35c1.21,5.21,4.63,6.61,7.27,6.88a2,2,0,0,1,1.42,3.14c-4.76,7.11-18.47,21.66-43.39,3.95C100.9,95.59,125.92,71,125.92,71Z"/><path class="cls-3" d="M83.61,72.12a19.16,19.16,0,0,0-16.35,1.63c-2.3,1.35.14,4.7,2.43,3.36a14.62,14.62,0,0,1,12.19-1.22C84.39,76.75,86.14,73,83.61,72.12Z"/><path class="cls-4" d="M119.75,132.15h0c-5.7-1.16-11.79,2.9-13.23,8.81l-5.3,31.74a71.68,71.68,0,0,0,18,3.91l7.22-32.71C128,138.44,125.05,133.23,119.75,132.15Z"/><path class="cls-5" d="M99.71,181.77,63.57,202.36s-13.28-11.21-25.43,0-1.44,11.72-1.44,11.72H62.65l38.66-13.61a21.69,21.69,0,0,0,16-15.24l1.91-8.62a71.68,71.68,0,0,1-18-3.91Z"/><path class="cls-6" d="M102.07,214.08h62.82L170.7,142C172,125.38,158.37,111.2,141,111.2h0c-15.09,0-27.79,10.86-29.54,25.26Z"/><path class="cls-4" d="M124.1,130.66C139.63,138,147,127,151.24,112.93A30.89,30.89,0,0,0,141,111.2h0A30.19,30.19,0,0,0,117.73,122C118.39,126,121,128.59,124.1,130.66Z"/><path class="cls-4" d="M157.81,132.15h0A10.24,10.24,0,0,0,145.66,141l-1.4,31.74a77.19,77.19,0,0,0,18.45,3.91l3.2-32.71A10.23,10.23,0,0,0,157.81,132.15Z"/><path class="cls-7" d="M136.4,186.34l-26.15,16s-14.65-11.21-25.43,0,0,11.72,0,11.72h26l25.39-9.34A20.44,20.44,0,0,0,136.4,186.34Z"/><path class="cls-5" d="M144.26,172.7l-.4,9.07-7.46,4.57a20.44,20.44,0,0,1-.24,18.4l11.6-4.27a18.4,18.4,0,0,0,14.1-15.24l.85-8.62A77.19,77.19,0,0,1,144.26,172.7Z"/><path class="cls-5" d="M140,100.22l7,11.56-5.27,10.52a10.62,10.62,0,0,1-19.61-1.52l-3.65-11.4Z"/><rect class="cls-7" x="71.32" y="19.06" width="74" height="103.42" rx="35.5" transform="translate(-7.33 12.76) rotate(-6.52)"/><path class="cls-8" d="M106.41,101.86a14,14,0,0,1-21.57,7"/><path class="cls-3" d="M98.6,66.86a19.16,19.16,0,0,0-16.35,1.63c-2.3,1.35.14,4.7,2.43,3.36a14.64,14.64,0,0,1,12.2-1.22C99.38,71.49,101.13,67.72,98.6,66.86Z"/><path class="cls-3" d="M155,32.59a19.26,19.26,0,0,0-16.36,1.63c-2.3,1.35.14,4.71,2.43,3.37a14.64,14.64,0,0,1,12.2-1.22C155.79,37.23,157.54,33.46,155,32.59Z"/><rect class="cls-3" x="37.88" y="206.7" width="94.84" height="7.38" rx="3.54"/><path class="cls-3" d="M91.61,209.21,76.13,144.16a4,4,0,0,0-3.85-3H4A4,4,0,0,0,.11,146l15.17,65a4,4,0,0,0,3.85,3.06H87.77A4,4,0,0,0,91.61,209.21Z"/><path class="cls-9" d="M86.52,214.08,69.87,144.16a4,4,0,0,0-3.85-3H4A4,4,0,0,0,.11,146l15.17,65a4,4,0,0,0,3.85,3.06Z"/><path class="cls-10" d="M36.49,181.37c.93,4.23,3.71,7.23,6.2,6.68s3.77-4.43,2.84-8.67-3.71-7.22-6.2-6.68S35.56,177.13,36.49,181.37Z"/><path class="cls-3" d="M140.4,80.86s-27.81,1.64-28.85-26.24c0,0-27.12,10-50.45,7.7A3.42,3.42,0,0,1,58,58.63c.82-9.83,5.81-38.82,36-45.72,36.48-8.33,47.25,20.6,47.25,20.6a33.24,33.24,0,0,1,15.89,14c8.91,14.89,3.21,42-11.15,46.46Z"/><path class="cls-5" d="M82.77,98l-1.52-4.85-1.53-4.85a2.42,2.42,0,0,0-4.55-.17l-1.89,4.71-1.9,4.71a6.05,6.05,0,0,0,5.38,8.32h0a6.06,6.06,0,0,0,6-7.87Z"/><path class="cls-5" d="M142.41,65.9a10.88,10.88,0,0,0-7.24,2.76c.49,1.4,8.5,19.83,8.5,19.83,5.24-.81,9.68-6.18,9.68-11.65A10.94,10.94,0,0,0,142.41,65.9Z"/><path class="cls-3" d="M96.67,88.49a5,5,0,1,1-5-4.95A4.94,4.94,0,0,1,96.67,88.49Z"/><path class="cls-3" d="M389.06,40.11A23.88,23.88,0,0,0,355.41,8.62a19.09,19.09,0,0,0-33.19,2.26,23.89,23.89,0,0,0-31.37,31.65A19.19,19.19,0,1,0,318.21,56,23.93,23.93,0,0,0,336,37.86a18.93,18.93,0,0,0,4.78.3,19.16,19.16,0,0,0,4.76-1A23.94,23.94,0,0,0,362.2,52.13a16.86,16.86,0,0,0,0,1.88,16.49,16.49,0,1,0,26.85-13.9Z"/><path class="cls-3" d="M364.39,72.12a19.16,19.16,0,0,1,16.35,1.63c2.31,1.35-.14,4.7-2.43,3.36a14.62,14.62,0,0,0-12.19-1.22C363.61,76.75,361.86,73,364.39,72.12Z"/><path class="cls-9" d="M350.4,94.76l6.68-19.14a2.09,2.09,0,0,1,2.54-1.33l19.45,5.35a2.09,2.09,0,0,1,1.44,2.66l-6,19a2.1,2.1,0,0,1-2.53,1.4l-20.09-5.22A2.11,2.11,0,0,1,350.4,94.76Z"/><path class="cls-11" d="M328.25,132.15h0C334,131,340,135.05,341.48,141l5.3,31.74a71.59,71.59,0,0,1-18,3.91l-7.22-32.71C320,138.44,323,133.23,328.25,132.15Z"/><path class="cls-5" d="M348.29,181.77l36.14,20.59s13.28-11.21,25.43,0,1.44,11.72,1.44,11.72H385.35l-38.66-13.61a21.69,21.69,0,0,1-16-15.24l-1.91-8.62a71.59,71.59,0,0,0,18-3.91Z"/><path class="cls-4" d="M345.93,214.08H283.11L277.3,142C276,125.38,289.63,111.2,307,111.2h0c15.09,0,27.79,10.86,29.54,25.26Z"/><path class="cls-6" d="M339,156.79c-20,1.38-40.07,2.63-60.15,4.06l2.05,25.48c20.25-1.7,40.61-3.06,61.16-4.4Z"/><path class="cls-11" d="M290.19,132.15h0A10.24,10.24,0,0,1,302.34,141l1.4,31.74a77.19,77.19,0,0,1-18.45,3.91l-3.2-32.71A10.23,10.23,0,0,1,290.19,132.15Z"/><path class="cls-7" d="M311.6,186.34l26.15,16s14.65-11.21,25.43,0,0,11.72,0,11.72H337.23l-25.39-9.34A20.44,20.44,0,0,1,311.6,186.34Z"/><path class="cls-5" d="M303.74,172.7l.4,9.07,7.46,4.57a20.44,20.44,0,0,0,.24,18.4l-11.6-4.27a18.4,18.4,0,0,1-14.1-15.24l-.85-8.62A77.19,77.19,0,0,0,303.74,172.7Z"/><path class="cls-5" d="M308.05,100.22l-7,11.56,5.27,10.52a10.62,10.62,0,0,0,19.61-1.52l3.65-11.4Z"/><rect class="cls-7" x="302.68" y="19.06" width="74" height="103.42" rx="35.5" transform="translate(669.13 179.66) rotate(-173.48)"/><path class="cls-8" d="M341.59,101.86a14,14,0,0,0,21.57,7"/><path class="cls-3" d="M349.4,66.86a19.16,19.16,0,0,1,16.35,1.63c2.3,1.35-.14,4.7-2.43,3.36a14.64,14.64,0,0,0-12.2-1.22C348.62,71.49,346.87,67.72,349.4,66.86Z"/><rect class="cls-3" x="315.27" y="206.7" width="94.84" height="7.38" rx="3.54" transform="translate(725.39 420.78) rotate(180)"/><path class="cls-3" d="M356.39,209.21l15.48-65.05a4,4,0,0,1,3.85-3H444a4,4,0,0,1,3.85,4.86l-15.17,65a4,4,0,0,1-3.85,3.06H360.23A4,4,0,0,1,356.39,209.21Z"/><path class="cls-9" d="M361.48,214.08l16.65-69.92a4,4,0,0,1,3.85-3H444a4,4,0,0,1,3.85,4.86l-15.17,65a4,4,0,0,1-3.85,3.06Z"/><path class="cls-3" d="M307.6,80.86s27.81,1.64,28.85-26.24a113,113,0,0,0,43.15,4.57,3.42,3.42,0,0,0,3.07-3.68c-.83-9.84-4.55-30.12-28.68-36.34-36.23-9.35-47.25,14.34-47.25,14.34s-4.3,3.37-10.67,14c-8.91,14.89-8.43,41.91,5.93,46.38Z"/><path class="cls-5" d="M364.26,98.34l1.79-5.68L367.84,87a2.83,2.83,0,0,1,5.32-.21l2.22,5.52,2.22,5.52a7.08,7.08,0,0,1-6.3,9.73h0a7.09,7.09,0,0,1-7-9.21Z"/><path class="cls-9" d="M337.76,92.86l6.68-19.14A2.11,2.11,0,0,1,347,72.39l21.68,5.35a2.09,2.09,0,0,1,1.44,2.66l-6,19a2.09,2.09,0,0,1-2.53,1.4l-22.32-5.22A2.11,2.11,0,0,1,337.76,92.86Z"/><polygon class="cls-6" points="365.48 81.19 347.74 76.92 342.44 92.12 360.69 96.28 365.48 81.19"/><path class="cls-9" d="M345.93,76,310.8,60.8a4.15,4.15,0,0,0-5.64,2.38h0a4.15,4.15,0,0,0,2.6,5.33l36.77,12.17Z"/><path class="cls-5" d="M305.59,65.9a10.88,10.88,0,0,1,7.24,2.76c-.49,1.4-8.5,19.83-8.5,19.83-5.24-.81-9.68-6.18-9.68-11.65A10.94,10.94,0,0,1,305.59,65.9Z"/><g class="cls-12"><path class="cls-3" d="M353.25,92.47a5,5,0,1,0,4.95-5A5,5,0,0,0,353.25,92.47Z"/></g><polygon class="cls-9" points="367.8 83.33 376.57 85.8 375.62 90.84 365.48 88.49 367.8 83.33"/><path class="cls-10" d="M414.47,181.37c-.93,4.23-3.71,7.23-6.21,6.68s-3.76-4.43-2.83-8.67,3.7-7.22,6.2-6.68S415.39,177.13,414.47,181.37Z"/><circle class="cls-5" cx="188.55" cy="70.77" r="10.94"/><circle class="cls-5" cx="258.64" cy="70.77" r="10.94"/><path class="cls-3" d="M252.12,84.57s11.34-4.27,14.2-24.79C269,41,264.33,8,226.62,4.45c-28.88-2.72-45.48,17.86-48.48,42.34-.09.78,3,1.84,3,1.84s-3.91,28.68,9,35.84C198.65,89.2,252.12,84.57,252.12,84.57Z"/><path class="cls-4" d="M221.73,110.9h3.73A44.12,44.12,0,0,1,269.58,155v59.06a0,0,0,0,1,0,0h-92a0,0,0,0,1,0,0V155A44.12,44.12,0,0,1,221.73,110.9Z"/><path class="cls-6" d="M230.68,111.57H216.51c-15.68,5.69-11,18.44-4.26,20.16,4.51,1.14,8.65-1.5,11.34-3,2.69,1.5,6.83,4.14,11.34,3C241.73,130,246.35,117.26,230.68,111.57Z"/><path class="cls-5" d="M215,101.78H232.2a2.36,2.36,0,0,1,2.36,2.36v13.24A10.53,10.53,0,0,1,224,127.92h-.89a10.53,10.53,0,0,1-10.53-10.53V104.15A2.36,2.36,0,0,1,215,101.78Z"/><rect class="cls-7" x="186.59" y="7.2" width="74" height="103.42" rx="35.5"/><path class="cls-3" d="M287.18,141.12H160a6.18,6.18,0,0,0-6.29,7.07L161,208.55c.37,3.07,3.47,5.53,6.92,5.53H279.22c3.45,0,6.55-2.46,6.93-5.53l7.33-60.36A6.19,6.19,0,0,0,287.18,141.12Z"/><path class="cls-7" d="M295,188.41a16.16,16.16,0,0,0-10.9-6.78l-6.19-.95a3,3,0,0,0-2.11,5.45l3.09,1.88-5.34-.37h-.18a3,3,0,0,0-1.42,5.55l5.66,3.4-5.72.29h-.14a3,3,0,0,0-.84,5.66l5.55,2.61-4.78.84-.13,0a2.93,2.93,0,0,0-2.24,2.88,2.9,2.9,0,0,0,2.16,2.86l5.48,1.64a16.75,16.75,0,0,0,3.2.62,16.33,16.33,0,0,0,17.47-13A16.17,16.17,0,0,0,295,188.41Z"/><path class="cls-7" d="M152.22,188.41a16.16,16.16,0,0,1,10.9-6.78l6.18-.95a3,3,0,0,1,3.29,1.82,3,3,0,0,1-1.17,3.63L168.33,188l5.34-.37h.18a3,3,0,0,1,1.41,5.55l-5.66,3.4,5.72.29h.15a2.94,2.94,0,0,1,2.57,2.56,2.9,2.9,0,0,1-1.74,3.1l-5.54,2.61,4.77.84.14,0a3,3,0,0,1,2.24,2.88,2.91,2.91,0,0,1-2.17,2.86l-5.48,1.64a16.81,16.81,0,0,1-3.19.62,16.34,16.34,0,0,1-17.48-13A16.18,16.18,0,0,1,152.22,188.41Z"/><path class="cls-3" d="M209.73,73.9a4.95,4.95,0,1,1-4.95-5A4.95,4.95,0,0,1,209.73,73.9Z"/><circle class="cls-3" cx="240.66" cy="73.9" r="4.95"/><path class="cls-5" d="M229,80.77l-1.64-4.56-1.63-4.56a2.31,2.31,0,0,0-4.34,0l-1.63,4.56-1.63,4.56a5.77,5.77,0,0,0,5.43,7.72h0A5.78,5.78,0,0,0,229,80.77Z"/><path class="cls-8" d="M237.79,91.3a15.77,15.77,0,0,1-25.48,1.12"/><path class="cls-3" d="M257.6,25.79l.19-.33a1.54,1.54,0,0,0,.66-.08l4.93-1.63c1.91-.62,1.09-3.64-.83-3l-1.38.46a20.31,20.31,0,0,0,1-4.41c.21-2-2.92-2-3.13,0a15.22,15.22,0,0,1-1.9,5.84,1.7,1.7,0,0,0-.3.3,1.45,1.45,0,0,0-.89.14c-7-10.63-18-18.3-33.4-17.7C185.62,6.82,182,48.11,182,48.11A94.48,94.48,0,0,0,203.18,48a.92.92,0,0,0,.79-.7c.57-2.62,2.16-7.21,2.16-7.21a32.22,32.22,0,0,0,1.62,6.47.94.94,0,0,0,1.06.56c2.71-.5,5.34-1.09,7.87-1.76a.91.91,0,0,0,.69-.71c.47-2.78.79-5.56,1.07-8.63A59.31,59.31,0,0,1,221,44.08a.84.84,0,0,0,.9.63,57,57,0,0,0,22.21-7.44,42.88,42.88,0,0,1-19.16,9c-1.88.36-1.7,3.49.2,3.12a46.67,46.67,0,0,0,25.66-14.27c.46,7.66-.48,15.27,1.88,22.94a1.51,1.51,0,1,0,2.87-.91c-1.57-5.12-1.66-10.25-1.7-15.39a126.74,126.74,0,0,0,8.19,28.68C267.1,59.21,265.83,40.33,257.6,25.79Z"/><path class="cls-3" d="M210.85,58.23A19.15,19.15,0,0,0,195,62.46c-2.06,1.7.89,4.62,2.93,2.93a14.65,14.65,0,0,1,11.84-3.16C212.36,62.68,213.48,58.69,210.85,58.23Z"/><path class="cls-3" d="M235.37,58.23a19.15,19.15,0,0,1,15.88,4.23c2.06,1.7-.89,4.62-2.93,2.93a14.67,14.67,0,0,0-11.85-3.16C233.86,62.68,232.74,58.69,235.37,58.23Z"/><circle class="cls-13" cx="223.59" cy="180.63" r="7.86" transform="translate(-62.24 211.01) rotate(-45)"/></g></g></svg>