<?xml version="1.0" encoding="UTF-8"?>
<!DOCTYPE svg PUBLIC "-//W3C//DTD SVG 1.1//EN" "http://www.w3.org/Graphics/SVG/1.1/DTD/svg11.dtd">
<!-- Creator: CorelDRAW 2019 (64 Bit) -->
<svg xmlns="http://www.w3.org/2000/svg" xml:space="preserve" width="200mm" height="100mm" version="1.1" style="shape-rendering:geometricPrecision; text-rendering:geometricPrecision; image-rendering:optimizeQuality; fill-rule:evenodd; clip-rule:evenodd"
viewBox="0 0 20000 10000"
 xmlns:xlink="http://www.w3.org/1999/xlink"
 xmlns:xodm="http://www.corel.com/coreldraw/odm/2003">
 <defs>
  <style type="text/css">
   <![CDATA[
    .str1 {stroke:#373435;stroke-width:7.06;stroke-miterlimit:22.9256}
    .str0 {stroke:#373435;stroke-width:20;stroke-miterlimit:22.9256}
    .fil0 {fill:white}
    .fil1 {fill:white;fill-rule:nonzero}
   ]]>
  </style>
 </defs>
 <g id="Camada_x0020_1">
  <metadata id="CorelCorpID_0Corel-Layer"/>
  <polygon class="fil0 str0" points="5475.92,9441.52 5475.92,9700.8 17.74,9700.8 17.74,107.46 19982.26,107.46 19982.26,9700.8 14585.9,9700.8 14585.9,9441.52 19722.98,9441.52 19722.98,366.74 277.02,366.74 277.02,9441.52 "/>
  <path class="fil1 str1" d="M6550.97 9068.46c-41.9,0.58 -76.07,9.26 -102.91,25.65 -26.85,16.59 -46.78,39.93 -59.8,69.83 -12.81,29.9 -19.12,65.2 -19.12,105.9 0.2,32.03 6.1,60.19 17.08,84.3 11.19,24.12 25.84,45.72 44.14,64.43 18.31,18.71 38.44,35.88 60.2,51.51 21.97,15.62 43.94,31.05 65.9,46.1 21.76,15.05 41.9,30.86 60.2,47.65 18.31,16.97 32.95,35.88 44.14,56.71 10.98,21.03 16.88,45.33 17.08,72.92 0.21,29.12 -4.06,54.97 -12.61,77.35 -8.54,22.38 -22.37,39.74 -41.49,52.47 -18.91,12.73 -44.13,19.29 -75.25,19.48 -31.12,-0.19 -56.34,-6.75 -75.25,-19.48 -19.12,-12.73 -32.95,-30.09 -41.5,-52.47 -8.54,-22.38 -12.81,-48.23 -12.61,-77.35l0 -45.14 -53.69 0 0 41.66c0,29.32 3.46,56.33 10.37,81.02 7.12,24.5 17.9,45.91 32.75,64.05 14.85,18.13 33.96,32.21 57.35,42.24 23.19,10.03 51.26,15.05 83.8,15.24 32.54,-0.19 60.61,-5.21 83.8,-15.24 23.38,-10.03 42.5,-24.11 57.35,-42.24 14.85,-18.14 25.63,-39.55 32.75,-64.05 6.91,-24.69 10.37,-51.7 10.37,-81.02 -0.2,-31.63 -6.1,-59.6 -17.09,-83.52 -11.18,-23.92 -25.83,-45.14 -44.13,-63.66 -18.31,-18.71 -38.44,-35.69 -60.2,-51.31 -21.97,-15.63 -43.94,-31.06 -65.9,-46.11 -21.76,-15.04 -41.9,-31.05 -60.21,-48.03 -18.3,-16.97 -32.94,-36.07 -44.13,-57.29 -11.19,-21.22 -16.88,-45.72 -17.08,-73.69 -0.21,-28.74 3.86,-54.4 12.2,-76.77 8.34,-22.38 21.96,-40.13 40.68,-52.86 18.51,-12.92 43.32,-19.48 74.03,-19.67 30.71,0.19 55.52,6.94 74.24,19.87 18.51,13.11 32.13,30.86 40.47,53.43 8.34,22.57 12.41,48.22 12.2,77.16l0 20.83 53.7 0 0 -17.36c0,-29.32 -3.26,-56.33 -10.17,-81.02 -6.92,-24.49 -17.7,-45.91 -32.14,-64.04 -14.64,-18.13 -33.56,-32.21 -56.54,-42.25 -22.98,-10.03 -50.64,-15.04 -82.98,-15.23l0 0zm689.48 6.94l0 810.19 56.14 0 0 -810.19 -56.14 0zm621.15 87.96l267.25 722.23 62.24 0 0 -810.19 -51.25 0 0 684.03 -256.27 -684.03 -73.22 0 0 810.19 51.25 0 0 -722.23zm1022.64 -94.9c-32.55,0.19 -60.61,5.4 -83.8,15.62 -23.39,10.22 -42.51,24.5 -57.36,43.02 -14.84,18.32 -25.62,40.12 -32.74,64.81 -6.92,24.89 -10.37,52.09 -10.37,81.41l0 414.35c0,29.32 3.45,56.52 10.37,81.4 7.12,24.69 17.9,46.49 32.74,64.82 14.85,18.52 33.97,32.79 57.36,43.01 23.19,10.23 51.25,15.44 83.8,15.63 32.54,-0.19 60.61,-5.4 83.79,-15.63 23.39,-10.22 42.51,-24.49 57.36,-43.01 14.84,-18.33 25.62,-40.13 32.74,-64.82 6.92,-24.88 10.38,-52.08 10.38,-81.4l0 -92.59 -53.7 0 0 96.06c0.2,29.13 -4.07,55.17 -12.61,77.93 -8.54,22.76 -22.37,40.51 -41.49,53.63 -18.91,13.12 -44.14,19.87 -75.25,20.06 -31.12,-0.19 -56.34,-6.94 -75.26,-20.06 -19.12,-13.12 -32.95,-30.87 -41.49,-53.63 -8.54,-22.76 -12.81,-48.8 -12.61,-77.93l0 -421.3c-0.2,-29.32 4.07,-55.36 12.61,-78.12 8.54,-22.96 22.37,-41.09 41.49,-54.4 18.92,-13.31 44.14,-20.06 75.26,-20.25 31.11,0.19 56.34,6.94 75.25,20.25 19.12,13.31 32.95,31.44 41.49,54.4 8.54,22.76 12.81,48.8 12.61,78.12l0 70.61 53.7 0 0 -67.13c0,-29.32 -3.46,-56.52 -10.38,-81.41 -7.12,-24.69 -17.9,-46.49 -32.74,-64.81 -14.85,-18.52 -33.97,-32.8 -57.36,-43.02 -23.18,-10.22 -51.25,-15.43 -83.79,-15.62zm748.06 381.94l0 -326.39 280.67 0 0 -48.61 -336.81 0 0 810.19 336.81 0 0 -48.62 -280.67 0 0 -337.96 233.08 0 0 -48.61 -233.08 0zm1310.02 435.19l56.13 0 0 -811.35 -43.93 0c-7.12,20.26 -16.68,38.58 -28.68,54.79 -12,16.39 -27.45,29.7 -46.37,40.12 -18.92,10.22 -42.3,16.4 -70.17,18.52l0 46.3c28.68,-2.51 54.3,-9.65 76.68,-21.61 22.17,-11.77 41.08,-27.39 56.34,-46.68l0 719.91zm779.79 -818.29c-32.55,0.19 -60.82,5.21 -84.41,15.43 -23.8,10.03 -43.32,24.5 -58.58,42.83 -15.25,18.51 -26.64,40.12 -33.96,65.2 -7.32,25.07 -10.98,52.66 -10.98,82.56l0 98.38c-0.21,38.58 5.49,72.53 17.08,102.23 11.59,29.71 29.69,52.86 54.51,69.83 24.81,16.98 57.15,25.47 96.81,25.85 37.83,0.2 69.15,-6.56 93.97,-20.25 25.01,-13.7 44.13,-35.49 57.35,-65.39l0 199.07c0.2,32.21 -4.27,60.38 -13.22,84.49 -9.15,23.92 -23.39,42.63 -42.91,55.94 -19.73,13.5 -45.36,20.26 -76.88,20.45 -31.12,-0.19 -56.55,-6.75 -75.87,-19.68 -19.52,-12.92 -33.76,-30.86 -42.71,-53.62 -8.95,-22.57 -13.42,-48.81 -13.22,-78.32l0 -12.73 -53.69 0 0 10.41c0,39.74 6.3,74.66 19.32,104.94 13.01,30.29 33.35,54.21 61.01,71.37 27.46,17.17 63.05,25.85 106.38,26.24 33.15,-0.19 61.62,-5.21 85.42,-15.43 23.79,-10.23 43.32,-24.5 58.37,-43.02 15.25,-18.52 26.24,-40.32 33.56,-65.59 7.12,-25.27 10.58,-52.85 10.58,-83.14l0 -412.03c0,-29.9 -3.46,-57.49 -10.78,-82.56 -7.32,-25.08 -18.51,-46.69 -33.77,-65.2 -15.25,-18.33 -34.57,-32.8 -58.37,-42.83 -23.79,-10.22 -52.06,-15.24 -85.01,-15.43zm0 49.77c31.11,0.19 56.54,6.94 75.86,20.06 19.52,13.12 33.76,31.06 42.71,54.01 8.95,22.96 13.42,49.19 13.22,78.7l0 98.38c0.2,29.52 -4.27,55.75 -13.22,78.71 -8.95,22.95 -23.19,40.89 -42.71,54.01 -19.32,13.12 -44.75,19.87 -75.86,20.06 -31.12,-0.19 -56.55,-6.94 -75.87,-20.06 -19.52,-13.12 -33.76,-31.06 -42.71,-54.01 -8.95,-22.96 -13.42,-49.19 -13.22,-78.71l0 -98.38c-0.2,-29.51 4.27,-55.74 13.22,-78.7 8.95,-22.95 23.19,-40.89 42.71,-54.01 19.32,-13.12 44.75,-19.87 75.87,-20.06zm882.29 -49.77c-32.54,0.19 -60.81,5.21 -84.4,15.43 -23.8,10.03 -43.33,24.5 -58.58,42.83 -15.25,18.51 -26.64,40.12 -33.96,65.2 -7.33,25.07 -10.99,52.66 -10.99,82.56l0 98.38c-0.2,38.58 5.49,72.53 17.09,102.23 11.59,29.71 29.69,52.86 54.5,69.83 24.82,16.98 57.16,25.47 96.82,25.85 37.83,0.2 69.15,-6.56 93.96,-20.25 25.02,-13.7 44.14,-35.49 57.36,-65.39l0 199.07c0.2,32.21 -4.27,60.38 -13.22,84.49 -9.15,23.92 -23.39,42.63 -42.92,55.94 -19.73,13.5 -45.35,20.26 -76.88,20.45 -31.12,-0.19 -56.54,-6.75 -75.86,-19.68 -19.53,-12.92 -33.76,-30.86 -42.71,-53.62 -8.95,-22.57 -13.43,-48.81 -13.22,-78.32l0 -12.73 -53.7 0 0 10.41c0,39.74 6.31,74.66 19.32,104.94 13.02,30.29 33.36,54.21 61.02,71.37 27.46,17.17 63.05,25.85 106.37,26.24 33.16,-0.19 61.63,-5.21 85.43,-15.43 23.79,-10.23 43.32,-24.5 58.37,-43.02 15.25,-18.52 26.24,-40.32 33.56,-65.59 7.12,-25.27 10.57,-52.85 10.57,-83.14l0 -412.03c0,-29.9 -3.45,-57.49 -10.78,-82.56 -7.32,-25.08 -18.5,-46.69 -33.76,-65.2 -15.25,-18.33 -34.58,-32.8 -58.37,-42.83 -23.8,-10.22 -52.07,-15.24 -85.02,-15.43zm0 49.77c31.12,0.19 56.54,6.94 75.87,20.06 19.52,13.12 33.76,31.06 42.71,54.01 8.95,22.96 13.42,49.19 13.22,78.7l0 98.38c0.2,29.52 -4.27,55.75 -13.22,78.71 -8.95,22.95 -23.19,40.89 -42.71,54.01 -19.33,13.12 -44.75,19.87 -75.87,20.06 -31.12,-0.19 -56.54,-6.94 -75.86,-20.06 -19.53,-13.12 -33.76,-31.06 -42.71,-54.01 -8.95,-22.96 -13.42,-49.19 -13.22,-78.71l0 -98.38c-0.2,-29.51 4.27,-55.74 13.22,-78.7 8.95,-22.95 23.18,-40.89 42.71,-54.01 19.32,-13.12 44.74,-19.87 75.86,-20.06zm695.59 570.6c0,29.71 3.66,56.9 10.98,81.79 7.33,24.88 18.72,46.49 33.97,64.81 15.25,18.52 34.78,32.8 58.57,42.83 23.6,10.22 51.87,15.24 84.41,15.43 32.54,-0.19 60.81,-5.21 84.41,-15.43 23.79,-10.03 43.32,-24.31 58.57,-42.83 15.26,-18.32 26.65,-39.93 33.97,-64.81 7.32,-24.89 10.98,-52.08 10.98,-81.79l0 -414.35c0,-40.13 -6.51,-75.43 -19.73,-106.1 -13.22,-30.67 -33.76,-54.78 -61.42,-72.14 -27.66,-17.36 -63.25,-26.24 -106.78,-26.62 -43.52,0.38 -78.91,9.26 -106.78,26.62 -27.66,17.36 -48.2,41.47 -61.42,72.14 -13.22,30.67 -19.73,65.97 -19.73,106.1l0 414.35zm56.13 -417.83c-0.2,-29.51 4.28,-55.74 13.22,-78.7 8.95,-22.95 23.19,-40.89 42.72,-54.01 19.32,-13.12 44.74,-19.87 75.86,-20.06 31.12,0.19 56.54,6.94 75.87,20.06 19.52,13.12 33.76,31.06 42.7,54.01 8.96,22.96 13.43,49.19 13.23,78.7l0 420.14c0.2,29.9 -4.27,56.52 -13.23,79.48 -8.94,23.15 -23.18,41.28 -42.7,54.4 -19.33,13.11 -44.75,19.87 -75.87,20.06 -31.12,-0.19 -56.54,-6.95 -75.86,-20.06 -19.53,-13.12 -33.77,-31.25 -42.72,-54.4 -8.94,-22.96 -13.42,-49.58 -13.22,-79.48l0 -420.14z"/>
  <g id="_2250641884544">
   <path class="fil1" d="M5381.55 5021.23c889.27,848.11 727.83,2394.64 -808.56,2587.31l-2067.63 0 0 -62.96 0 0 0 -5214.49 0 0 0 -62.97 1916.48 0c1442.24,160.47 1767.26,1558.82 772.75,2422.11 -259.4,-165.09 -339.53,-195.81 -675.79,-336.78 841.87,-687.74 438.02,-1410.3 -243.9,-1415.96l-972.13 -8.12 -11.37 1198.75c810,149.99 1665.44,488.06 2090.15,893.11zm-2092.98 1834.28l1189.91 -0.04c448.56,0 830.68,-628.09 484.34,-1132.91 -277.83,-404.97 -888,-677.72 -1673.17,-881.7l-1.08 2014.65z"/>
   <path class="fil1" d="M10059.82 6802.5l0 678.39 -3501.62 0 1953.6 -2337.24c242.37,-292.31 418.98,-549.3 531.04,-770.97 112.05,-220.45 168.07,-421.42 168.07,-602.89 0,-258.21 -76.73,-462.82 -230.19,-611.42 -153.47,-148.59 -364.16,-222.87 -629.69,-222.87 -238.71,0 -434.8,74.28 -589.48,222.87 -154.69,148.6 -241.15,344.69 -260.65,587.06l-817.24 0c0,-468.9 157.11,-842.83 471.36,-1122.95 314.22,-278.91 735.63,-418.97 1266.67,-418.97 504.21,0 902.5,129.1 1193.59,388.53 291.08,259.41 437.24,612.63 437.24,1059.61 0,319.11 -84.04,640.64 -250.89,965.84 -168.1,323.97 -523.74,796.53 -1065.72,1414.04l-663.79 770.97 1987.7 0zm4796.77 -1837.9c0,830.64 -167.68,1480.66 -501.8,1949.94 -334.28,469.52 -792.88,705.21 -1378.72,705.21 -591.91,0 -1053.51,-237.72 -1382.36,-711.29 -329.82,-474.96 -494.5,-1141.24 -494.5,-1999.88 0,-852.56 166.56,-1515.55 499.36,-1991.36 333.19,-476.38 795.33,-713.71 1388.46,-713.71 599.24,0 1061.66,238.36 1384.82,714.93 323.33,476.84 484.74,1159.5 484.74,2046.16zm-1895.14 1923.16c348.35,0 609.33,-165.65 784.37,-498.16 174.28,-331.02 261.87,-828.21 261.87,-1488.34 0,-643.07 -85.88,-1131.95 -258.21,-1468.84 -172.11,-336.41 -425.06,-504.24 -755.13,-504.24 -345.91,0 -606.18,168.47 -781.93,503.02 -175.99,335.07 -264.31,829.43 -264.31,1483.46 0,635.77 87.35,1123.31 261.87,1462.76 174.8,339.93 426.29,510.34 751.47,510.34zm3757.65 593.13l-12.11 -4560.87 -1062.66 -3.33 452.38 -726.84 1397.95 -1.35 -0.95 5292.39 -774.61 0z"/>
  </g>
 </g>
</svg>
