<?xml version="1.0" encoding="UTF-8"?>
<!DOCTYPE svg PUBLIC "-//W3C//DTD SVG 1.1//EN" "http://www.w3.org/Graphics/SVG/1.1/DTD/svg11.dtd">
<!-- Creator: CorelDRAW 2019 (64 Bit) -->
<svg xmlns="http://www.w3.org/2000/svg" xml:space="preserve" width="297mm" height="210mm" version="1.1" style="shape-rendering:geometricPrecision; text-rendering:geometricPrecision; image-rendering:optimizeQuality; fill-rule:evenodd; clip-rule:evenodd"
viewBox="0 0 29700 21000"
 xmlns:xlink="http://www.w3.org/1999/xlink"
 xmlns:xodm="http://www.corel.com/coreldraw/odm/2003">
 <defs>
  <style type="text/css">
   <![CDATA[
    .str1 {stroke:#FEFEFE;stroke-width:400;stroke-miterlimit:22.9256}
    .str0 {stroke:#A9ABAE;stroke-width:250;stroke-miterlimit:22.9256}
    .fil4 {fill:none}
    .fil3 {fill:#FEFEFE}
    .fil2 {fill:#FEFEFE;fill-rule:nonzero}
    .fil1 {fill:#96989A}
    .fil0 {fill:#96989A;fill-rule:nonzero}
   ]]>
  </style>
 </defs>
 <g id="Camada_x0020_1">
  <metadata id="CorelCorpID_0Corel-Layer"/>
  <g id="_1907130120320">
   <g>
    <path class="fil0" d="M13158.44 9919.62l356.36 0 0 728.06c0,282.23 -156.83,383.82 -406.3,383.82 -249.42,0 -406.29,-101.59 -406.29,-383.82l0 -2133.44c0,-282.19 156.87,-389.42 406.29,-389.42 249.47,0 466.64,113.87 406.3,389.42l-83.62 381.51 83.62 41.79 741.31 0 0 -383.77c0,-632.16 -399.2,-993.37 -1168.96,-993.37 -769.8,0 -1168.96,361.21 -1168.96,993.37l0 2054.42c0,632.12 399.16,993.37 1168.96,993.37 769.76,0 1168.96,-361.25 1168.96,-993.37l0 -1252.98 -83.7 -41.46 -1013.97 41.46 0 564.41zm4118.67 1636.77c-78.39,-146.76 -85.54,-287.83 -85.54,-479.76l0 -609.55c0,-412.02 -128.28,-711.14 -520.25,-840.97 349.22,-129.79 513.15,-395.05 513.15,-801.44l0 -310.43c0,-609.55 -349.26,-908.67 -1161.77,-908.67l-1183.2 0 -83.49 3909.03 83.49 41.79 784.01 0 0 -1608.56 270.82 0c356.45,0 513.23,135.48 513.23,502.33l0 620.83c0,213.57 7.9,331.83 -3.42,395.14l-8.7 48.47 83.41 41.79 798.26 0zm-1275.85 -3386.44c278.02,0 399.16,124.19 399.16,406.38l0 389.46c0,316.04 -178.18,417.66 -470.4,417.66l-306.51 0 0 -1213.5 377.75 0zm1745.21 -564.38l0 3008.27c0,632.11 399.19,993.36 1168.95,993.36 769.81,0 1168.96,-361.25 1168.96,-993.36l0 -3008.27 -84.12 -41.82 -657.15 41.82 0 3047.75c0,282.24 -156.78,383.82 -406.29,383.82 -249.47,0 -406.26,-101.58 -406.26,-383.82l0 -3047.75 -83.57 -41.99 -700.52 41.99zm4104.46 0l-1154.66 0 -83.62 3909.03 83.62 41.79 784.05 0 0 -1484.37 370.61 0c784.1,0 1168.96,-344.28 1168.96,-976.44l0 -513.61c0,-632.11 -384.86,-976.4 -1168.96,-976.4zm0 564.38c249.51,0 384.9,90.3 384.9,372.54l0 592.62c0,282.19 -135.39,372.49 -384.9,372.49l-370.61 0 0 -1337.65 370.61 0zm2365.28 344.29c0,-282.19 156.87,-389.42 406.3,-389.42 249.47,0 406.3,107.23 406.3,389.42l0 2133.44c0,282.23 -156.83,389.46 -406.3,389.46 -249.43,0 -406.3,-107.23 -406.3,-389.46l0 -2133.44zm-784.01 2093.95c0,632.12 420.55,993.37 1190.31,993.37 769.8,0 1190.35,-361.25 1190.35,-993.37l0 -2054.42c0,-632.16 -420.55,-993.37 -1190.35,-993.37 -769.76,0 -1190.31,361.21 -1190.31,993.37l0 2054.42z"/>
    <path class="fil0" d="M11876.74 13095.16l-41.91 -41.79 41.91 -758.52 321.93 0c65.52,0 118.05,7.98 157.79,24.2 39.53,16.21 70.49,41.2 92.85,74.88 22.56,33.55 33.76,68.78 33.76,105.64 0,34.1 -9.98,66.31 -29.79,96.53 -19.72,30.17 -49.73,54.57 -89.84,73.21 51.9,14.12 91.89,38.36 119.63,72.62 27.96,34.1 41.96,74.55 41.96,121.1 0,37.65 -8.61,72.46 -25.58,104.72 -17,32.22 -37.94,57 -62.89,74.51 -24.98,17.3 -56.32,30.54 -93.85,39.49 -37.77,8.94 -83.91,13.41 -138.61,13.41l-327.36 0zm113.83 -463.88l185.54 0c50.35,0 86.49,-3.18 108.27,-9.32 28.91,-7.98 50.68,-21.39 65.31,-40.03 14.54,-18.64 21.94,-41.91 21.94,-70.08 0,-26.62 -6.81,-50.1 -20.56,-70.2 -13.58,-20.31 -33.14,-34.31 -58.5,-41.75 -25.41,-7.43 -68.91,-11.15 -130.46,-11.15l-171.54 0 0 242.53zm0 369.98l213.7 0c36.73,0 62.47,-1.29 77.51,-3.92 25.91,-4.27 47.93,-11.54 65.49,-21.77 17.55,-10.24 31.92,-25.16 43.37,-44.72 11.37,-19.55 16.92,-42.12 16.92,-67.61 0,-30 -8.14,-55.91 -24.73,-78.06 -16.38,-22.19 -39.16,-37.65 -68.33,-46.59 -28.91,-8.94 -70.91,-13.41 -125.44,-13.41l-198.49 0 0 276.08zm1957.94 93.9l-41.62 -41.79 370.74 -758.52 83.24 -41.58 41.57 41.58 349.35 800.31 -129.25 0 -42 -41.79 -57.29 -200.78 -361.25 0 -93.1 242.57 -120.39 0zm246.84 -328.61l292.38 0 -89.46 -221.89c-26.96,-67.45 -47.35,-123.15 -61.52,-167.11 -11.78,52.15 -27.57,103.38 -47.34,154.07l-94.06 234.93zm2010.63 328.61l-42.12 -41.79 42.12 -758.52 380.31 0c76.47,0 134.55,7.27 174.33,21.61 39.74,14.33 71.5,39.65 95.24,76.01 23.81,36.31 35.6,76.55 35.6,120.51 0,56.83 -19.81,104.72 -59.13,143.62 -39.36,38.95 -100.08,63.56 -182.36,74.18 30.17,13.41 52.9,26.82 68.49,39.86 33.18,28.33 64.52,63.89 93.85,106.56l148.43 217.96 -141.82 0 -41.12 -41.79 -72.3 -124.77c-29.25,-50.57 -60.25,-85.04 -81.69,-110.45 -21.52,-25.57 -40.74,-43.25 -57.75,-53.48 -16.76,-10.08 -34.14,-17.14 -51.69,-21.23 -12.83,-2.43 -33.76,-3.72 -63.1,-3.72l-131.46 0 0 355.44 -113.83 0zm113.83 -447.12l243.66 0c51.94,0 92.31,-5.02 121.43,-15.09 29.17,-9.86 51.36,-25.86 66.32,-48.05 15.21,-21.98 22.77,-45.84 22.77,-71.71 0,-37.82 -14.58,-69.12 -43.96,-93.52 -29.33,-24.4 -75.67,-36.52 -138.98,-36.52l-271.24 0 0 264.89zm2106.12 447.12l-41.83 -41.79 41.83 -758.52 321.92 0c65.53,0 118.05,7.98 157.79,24.2 39.53,16.21 70.5,41.2 92.85,74.88 22.57,33.55 33.77,68.78 33.77,105.64 0,34.1 -9.99,66.31 -29.8,96.53 -19.72,30.17 -49.72,54.57 -89.84,73.21 51.9,14.12 91.89,38.36 119.64,72.62 27.95,34.1 41.95,74.55 41.95,121.1 0,37.65 -8.61,72.46 -25.57,104.72 -17.01,32.22 -37.94,57 -62.89,74.51 -24.99,17.3 -56.33,30.54 -93.85,39.49 -37.78,8.94 -83.91,13.41 -138.61,13.41l-327.36 0zm113.82 -463.88l185.54 0c50.35,0 86.5,-3.18 108.27,-9.32 28.92,-7.98 50.69,-21.39 65.31,-40.03 14.55,-18.64 21.94,-41.91 21.94,-70.08 0,-26.62 -6.81,-50.1 -20.56,-70.2 -13.58,-20.31 -33.13,-34.31 -58.5,-41.75 -25.41,-7.43 -68.91,-11.15 -130.46,-11.15l-171.54 0 0 242.53zm0 369.98l213.7 0c36.74,0 62.48,-1.29 77.52,-3.92 25.91,-4.27 47.93,-11.54 65.48,-21.77 17.55,-10.24 31.93,-25.16 43.38,-44.72 11.36,-19.55 16.92,-42.12 16.92,-67.61 0,-30 -8.15,-55.91 -24.74,-78.06 -16.38,-22.19 -39.15,-37.65 -68.32,-46.59 -28.92,-8.94 -70.91,-13.41 -125.45,-13.41l-198.49 0 0 276.08zm2017.24 -295.64c0,-132.63 38.36,-236.6 114.83,-311.69 76.51,-75.05 175.17,-112.49 296.19,-112.49 79.31,0 150.56,17.67 214.28,52.9 63.52,35.19 112.08,84.37 145.42,147.55 33.35,62.97 50.11,134.51 50.11,214.41 0,81.03 -17.55,153.69 -52.7,217.59 -35.18,64.1 -84.91,112.53 -149.18,145.33 -64.52,32.97 -134.05,49.35 -208.56,49.35 -80.86,0 -152.94,-18.26 -216.66,-54.57 -63.48,-36.35 -111.83,-85.87 -144.59,-148.85 -32.76,-62.8 -49.14,-129.29 -49.14,-199.53zm117.42 1.88c0,96.28 27.79,172.12 83.28,227.45 55.54,55.32 125.24,83.07 209.11,83.07 85.49,0 155.61,-27.91 210.94,-83.82 55.07,-55.87 82.7,-135.23 82.7,-238.07 0,-65.02 -11.79,-121.85 -35.36,-170.28 -23.61,-48.43 -58.16,-86.08 -103.5,-112.7 -45.51,-26.66 -96.45,-40.07 -152.99,-40.07 -80.27,0 -149.34,25.7 -207.26,77.14 -57.92,51.39 -86.92,137.1 -86.92,257.28zm2173.98 130.59l64.86 -50.69 41.82 41.74c5.02,40.24 16.8,73.21 35.31,99.08 18.6,25.74 47.39,46.59 86.3,62.6 38.94,15.84 82.9,23.86 131.63,23.86 43.33,0 81.48,-5.98 114.62,-18.05 33.18,-12.12 57.71,-28.71 73.92,-49.77 16.17,-21.02 24.32,-43.96 24.32,-68.53 0,-24.99 -7.73,-46.76 -23.32,-65.61 -15.58,-18.59 -41.37,-34.26 -77.26,-47.09 -22.99,-8.24 -73.92,-21.27 -152.82,-38.95 -78.89,-17.72 -134.01,-34.31 -165.6,-49.93 -40.91,-20.15 -71.25,-45.09 -91.22,-74.72 -20.19,-29.63 -30.17,-62.97 -30.17,-99.66 0,-40.62 12.37,-78.44 36.9,-113.46 24.61,-35.22 60.38,-61.84 107.68,-80.1 47.18,-18.26 99.66,-27.37 157.37,-27.37 63.52,0 119.64,9.48 168.15,28.66 48.56,19.02 85.88,47.14 112.08,84.41 26.16,37.07 40.11,79.19 42.12,126.12l-109.02 7.81 -40.2 -41.58 -19.1 -72.79c-10.74,-41.12 -83.7,-38.74 -149.6,-38.74 -68.74,0 -118.84,11.75 -150.22,35.19 -31.34,23.48 -47.14,51.82 -47.14,84.95 0,28.71 11.16,52.36 33.35,71 21.98,18.43 78.89,37.61 171.16,57 92.3,19.55 155.61,36.52 189.96,51.02 49.73,21.44 86.67,48.47 110.44,81.44 23.78,32.76 35.57,70.58 35.57,113.45 0,42.67 -13,82.53 -39.16,120.14 -26.16,37.65 -63.52,66.9 -112.45,87.76 -48.93,20.85 -103.84,31.29 -165.18,31.29 -77.48,0 -142.41,-10.61 -194.73,-31.67 -52.49,-21.06 -93.44,-52.74 -123.19,-95.19 -29.96,-42.29 -45.55,-90.18 -47.18,-143.62zm2104.16 257.07l-41.88 -41.79 370.99 -758.52 83.03 -41.7 41.79 41.7 349.34 800.31 -129.25 0 -41.87 -41.79 -57.41 -200.78 -361.25 0 -93.11 242.57 -120.38 0zm246.83 -328.61l292.39 0 -89.47 -221.89c-26.95,-67.45 -47.34,-123.15 -61.51,-167.11 -11.78,52.15 -27.58,103.38 -47.34,154.07l-94.07 234.93z"/>
   </g>
   <path class="fil0" d="M7500.45 7651.35l1914.7 0c525.96,0 977.88,161.5 1355.91,484.51 377.99,323 567.01,712.94 567.01,1169.78 0,184.56 -47.94,366.83 -143.77,546.83 -95.88,179.95 -217.8,329.9 -365.72,449.9 213.7,124.6 373.88,305.72 480.75,543.33 106.83,237.67 160.24,467.23 160.24,688.73 0,456.83 -187.75,846.83 -562.9,1169.78 -375.2,322.9 -826,485.67 -1351.81,484.5l-2795.94 -6.18c62.84,-13.88 186.69,-40.74 252.82,-56.65 837.86,-201.69 1613.74,-943.32 1691.63,-1248.84 658.78,0 400.03,24.17 1019.07,-2.43 681.18,-29.34 626.25,-995.11 -26.3,-989.89l-597.35 4.82 -41.81 -125.37 41.81 -836.45c1226.59,41.96 1238.65,-1033.31 393.59,-1098.68 -60.91,-4.71 -327.87,-29.54 -590.16,-5.88l55.59 1515.59 -1418.5 -0.15 -63.9 -42.47 25.04 -2644.78z"/>
   <path class="fil1" d="M6184.09 7657.85c412.68,0 1183.68,238.35 1155.09,189.96l53.68 90.81 0 1360.93c-300.97,-326.6 -731.12,-531.09 -1208.77,-531.09 -910.03,0 -1647.78,741.96 -1647.78,1657.15 0,915.26 737.75,1657.23 1647.78,1657.23 726.5,0 1343.06,-472.92 1562.26,-1129.34l-1638.64 0 0 -490.65 1723.7 0 551.52 0 521.31 -69.02 31.48 69.02c-19.82,1511.4 -1244.12,2730.59 -2751.63,2730.59 -1519.87,0 -2752.08,-1239.24 -2752.08,-2767.83 0,-1528.51 1232.21,-2767.76 2752.08,-2767.76z"/>
   <g>
    <path class="fil2" d="M13074.85 9877.84l356.38 0 0 728.07c0,282.2 -156.81,383.79 -406.28,383.79 -249.45,0 -406.26,-101.59 -406.26,-383.79l0 -2133.41c0,-282.2 156.81,-389.44 406.26,-389.44 249.47,0 406.28,107.24 406.28,389.44l0 423.29 741.27 0 0 -383.79c0,-632.12 -399.14,-993.33 -1168.93,-993.33 -769.78,0 -1168.93,361.21 -1168.93,993.33l0 2054.4c0,632.13 399.15,993.34 1168.93,993.34 769.79,0 1168.93,-361.21 1168.93,-993.34l0 -1252.95 -1097.65 0 0 564.39zm4118.69 1636.75c-78.4,-146.74 -85.53,-287.84 -85.53,-479.74l0 -609.54c0,-412.01 -128.3,-711.14 -520.31,-840.95 349.25,-129.82 513.18,-395.08 513.18,-801.45l0 -310.41c0,-609.55 -349.25,-908.68 -1161.79,-908.68l-1183.19 0 0 3950.77 784.03 0 0 -1608.53 270.85 0c356.38,0 513.19,135.46 513.19,502.31l0 620.84c0,321.71 28.52,383.79 71.28,485.38l798.29 0zm-1275.85 -3386.38c277.99,0 399.16,124.17 399.16,406.37l0 389.43c0,316.06 -178.19,417.66 -470.43,417.66l-306.49 0 0 -1213.46 377.76 0zm1745.21 -564.39l0 3008.23c0,632.12 399.14,993.34 1168.92,993.34 769.79,0 1168.93,-361.22 1168.93,-993.34l0 -3008.23 -741.27 0 0 3047.74c0,282.19 -156.81,383.79 -406.27,383.79 -249.47,0 -406.28,-101.6 -406.28,-383.79l0 -3047.74 -784.03 0zm4104.44 0l-1154.67 0 0 3950.77 784.03 0 0 -1484.36 370.64 0c784.04,0 1168.93,-344.28 1168.93,-976.41l0 -513.6c0,-632.12 -384.89,-976.4 -1168.93,-976.4zm0 564.39c249.47,0 384.88,90.31 384.88,372.51l0 592.61c0,282.2 -135.41,372.5 -384.88,372.5l-370.64 0 0 -1337.62 370.64 0zm2365.3 344.29c0,-282.2 156.81,-389.44 406.26,-389.44 249.47,0 406.28,107.24 406.28,389.44l0 2133.41c0,282.2 -156.81,389.44 -406.28,389.44 -249.45,0 -406.26,-107.24 -406.26,-389.44l0 -2133.41zm-784.05 2093.9c0,632.13 420.54,993.34 1190.31,993.34 769.79,0 1190.33,-361.21 1190.33,-993.34l0 -2054.4c0,-632.12 -420.54,-993.33 -1190.33,-993.33 -769.77,0 -1190.31,361.21 -1190.31,993.33l0 2054.4z"/>
    <path class="fil2" d="M11834.93 13053.37l0 -800.29 321.94 0c65.51,0 118.04,8.01 157.78,24.21 39.54,16.21 70.5,41.17 92.86,74.89 22.57,33.53 33.76,68.74 33.76,105.63 0,34.09 -9.99,66.31 -29.76,96.49 -19.77,30.18 -49.73,54.59 -89.87,73.21 51.92,14.16 91.86,38.38 119.63,72.66 27.96,34.09 41.94,74.51 41.94,121.08 0,37.63 -8.59,72.47 -25.57,104.7 -16.97,32.23 -37.94,57 -62.91,74.51 -24.97,17.33 -56.31,30.56 -93.87,39.5 -37.73,8.94 -83.88,13.41 -138.59,13.41l-327.34 0zm113.85 -463.86l185.53 0c50.33,0 86.47,-3.16 108.24,-9.31 28.96,-8.01 50.73,-21.43 65.31,-40.05 14.57,-18.63 21.97,-41.92 21.97,-70.05 0,-26.64 -6.8,-50.11 -20.57,-70.23 -13.59,-20.3 -33.15,-34.28 -58.52,-41.73 -25.36,-7.45 -68.9,-11.18 -130.41,-11.18l-171.55 0 0 242.55zm0 369.97l213.69 0c36.74,0 62.51,-1.3 77.49,-3.91 25.95,-4.29 47.93,-11.55 65.5,-21.8 17.57,-10.24 31.96,-25.15 43.33,-44.71 11.39,-19.56 16.99,-42.1 16.99,-67.62 0,-29.99 -8.19,-55.89 -24.77,-78.05 -16.38,-22.17 -39.14,-37.63 -68.3,-46.58 -28.96,-8.94 -70.9,-13.41 -125.42,-13.41l-198.51 0 0 276.08zm1957.78 93.89l329.13 -800.29 124.82 0 349.3 800.29 -129.22 0 -99.26 -242.55 -361.27 0 -93.07 242.55 -120.43 0zm246.85 -328.61l292.37 0 -89.47 -221.87c-26.95,-67.44 -47.33,-123.14 -61.51,-167.1 -11.78,52.16 -27.56,103.39 -47.33,154.06l-94.06 234.91zm2010.5 328.61l0 -800.29 380.25 0c76.49,0 134.61,7.26 174.35,21.6 39.74,14.35 71.5,39.68 95.26,76.01 23.77,36.33 35.55,76.56 35.55,120.53 0,56.82 -19.76,104.69 -59.11,143.63 -39.34,38.93 -100.05,63.52 -182.34,74.14 30.16,13.41 52.93,26.83 68.51,39.87 33.15,28.31 64.51,63.89 93.86,106.55l148.38 217.96 -141.79 0 -113.43 -166.54c-32.96,-48.25 -60.32,-84.95 -81.68,-110.47 -21.57,-25.52 -40.75,-43.22 -57.72,-53.47 -16.78,-10.06 -34.16,-17.13 -51.73,-21.23 -12.78,-2.42 -33.75,-3.73 -63.11,-3.73l-131.41 0 0 355.44 -113.84 0zm113.84 -447.09l243.65 0c51.92,0 92.26,-5.03 121.42,-15.09 29.16,-9.87 51.33,-25.9 66.31,-48.06 15.18,-21.99 22.76,-45.83 22.76,-71.72 0,-37.82 -14.57,-69.12 -43.93,-93.52 -29.36,-24.41 -75.69,-36.51 -139.01,-36.51l-271.2 0 0 264.9zm2105.96 447.09l0 -800.29 321.94 0c65.51,0 118.04,8.01 157.78,24.21 39.54,16.21 70.5,41.17 92.86,74.89 22.57,33.53 33.76,68.74 33.76,105.63 0,34.09 -9.99,66.31 -29.76,96.49 -19.77,30.18 -49.73,54.59 -89.87,73.21 51.92,14.16 91.87,38.38 119.63,72.66 27.96,34.09 41.94,74.51 41.94,121.08 0,37.63 -8.59,72.47 -25.57,104.7 -16.97,32.23 -37.94,57 -62.91,74.51 -24.97,17.33 -56.31,30.56 -93.87,39.5 -37.73,8.94 -83.87,13.41 -138.59,13.41l-327.34 0zm113.85 -463.86l185.53 0c50.33,0 86.47,-3.16 108.24,-9.31 28.96,-8.01 50.73,-21.43 65.31,-40.05 14.57,-18.63 21.97,-41.92 21.97,-70.05 0,-26.64 -6.8,-50.11 -20.57,-70.23 -13.59,-20.3 -33.15,-34.28 -58.52,-41.73 -25.36,-7.45 -68.9,-11.18 -130.41,-11.18l-171.55 0 0 242.55zm0 369.97l213.69 0c36.74,0 62.51,-1.3 77.49,-3.91 25.95,-4.29 47.93,-11.55 65.5,-21.8 17.57,-10.24 31.96,-25.15 43.34,-44.71 11.38,-19.56 16.98,-42.1 16.98,-67.62 0,-29.99 -8.19,-55.89 -24.77,-78.05 -16.38,-22.17 -39.14,-37.63 -68.3,-46.58 -28.96,-8.94 -70.89,-13.41 -125.42,-13.41l-198.51 0 0 276.08zm2017.09 -295.64c0,-132.64 38.35,-236.59 114.84,-311.66 76.49,-75.07 175.15,-112.52 296.17,-112.52 79.29,0 150.58,17.7 214.3,52.91 63.5,35.21 112.04,84.39 145.39,147.54 33.35,62.96 50.13,134.5 50.13,214.42 0,81.03 -17.58,153.68 -52.73,217.58 -35.15,64.08 -84.88,112.52 -149.18,145.31 -64.51,32.97 -134.01,49.36 -208.51,49.36 -80.88,0 -152.97,-18.25 -216.68,-54.58 -63.51,-36.33 -111.84,-85.88 -144.59,-148.84 -32.76,-62.78 -49.14,-129.29 -49.14,-199.52zm117.44 1.86c0,96.32 27.75,172.13 83.27,227.46 55.53,55.33 125.22,83.09 209.1,83.09 85.49,0 155.58,-27.95 210.91,-83.83 55.11,-55.89 82.67,-135.25 82.67,-238.08 0,-65.01 -11.78,-121.83 -35.34,-170.27 -23.58,-48.43 -58.12,-86.06 -103.46,-112.7 -45.54,-26.64 -96.46,-40.05 -152.98,-40.05 -80.29,0 -149.38,25.7 -207.3,77.12 -57.92,51.42 -86.87,137.11 -86.87,257.26zm2173.87 130.59l106.64 -8.94c5,40.24 16.78,73.21 35.36,99.11 18.57,25.7 47.33,46.57 86.27,62.59 38.94,15.83 82.88,23.84 131.61,23.84 43.34,0 81.48,-5.96 114.64,-18.07 33.15,-12.11 57.71,-28.68 73.89,-49.74 16.17,-21.05 24.36,-43.96 24.36,-68.55 0,-24.96 -7.78,-46.76 -23.37,-65.57 -15.57,-18.63 -41.34,-34.28 -77.28,-47.13 -22.97,-8.2 -73.9,-21.24 -152.78,-38.94 -78.88,-17.7 -134.01,-34.28 -165.56,-49.92 -40.94,-20.12 -71.3,-45.09 -91.28,-74.71 -20.16,-29.62 -30.15,-62.96 -30.15,-99.66 0,-40.61 12.38,-78.43 36.95,-113.45 24.56,-35.21 60.31,-61.85 107.65,-80.1 47.12,-18.26 99.64,-27.39 157.36,-27.39 63.51,0 119.64,9.5 168.17,28.69 48.53,19 85.87,47.13 112.03,84.39 26.17,37.07 40.15,79.17 42.14,126.12l-109.04 7.82c-5.79,-50.48 -25.57,-88.67 -59.32,-114.38 -33.74,-25.89 -83.67,-38.75 -149.58,-38.75 -68.7,0 -118.83,11.74 -150.19,35.21 -31.35,23.47 -47.12,51.79 -47.12,84.95 0,28.69 11.18,52.34 33.35,70.97 21.97,18.45 78.88,37.63 171.15,57.01 92.27,19.56 155.58,36.51 189.93,51.04 49.72,21.42 86.68,48.44 110.43,81.41 23.77,32.79 35.55,70.6 35.55,113.45 0,42.66 -12.97,82.52 -39.14,120.15 -26.16,37.63 -63.51,66.88 -112.44,87.75 -48.93,20.86 -103.85,31.29 -165.16,31.29 -77.49,0 -142.39,-10.62 -194.72,-31.67 -52.52,-21.05 -93.46,-52.72 -123.22,-95.19 -29.95,-42.29 -45.53,-90.16 -47.13,-143.63zm2103.97 257.08l329.13 -800.29 124.82 0 349.3 800.29 -129.21 0 -99.27 -242.55 -361.27 0 -93.07 242.55 -120.43 0zm246.85 -328.61l292.37 0 -89.47 -221.87c-26.95,-67.44 -47.33,-123.14 -61.5,-167.1 -11.79,52.16 -27.57,103.39 -47.34,154.06l-94.06 234.91z"/>
   </g>
   <path class="fil2" d="M7458.66 7525.99l1914.7 0c525.96,0 977.88,161.5 1355.92,484.5 377.98,323.01 567,712.95 567,1169.79 0,184.55 -47.94,366.83 -143.77,546.83 -95.87,179.95 -217.8,329.89 -365.72,449.89 213.7,124.61 373.88,305.73 480.76,543.34 106.82,237.67 160.23,467.22 160.23,688.73 0,456.83 -187.75,846.83 -562.9,1169.78 -375.2,322.9 -826.15,471.38 -1351.81,484.5l-2501.92 62.58c787.64,-174.72 1565.81,-1042.23 1650.43,-1374.25 658.78,0 400.03,24.17 1019.08,-2.43 681.17,-29.34 626.24,-995.11 -26.3,-989.89l-597.36 4.81 0 -961.81c1226.59,41.96 1238.65,-1033.31 393.59,-1098.68 -60.91,-4.71 -327.86,-29.55 -590.16,-5.88l33.5 1598.49 -1418.5 -0.15 -16.77 -2770.15z"/>
   <path class="fil3" d="M6113.03 7564.62c439.94,0 856.01,101.88 1226.16,283.19l0 1372.67c-305.29,-329.41 -741.64,-535.67 -1226.16,-535.67 -923.12,0 -1671.49,748.37 -1671.49,1671.49 0,923.12 748.37,1671.49 1671.49,1671.49 736.96,0 1362.39,-477 1584.74,-1139.04l-1662.21 0 0 -494.92 1748.5 0 559.45 0 560.74 0c-20.1,1524.44 -1262.02,2754.15 -2791.22,2754.15 -1541.74,0 -2791.68,-1249.94 -2791.68,-2791.68 0,-1541.74 1249.94,-2791.68 2791.68,-2791.68z"/>
   <polygon class="fil4 str0" points="1816.78,5540.11 27322.65,5540.11 27322.65,15178.92 1816.78,15178.92 "/>
   <polygon class="fil4 str1" points="1613.09,5341.56 27521.12,5341.56 27521.12,15370.5 1613.09,15370.5 "/>
  </g>
 </g>
</svg>
