<?xml version="1.0" encoding="UTF-8"?>
<!DOCTYPE svg PUBLIC "-//W3C//DTD SVG 1.1//EN" "http://www.w3.org/Graphics/SVG/1.1/DTD/svg11.dtd">
<!-- Creator: CorelDRAW 2019 (64 Bit) -->
<svg xmlns="http://www.w3.org/2000/svg" xml:space="preserve" width="210mm" height="297mm" version="1.1" style="shape-rendering:geometricPrecision; text-rendering:geometricPrecision; image-rendering:optimizeQuality; fill-rule:evenodd; clip-rule:evenodd"
viewBox="0 0 21000 29700"
 xmlns:xlink="http://www.w3.org/1999/xlink"
 xmlns:xodm="http://www.corel.com/coreldraw/odm/2003">
 <defs>
  <style type="text/css">
   <![CDATA[
    .str0 {stroke:#201E1E;stroke-width:20;stroke-miterlimit:22.9256}
    .fil1 {fill:#201E1E}
    .fil0 {fill:black}
    .fil2 {fill:#3189BD}
   ]]>
  </style>
 </defs>
 <g id="Camada_x0020_1">
  <metadata id="CorelCorpID_0Corel-Layer"/>
  <g id="_1138982736">
   <path class="fil0" d="M12888.94 10310.1c-54.02,12.59 -83.24,33.38 -123.8,60.53 -41.32,-21.86 -64.45,-76.4 -103.39,-26.36l-55.86 70.7c-25.35,32.52 7.76,49.61 35.08,71.58 6.31,5.06 11.75,11.28 19.62,13.39 -1.04,12.55 -5.37,17.85 -9.34,29.17 -3.95,11.26 -5.77,20.34 -8.84,32.43 -4.91,19.37 -9.32,50.76 -9.32,73.21 -17.46,4.07 -34.69,7.96 -53.43,12.6 -51.78,12.83 -40.11,35.27 -21.95,106.8 6.41,25.27 6.95,59.43 36.86,59.43 25,0 55.66,-14.5 79.78,-16.51 6.5,24.34 61.16,87.48 82.54,101.79 -52.2,98.67 -47.05,93.61 29.31,130.26 33.13,15.91 61.29,35.1 80.69,18.27 9.07,-7.87 34.97,-61.59 38.56,-77 18.73,0 38.87,5.51 71.53,5.51 25.17,0 40.93,-5.51 63.29,-5.51 3.98,17.11 13.42,32.3 21.09,47.69 28.78,57.82 42.23,32.15 92.87,11.25 57.23,-23.62 81.8,-33.63 61.23,-77.31 -8.56,-18.18 -17.61,-36.11 -26.63,-53.16 11.63,-17.37 44.99,-42.79 64.89,-75.42 6.55,-10.75 11.23,-19.55 17.64,-29.12 12.43,2.89 24.64,5.68 37.98,8.8 72.15,16.9 62.42,7.75 84.15,-87.51 9.26,-40.55 16.73,-61.17 -27.46,-70.99 -20.21,-4.49 -37.5,-8.28 -56.15,-12.62l-9.38 -70.41c-4.62,-20.89 -12.94,-45.1 -20.88,-61.65 5.32,-3.57 11.14,-8.83 16.87,-13.39 44.53,-35.48 63.7,-43.2 28.74,-87.25l-46.76 -57.78c-26.39,-33.94 -42.12,-20.68 -68.5,0.74l-32.15 25.62c-12.45,-3.32 -58.55,-42.57 -123.8,-57.78 0,-18.55 1.98,-51.72 -0.22,-68.56 -2.59,-19.86 -18.16,-27.73 -41.05,-27.73 -23.76,0 -93.78,-3.45 -110.09,5.47 -21.98,12 -13.72,56.78 -13.72,90.82zm82.41 195.47c72.28,0 130.87,58.59 130.87,130.87 0,72.28 -58.59,130.87 -130.87,130.87 -72.28,0 -130.87,-58.59 -130.87,-130.87 0,-72.28 58.59,-130.87 130.87,-130.87z"/>
   <path class="fil0" d="M13485.96 9933.19c-32.23,15.47 -20.82,0.87 -77.04,38.52 -9.28,-12.67 -27.43,-24.76 -44.02,-24.76 -21.12,0 -55.02,53 -55.02,60.52 0,15.4 4.49,20.41 12.95,28.33 5.61,5.26 17.14,14.64 22.81,18.45 -10.51,21.91 -16.5,49.78 -16.5,82.53 -6.62,0.55 -30.91,6.12 -35.88,8.14 -30.74,12.45 -17.45,46.96 -10.4,73.9 1.74,6.64 3.37,13.86 8.47,19.05 17.91,18.21 43.43,2.3 62.57,0.71 24.13,45.59 36.4,43.68 49.52,63.27 -7.47,32.09 -37.88,52.95 10.97,77.08 28.18,13.91 52.73,29.3 70.52,-1.09 4.95,-8.46 12.68,-22.84 14.8,-31.97 33.23,7.75 50.19,2.69 82.54,0 2.74,11.77 16.33,38.54 24.78,44.04 22.07,14.37 81.8,-16.11 86.41,-40 3.15,-16.36 -13.93,-34.87 -17.65,-50.81 5.1,-3.41 9.98,-7.66 14.89,-12.63l37.38 -47.89c20.79,0 57.96,20.89 68.95,-19.1 20.81,-75.75 2.38,-73.96 -46.93,-85.45 0,-51.55 -8.89,-49.81 -16.51,-82.54 21.76,-14.57 45.51,-32.51 29.18,-59.4l-21.74 -27.83c-18.36,-21.95 -29.74,-27.15 -54.27,-9.12 -8.73,6.42 -8.45,8.13 -19.2,13.82 -12.7,-6.73 -20.46,-13.03 -34.82,-20.21 -14.07,-7.05 -26.85,-9.51 -39.47,-15.56 0,-60.45 -13.3,-60.53 -63.27,-60.53 -40.77,0 -44.02,20.03 -44.02,60.53zm53.7 117.79c48.76,0 88.29,39.53 88.29,88.29 0,48.77 -39.53,88.3 -88.29,88.3 -48.76,0 -88.29,-39.53 -88.29,-88.3 0,-48.76 39.53,-88.29 88.29,-88.29z"/>
   <path class="fil0" d="M13631.77 10475.18l0 24.76c-13.61,0.3 -31.54,8.91 -41.33,13.69 -13.53,6.61 -23.76,14.08 -35.7,22.08 -25.06,-16.79 -41.26,-45.93 -75.89,-1.61 -14.09,18.05 -39.94,43.85 -9.51,67.74 7.6,5.97 13.78,10.82 22.12,16.4 -16.47,31.13 -13.89,59.63 -18.25,75.29 -5.82,20.89 -29.86,4.32 -47.15,24.38 -15.07,17.49 -7.25,29.89 0.39,61.64 10.6,44.06 35.87,31.73 73.26,23.02 2.66,11.39 15.46,27.26 21.96,35.83 8.54,11.24 20.2,19.2 27.56,30.2 -34.13,64.51 -9.86,63.61 27.54,82.51 17.79,9 39.85,16.64 52.4,-8.08 4.12,-8.12 11.46,-21.19 13.61,-30.41 18.03,0 61.88,7.16 82.54,-2.75 26.48,50.05 24,63.19 83.46,33.94 53.92,-26.51 19.79,-48.08 12.82,-77.96 12.7,-18.95 25.89,-18.61 49.53,-63.28 27.2,0.61 59.75,21.82 71.64,-21.9 11.22,-41.26 19.5,-79.89 -46.88,-79.89 0,-45.94 -9.67,-53.19 -16.51,-82.54 18.22,-27.2 55.45,-27.52 16.51,-77.04 -4.99,-6.34 -15.33,-20.83 -21.44,-25.36 -28.39,-21 -53.26,16.22 -61.1,17.11l-35.34 -19.68c-13.65,-7.2 -28.67,-9.84 -41.69,-16.08 0,-64.95 -3.67,-57.78 -77.04,-57.78 -17.86,0 -27.51,17.67 -27.51,35.77zm52.17 150.98c43.36,0 78.52,35.16 78.52,78.52 0,43.37 -35.16,78.53 -78.52,78.53 -43.36,0 -78.52,-35.16 -78.52,-78.53 0,-43.36 35.16,-78.52 78.52,-78.52z"/>
  </g>
  <path class="fil1" d="M13150.01 7347.29l175.9 0.53 1671.02 -0.84 175.9 0.84 205.21 2.7c0,-216.34 -37.13,-310.55 -214.98,-351.99 -0.94,-42.06 -14.38,-115.66 -22.19,-163.48 -23.06,-141.25 -93.51,-280.43 -179.93,-386.86 -99.98,-123.15 -319.97,-290.06 -462.38,-290.06 -38.24,79.68 -146.59,480.41 -146.59,586.33l-381.11 0c0,-53.72 -17.97,-107.15 -26.93,-148.97 -11.76,-54.89 -19.24,-103.54 -31.58,-154.08 -28.89,-118.29 -87.43,-280.56 -88.07,-283.28 -62.46,0 -144.34,40.37 -188.81,65.26 -163.92,91.74 -304.66,224.32 -384.55,397.21 -51.64,111.74 -58.75,179.05 -89.25,291.87 -14.64,54.16 2.34,77.25 -38.55,98.26 -26.65,13.69 -61.89,18.24 -88.02,39.01 -82.09,65.21 -90.3,189.22 -90.3,300.58l205.21 -3.03z"/>
  <path class="fil1 str0" d="M12026.22 10917.13c0,274.96 41.75,273.48 263.84,361.57 994.96,394.7 1948.58,300.36 2980.33,277.37 -293.08,-24.77 -542.98,-60.99 -726.53,-170.13 -636.85,-5.8 -1597.45,-21.06 -2171.09,-316.98 -35.4,-18.26 -50.66,-43 -66.53,-80.05 -52.33,-122.19 -9.29,-341.36 2.47,-463.56 23.9,-248.34 130.97,-918.94 362.3,-1083.97 26.24,-18.72 671.78,-310.98 762.39,-332.08 17.78,76.3 187.78,308.83 246.99,358.87 147.89,124.99 246.71,198.13 466.37,198.13 85.7,0 267.01,-52.91 331.67,-117.84 39.9,-40.08 41.46,-38.13 39.9,-116.46 -2.15,-107.8 29.34,-162.75 137.18,-197.17 190.49,-66.6 513.6,-105.99 722.53,-105.99 -54.8,-74.77 -589.32,-153 -605.86,-351.79l-19.55 0c-720.76,1480.77 -1182.5,64.37 -1270.37,0 -48.41,207.77 -772.82,393.44 -888.99,459.56 -99.57,56.66 -174.88,112.82 -238.89,210.62 -163.54,249.88 -250.3,731.83 -294.82,1053.73 -18.25,131.96 -33.34,275.2 -33.34,416.17z"/>
  <path class="fil2" d="M15612.57 11493.68c397.12,0 698.45,7.32 1091.82,-61.28 394.25,-68.77 305.59,-82.02 305.59,-495.73 -163.89,109.75 -331.86,116.47 -549.94,143.88 -213.61,26.85 -445.17,22.26 -681.34,22.25 -56.09,0 -107.76,-1.16 -162.05,4.17 -67.24,6.6 -416.3,-19.09 -492.35,-24.04 -90.57,-5.9 -224.46,-29.77 -305.78,-46.02 -164.03,-32.78 -150.62,-32.64 -251.56,-100.24 0,413.71 -88.67,426.96 305.59,495.73 221.14,38.56 487,61.28 740.02,61.28z"/>
  <path class="fil2" d="M15612.57 11005.08c397.12,0 698.45,7.32 1091.82,-61.29 394.25,-68.76 305.59,-82.01 305.59,-495.72 -163.89,109.74 -331.86,116.47 -549.94,143.88 -213.61,26.84 -445.17,22.26 -681.34,22.25 -56.09,-0.01 -107.76,-1.16 -162.05,4.17 -67.24,6.6 -416.3,-19.09 -492.35,-24.05 -110.46,-7.19 -341.33,-46.73 -446.46,-81.23 -72.78,-23.87 -62.3,-32.49 -110.88,-65.02 0,413.71 -88.67,426.96 305.59,495.72 221.14,38.57 487,61.29 740.02,61.29z"/>
  <path class="fil2" d="M15612.57 10516.48c397.12,0 698.45,7.32 1091.82,-61.29 71.98,-12.55 269.9,-51.35 297.87,-102.79 24.45,-44.97 7.72,-318.54 7.72,-392.93 -163.89,109.74 -331.86,116.46 -549.94,143.87 -213.61,26.85 -445.17,22.26 -681.34,22.25 -56.09,0 -107.76,-1.15 -162.05,4.18 -67.24,6.6 -416.3,-19.1 -492.35,-24.05 -110.46,-7.2 -341.33,-46.73 -446.46,-81.23 -72.78,-23.88 -62.3,-32.49 -110.88,-65.02 0,413.7 -88.67,426.96 305.59,495.72 221.14,38.57 487,61.29 740.02,61.29z"/>
  <path class="fil2" d="M15612.57 10027.87c397.12,0 698.45,7.32 1091.82,-61.29 394.25,-68.76 305.59,-82.01 305.59,-495.72 -88.65,59.37 -118.93,73.55 -243.39,98.64 -338.34,68.23 -629.66,67.5 -987.89,67.49 -56.09,0 -107.76,-1.16 -162.05,4.17 -67.24,6.6 -416.3,-19.09 -492.35,-24.04 -110.46,-7.2 -341.33,-46.74 -446.46,-81.23 -72.78,-23.88 -62.3,-32.49 -110.88,-65.03 0,74.39 -16.73,347.97 7.72,392.94 68.33,125.69 887.82,164.07 1037.89,164.07z"/>
  <path class="fil1" d="M14566.96 9343.83c0,262.01 2443.02,262.01 2443.02,0 0,-137.47 -833.49,-185.67 -1045.61,-185.67l-351.8 0c-212.12,0 -1045.61,48.2 -1045.61,185.67z"/>
  <path class="fil1" d="M15172.83 7347.82l-175.9 -0.84 -39.09 149.93 -14.84 87.94c-8.42,49.92 14.48,77.42 53.93,87.95 0,50.21 -2.77,72.98 -12.09,114.95 -6,27.05 -13.8,70.22 -23.11,103.92 -15.12,54.77 -23.64,42.57 -50.09,76.96 -35.5,46.17 -27.79,221.68 -176.52,458.66 -92.38,147.19 -226.44,299.68 -382.85,379.36 -52.63,26.82 -127.52,56.43 -205.19,58.72 -175.39,5.18 -270.78,-64.58 -364.91,-143.93 -358.23,-301.98 -378.49,-705.21 -401.31,-742.03 -20.46,-33.02 -31.41,-24.62 -51.29,-75.74 -16.64,-42.78 -42.75,-167.5 -42.75,-221.09 47.55,-3.96 77.09,-39.88 75.45,-87.95 -27.27,-34.74 -33.32,-48.92 -17.18,-107.5 -2.9,-42.83 -18.26,-93.77 -19.18,-139.31l-175.9 -0.53c0.97,48.73 20.6,106.12 20.3,150.25 -0.68,101.29 -122,49.33 -16.3,425.34 45,160.11 36.15,16.03 95.65,256.14 24.35,98.26 54.06,172.75 95.79,256.01 40.1,80 77.14,141.45 129.7,212.32 78.39,105.7 158.31,185.08 265.22,262.47 29.09,21.06 77.08,51.15 110.22,65.68 345.41,151.45 621.6,11.65 860.7,-230.02 20.93,-21.15 22.82,-26.73 39.97,-47.98 15.63,-19.36 25.43,-27.4 40.63,-47.32 247.63,-324.47 238.52,-536.51 280.22,-599.26 64.16,-96.53 120.49,-303.47 95.42,-421.66 -19.55,-92.18 -45.23,-57.73 -26.77,-134.17 9.02,-37.35 21.32,-121.58 32.07,-147.27z"/>
  <path class="fil1 str0" d="M13345.09 7487.13c-16.14,58.58 -10.09,72.76 17.18,107.5 50.95,31.42 26.04,93.46 38.84,159.32 34.14,175.78 161.5,232.14 354.67,231.72 462.84,-1.01 265.66,-391.04 390.98,-391.04 54.45,14.53 55.27,70.72 58.87,136.57 10.96,200.05 144.33,254.08 342,254.55 116.05,0.28 238.7,-35.14 289.32,-101.59 112.97,-148.29 11.45,-251.02 106.05,-299.31l14.84 -87.94c-71.21,-47.69 -53.2,-36.14 -171.5,-53.26 -136.09,-19.7 -293.31,-23.01 -425.51,3.48 -433.66,86.9 -342.15,-59.39 -828.01,-7.16 -73.16,7.86 -136.69,13.78 -187.73,47.16zm408.8 15.17c211.72,5.68 277.75,-4.66 251.29,193.66 -26.46,198.32 -119.82,207.41 -286.85,206.53 -167.03,-0.88 -240.59,-96.03 -240.59,-203.4 0,-60.57 5.64,-133.05 20.5,-149.59 33.68,-37.46 155.61,-49.88 255.65,-47.2zm801.28 0c-211.72,5.68 -277.75,-4.66 -251.29,193.66 26.46,198.32 119.82,207.41 286.85,206.53 167.03,-0.88 240.59,-96.03 240.59,-203.4 0,-60.57 -5.64,-133.05 -20.5,-149.59 -33.68,-37.46 -155.61,-49.88 -255.65,-47.2z"/>
 </g>
</svg>
