<?xml version="1.0" encoding="utf-8"?>
<!-- Generator: Adobe Illustrator 23.0.0, SVG Export Plug-In . SVG Version: 6.00 Build 0)  -->
<svg version="1.1" id="Capa_1" xmlns="http://www.w3.org/2000/svg" xmlns:xlink="http://www.w3.org/1999/xlink" x="0px" y="0px"
	 viewBox="0 0 51.7 51.7" style="enable-background:new 0 0 51.7 51.7;" xml:space="preserve">
<style type="text/css">
	.st0{fill:#FFFFFF;}
</style>
<g>
	<g>
		<path class="st0" d="M43,0c-3.5,0-6.5,2.3-7.5,5.5h-9.4c-1.3,0-2.3,1-2.3,2.3l0,10.6c-3.2,1-5.5,3.9-5.5,7.5
			c0,3.5,2.3,6.5,5.5,7.5v8.1l-7.7,0c-1-3.2-3.9-5.5-7.5-5.5c-4.3,0-7.8,3.5-7.8,7.9c0,4.3,3.5,7.8,7.8,7.8c3.5,0,6.5-2.3,7.5-5.5
			l10.1,0c1.3,0,2.3-1,2.3-2.3V33.4c3.2-1,5.5-3.9,5.5-7.5c0-3.5-2.3-6.5-5.5-7.5l0-8.3h7.1c1,3.2,3.9,5.5,7.5,5.5
			c4.3,0,7.9-3.5,7.9-7.8C50.9,3.5,47.3,0,43,0z M8.7,47c-1.8,0-3.2-1.4-3.2-3.2c0-1.8,1.4-3.2,3.2-3.2s3.2,1.4,3.2,3.2
			C11.8,45.6,10.4,47,8.7,47z M26.2,29.1c-1.8,0-3.2-1.4-3.2-3.2c0-1.8,1.4-3.2,3.2-3.2s3.2,1.4,3.2,3.2
			C29.4,27.7,27.9,29.1,26.2,29.1z M43,11c-1.8,0-3.2-1.4-3.2-3.2c0-1.8,1.4-3.2,3.2-3.2s3.2,1.4,3.2,3.2C46.2,9.6,44.8,11,43,11z"
			/>
	</g>
</g>
</svg>
