<svg id="Capa_1" enable-background="new 0 0 512 512" height="512" viewBox="0 0 512 512" width="512" xmlns="http://www.w3.org/2000/svg"><path d="m469.264 399.33h-426.528c-19.437 0-35.194-15.757-35.194-35.194v-216.272c0-19.437 15.757-35.194 35.194-35.194h426.528c19.437 0 35.194 15.757 35.194 35.194v216.272c0 19.437-15.757 35.194-35.194 35.194z" fill="#ff2b4e"/><path d="m469.264 112.67h-18.1c19.437 0 35.194 15.757 35.194 35.194v216.272c0 19.437-15.757 35.194-35.194 35.194h18.1c19.437 0 35.194-15.757 35.194-35.194v-216.272c0-19.437-15.757-35.194-35.194-35.194z" fill="#ff002d"/><path d="m457.193 363.077h-402.386c-8.33 0-15.083-6.753-15.083-15.083v-183.987c0-8.33 6.753-15.083 15.083-15.083h402.387c8.33 0 15.083 6.753 15.083 15.083v183.986c0 8.331-6.753 15.084-15.084 15.084z" fill="#eaeff9"/><path d="m457.193 148.924h-18.1c8.33 0 15.083 6.753 15.083 15.083v183.986c0 8.33-6.753 15.083-15.083 15.083h18.1c8.33 0 15.083-6.753 15.083-15.083v-183.986c.001-8.33-6.752-15.083-15.083-15.083z" fill="#dbe0ea"/><path d="m469.264 105.128h-337.991c-4.165 0-7.542 3.377-7.542 7.542s3.377 7.542 7.542 7.542h337.991c15.248 0 27.653 12.405 27.653 27.653v216.272c0 15.248-12.405 27.653-27.653 27.653h-258.218c-4.165 0-7.542 3.376-7.542 7.542s3.377 7.542 7.542 7.542h258.218c23.565 0 42.736-19.171 42.736-42.736v-216.274c0-23.565-19.171-42.736-42.736-42.736z"/><path d="m180.88 391.789h-138.144c-15.248 0-27.653-12.405-27.653-27.653v-216.272c0-15.248 12.405-27.653 27.653-27.653h58.37c4.165 0 7.542-3.377 7.542-7.542s-3.377-7.542-7.542-7.542h-58.37c-23.565.001-42.736 19.172-42.736 42.737v216.272c0 23.565 19.171 42.736 42.736 42.736h138.144c4.165 0 7.542-3.377 7.542-7.542s-3.377-7.541-7.542-7.541z"/><path d="m367.246 141.382h-312.44c-12.476 0-22.625 10.149-22.625 22.625v183.986c0 12.476 10.149 22.625 22.625 22.625h402.387c12.476 0 22.625-10.149 22.625-22.625v-183.986c0-12.476-10.149-22.625-22.625-22.625h-59.781c-4.165 0-7.542 3.376-7.542 7.542s3.376 7.542 7.542 7.542h59.781c4.158 0 7.542 3.383 7.542 7.542v183.986c0 4.159-3.383 7.542-7.542 7.542h-402.387c-4.158 0-7.542-3.383-7.542-7.542v-183.987c0-4.159 3.383-7.542 7.542-7.542h312.439c4.165 0 7.542-3.376 7.542-7.542s-3.376-7.541-7.541-7.541z"/><path d="m212.722 217.218c0-4.165-3.377-7.542-7.542-7.542s-7.542 3.377-7.542 7.542v12.928c0 4.165 3.376 7.542 7.542 7.542s7.542-3.377 7.542-7.542z"/><path d="m205.18 270.639c-4.165 0-7.542 3.376-7.542 7.542v12.927c0 4.165 3.376 7.542 7.542 7.542s7.542-3.377 7.542-7.542v-12.927c0-4.165-3.377-7.542-7.542-7.542z"/><path d="m343.013 204.797v37.769c0 4.165 3.377 7.542 7.542 7.542s7.542-3.376 7.542-7.542v-37.769c0-4.165-3.377-7.542-7.542-7.542-4.165.001-7.542 3.377-7.542 7.542z"/><path d="m421.646 303.529v-37.77c0-4.165-3.377-7.542-7.542-7.542s-7.542 3.376-7.542 7.542v37.77c0 4.165 3.377 7.542 7.542 7.542s7.542-3.377 7.542-7.542z"/><path d="m395.81 192.087h-26.962c-4.165 0-7.542 3.376-7.542 7.542s3.376 7.542 7.542 7.542h26.962c4.165 0 7.542-3.377 7.542-7.542s-3.377-7.542-7.542-7.542z"/><path d="m395.81 248.454h-26.962c-4.165 0-7.542 3.377-7.542 7.542s3.376 7.542 7.542 7.542h26.962c4.165 0 7.542-3.376 7.542-7.542s-3.377-7.542-7.542-7.542z"/><path d="m395.81 304.83h-26.962c-4.165 0-7.542 3.376-7.542 7.542s3.376 7.542 7.542 7.542h26.962c4.165 0 7.542-3.376 7.542-7.542s-3.377-7.542-7.542-7.542z"/><path d="m97.896 258.218c-4.165 0-7.542 3.376-7.542 7.542v37.77c0 4.165 3.377 7.542 7.542 7.542s7.542-3.377 7.542-7.542v-37.77c-.001-4.165-3.377-7.542-7.542-7.542z"/><path d="m161.445 258.218c-4.165 0-7.542 3.376-7.542 7.542v37.77c0 4.165 3.377 7.542 7.542 7.542s7.542-3.377 7.542-7.542v-37.77c0-4.165-3.377-7.542-7.542-7.542z"/><path d="m105.437 204.797c0-4.165-3.377-7.542-7.542-7.542s-7.542 3.377-7.542 7.542v37.769c0 4.165 3.377 7.542 7.542 7.542s7.542-3.376 7.542-7.542z"/><path d="m168.987 204.797c0-4.165-3.377-7.542-7.542-7.542s-7.542 3.377-7.542 7.542v37.769c0 4.165 3.377 7.542 7.542 7.542s7.542-3.376 7.542-7.542z"/><path d="m143.151 192.087h-26.961c-4.165 0-7.542 3.376-7.542 7.542s3.376 7.542 7.542 7.542h26.962c4.165 0 7.542-3.377 7.542-7.542s-3.377-7.542-7.543-7.542z"/><path d="m143.151 248.454h-26.961c-4.165 0-7.542 3.377-7.542 7.542s3.376 7.542 7.542 7.542h26.962c4.165 0 7.542-3.376 7.542-7.542s-3.377-7.542-7.543-7.542z"/><path d="m143.151 304.83h-26.961c-4.165 0-7.542 3.376-7.542 7.542s3.376 7.542 7.542 7.542h26.962c4.165 0 7.542-3.376 7.542-7.542s-3.377-7.542-7.543-7.542z"/><path d="m248.915 258.218c-4.165 0-7.542 3.376-7.542 7.542v37.77c0 4.165 3.377 7.542 7.542 7.542s7.542-3.377 7.542-7.542v-37.77c0-4.165-3.377-7.542-7.542-7.542z"/><path d="m312.465 258.218c-4.165 0-7.542 3.376-7.542 7.542v37.77c0 4.165 3.376 7.542 7.542 7.542s7.542-3.377 7.542-7.542v-37.77c0-4.165-3.377-7.542-7.542-7.542z"/><path d="m320.007 204.797c0-4.165-3.376-7.542-7.542-7.542s-7.542 3.377-7.542 7.542v37.769c0 4.165 3.376 7.542 7.542 7.542s7.542-3.376 7.542-7.542z"/><path d="m256.457 204.797c0-4.165-3.377-7.542-7.542-7.542s-7.542 3.377-7.542 7.542v37.769c0 4.165 3.377 7.542 7.542 7.542s7.542-3.376 7.542-7.542z"/><path d="m294.171 192.087h-26.962c-4.165 0-7.542 3.376-7.542 7.542s3.377 7.542 7.542 7.542h26.962c4.165 0 7.542-3.377 7.542-7.542s-3.377-7.542-7.542-7.542z"/><path d="m294.171 304.83h-26.962c-4.165 0-7.542 3.376-7.542 7.542s3.377 7.542 7.542 7.542h26.962c4.165 0 7.542-3.376 7.542-7.542s-3.377-7.542-7.542-7.542z"/></svg>