<svg height="464pt" viewBox="0 0 464.0001 464.0001" width="464pt" xmlns="http://www.w3.org/2000/svg"><path d="m352 120c0 66.273438-53.726562 120-120 120s-120-53.726562-120-120 53.726562-120 120-120 120 53.726562 120 120zm0 0" fill="#ffdaaa"/><path d="m384 384h-16v-176c0-2.121094.84375-4.15625 2.34375-5.65625l32-32 11.3125 11.3125-29.65625 29.65625zm0 0" fill="#c0ab91"/><path d="m288 288h128v136h-128zm0 0" fill="#bdfdff"/><path d="m288 248h128v40h-128zm0 0" fill="#57a4ff"/><path d="m280 360c.019531-5.773438-3.085938-11.105469-8.113281-13.941406-5.027344-2.839844-11.195313-2.738282-16.125.261718.121093-.769531.203125-1.542968.238281-2.320312.019531-5.773438-3.085938-11.105469-8.113281-13.941406-5.027344-2.839844-11.195313-2.738282-16.125.261718.121093-.769531.203125-1.542968.238281-2.320312.019531-5.773438-3.085938-11.105469-8.113281-13.941406-5.027344-2.839844-11.195313-2.738282-16.125.261718.121093-.769531.203125-1.542968.238281-2.320312-.027344-8.824219-7.175781-15.972656-16-16-3.1875.019531-6.300781.964844-8.960938 2.71875-2.214843-6.414062-8.253906-10.714844-15.039062-10.714844s-12.824219 4.300782-15.039062 10.714844c-2.660157-1.753906-5.773438-2.699219-8.960938-2.71875-6.785156.003906-12.820312 4.308594-15.039062 10.71875-2.660157-1.753906-5.773438-2.699219-8.960938-2.71875-8.824219.027344-15.972656 7.175781-16 16 .035156.777344.117188 1.550781.238281 2.320312-4.929687-3-11.097656-3.101562-16.125-.261718-5.027343 2.835937-8.132812 8.167968-8.113281 13.941406-5.773438-.019531-11.105469 3.085938-13.941406 8.113281-2.839844 5.027344-2.738282 11.195313.261718 16.125-.769531-.121093-1.542968-.203125-2.320312-.238281-8.835938 0-16 7.164062-16 16s7.164062 16 16 16h216c8.835938 0 16-7.164062 16-16s-7.164062-16-16-16zm0 0" fill="#ffe477"/><path d="m165.839844 362.160156c3.152344 4.960938 3.332031 11.25.46875 16.378906-2.863282 5.132813-8.3125 8.28125-14.1875 8.203126-5.875-.078126-11.238282-3.375-13.960938-8.582032-4.398437-7.679687-9.839844-31.28125-2.160156-35.761718 7.679688-4.476563 25.441406 12.082031 29.839844 19.761718zm0 0" fill="#7ed63e"/><path d="m304 392c-.015625 8.484375-3.378906 16.621094-9.359375 22.640625-1.996094 1.945313-4.226563 3.640625-6.640625 5.039063-4.859375 2.824218-10.378906 4.316406-16 4.320312h-208c-17.671875 0-32-14.328125-32-32zm0 0" fill="#957856"/><path d="m464 444c.015625 5.308594-2.085938 10.40625-5.839844 14.160156s-8.851562 5.855469-14.160156 5.839844h-424c-11.046875 0-20-8.953125-20-20s8.953125-20 20-20h424c11.046875 0 20 8.953125 20 20zm0 0" fill="#898890"/><path d="m170.789062 161.917969 56.019532-47.984375 10.40625 12.152344-56.015625 47.984374zm0 0" fill="#787680"/><path d="m224 24h16v96h-16zm0 0" fill="#787680"/><path d="m200 344h-16c0-4.417969-3.582031-8-8-8v-16c13.253906 0 24 10.746094 24 24zm0 0" fill="#ffda44"/><path d="m96 368h-16c0-13.253906 10.746094-24 24-24v16c-4.417969 0-8 3.582031-8 8zm0 0" fill="#ffda44"/><path d="m232 96c11.105469-.035156 20.785156 7.550781 23.402344 18.339844 2.617187 10.792968-2.507813 21.96875-12.394532 27.027344-9.886718 5.054687-21.949218 2.671874-29.167968-5.765626-3.796875-4.308593-5.875-9.859374-5.839844-15.601562 0-13.253906 10.746094-24 24-24zm0 0" fill="#d80027"/><path d="m304 256h24c4.417969 0 8 3.582031 8 8s-3.582031 8-8 8h-24c-4.417969 0-8-3.582031-8-8s3.582031-8 8-8zm0 0" fill="#9bc9ff"/></svg>