<svg height="638pt" viewBox="-121 -20 638 638.667" width="638pt" xmlns="http://www.w3.org/2000/svg"><path d="m262.09375 365.1875c0 5.519531-4.472656 9.992188-9.992188 9.992188-5.519531 0-9.988281-4.472657-9.988281-9.992188 0-5.515625 4.46875-9.992188 9.988281-9.992188 5.519532 0 9.992188 4.476563 9.992188 9.992188zm0 0"/><path d="m387.636719 148.726562c-1.226563-2.292968-3.410157-3.917968-5.957031-4.433593-.636719-.132813-1.292969-.191407-1.945313-.175781h-247.972656c-4.824219 0-8.742188 3.914062-8.742188 8.742187v102.203125c0 4.824219 3.917969 8.742188 8.742188 8.742188 4.828125 0 8.742187-3.917969 8.742187-8.742188v-93.460938h179.742188l-124.195313 37.183594c-3.699219 1.105469-6.234375 4.511719-6.234375 8.375v382.847656c0 2.761719 1.304688 5.363282 3.519532 7.011719 2.214843 1.648438 5.082031 2.15625 7.730468 1.363281l181.371094-54.304687c3.703125-1.109375 6.242188-4.511719 6.242188-8.378906v-382.640625c.007812-.484375-.019532-.972656-.09375-1.457032-.148438-1.003906-.464844-1.976562-.949219-2.875zm-135.535157 243.941407c-15.175781 0-27.476562-12.304688-27.476562-27.480469s12.300781-27.476562 27.476562-27.476562c15.175782 0 27.480469 12.300781 27.480469 27.476562-.019531 15.167969-12.308593 27.460938-27.480469 27.480469zm0 0"/><path d="m140.503906 526.957031v-89.472656c0-4.832031-3.914062-8.742187-8.742187-8.742187-4.824219 0-8.742188 3.910156-8.742188 8.742187v98.214844c0 4.832031 3.917969 8.746093 8.742188 8.746093h58.054687v-17.488281zm0 0"/><path d="m262.09375 117.40625c32.421875 0 58.703125-26.285156 58.703125-58.703125 0-32.421875-26.28125-58.703125-58.703125-58.703125s-58.699219 26.28125-58.699219 58.703125c-.089843 15.59375 6.066407 30.574219 17.09375 41.601563 11.03125 11.027343 26.007813 17.183593 41.605469 17.101562zm-16.8125-76.726562c2.605469-4.0625 8.011719-5.25 12.078125-2.644532l13.902344 8.910156c2.511719 1.609376 4.027343 4.378907 4.027343 7.363282v27.691406c0 4.828125-3.914062 8.742188-8.746093 8.742188-4.824219 0-8.742188-3.914063-8.742188-8.742188v-22.910156l-9.875-6.335938c-4.0625-2.605468-5.25-8.007812-2.644531-12.074218zm0 0"/><path d="m23.410156 352.699219h140.03125c4.824219 0 8.742188-3.914063 8.742188-8.742188 0-4.832031-3.917969-8.742187-8.742188-8.742187h-140.03125l36.300782-36.300782c3.414062-3.414062 3.414062-8.953124 0-12.363281-3.417969-3.414062-8.949219-3.414062-12.363282 0l-51.230468 51.222657c-3.414063 3.410156-3.414063 8.949218 0 12.363281l51.222656 51.222656c3.417968 3.417969 8.953125 3.417969 12.371094 0 3.414062-3.414063 3.414062-8.945313 0-12.363281zm0 0"/></svg>