<svg height="512pt" viewBox="0 0 512 512.00001" width="512pt" xmlns="http://www.w3.org/2000/svg"><path d="m512 256c0 141.386719-114.617188 256-256 256-141.386719 0-256-114.613281-256-256 0-141.382812 114.613281-256 256-256 141.382812 0 256 114.617188 256 256zm0 0" fill="#854f89"/><path d="m382.121094 449.578125v29.246094c-25.546875 14.503906-53.84375 24.722656-83.90625 29.707031-6.445313 1.0625-12.964844 1.898438-19.558594 2.476562-4.105469.363282-8.246094.625-12.414062.78125-3.394532.148438-6.8125.210938-10.238282.210938-7.648437 0-15.203125-.335938-22.675781-.992188-18.953125-1.664062-37.3125-5.394531-54.855469-10.960937-.628906-.199219-1.265625-.410156-1.894531-.617187-16.339844-5.320313-31.972656-12.257813-46.695313-20.605469v-29.246094c0-44.011719 29.886719-81.042969 70.480469-91.898437 1.480469-.398438 2.976563-.765626 4.492188-1.089844 4.03125-.875 8.171875-1.480469 12.382812-1.828125 2.570313-.207031 5.160157-.3125 7.78125-.3125h61.953125c6.929688 0 13.679688.730469 20.175782 2.140625.378906.074218.753906.160156 1.121093.242187 1.097657.25 2.191407.523438 3.269531.816407.03125.007812.050782.007812.082032.019531 10.710937 2.863281 20.679687 7.554687 29.539062 13.707031 24.753906 17.179688 40.960938 45.800781 40.960938 78.203125zm0 0" fill="#dd3033"/><path d="m382.121094 449.578125v29.246094c-25.546875 14.503906-53.84375 24.722656-83.90625 29.707031-6.445313 1.0625-12.964844 1.898438-19.558594 2.476562-4.105469.363282-8.246094.625-12.414062.78125-3.394532.148438-6.8125.210938-10.238282.210938-7.648437 0-15.203125-.335938-22.675781-.992188-18.953125-1.664062-37.3125-5.394531-54.855469-10.960937-.628906-.199219-1.265625-.410156-1.894531-.617187v-49.851563c0-44.011719 29.886719-81.042969 70.480469-91.898437 1.484375-.398438 2.976562-.765626 4.492187-1.089844 4.035157-.875 8.171875-1.480469 12.382813-1.828125 2.570312-.207031 5.160156-.3125 7.785156-.3125h15.253906c6.929688 0 13.679688.730469 20.175782 2.140625.378906.074218.753906.160156 1.121093.242187 1.097657.25 2.191407.523438 3.269531.816407.03125.007812.050782.007812.082032.019531 10.710937 2.863281 20.679687 7.554687 29.539062 13.707031 24.753906 17.179688 40.960938 45.800781 40.960938 78.203125zm0 0" fill="#f74f4f"/><path d="m155.355469 401.605469v31.542969c0 5.390624-3.332031 10.007812-8.046875 11.898437-1.480469.597656-3.089844.921875-4.777344.921875-7.082031 0-12.820312-5.742188-12.820312-12.820312v-31.542969c0-7.082031 5.742187-12.824219 12.820312-12.824219 1.6875 0 3.296875.328125 4.777344.921875 1.621094.648437 3.078125 1.621094 4.289062 2.835937 2.320313 2.324219 3.757813 5.527344 3.757813 9.066407zm0 0" fill="#eab599"/><path d="m155.355469 401.605469v55.816406c0 5.390625-3.332031-14.265625-8.046875-12.375-4.71875-1.890625-8.046875-6.507813-8.046875-11.898437v-31.542969c0-5.390625 3.328125-10.007813 8.046875-11.902344 1.621094.648437 3.078125 1.617187 4.289062 2.835937 2.320313 2.324219 3.757813 5.527344 3.757813 9.066407zm0 0" fill="#f6caae"/><path d="m155.359375 443.601562v29.746094c0 5.925782-1.933594 11.402344-5.195313 15.820313-17.125-7.785157-33.238281-17.40625-48.09375-28.609375v-16.957032c0-14.714843 11.929688-26.644531 26.644532-26.644531 3.507812 0 6.851562.675781 9.925781 1.910157 3.363281 1.347656 6.394531 3.363281 8.914063 5.894531 4.816406 4.828125 7.804687 11.480469 7.804687 18.839843zm0 0" fill="#eab599"/><path d="m155.359375 443.601562v29.746094c0 5.925782-1.933594 11.402344-5.195313 15.820313h-.007812c-9.75-4.441407-19.175781-9.464844-28.222656-15.046875-.011719-.261719-.011719-.511719-.011719-.773438v-29.746094c0-11.203124 6.917969-20.792968 16.71875-24.734374 3.363281 1.347656 6.394531 3.363281 8.914063 5.894531 4.816406 4.828125 7.804687 11.480469 7.804687 18.839843zm0 0" fill="#f6caae"/><path d="m311.847656 356.589844-.226562 1.078125-32.96875 153.335937c-7.460938.660156-15.023438.992188-22.652344.992188-7.648438 0-15.203125-.332032-22.675781-.992188l-32.964844-153.328125-.230469-1.085937zm0 0" fill="#f2f0ec"/><path d="m255.988281 393.394531-42.828125 23.800781-13.03125-60.601562 26.613282-15.675781" fill="#d8d5d0"/><path d="m255.988281 393.394531 42.828125 23.800781 13.03125-60.601562-26.613281-15.675781" fill="#d8d5d0"/><path d="m128.109375 331.511719v-143.472657c0-14.578124 2.433594-28.863281 7.230469-42.453124 17.957031-51.101563 66.445312-85.441407 120.65625-85.441407 6.714844 0 13.414062.519531 19.925781 1.546875 29.78125 4.652344 57.105469 19.859375 76.917969 42.808594 20.023437 23.191406 31.050781 52.859375 31.050781 83.539062v143.472657" fill="#ffe152"/><path d="m180.71875 193.640625c0 50.75 29.714844 109.460937 46.039062 137.875h-98.652343v-143.476563c0-14.574218 2.4375-28.859374 7.234375-42.453124 17.84375-50.804688 65.890625-85.042969 119.722656-85.429688-39.320312.980469-74.34375 64.0625-74.34375 133.484375zm0 0" fill="#e8c934"/><path d="m289.941406 317.800781v41.65625c0 15.25-10.054687 28.140625-23.902344 32.417969-3.171874.984375-6.550781 1.519531-10.042968 1.519531-18.746094 0-33.9375-15.195312-33.9375-33.9375v-41.65625zm0 0" fill="#eab599"/><path d="m289.941406 356.816406v2.640625c0 15.25-10.054687 28.140625-23.902344 32.417969-12.496093-3.839844-21.894531-14.707031-23.628906-28 2.269532.140625 4.546875.207031 6.839844.207031 6.421875 0 12.714844-.507812 18.847656-1.515625 7.554688-1.214844 14.855469-3.15625 21.84375-5.75zm0 0" fill="#f6caae"/><path d="m162.890625 249.535156c0 15.710938-11.476563 28.742188-26.507813 31.160156-1.644531.265626-3.332031.402344-5.058593.402344-17.4375 0-31.5625-14.125-31.5625-31.5625s14.125-31.566406 31.5625-31.566406c1.726562 0 3.414062.136719 5.058593.40625 15.03125 2.417969 26.507813 15.445312 26.507813 31.160156zm0 0" fill="#f6caae"/><g fill="#eab599"><path d="m162.890625 249.535156c0 15.710938-11.476563 28.742188-26.507813 31.160156-2.730468-9.929687-4.191406-20.378906-4.191406-31.160156 0-10.785156 1.460938-21.234375 4.191406-31.160156 15.03125 2.417969 26.507813 15.445312 26.507813 31.160156zm0 0"/><path d="m142.605469 249.535156c0 6.230469-5.050781 11.28125-11.28125 11.28125s-11.28125-5.050781-11.28125-11.28125c0-6.230468 5.050781-11.285156 11.28125-11.285156s11.28125 5.054688 11.28125 11.285156zm0 0"/><path d="m337.046875 209.230469v108.5c-16.769531 16.007812-38.273437 27.09375-62.203125 30.949219-.1875.03125-.386719.0625-.574219.09375-5.945312.953124-12.046875 1.421874-18.273437 1.421874-64.859375 0-117.4375-52.578124-117.4375-117.433593v-44.722657c0-5.726562.410156-11.359374 1.203125-16.867187 27.941406 20.09375 68 18.109375 93.527343-6.015625 8.453126-7.984375 14.324219-17.492188 17.648438-27.574219 1.851562 17.65625 9.925781 34.84375 24.242188 48.378907 17.042968 16.089843 39.558593 23.851562 61.867187 23.269531zm0 0"/></g><path d="m337.046875 209.230469v108.5c-16.769531 16.007812-38.273437 27.09375-62.203125 30.949219-.1875.03125-.386719.0625-.574219.09375-56.171875-8.777344-99.140625-57.382813-99.140625-116.011719v-44.722657c0-1.191406.023438-2.371093.066406-3.554687 20.707032 2.121094 42.210938-4.3125 58.09375-19.328125 8.453126-7.984375 14.324219-17.492188 17.648438-27.574219 1.851562 17.65625 9.925781 34.84375 24.242188 48.378907 17.042968 16.089843 39.558593 23.851562 61.867187 23.269531zm0 0" fill="#f6caae"/><path d="m319.066406 222.84375c0-10.773438-8.730468-19.507812-19.503906-19.507812-10.769531 0-19.503906 8.734374-19.503906 19.507812" fill="#eab599"/><path d="m231.953125 222.84375c0-10.773438-8.734375-19.507812-19.507813-19.507812-10.773437 0-19.503906 8.734374-19.503906 19.507812" fill="#eab599"/><path d="m225.769531 231.144531c0 7.359375-5.964843 13.324219-13.324219 13.324219-7.355468 0-13.320312-5.964844-13.320312-13.324219 0-7.355469 5.964844-13.320312 13.320312-13.320312 7.359376 0 13.324219 5.964843 13.324219 13.320312zm0 0" fill="#3d4159"/><path d="m312.886719 231.144531c0 7.359375-5.964844 13.324219-13.324219 13.324219-7.355469 0-13.320312-5.964844-13.320312-13.324219 0-7.355469 5.964843-13.320312 13.320312-13.320312 7.359375 0 13.324219 5.964843 13.324219 13.320312zm0 0" fill="#3d4159"/><path d="m269.328125 264.6875h-26.644531c-3.175782 0-5.75-2.570312-5.75-5.746094 0-3.175781 2.574218-5.746094 5.75-5.746094h26.644531c3.171875 0 5.746094 2.570313 5.746094 5.746094 0 3.175782-2.574219 5.746094-5.746094 5.746094zm0 0" fill="#eab599"/><path d="m256.003906 301.046875c-9.832031 0-19.667968-2.460937-28.628906-7.390625-2.53125-1.390625-3.453125-4.566406-2.0625-7.09375 1.390625-2.53125 4.566406-3.449219 7.09375-2.0625 14.777344 8.125 32.421875 8.125 47.199219 0 2.523437-1.390625 5.703125-.46875 7.09375 2.0625 1.390625 2.527344.464843 5.703125-2.0625 7.09375-8.964844 4.929688-18.796875 7.390625-28.632813 7.390625zm0 0" fill="#eab599"/><path d="m223.050781 228.792969c0 3.152343-2.554687 5.710937-5.707031 5.710937s-5.707031-2.558594-5.707031-5.710937c0-3.152344 2.554687-5.707031 5.707031-5.707031s5.707031 2.554687 5.707031 5.707031zm0 0" fill="#fff"/><path d="m310.824219 228.792969c0 3.152343-2.554688 5.710937-5.707031 5.710937-3.152344 0-5.710938-2.558594-5.710938-5.710937 0-3.152344 2.558594-5.707031 5.710938-5.707031 3.152343 0 5.707031 2.554687 5.707031 5.707031zm0 0" fill="#fff"/><path d="m335.933594 263.59375c0 8.082031-6.546875 14.628906-14.628906 14.628906-8.078126 0-14.625-6.546875-14.625-14.628906 0-8.078125 6.546874-14.628906 14.625-14.628906 8.082031 0 14.628906 6.550781 14.628906 14.628906zm0 0" fill="#eab599"/><path d="m205.324219 263.59375c0 8.082031-6.550781 14.628906-14.628907 14.628906-8.078124 0-14.628906-6.546875-14.628906-14.628906 0-8.078125 6.550782-14.628906 14.628906-14.628906 8.078126 0 14.628907 6.550781 14.628907 14.628906zm0 0" fill="#eab599"/><path d="m511.996094 92.660156c0 51.175782-41.484375 92.660156-92.660156 92.660156-51.171876 0-92.660157-41.484374-92.660157-92.660156 0-51.175781 41.488281-92.660156 92.660157-92.660156 51.175781 0 92.660156 41.484375 92.660156 92.660156zm0 0" fill="#3fb777"/><path d="m399.863281 43.089844h38.949219v99.140625h-38.949219zm0 0" fill="#f2f0ec"/><path d="m369.769531 73.1875h99.136719v38.945312h-99.136719zm0 0" fill="#f2f0ec"/></svg>