<svg height="512pt" viewBox="0 0 512 512" width="512pt" xmlns="http://www.w3.org/2000/svg"><path d="m512 256c0 141.386719-114.613281 256-256 256s-256-114.613281-256-256 114.613281-256 256-256 256 114.613281 256 256zm0 0" fill="#57545c"/><path d="m512 256c0-6.683594-.257812-13.308594-.761719-19.863281l-135.703125-135.707031c-25.605468-27.90625-201.203125-54.761719-250.535156 36.570312 0 0-8.871094 254.484375 20.085938 281.0625l93.324218 93.324219c5.8125.394531 11.675782.613281 17.589844.613281 141.386719 0 256-114.613281 256-256zm0 0" fill="#3a383f"/><path d="m272.410156 455v-30c60.640625 0 109.976563-49.335938 109.976563-109.976562v-120.046876c0-60.640624-49.335938-109.976562-109.976563-109.976562h-32.820312c-60.640625 0-109.976563 49.335938-109.976563 109.976562v120.050782c0 32.144531 14.164063 62.648437 38.855469 83.6875l-19.457031 22.835937c-31.394531-26.75-49.398438-65.574219-49.398438-106.523437v-120.050782c0-77.183593 62.792969-139.976562 139.976563-139.976562h32.820312c77.183594 0 139.976563 62.792969 139.976563 139.976562v120.050782c0 77.179687-62.792969 139.972656-139.976563 139.972656zm0 0" fill="#00ec88"/><path d="m283.207031 389.839844c-7.167969 0-13.730469-1.695313-19.117187-5.101563-8.824219-5.574219-13.683594-15.019531-13.683594-26.585937v-21.9375c0-13.148438 10.699219-23.847656 23.847656-23.847656 2.3125 0 4.199219-1.882813 4.199219-4.195313v-89.359375c0-5.335938-4.34375-9.679688-9.679687-9.679688h-20.511719c-5.335938 0-9.679688 4.34375-9.679688 9.679688v78.972656h-30v-78.972656c0-21.878906 17.800781-39.679688 39.679688-39.679688h20.511719c21.878906 0 39.679687 17.800782 39.679687 39.679688v89.359375c0 16.757813-12.113281 30.734375-28.046875 33.644531v16.335938c0 .652344.054688 1.101562.105469 1.386718 1.75.535157 7.257812.675782 14.71875-2.867187 19.773437-9.394531 32.550781-29.5 32.550781-51.226563v-99.105468c0-29.609375-24.089844-53.695313-53.695312-53.695313h-30.445313c-29.609375 0-53.695313 24.085938-53.695313 53.695313v99.105468c0 16.554688 7.296876 32.265626 20.023438 43.109376l-19.457031 22.835937c-19.425781-16.554687-30.566407-40.589844-30.566407-65.945313v-99.105468c0-46.152344 37.542969-83.695313 83.695313-83.695313h30.445313c46.148437 0 83.695312 37.542969 83.695312 83.695313v99.105468c0 33.246094-19.5 63.988282-49.679688 78.324219-8.503906 4.039063-17.058593 6.070313-24.894531 6.070313zm0 0" fill="#00ec88"/><g fill="#00ca76"><path d="m412.378906 194.96875v120.0625c0 77.179688-62.789062 139.96875-139.96875 139.96875v-30c60.640625 0 109.96875-49.328125 109.96875-109.96875v-120.0625c0-60.640625-49.328125-109.96875-109.96875-109.96875h-16.410156v-30h16.410156c77.179688 0 139.96875 62.789062 139.96875 139.96875zm0 0"/><path d="m357.78125 206.339844v99.109375c0 33.242187-19.5 63.980469-49.679688 78.320312-8.5 4.039063-17.0625 6.070313-24.890624 6.070313-7.171876 0-13.742188-1.699219-19.121094-5.101563-3.25-2.046875-5.960938-4.628906-8.089844-7.636719v-56.210937c4.378906-5.199219 10.941406-8.519531 18.25-8.519531 2.320312 0 4.199219-1.882813 4.199219-4.199219v-89.363281c0-5.339844-4.339844-9.679688-9.679688-9.679688h-12.769531v-30h12.769531c21.878907 0 39.679688 17.800782 39.679688 39.679688v89.363281c0 16.757813-12.109375 30.738281-28.039063 33.636719v16.339844c0 .652343.050782 1.101562.101563 1.390624 1.75.53125 7.257812.671876 14.71875-2.867187 19.769531-9.390625 32.550781-29.5 32.550781-51.222656v-99.109375c0-29.609375-24.089844-53.699219-53.703125-53.699219h-18.078125v-30h18.078125c46.160156 0 83.703125 37.550781 83.703125 83.699219zm0 0"/></g></svg>