<?xml version="1.0" encoding="UTF-8"?>
<!DOCTYPE svg PUBLIC "-//W3C//DTD SVG 1.1//EN" "http://www.w3.org/Graphics/SVG/1.1/DTD/svg11.dtd">
<!-- Creator: CorelDRAW 2019 (64 Bit) -->
<svg xmlns="http://www.w3.org/2000/svg" xml:space="preserve" width="80mm" height="80mm" version="1.1" style="shape-rendering:geometricPrecision; text-rendering:geometricPrecision; image-rendering:optimizeQuality; fill-rule:evenodd; clip-rule:evenodd"
viewBox="0 0 8000 8000"
 xmlns:xlink="http://www.w3.org/1999/xlink"
 xmlns:xodm="http://www.corel.com/coreldraw/odm/2003">
 <defs>
  <style type="text/css">
   <![CDATA[
    .fil1 {fill:#FEFEFE}
    .fil0 {fill:#373435}
   ]]>
  </style>
 </defs>
 <g id="Camada_x0020_1">
  <metadata id="CorelCorpID_0Corel-Layer"/>
  <g id="_856300800">
   <g id="_1144113376">
    <path class="fil0" d="M2406.84 4181.75c244.83,-296.05 646.81,-277.31 898.76,-499.97 40.78,-21.55 34.88,-31.94 54.18,-74.43 29.67,-65.27 46.41,-118.58 87.94,-169.71 -4.21,-107.96 -0.41,-91.05 -39.6,-170.14 -23.95,-48.37 -35.07,-100.61 -57.33,-150.63 -108.64,-26.16 -118.17,-60.06 -146.56,-168.37 -17.15,-65.43 -71.12,-149.38 -71.5,-250.57 -0.37,-96.9 41.8,-92.07 98.42,-120.4 5.85,-152.29 -30.15,-263.94 0.89,-432.43 49.37,-268.05 173.82,-305.65 271.95,-411.04 120.21,-129.11 247.22,-224.42 457.63,-232.72 229.82,-9.07 499.99,120.8 624.3,291.05 137.27,187.98 145.82,505.42 129.92,785.14 20.76,17.49 43.85,15.5 66.56,39.33 18.71,19.61 27.9,49.15 28.39,81.82 1.49,99.37 -52.78,182.83 -71.24,246.43 -10.43,35.94 -11.28,55.3 -25.89,86.57 -40.48,86.57 -62.53,57.21 -125.98,92.46 -17.25,53.38 -32.96,105.12 -57.35,150.87 -30.64,57.47 -27.36,105.78 -31.03,178.7 13.17,22.93 10.3,9.08 24.13,33.16 31.78,55.3 55.28,165.37 102.21,195.01 210.26,217.97 630.78,202.95 917.51,524.23 67.39,122.7 116.69,209.72 171.84,879.94 -26.92,123.5 -86.03,267.46 -150.5,346.75 -77.54,95.35 -202.47,131.71 -354.27,185.97 -729.86,260.86 -1688.56,262.39 -2422.4,5.49 -162.98,-57.06 -365.03,-138.95 -473.25,-233.98 -252.11,-477.77 8.7,-1180.92 92.27,-1208.53z"/>
    <path class="fil0" d="M5527.02 4171.55c-119.21,-144.56 -399.73,-238.25 -897.97,-489.77 -40.79,-21.55 -34.89,-31.94 -54.19,-74.43 -29.67,-65.27 -46.4,-118.58 -87.94,-169.71 4.21,-107.96 0.42,-91.05 39.6,-170.14 23.95,-48.37 35.07,-100.61 57.33,-150.63 108.65,-26.16 118.17,-60.06 146.57,-168.37 17.14,-65.43 71.12,-149.38 71.5,-250.57 0.37,-96.9 -41.81,-92.07 -98.43,-120.4 -5.85,-152.29 30.15,-263.94 -0.88,-432.43 -49.37,-268.05 -173.82,-305.65 -271.95,-411.04 -120.22,-129.11 -247.22,-224.42 -457.63,-232.72 -229.83,-9.07 -499.99,120.8 -624.31,291.05 -137.27,187.98 -145.81,505.42 -129.92,785.14 -20.75,17.49 -43.84,15.5 -66.55,39.33 -18.72,19.61 -27.91,49.15 -28.4,81.82 -1.49,99.37 52.79,182.83 71.24,246.43 10.44,35.94 11.28,55.3 25.89,86.57 40.49,86.57 62.53,57.21 125.98,92.46 17.25,53.38 32.97,105.12 57.36,150.87 30.63,57.47 27.35,105.78 31.02,178.7 -13.16,22.93 -10.3,9.08 -24.13,33.16 -31.78,55.3 -55.28,165.37 -102.21,195.01 -243.22,225.81 -631.39,192.96 -916.54,509.54 -67.39,122.69 -127.49,126.18 -182.64,796.41 32.65,122.45 40.27,323.17 104.75,402.45 77.54,95.35 258.06,174.23 409.85,228.49 729.86,260.86 1751.96,256.9 2485.8,0 162.99,-57.06 314.19,-106.77 409.86,-228.49 252.11,-477.77 17.77,-1129.66 -93.06,-1218.73z"/>
    <path class="fil1" d="M4096.61 3843.66c23.27,65.31 99.47,86.91 129.24,148.63 -22.72,31.36 -43.86,54.59 -67.94,80.5 -42.24,45.42 -21.63,55.55 -112.62,55.48 -146.5,-0.11 -173.17,17.99 -230.91,-41.5 -26.98,-27.81 -53.14,-47.81 -75.11,-78.41 23.7,-51.96 94.89,-90.92 113.65,-145.43 -71.51,-35.57 -164.61,-109.29 -213.92,-147.11l-196.67 -173.95c-68.41,173.8 -69.82,82.51 18.52,383.25 115.15,392.09 249.65,800.88 355.95,1188.22 21.51,-98.43 19.22,-346.92 22.94,-462.07 2.95,-91.45 5.25,-403.55 23.74,-470.34l225.84 0.02c16.45,70.08 33.87,543.45 41.16,679.6 2.15,40.21 4.35,80.42 6.41,120.64 1.42,27.87 0.57,84.53 12.89,106.71 26.79,-47.1 88.77,-317.58 109.16,-391.49l210.5 -786.11c17.93,-65.94 34.51,-129.55 53.27,-196.91 19.82,-71.18 17.73,-60.6 -19.02,-139.22l-24.33 -41.24c-63.95,55.5 -71.2,82.06 -179.55,167.35 -47.03,37.02 -145.59,117.29 -203.2,143.38z"/>
    <g id="_752254192">
     <path class="fil1" d="M5942.1 3167.6c13.36,30.78 19.41,61.14 33.99,92.3 22.54,48.15 26.29,42.05 31.28,104.37 6.24,77.86 5.9,44.63 -22.19,98.1 -75.94,144.48 -4.05,115.94 -203.69,198.93 -60.53,25.16 -127.59,48.21 -187.51,77.16 -137.75,66.55 -229.44,111.3 -326.25,204.32 474.83,168.5 576.2,698.74 475.7,1246.66 357.97,81.69 740.07,88.78 1112.91,37.6 11.34,-362.46 3.45,-656.63 69.17,-893.11 56.9,-204.74 177.65,-341.18 501.86,-501.48 -63.22,-59.78 -354.67,-172.05 -460.87,-221.1 -60.85,-28.1 -47.41,-23.37 -75.45,-85.08l-55.81 -113.46c-0.76,-1.96 -1.64,-3.94 -2.24,-6.05 -11.32,-39.47 4.13,-86.36 21.78,-119.54 38.35,-72.14 34.57,-115.61 58.37,-126.07l45.9 -18.73c50.06,-30.87 55.45,-107.93 80.17,-168.86 45.03,-110.98 66.89,-194.28 -39.12,-231.99 -15.45,-129.68 62.89,-377.8 -106.99,-559.76l-177.72 -167.72c-250.18,-209.94 -607.04,-77.55 -739.38,72.57 -263.55,298.99 -184.5,913.86 -33.91,1080.94z"/>
     <path class="fil1" d="M5991.15 3693.96c-40.1,-133.89 -19.85,-74.21 13.34,-187.55l159.96 134.93c564.78,453.83 103.78,289.13 434.73,43.11 85.16,-63.28 209.97,-181.11 219.02,-187.3 31.89,49.72 46.81,84.79 29.48,145.59 -440.69,1640.24 -845.11,-183.03 -842.87,1338.02 0.17,119.35 -185.03,116.3 -206.51,220.59 90.93,45.9 690.31,73.17 814.61,63.45 201.86,-15.79 398,-46.64 585.34,-97.45 133.78,-36.28 377.92,-126.85 474.01,-200.59 190.5,-146.2 135.41,-729.62 -13.47,-931.06 -74.05,-100.22 -191.74,-189.86 -329.84,-257.11 -83.61,-40.72 -381.29,-150.59 -410.88,-175.94 -21.31,-18.26 -35.37,-63.98 -49.23,-95.35 -27.57,-62.36 -43.18,-71.55 -46.54,-101.72 -8.31,-74.55 53.66,-149.35 71.92,-231.19 61.89,-19.14 75.6,-20.5 99.37,-75.65l32.49 -105.79c4.1,-40.73 9.13,-13.56 -9.31,-29.82 2.46,-1.04 11.67,-3.39 13.19,-4.35 34.72,-21.79 42.57,-106.29 31.79,-140.6l-9.06 -0.7c-8.66,2.57 -6.21,1.04 -12.56,5.49 -8.24,5.78 -8.21,9.52 -20.57,19.26 -104.63,82.52 -260.52,-59.82 -161.58,-168.94 34.72,-38.28 70.41,-40.38 140.51,-34.79 2.79,-111.83 1.57,-213.9 -33.41,-312.22 -34.49,-96.98 -84.72,-137.75 -146.41,-191.67 -117.14,-102.37 -212.42,-243.16 -466.97,-217.28 -187.26,19.04 -364.96,134.62 -433.71,249.9 -94.49,158.44 -90.84,379.39 -83.7,586.9 -37.92,24.36 -70.2,18.35 -73.54,87.97 -2.47,51.46 58.61,227.97 76.03,266.19 30.72,67.34 74.86,50.37 95.64,75.72 9.54,11.64 76.75,163.9 68.89,237.4 -2.34,21.87 -26.79,59 -47.71,107.91 -22.99,53.75 -19.46,66.77 -67.48,93.49 -75.29,41.88 -303.94,126.72 -433.08,193.03 15.24,17.76 126.17,81.06 154.34,100.97 361.68,255.53 713.36,877.79 383.77,-222.85z"/>
     <path class="fil0" d="M6527.3 3775.23c17.04,45.31 76.1,63.72 97.77,112.54 -84.67,126.46 -109.45,104.61 -179.85,104.42 -55.97,-0.14 -93.84,10.35 -126.06,-18.74 -18.14,-16.37 -58.69,-54.98 -71.63,-77.64 23.52,-28.28 73.31,-80.62 86.09,-104.5 -26.49,-32.79 -171.18,-116.08 -238.22,-180.85 -21.74,-21 -52.29,-55.52 -76.24,-70.32 -3.21,4.03 -5.21,6.14 -10.54,15.14 -58.35,98.47 -26.06,116.05 20.38,274.33 30.42,103.69 59.89,202.77 90.38,302.65 31.7,103.87 61.68,203.27 91.19,303.28l85.81 284.77c9.68,21.2 4.2,11.14 14.07,22.97l29.63 -709.99 181.94 0.12 39.55 713.56c0,0 140.85,-439.36 280.37,-1025.2 22.53,-86.7 37.63,-94.16 -4.92,-170.03 -7.49,-13.36 -5.66,-10.67 -14.01,-20.93l-19.32 15.96c-5.37,5.11 -10.12,10.69 -15.7,16.67l-105.58 95.47c-47.3,39.1 -109.55,74.5 -155.11,116.32z"/>
    </g>
    <g id="_941280496">
     <path class="fil1" d="M1994.82 3167.6c-13.36,30.78 -19.4,61.14 -33.99,92.3 -22.54,48.15 -26.29,42.05 -31.28,104.37 -6.24,77.86 -5.9,44.63 22.2,98.1 75.93,144.48 4.04,115.94 203.68,198.93 60.53,25.16 127.59,48.21 187.51,77.16 137.76,66.55 229.44,111.3 326.25,204.32 -424.59,124.54 -576.2,698.74 -475.69,1246.66 -357.98,81.69 -740.07,88.78 -1112.92,37.6 -11.34,-362.46 -3.45,-656.63 -69.17,-893.11 -56.89,-204.74 -177.65,-341.18 -501.86,-501.48 63.22,-59.78 354.68,-172.05 460.87,-221.1 60.85,-28.1 47.41,-23.37 75.45,-85.08l55.82 -113.46c0.75,-1.96 1.63,-3.94 2.24,-6.05 11.31,-39.47 -4.13,-86.36 -21.78,-119.54 -38.36,-72.14 -34.58,-115.61 -58.37,-126.07l-45.91 -18.73c-50.06,-30.87 -55.44,-107.93 -80.17,-168.86 -45.03,-110.98 -66.88,-194.28 39.12,-231.99 15.46,-129.68 -62.89,-377.8 106.99,-559.76l177.72 -167.72c250.18,-209.94 607.04,-77.55 739.38,72.57 263.55,298.99 184.5,913.86 33.91,1080.94z"/>
     <path class="fil1" d="M1945.77 3693.96c40.1,-133.89 19.86,-74.21 -13.33,-187.55l-159.97 134.93c-564.78,453.83 -103.78,289.13 -434.73,43.11 -85.15,-63.28 -209.96,-181.11 -219.02,-187.3 -31.89,49.72 -46.81,84.79 -29.48,145.59 440.69,1640.24 845.11,-183.03 842.87,1338.02 -0.17,119.35 185.03,116.3 206.51,220.59 -90.93,45.9 -690.31,73.17 -814.61,63.45 -201.86,-15.79 -398,-46.64 -585.33,-97.45 -133.79,-36.28 -377.93,-126.85 -474.02,-200.59 -190.5,-146.2 -135.41,-729.62 13.47,-931.06 74.06,-100.22 191.74,-189.86 329.84,-257.11 83.61,-40.72 381.29,-150.59 410.88,-175.94 21.31,-18.26 35.37,-63.98 49.24,-95.35 27.56,-62.36 43.17,-71.55 46.54,-101.72 8.3,-74.55 -53.67,-149.35 -71.93,-231.19 -61.89,-19.14 -75.59,-20.5 -99.37,-75.65l-32.49 -105.79c-4.1,-40.73 -9.13,-13.56 9.32,-29.82 -2.47,-1.04 -11.68,-3.39 -13.2,-4.35 -34.72,-21.79 -42.57,-106.29 -31.79,-140.6l9.06 -0.7c8.66,2.57 6.21,1.04 12.56,5.49 8.24,5.78 8.21,9.52 20.58,19.26 104.62,82.52 260.52,-59.82 161.57,-168.94 -34.71,-38.28 -70.41,-40.38 -140.51,-34.79 -2.79,-111.83 -1.56,-213.9 33.41,-312.22 34.5,-96.98 84.72,-137.75 146.41,-191.67 117.14,-102.37 212.43,-243.16 466.97,-217.28 187.27,19.04 364.96,134.62 433.71,249.9 94.49,158.44 90.84,379.39 83.7,586.9 37.92,24.36 70.2,18.35 73.54,87.97 2.47,51.46 -58.61,227.97 -76.03,266.19 -30.71,67.34 -74.86,50.37 -95.63,75.72 -9.55,11.64 -76.76,163.9 -68.89,237.4 2.33,21.87 26.78,59 47.7,107.91 22.99,53.75 19.46,66.77 67.48,93.49 75.29,41.88 303.95,126.72 433.09,193.03 -15.25,17.76 -126.18,81.06 -154.35,100.97 -361.68,255.53 -713.36,877.79 -383.77,-222.85z"/>
     <path class="fil0" d="M1409.62 3775.23c-17.04,45.31 -76.1,63.72 -97.77,112.54 84.67,126.46 109.45,104.61 179.86,104.42 55.96,-0.14 93.83,10.35 126.05,-18.74 18.14,-16.37 58.69,-54.98 71.63,-77.64 -23.51,-28.28 -73.31,-80.62 -86.09,-104.5 26.49,-32.79 171.18,-116.08 238.22,-180.85 21.74,-21 52.29,-55.52 76.24,-70.32 3.22,4.03 5.21,6.14 10.55,15.14 58.35,98.47 26.06,116.05 -20.39,274.33 -30.42,103.69 -59.89,202.77 -90.37,302.65 -31.71,103.87 -61.69,203.27 -91.2,303.28l-85.8 284.77c-9.69,21.2 -4.21,11.14 -14.07,22.97l-29.64 -709.99 -181.94 0.12 -39.55 713.56c0,0 -140.85,-439.36 -280.37,-1025.2 -22.53,-86.7 -37.63,-94.16 4.92,-170.03 7.49,-13.36 5.66,-10.67 14.01,-20.93l19.32 15.96c5.37,5.11 10.13,10.69 15.7,16.67l105.58 95.47c47.3,39.1 109.56,74.5 155.11,116.32z"/>
    </g>
   </g>
  </g>
 </g>
</svg>
