<?xml version="1.0"?>
<svg xmlns="http://www.w3.org/2000/svg" id="line" enable-background="new 0 0 64 64" height="512px" viewBox="0 0 64 64" width="512px"><g><path d="m53 59.007v-54.014c-.004-1.651-1.342-2.989-2.993-2.993h-36.014c-1.651.004-2.989 1.342-2.993 2.993v54.014c.004 1.651 1.342 2.989 2.993 2.993h36.014c1.651-.004 2.989-1.342 2.993-2.993zm-40 0v-54.014c.001-.548.445-.992.993-.993h36.014c.548.001.992.445.993.993v54.014c-.001.548-.445.992-.993.993h-36.014c-.548-.001-.992-.445-.993-.993z" data-original="#000000" class="active-path" data-old_color="#000000" fill="#FFFFFF"/><path d="m32 30c3.314 0 6-2.686 6-6s-2.686-6-6-6-6 2.686-6 6c.003 3.312 2.688 5.997 6 6zm0-10c2.209 0 4 1.791 4 4s-1.791 4-4 4-4-1.791-4-4 1.791-4 4-4z" data-original="#000000" class="active-path" data-old_color="#000000" fill="#FFFFFF"/><path d="m47 6h2v2h-2z" data-original="#000000" class="active-path" data-old_color="#000000" fill="#FFFFFF"/><path d="m15 6h2v2h-2z" data-original="#000000" class="active-path" data-old_color="#000000" fill="#FFFFFF"/><path d="m15 56h2v2h-2z" data-original="#000000" class="active-path" data-old_color="#000000" fill="#FFFFFF"/><path d="m47 56h2v2h-2z" data-original="#000000" class="active-path" data-old_color="#000000" fill="#FFFFFF"/><path d="m31 23h2v2h-2z" data-original="#000000" class="active-path" data-old_color="#000000" fill="#FFFFFF"/><path d="m48.71 40.29-4.5-4.49c6.53-6.73 6.36-17.48-.37-24.01-3.17-3.08-7.42-4.8-11.84-4.79-9.38 0-17 7.6-17 16.98 0 4.32 1.64 8.48 4.59 11.63-4.64 2.99-5.99 9.17-3 13.82 2.98 4.65 9.17 5.99 13.82 3.01 2.86-1.84 4.59-5.02 4.59-8.42 0-1.09-.18-2.18-.54-3.22 1.33-.19 2.64-.54 3.88-1.04l3.66 3.65v10.59h2v-11c0-.26-.11-.52-.29-.71l-3.45-3.44c.88-.49 1.71-1.06 2.48-1.69l4.26 4.25v12.59h2v-13c0-.26-.11-.52-.29-.71zm-23.69 11.75c-4.42.01-8.01-3.56-8.02-7.98-.01-2.91 1.57-5.59 4.11-7.01.87.73 1.82 1.37 2.82 1.91 0 0-1.64 1.64-1.66 1.67-.8.78-1.3 1.87-1.3 3.07 0 2.38 1.94 4.31 4.31 4.31 1.96 0 3.81-1.24 4.41-3l1.83-4.02c.16 0 .32.01.48.01.13 0 .26-.02.39-.02.4.96.61 2 .61 3.04.01 4.42-3.56 8.01-7.98 8.02zm-1.05-10.29 2.26-2.25 4.3-4.3c.26-.26.68-.26.94 0 .2.2.26.5.14.75l-2.49 5.49-1.3 2.85s-.1.23-.13.29c-.44.84-1.45 1.43-2.41 1.43-1.27 0-2.31-1.04-2.31-2.31 0-.65.27-1.24.71-1.66.04-.04.29-.29.29-.29zm8.46-2.77 1-2.2c.46-1.02.24-2.21-.54-2.99-1.06-1.01-2.72-1.01-3.78 0l-3.69 3.69c-7.44-3.64-10.53-12.62-6.89-20.07 2.51-5.14 7.74-8.41 13.47-8.41 8.28 0 14.99 6.71 15 14.99 0 8.11-6.46 14.76-14.57 14.99z" data-original="#000000" class="active-path" data-old_color="#000000" fill="#FFFFFF"/></g> </svg>
