<svg height="512pt" viewBox="0 0 512 512" width="512pt" xmlns="http://www.w3.org/2000/svg"><path d="m486.242188 395.359375c0-7.035156-.8125-13.875-2.347657-20.441406l18.101563-10.449219-25.890625-44.847656-18.121094 10.464844c-9.933594-9.328126-22-16.414063-35.386719-20.453126v-20.902343h-51.78125v20.902343c-13.386718 4.039063-25.449218 11.125-35.386718 20.453126l-18.121094-10.464844-25.890625 44.847656 18.101562 10.449219c-1.535156 6.566406-2.347656 13.40625-2.347656 20.441406 0 7.03125.8125 13.875 2.347656 20.441406l-18.101562 10.449219 25.890625 44.847656 18.121094-10.464844c9.933593 9.328126 22 16.414063 35.386718 20.453126v20.902343h51.78125v-20.902343c13.386719-4.039063 25.449219-11.125 35.386719-20.453126l18.121094 10.464844 25.890625-44.847656-18.101563-10.449219c1.535157-6.566406 2.347657-13.410156 2.347657-20.441406zm0 0" fill="#ffd89e"/><path d="m332.070312 152.964844c-3.871093-18.027344-10.964843-34.851563-20.652343-49.847656l19.476562-19.476563-44.960937-44.921875-19.457032 19.457031c-14.996093-9.6875-31.824218-16.78125-49.847656-20.652343v-27.523438h-63.554687v27.523438c-18.023438 3.871093-34.851563 10.960937-49.847657 20.652343l-19.457031-19.460937-44.960937 44.925781 19.476562 19.476563c-9.691406 14.992187-16.78125 31.820312-20.65625 49.84375h-27.59375l-.035156 63.558593h27.628906c3.871094 18.027344 10.964844 34.851563 20.652344 49.847657l-19.546875 19.550781 44.921875 44.957031 19.570312-19.566406c14.992188 9.691406 31.820313 16.785156 49.84375 20.65625v27.699218h63.558594v-27.699218c18.023438-3.871094 34.851563-10.964844 49.847656-20.65625l19.566407 19.566406 44.925781-44.957031-19.550781-19.550781c9.691406-14.996094 16.78125-31.820313 20.65625-49.847657h27.628906v-63.554687zm-147.21875 105.695312c-40.773437 0-73.828124-33.054687-73.828124-73.828125 0-40.773437 33.054687-73.824219 73.828124-73.824219 40.773438 0 73.824219 33.050782 73.824219 73.824219 0 40.773438-33.050781 73.828125-73.824219 73.828125zm0 0" fill="#9bc6ff"/><path d="m436.449219 395.359375c0 21.949219-17.792969 39.742187-39.742188 39.742187s-39.742187-17.792968-39.742187-39.742187 17.792968-39.746094 39.742187-39.746094 39.742188 17.796875 39.742188 39.746094zm0 0" fill="#fff"/><path d="m233.535156 116.589844c-4.492187-3.210938-10.738281-2.171875-13.949218 2.320312-3.210938 4.496094-2.171876 10.738282 2.324218 13.949219 16.761719 11.976563 26.765625 31.40625 26.765625 51.976563 0 35.191406-28.628906 63.824218-63.824219 63.824218-35.195312 0-63.828124-28.632812-63.828124-63.824218 0-20.570313 10.007812-40 26.773437-51.976563 4.492187-3.210937 5.53125-9.457031 2.320313-13.949219-3.207032-4.496094-9.453126-5.535156-13.949219-2.324218-22.003907 15.722656-35.144531 41.234374-35.144531 68.25 0 46.21875 37.605468 83.824218 83.828124 83.824218 46.222657 0 83.824219-37.605468 83.824219-83.824218 0-27.015626-13.136719-52.527344-35.140625-68.246094zm0 0"/><path d="m396.707031 345.613281c-27.429687 0-49.742187 22.316407-49.742187 49.746094 0 27.425781 22.3125 49.742187 49.742187 49.742187 27.429688 0 49.742188-22.316406 49.742188-49.742187 0-27.429687-22.3125-49.746094-49.742188-49.746094zm0 79.488281c-16.402343 0-29.742187-13.34375-29.742187-29.742187 0-16.402344 13.339844-29.746094 29.742187-29.746094 16.398438 0 29.742188 13.34375 29.742188 29.746094 0 16.398437-13.34375 29.742187-29.742188 29.742187zm0 0"/><path d="m510.65625 359.464844-25.890625-44.84375c-2.761719-4.78125-8.878906-6.421875-13.660156-3.660156l-11.949219 6.898437c-8.007812-6.445313-17.007812-11.648437-26.558594-15.351563v-13.777343c0-5.523438-4.476562-10-10-10h-51.78125c-5.523437 0-10 4.476562-10 10v13.777343c-9.550781 3.703126-18.554687 8.90625-26.558594 15.351563l-11.949218-6.898437c-.496094-.285157-1.003906-.511719-1.523438-.707032l17.253906-17.269531c3.90625-3.90625 3.902344-10.234375 0-14.140625l-13.984374-13.984375c6.960937-12.0625 12.28125-24.902344 15.886718-38.339844h19.757813c5.523437 0 10-4.476562 10-10v-63.558593c0-5.523438-4.476563-10-10-10h-19.757813c-3.605468-13.4375-8.925781-26.277344-15.890625-38.339844l13.914063-13.910156c1.875-1.875 2.925781-4.421876 2.925781-7.074219 0-2.652344-1.054687-5.195313-2.929687-7.070313l-44.957032-44.925781c-3.90625-3.902344-10.238281-3.902344-14.140625.003906l-13.894531 13.894531c-12.0625-6.960937-24.902344-12.28125-38.339844-15.886718v-19.652344c0-5.523438-4.476562-10-10-10h-63.558594c-5.519531 0-10 4.476562-10 10v19.652344c-13.433593 3.605468-26.273437 8.925781-38.335937 15.886718l-13.894531-13.894531c-3.90625-3.902343-10.238282-3.90625-14.140625 0l-44.960938 44.921875c-1.875 1.875-2.929687 4.417969-2.929687 7.074219 0 2.652344 1.050781 5.195313 2.929687 7.070313l13.910157 13.910156c-6.960938 12.066406-12.285157 24.90625-15.886719 38.34375h-19.726563c-5.519531 0-9.9960935 4.472656-9.9999998 9.992187l-.0351562 63.558594c0 2.652344 1.050781 5.199219 2.925781 7.074219 1.878907 1.875 4.421875 2.929687 7.074219 2.929687h19.757812c3.605469 13.4375 8.925782 26.28125 15.890626 38.34375l-13.984376 13.984375c-3.90625 3.902344-3.90625 10.230469-.003906 14.136719l44.925782 44.960937c1.875 1.875 4.417968 2.929688 7.070312 2.929688h.003906c2.652344 0 5.195313-1.054688 7.070313-2.929688l14-14c12.066406 6.960938 24.90625 12.285157 38.34375 15.890626v19.832031c0 5.523437 4.476562 10 10 10h63.554687c5.523438 0 10-4.476563 10-10v-19.832031c13.4375-3.605469 26.277344-8.929688 38.34375-15.890626l14 14c1.875 1.875 4.417969 2.929688 7.074219 2.929688 2.652344 0 5.195313-1.054688 7.070313-2.929688l4.894531-4.898437-15.253907 26.417969c-2.761718 4.785156-1.125 10.898437 3.660157 13.660156l11.933593 6.890625c-.785156 5.0625-1.179687 10.199219-1.179687 15.34375 0 5.140625.394531 10.277344 1.179687 15.339844l-11.933593 6.890625c-2.296875 1.324218-3.972657 3.511718-4.660157 6.070312-.6875 2.5625-.328124 5.292969 1 7.589844l25.890626 44.84375c1.328124 2.296875 3.511718 3.972656 6.074218 4.660156 2.558594.6875 5.289063.328125 7.585938-1l11.949218-6.898437c8.003907 6.445312 17.007813 11.648437 26.558594 15.355469v13.777343c0 5.523438 4.476563 10 10 10h51.78125c5.523438 0 10-4.476562 10-10v-13.777343c9.550782-3.707032 18.554688-8.910157 26.558594-15.355469l11.949219 6.898437c4.785156 2.765625 10.898437 1.125 13.660156-3.660156l25.890625-44.84375c1.328125-2.296875 1.6875-5.027344 1-7.589844-.6875-2.558594-2.363281-4.746094-4.660156-6.070312l-11.933594-6.890625c.785156-5.0625 1.179688-10.199219 1.179688-15.339844 0-5.144531-.394532-10.28125-1.179688-15.34375l11.933594-6.890625c4.78125-2.761719 6.421875-8.875 3.660156-13.660156zm-224.617188-42.734375-12.492187-12.492188c-3.332031-3.332031-8.539063-3.886719-12.496094-1.328125-14.28125 9.226563-29.933593 15.710938-46.523437 19.277344-4.605469.988281-7.898438 5.0625-7.898438 9.777344v17.699218h-43.554687v-17.699218c0-4.714844-3.292969-8.789063-7.898438-9.777344-16.59375-3.566406-32.242187-10.050781-46.523437-19.277344-3.957032-2.558594-9.164063-2.003906-12.496094 1.328125l-12.496094 12.492188-30.789062-30.8125 12.484375-12.480469c3.332031-3.332031 3.886719-8.539062 1.328125-12.5-9.226563-14.277344-15.710938-29.929688-19.277344-46.519531-.988281-4.605469-5.0625-7.898438-9.777344-7.898438h-17.625l.023438-43.558593h17.601562c4.714844 0 8.789063-3.289063 9.777344-7.898438 3.566406-16.589844 10.050781-32.242188 19.277344-46.515625 2.558594-3.960937 2.003906-9.167969-1.328125-12.5l-12.402344-12.402344 30.8125-30.789062 12.390625 12.390625c3.332031 3.335937 8.539062 3.890625 12.5 1.328125 14.277344-9.226563 29.925781-15.710938 46.515625-19.273438 4.609375-.992187 7.898437-5.0625 7.898437-9.777343v-17.523438h43.558594v17.523438c0 4.710937 3.292969 8.785156 7.898438 9.777343 16.589844 3.5625 32.242187 10.046875 46.519531 19.273438 3.957031 2.558593 9.164063 2.003906 12.5-1.328125l12.390625-12.390625 30.8125 30.789062-12.402344 12.402344c-3.335937 3.332031-3.886718 8.539063-1.328125 12.5 9.226563 14.273437 15.710938 29.925781 19.277344 46.515625.988281 4.609375 5.0625 7.898438 9.777344 7.898438h17.628906v43.558593h-17.628906c-4.714844 0-8.789063 3.292969-9.777344 7.898438-3.5625 16.589843-10.050781 32.242187-19.277344 46.519531-2.554687 3.957031-2.003906 9.167969 1.328125 12.5l12.484375 12.480469zm188.117188 60.460937c1.382812 5.921875 2.085938 12.035156 2.085938 18.167969 0 6.128906-.703126 12.242187-2.085938 18.164063-1 4.292968.921875 8.734374 4.738281 10.9375l9.441407 5.449218-15.890626 27.523438-9.464843-5.460938c-3.816407-2.207031-8.628907-1.648437-11.84375 1.371094-8.917969 8.375-19.785157 14.65625-31.425781 18.167969-4.222657 1.273437-7.113282 5.164062-7.113282 9.574219v10.902343h-31.785156v-10.902343c0-4.410157-2.886719-8.300782-7.109375-9.574219-11.644531-3.511719-22.511719-9.792969-31.429687-18.167969-3.214844-3.019531-8.027344-3.574219-11.84375-1.371094l-9.460938 5.460938-15.894531-27.523438 9.441406-5.449218c3.816406-2.203126 5.742187-6.644532 4.738281-10.9375-1.382812-5.921876-2.085937-12.035157-2.085937-18.164063 0-6.132813.703125-12.246094 2.085937-18.167969 1-4.292968-.921875-8.730468-4.738281-10.933594l-9.441406-5.453124 15.890625-27.523438 9.464844 5.464844c3.816406 2.203125 8.628906 1.648437 11.84375-1.371094 8.917968-8.375 19.785156-14.65625 31.425781-18.167969 4.222656-1.273437 7.113281-5.164062 7.113281-9.574219v-10.902343h31.78125v10.902343c0 4.410157 2.890625 8.300782 7.113281 9.574219 11.640625 3.511719 22.507813 9.792969 31.425781 18.167969 3.214844 3.015625 8.027344 3.574219 11.847657 1.371094l9.460937-5.464844 15.890625 27.523438-9.441406 5.453124c-3.8125 2.203126-5.734375 6.644532-4.734375 10.933594zm0 0"/><path d="m418 84c5.523438 0 10-4.476562 10-10v-64c0-5.523438-4.476562-10-10-10s-10 4.476562-10 10v64c0 5.523438 4.476562 10 10 10zm0 0"/><path d="m378 84c5.523438 0 10-4.476562 10-10v-64c0-5.523438-4.476562-10-10-10s-10 4.476562-10 10v64c0 5.523438 4.476562 10 10 10zm0 0"/><path d="m480 0c-17.644531 0-32 14.355469-32 32v20c0 17.644531 14.355469 32 32 32s32-14.355469 32-32v-20c0-17.644531-14.355469-32-32-32zm12 52c0 6.617188-5.382812 12-12 12s-12-5.382812-12-12v-20c0-6.617188 5.382812-12 12-12s12 5.382812 12 12zm0 0"/><path d="m502 104c-5.523438 0-10 4.476562-10 10v64c0 5.523438 4.476562 10 10 10s10-4.476562 10-10v-64c0-5.523438-4.476562-10-10-10zm0 0"/><path d="m440 188c17.644531 0 32-14.355469 32-32v-20c0-17.644531-14.355469-32-32-32s-32 14.355469-32 32v20c0 17.644531 14.355469 32 32 32zm-12-52c0-6.617188 5.382812-12 12-12s12 5.382812 12 12v20c0 6.617188-5.382812 12-12 12s-12-5.382812-12-12zm0 0"/><path d="m43 428c-5.523438 0-10 4.476562-10 10v64c0 5.523438 4.476562 10 10 10s10-4.476562 10-10v-64c0-5.523438-4.476562-10-10-10zm0 0"/><path d="m105 428c-17.644531 0-32 14.355469-32 32v20c0 17.644531 14.355469 32 32 32s32-14.355469 32-32v-20c0-17.644531-14.355469-32-32-32zm12 52c0 6.617188-5.382812 12-12 12s-12-5.382812-12-12v-20c0-6.617188 5.382812-12 12-12s12 5.382812 12 12zm0 0"/><path d="m167 428c-5.523438 0-10 4.476562-10 10v64c0 5.523438 4.476562 10 10 10s10-4.476562 10-10v-64c0-5.523438-4.476562-10-10-10zm0 0"/><path d="m229 428c-17.644531 0-32 14.355469-32 32v20c0 17.644531 14.355469 32 32 32s32-14.355469 32-32v-20c0-17.644531-14.355469-32-32-32zm12 52c0 6.617188-5.382812 12-12 12s-12-5.382812-12-12v-20c0-6.617188 5.382812-12 12-12s12 5.382812 12 12zm0 0"/><path d="m184.851562 121.011719c-2.632812 0-5.210937-1.070313-7.070312-2.933594-1.859375-1.859375-2.929688-4.4375-2.929688-7.066406 0-2.632813 1.070313-5.210938 2.929688-7.070313 1.859375-1.863281 4.4375-2.929687 7.070312-2.929687 2.628907 0 5.207032 1.066406 7.070313 2.929687 1.859375 1.859375 2.929687 4.4375 2.929687 7.070313 0 2.628906-1.070312 5.207031-2.929687 7.066406-1.863281 1.863281-4.441406 2.933594-7.070313 2.933594zm0 0"/></svg>