<?xml version="1.0" encoding="UTF-8"?>
<!DOCTYPE svg PUBLIC "-//W3C//DTD SVG 1.1//EN" "http://www.w3.org/Graphics/SVG/1.1/DTD/svg11.dtd">
<!-- Creator: CorelDRAW 2019 (64 Bit) -->
<svg xmlns="http://www.w3.org/2000/svg" xml:space="preserve" width="297mm" height="210mm" version="1.1" style="shape-rendering:geometricPrecision; text-rendering:geometricPrecision; image-rendering:optimizeQuality; fill-rule:evenodd; clip-rule:evenodd"
viewBox="0 0 29700 21000"
 xmlns:xlink="http://www.w3.org/1999/xlink"
 xmlns:xodm="http://www.corel.com/coreldraw/odm/2003">
 <defs>
  <style type="text/css">
   <![CDATA[
    .str0 {stroke:#201E1E;stroke-width:500;stroke-miterlimit:22.9256}
    .str1 {stroke:#373435;stroke-width:20;stroke-miterlimit:22.9256}
    .str2 {stroke:#201E1E;stroke-width:20;stroke-miterlimit:22.9256}
    .fil1 {fill:#FEFEFE}
    .fil3 {fill:#ED3237}
    .fil2 {fill:#201E1E}
    .fil0 {fill:black}
   ]]>
  </style>
 </defs>
 <g id="Camada_x0020_1">
  <metadata id="CorelCorpID_0Corel-Layer"/>
  <g id="_947972080">
   <path class="fil0" d="M8398.07 10587.14c0,772.27 7.82,962.3 180.77,1727.95 60.58,268.22 253.25,807 383.68,1065.77 188.18,373.32 419.42,796.55 687.42,1120.84 203.12,245.78 259.13,330.34 509.74,580.95 474.59,474.59 1054.39,894.73 1701.88,1197.05 192.46,89.85 560.07,238.86 776.16,300.17 105.81,30.03 181.88,58.46 291.65,81.48 234.32,49.13 319.1,80.62 596.22,121.34 595.61,87.52 1191.98,85.7 1787.36,1.78 1283.01,-180.85 2490.77,-814.1 3385.67,-1709l258.5 -272.49c228.61,-247.03 508.1,-661.67 684.18,-951.85 93.43,-153.98 172.89,-318.5 252.26,-479.65 317.54,-644.71 559.48,-1630.31 559.48,-2353.8 0,-744.48 -7.25,-935.84 -173.44,-1663.51 -237.04,-1037.93 -862.95,-2078.08 -1588.16,-2803.29 -63.55,-63.55 -111.33,-118.5 -184.1,-174.68l-196.24 -176.89c-30.1,-28.03 -62.81,-51.66 -94.95,-77.26l-319.79 -239.91c-142.75,-105.56 -290.49,-192.48 -445.31,-286.6l-231.77 -127c-88.82,-44.05 -160.18,-79.85 -248.68,-124.46 -82.54,-41.6 -167.89,-73.6 -249.23,-109.54 -576.94,-254.93 -1479.09,-445.26 -2123.6,-445.26 -936.6,0 -1343.92,60.57 -2186.84,338.96 -92.42,30.52 -173.13,60.54 -261.15,97.62 -565.82,238.41 -1127.27,562.06 -1594.75,959.76 -106.45,90.57 -480.6,432.63 -557.92,532.77 -34.05,44.09 -43.38,52.97 -81.58,90.63 -145.49,143.45 -426.55,535.52 -553.1,724.16 -52.13,77.72 -92.51,149.01 -141.82,231.31 -96.01,160.22 -167.33,307.81 -253.38,478.53 -147.36,292.34 -304.95,749.75 -385.66,1063.81 -90.06,350.51 -183.5,910.97 -183.5,1280.31z"/>
   <path class="fil1" d="M10378.53 10644.55c0,497.97 -4.67,679.33 121.16,1184.79 94.43,379.28 163.5,478.54 296.85,793.84 63.6,150.4 319.6,544.17 426.73,678.31l342.82 389.1 382.77 334.78c212.28,166.16 512.09,349.68 758.6,461.25 237.29,107.4 441.05,186.31 719.41,256.46 73.97,18.64 122.58,33.26 196.11,47.87 72.99,14.5 128.78,22.43 209.87,34.1 520.04,74.8 1080.73,49.88 1579.89,-79.12 134.07,-34.65 246.85,-67.46 374.46,-113.48 482.45,-173.96 856.21,-388.61 1240.36,-711.39 262.03,-220.18 500.78,-470.77 698.73,-750.75 67.47,-95.43 128.05,-191.35 191.14,-296.79l167.47 -320.47c108.89,-221.1 192.99,-446.61 263.56,-712.31 173.36,-652.72 165.76,-1382.62 2.96,-2036.55 -30.45,-122.33 -69.29,-252.27 -110.5,-363.09 -133.24,-358.3 -284.79,-634.66 -497.23,-952.23 -387.13,-578.69 -1100.11,-1151.38 -1737.28,-1405.63 -54.81,-21.87 -116.74,-46.69 -174.28,-69.69 -117.14,-46.8 -242.76,-78.19 -371.52,-116.42 -121.76,-36.16 -265.99,-60.85 -403.51,-84.43 -621.92,-106.64 -1430.03,-32.83 -2017.6,192.66 -576.47,221.23 -1052.21,516.43 -1480.59,944.76l-224.97 248.61c-37.55,48.05 -73.42,86.67 -110.67,133.3 -36.45,45.64 -69.6,89.36 -104.34,139.63 -135.87,196.6 -172.23,278.97 -278.39,453.52 -125.68,206.66 -276.14,634.84 -337.83,867.67 -61.96,233.88 -124.18,567.82 -124.18,851.7z"/>
   <path class="fil0" d="M20926.63 8133.1c0,258.38 7.52,431.93 124.21,665.1 90.73,181.28 275.02,376.24 424.56,536.97 54.92,59.04 107.13,109.37 151.95,178.13 87.32,133.94 146,282.23 146,499.8l0 2597.56c0,452.9 -108.67,995.41 -194.94,1426.74 -98.39,491.94 -206.89,968.15 -206.89,1486.54 0,204.17 62.02,360.02 155.57,475.88 94.99,117.62 292.47,212.98 432.83,212.98 43.28,0 182.06,-36.91 219.87,-52.8 531.85,-223.49 376,-977.28 294.75,-1466.41 -77.82,-468.49 -313.71,-1463.54 -313.71,-1910.72l0 -2855.88c0,-486.31 478,-650.37 732.15,-1162.2 213.8,-430.58 77.78,-1189.04 -37.34,-1642.23 -16.02,-63.09 -31.56,-113.58 -47.26,-168 -98.72,-342.25 -211.55,-591.93 -417.8,-859.45 -103.72,-134.54 -252.48,-229.49 -445.02,-229.49 -676.6,0 -1018.93,1636.36 -1018.93,2267.48z"/>
   <path class="fil0" d="M6604.18 5851.26l-20.41 611.05c-16.69,110.28 -29.2,1140.01 -45.29,1246.31l-19.44 454.15c-2.16,142 -86.18,95.38 -130.13,85.14 0,-817.29 28.7,-1589.59 28.7,-2411l-129.16 14.35c-17.31,74.3 -18.15,210.3 -26.51,289.22 -11.25,106.27 -6.74,203.79 -20.44,309.64 -24.07,186.06 -45.14,377.82 -75.91,569.89 -43.95,274.38 -112.54,547.02 -158.03,817.84 -81.47,485 -11.99,886.01 284.98,1281.39 226.46,301.5 354.69,425.71 354.69,951.26l0 2454.05c0,996.45 -387.48,1902.22 -387.48,2999.39 0,814.4 1176.79,894.15 1176.79,-71.75 0,-441.89 -100.36,-954.92 -185.36,-1378.91 -65.34,-325.92 -202.12,-1025.02 -202.12,-1362.16l0 -2841.53c0,-474.24 404.19,-702.29 570.22,-1137.58 156.24,-409.64 84.68,-806.51 -1.88,-1210.3 -40.84,-190.48 -69.71,-359.86 -102.96,-557.19 -27.3,-162.01 -92.59,-716.51 -91.85,-898.39 0.81,-199.75 -19.44,-229.22 -115.21,-229.22 -69.91,0 -42.58,134.07 -43.09,272.72 -0.46,125.1 14.9,190.54 14.44,315.64 -0.77,205.17 -10.99,444.61 -0.12,645.91 3.45,63.83 14.08,68.85 14.99,142.87l-0.57 488.51c-0.01,50.34 -2.73,108.59 -0.07,157.94 15.24,282.14 76.22,431.89 -114.74,387.41 -23.49,-100.85 -10.34,-197.81 -13.88,-316.2 -2.16,-72.26 -14.44,-79.45 -15.39,-156.82l-28.15 -832.92c0.28,-122.02 -5.21,-215.42 -13.58,-316.5l-15.6 -673.25c-1.52,-22.58 -6.44,-58.92 -10.64,-75.5 -14.51,-57.21 16.94,-24.61 -33.21,-54.21 -42.81,-25.27 -90.28,-3.63 -127.87,14.4l0 2167.03c0.02,197.21 35.91,258.32 -100.46,258.32 -69.26,0 -43.05,-126.34 -43.05,-258.32l0 -1564.28c0.02,-212.13 -14.35,-393.42 -14.35,-617.1 -87.91,-7.31 -48.33,-44.64 -157.86,28.7z"/>
  </g>
  <path class="fil1" d="M9648.35 10613.79c0,587.43 -5.51,801.37 143.01,1397.64 111.45,447.42 192.99,564.52 350.38,936.47 75.08,177.41 377.24,641.93 503.7,800.17l404.64 459 451.8 394.93c250.57,196.01 604.45,412.5 895.41,544.11 280.09,126.69 520.6,219.79 849.17,302.54 87.3,21.99 144.68,39.23 231.47,56.47 86.15,17.11 152,26.46 247.72,40.22 613.83,88.25 1275.63,58.85 1864.82,-93.33 158.25,-40.87 291.37,-79.58 441.99,-133.86 569.46,-205.22 1010.63,-458.43 1464.06,-839.21 309.28,-259.73 591.09,-555.34 824.74,-885.62 79.64,-112.57 151.15,-225.73 225.61,-350.11l197.68 -378.05c128.53,-260.82 227.8,-526.84 311.1,-840.28 204.62,-769.98 195.64,-1631.02 3.49,-2402.44 -35.95,-144.3 -81.79,-297.58 -130.43,-428.32 -157.27,-422.67 -336.15,-748.68 -586.91,-1123.3 -456.94,-682.65 -1298.51,-1358.24 -2050.59,-1658.16 -64.7,-25.8 -137.79,-55.08 -205.71,-82.21 -138.26,-55.21 -286.55,-92.24 -438.53,-137.34 -143.72,-42.65 -313.96,-71.78 -476.28,-99.59 -734.08,-125.8 -1687.94,-38.74 -2381.47,227.27 -680.44,260.98 -1241.98,609.21 -1747.61,1114.49l-265.55 293.28c-44.32,56.68 -86.66,102.23 -130.62,157.25 -43.02,53.83 -82.16,105.4 -123.17,164.71 -160.37,231.92 -203.29,329.09 -328.59,535 -148.35,243.79 -325.94,748.9 -398.75,1023.56 -73.15,275.89 -146.58,669.82 -146.58,1004.71z"/>
  <path class="fil1 str0" d="M10177.29 10636.14c0,522.42 -4.9,712.68 127.18,1242.96 99.12,397.9 171.63,502.03 311.6,832.81 66.77,157.78 335.49,570.88 447.94,711.61l359.86 408.19 401.8 351.22c222.83,174.32 537.55,366.85 796.3,483.9 249.09,112.66 462.98,195.46 755.18,269.05 77.64,19.55 128.67,34.89 205.85,50.22 76.62,15.21 135.18,23.53 220.31,35.77 545.89,78.47 1134.44,52.33 1658.41,-83 140.74,-36.35 259.12,-70.78 393.08,-119.05 506.42,-182.51 898.77,-407.69 1302.01,-746.32 275.05,-230.98 525.67,-493.87 733.45,-787.6 70.83,-100.12 134.43,-200.74 200.65,-311.36l175.79 -336.2c114.31,-231.96 202.59,-468.54 276.67,-747.29 181.98,-684.75 173.99,-1450.49 3.1,-2136.52 -31.97,-128.34 -72.73,-264.66 -115.99,-380.92 -139.86,-375.89 -298.95,-665.82 -521.95,-998.97 -406.37,-607.1 -1154.79,-1207.91 -1823.63,-1474.64 -57.54,-22.94 -122.54,-48.98 -182.94,-73.11 -122.96,-49.1 -254.83,-82.03 -389.99,-122.13 -127.81,-37.93 -279.21,-63.84 -423.57,-88.57 -652.82,-111.88 -1501.11,-34.45 -2117.88,202.11 -605.13,232.1 -1104.51,541.78 -1554.18,991.14l-236.16 260.82c-39.42,50.4 -77.07,90.92 -116.17,139.84 -38.25,47.88 -73.05,93.74 -109.52,146.48 -142.63,206.26 -180.8,292.67 -292.23,475.79 -131.93,216.8 -289.86,666.01 -354.62,910.27 -65.05,245.36 -130.35,595.69 -130.35,893.5z"/>
  <g id="_947973872">
   <circle class="fil2 str1" cx="14475.1" cy="10769.78" r="330.21"/>
   <polygon class="fil2 str2" points="14340.4,7792.26 14455.82,7605.29 14564.06,7792.26 14564.06,10825.69 14340.4,10825.69 "/>
   <polygon class="fil3" points="16254.82,10679.82 16364.79,10779.77 16254.82,10873.51 14470.64,10873.51 14470.64,10679.82 "/>
  </g>
 </g>
</svg>
