<?xml version="1.0" encoding="iso-8859-1"?>
<!-- Generator: Adobe Illustrator 16.0.0, SVG Export Plug-In . SVG Version: 6.00 Build 0)  -->
<!DOCTYPE svg PUBLIC "-//W3C//DTD SVG 1.1//EN" "http://www.w3.org/Graphics/SVG/1.1/DTD/svg11.dtd">
<svg version="1.1" id="Capa_1" xmlns="http://www.w3.org/2000/svg" xmlns:xlink="http://www.w3.org/1999/xlink" x="0px" y="0px"
	 width="947.204px" height="947.204px" viewBox="0 0 947.204 947.204" style="enable-background:new 0 0 947.204 947.204;"
	 xml:space="preserve">
<g>
	<path d="M927.204,115.602h-421c-11,0-20,9-20,20v674c0,11,9,20,20,20h421c11,0,20-9,20-20v-674
		C947.204,124.602,938.204,115.602,927.204,115.602z M584.704,510.502c-20.7,0-37.5-16.801-37.5-37.5c0-20.7,16.8-37.5,37.5-37.5
		s37.5,16.8,37.5,37.5C622.204,493.702,605.404,510.502,584.704,510.502z"/>
	<path d="M6.504,738.902c1.9,9.5,10.3,16,19.6,16c1.3,0,2.7-0.1,4-0.399l126.9-26.101c8.8-1.8,15.3-9.3,15.9-18.2l6-86.399
		l64.8,71.899l-17.1,108c-1.7,10.9,5.7,21.2,16.6,22.9l30.1,4.8c1.1,0.2,2.1,0.2,3.1,0.2c9.7,0,18.2-7,19.7-16.9l20.8-131.8
		c0.899-6-0.9-12-4.9-16.5l-76.8-85.5l47.2-67.3l3.2,41.2c0.399,5.5,3.399,10.399,8,13.399l84.899,54.9c3.4,2.2,7.101,3.2,10.8,3.2
		c6.601,0,13-3.2,16.801-9.101l16.6-25.6c6-9.3,3.3-21.7-5.9-27.7l-63-40.7l-7.1-91.199c-0.5-5.801-3.4-11.2-8.2-14.601l-73.2-53.2
		c-2.8-2-6.1-3.3-9.6-3.7l-142.4-15.6c-0.7-0.1-1.5-0.1-2.2-0.1c-8.9,0-16.8,5.9-19.2,14.6l-27.7,98.7c-3,10.6,3.2,21.7,13.9,24.7
		l29.3,8.2c1.8,0.5,3.6,0.699,5.4,0.699c8.7,0,16.8-5.8,19.2-14.6l16.1-57.5l63.9,7l-96.4,129.1c-2.3,3.101-3.7,6.801-3.9,10.7
		l-6.4,100.601l-89.3,18.399c-10.8,2.3-17.8,12.8-15.6,23.601L6.504,738.902z"/>
	<circle cx="368.604" cy="296.002" r="81.4"/>
</g>
<g>
</g>
<g>
</g>
<g>
</g>
<g>
</g>
<g>
</g>
<g>
</g>
<g>
</g>
<g>
</g>
<g>
</g>
<g>
</g>
<g>
</g>
<g>
</g>
<g>
</g>
<g>
</g>
<g>
</g>
</svg>
