<svg xmlns="http://www.w3.org/2000/svg" xmlns:xlink="http://www.w3.org/1999/xlink" viewBox="0 0 749.26 749.28"><defs><style>.cls-1{isolation:isolate;}.cls-2{fill:url(#linear-gradient);}.cls-3{fill:url(#linear-gradient-2);}.cls-4{fill:url(#linear-gradient-3);}.cls-5{fill:url(#radial-gradient);}.cls-6{fill:url(#linear-gradient-4);}.cls-7{fill:url(#linear-gradient-5);}.cls-8,.cls-9{fill:#ff634a;}.cls-8{opacity:0.12;}.cls-10,.cls-11,.cls-12,.cls-8,.cls-9{mix-blend-mode:screen;}.cls-9{opacity:0.05;}.cls-10,.cls-11,.cls-12{opacity:0.15;}.cls-10{fill:url(#linear-gradient-6);}.cls-11{fill:url(#linear-gradient-7);}.cls-12{fill:url(#linear-gradient-8);}</style><linearGradient id="linear-gradient" x1="373.33" y1="-6.08" x2="375.89" y2="743.18" gradientTransform="translate(374.64 -155.17) rotate(45)" gradientUnits="userSpaceOnUse"><stop offset="0" stop-color="#ff4d4a"/><stop offset="0.28" stop-color="#ef3c4a"/><stop offset="0.37" stop-color="#e9354a"/><stop offset="0.66" stop-color="#ff3d4a"/><stop offset="0.81" stop-color="#ff374a"/><stop offset="1" stop-color="#ff274a"/></linearGradient><linearGradient id="linear-gradient-2" x1="65.5" y1="553.12" x2="683.77" y2="196.17" gradientUnits="userSpaceOnUse"><stop offset="0.01" stop-color="#ff334a"/><stop offset="0.25" stop-color="#ff4d4a"/><stop offset="0.4" stop-color="#fc3c4a"/><stop offset="0.6" stop-color="#f81d4a"/><stop offset="0.79" stop-color="#ff3d4a"/><stop offset="1" stop-color="#fa254a"/></linearGradient><linearGradient id="linear-gradient-3" x1="374.63" y1="671.69" x2="374.63" y2="77.6" gradientTransform="translate(374.64 -155.17) rotate(45)" gradientUnits="userSpaceOnUse"><stop offset="0" stop-color="#f80f2d"/><stop offset="0.34" stop-color="#e50818"/><stop offset="0.72" stop-color="#d50206"/><stop offset="1" stop-color="#cf0000"/></linearGradient><radialGradient id="radial-gradient" cx="374.63" cy="374.64" r="281.53" gradientTransform="translate(374.64 -155.17) rotate(45)" gradientUnits="userSpaceOnUse"><stop offset="0" stop-color="#f83a2d"/><stop offset="0.5" stop-color="#f7382c"/><stop offset="0.68" stop-color="#f23127"/><stop offset="0.81" stop-color="#ea2620"/><stop offset="0.91" stop-color="#de1515"/><stop offset="1" stop-color="#cf0007"/></radialGradient><linearGradient id="linear-gradient-4" x1="239.33" y1="245.23" x2="536.55" y2="529.7" gradientUnits="userSpaceOnUse"><stop offset="0" stop-color="#fff000"/><stop offset="1" stop-color="#ff8700"/></linearGradient><linearGradient id="linear-gradient-5" x1="310.76" y1="170.59" x2="607.99" y2="455.06" xlink:href="#linear-gradient-4"/><linearGradient id="linear-gradient-6" x1="-436.43" y1="-47.18" x2="-190.58" y2="227.4" gradientTransform="translate(137.4 335.71) rotate(180)" gradientUnits="userSpaceOnUse"><stop offset="0" stop-color="#ff634a"/><stop offset="0.2" stop-color="#f85540"/><stop offset="0.57" stop-color="#e73125"/><stop offset="1" stop-color="#cf0000"/></linearGradient><linearGradient id="linear-gradient-7" x1="266.72" y1="236.41" x2="486.78" y2="482.19" gradientTransform="translate(346.52 -154.89) rotate(45)" xlink:href="#linear-gradient-6"/><linearGradient id="linear-gradient-8" x1="265.28" y1="248.75" x2="516.74" y2="529.6" gradientTransform="matrix(1, 0, 0, 1, 0, 0)" xlink:href="#linear-gradient-6"/></defs><title>sair</title><g class="cls-1"><g id="Camada_2" data-name="Camada 2"><g id="Слой_1" data-name="Слой 1"><circle class="cls-2" cx="374.63" cy="374.65" r="374.63" transform="translate(-155.19 374.64) rotate(-45)"/><circle class="cls-3" cx="374.63" cy="374.64" r="356.9"/><circle class="cls-4" cx="374.63" cy="374.64" r="297.05" transform="translate(-155.19 374.64) rotate(-45)"/><circle class="cls-5" cx="374.63" cy="374.64" r="281.53" transform="translate(-155.19 374.64) rotate(-45)"/><path class="cls-6" d="M439.42,206.19v65.57a122.18,122.18,0,1,1-126.44,0V206.18c-69,25.75-118.3,92.1-118.3,169.93,0,100.1,81.42,181.53,181.51,181.53s181.53-81.43,181.53-181.53C557.72,298.28,508.39,231.94,439.42,206.19Z"/><path class="cls-7" d="M365.42,155.18a18.19,18.19,0,0,0-18.13,18.13V293.13a18.18,18.18,0,0,0,18.13,18.12H387a18.17,18.17,0,0,0,18.12-18.12V173.31A18.18,18.18,0,0,0,387,155.18Z"/><path class="cls-8" d="M606.09,80c-15.86,192.26-177,343.38-373.34,343.38a373.11,373.11,0,0,1-231.47-80C17.15,151.13,178.28,0,374.63,0A372.91,372.91,0,0,1,606.09,80Z"/><path class="cls-9" d="M606.09,80c-15.86,192.26-177,343.38-373.34,343.38a373.11,373.11,0,0,1-231.47-80C17.15,151.13,178.28,0,374.63,0A372.91,372.91,0,0,1,606.09,80Z"/><path class="cls-10" d="M196.17,151.83a280.08,280.08,0,0,1,166.76-54.7c155.48,0,281.54,126.06,281.54,281.54a281,281,0,0,1-22.11,109.6q1-12.82,1-25.91c0-180.29-146.15-326.43-326.4-326.43A324.79,324.79,0,0,0,196.17,151.83Z"/><circle class="cls-11" cx="360.22" cy="340.84" r="239.41" transform="translate(-135.5 354.54) rotate(-45)"/><ellipse class="cls-12" cx="372.12" cy="368.08" rx="272.93" ry="274.09"/></g></g></g></svg>