<svg id="Layer_3" enable-background="new 0 0 64 64" height="512" viewBox="0 0 64 64" width="512" xmlns="http://www.w3.org/2000/svg"><path d="m28.58 34c-2.82-2.49-6.52-4-10.58-4v-24c0-2.21 1.79-4 4-4h36c2.21 0 4 1.79 4 4v24c0 2.21-1.79 4-4 4h-5-6-12-6.41z" fill="#b4dd7f"/><path d="m57 30h-35v-18h36v17c0 .552-.448 1-1 1z" fill="#ffeaa7"/><path d="m58 7v5h-6-6-6-6-6-6v-5c0-.55.45-1 1-1h34c.55 0 1 .45 1 1z" fill="#e6e9ed"/><path d="m53 34v3l-2.71.68c-.04.1-.07.2-.12.3l1.44 2.38-4.25 4.25-2.38-1.44c-.1.05-.2.08-.3.12l-.68 2.71h-6l-.68-2.71c-.1-.04-.2-.07-.3-.12l-3.08 1.44c-.36-4.22-2.36-7.97-5.35-10.61h6.41c0 3.31 2.69 6 6 6s6-2.69 6-6z" fill="#ffc729"/><path d="m33.94 44.61c.04.46.06.92.06 1.39 0 8.84-7.16 16-16 16s-16-7.16-16-16 7.16-16 16-16c4.06 0 7.76 1.51 10.58 4h.01c2.99 2.64 4.99 6.39 5.35 10.61z" fill="#e6e9ed"/><path d="m30 46c0 3.32-1.34 6.32-3.51 8.49s-5.17 3.51-8.49 3.51-6.32-1.34-8.49-3.51-3.51-5.17-3.51-8.49 1.34-6.32 3.51-8.49 5.17-3.51 8.49-3.51 6.32 1.34 8.49 3.51 3.51 5.17 3.51 8.49z" fill="#69d6f4"/><path d="m18 33c-7.168 0-13 5.832-13 13s5.832 13 13 13 13-5.832 13-13-5.832-13-13-13zm10.949 14c-.207 2.283-1.111 4.366-2.501 6.034l-1.377-1.377-1.414 1.414 1.377 1.377c-1.667 1.391-3.751 2.294-6.034 2.501v-1.949h-2v1.949c-2.283-.207-4.366-1.111-6.034-2.501l1.377-1.377-1.414-1.414-1.377 1.377c-1.391-1.668-2.294-3.751-2.501-6.034h1.949v-2h-1.949c.207-2.283 1.111-4.366 2.501-6.034l1.377 1.377 1.414-1.414-1.377-1.377c1.667-1.391 3.751-2.294 6.034-2.501v1.949h2v-1.949c2.283.207 4.366 1.111 6.034 2.501l-1.377 1.377 1.414 1.414 1.377-1.377c1.391 1.667 2.294 3.751 2.501 6.034h-1.949v2z"/><path d="m19 41h-2v5.535l3.445 2.297 1.11-1.664-2.555-1.703z"/><path d="m58 1h-36c-2.757 0-5 2.243-5 5v23.051c-8.908.522-16 7.913-16 16.949 0 9.374 7.626 17 17 17s17-7.626 17-17c0-.259-.027-.512-.039-.768l1.628-.754.63 2.522h7.562l.603-2.415 2.136 1.28 5.346-5.346-1.28-2.136 2.414-.602v-2.781h4c2.757 0 5-2.243 5-5v-24c0-2.757-2.243-5-5-5zm-40 60c-8.271 0-15-6.729-15-15s6.729-15 15-15 15 6.729 15 15-6.729 15-15 15zm39.002-32h-4.002v-4h4.002zm-34.002-4h4v4h-4zm6 0h4v4h-4zm4-12v4h-4v-4zm8 6h4v4h-4zm-2 4h-4v-4h4zm8-4h4v4h-4zm0-2v-4h4v4zm-2 0h-4v-4h4zm-6 0h-4v-4h4zm-6 2v4h-4v-4zm2 6h4v4h-4zm6 0h4v4h-4zm6 0h4v4h-4zm10.001-2h-4.001v-4h4.001zm0-6h-4.001v-4h4.001zm-34.001-6v-4h34v4zm0 2h4v4h-4zm0 6h4v4h-4zm29 17.219-1.949.486-.534.202-.465 1.143 1.296 2.159-3.139 3.139-2.159-1.296-1.219.496-.612 2.452h-4.438l-.486-1.949-.202-.534-1.082-.439-2.272 1.053c-.525-3.067-1.864-5.856-3.8-8.13h3.142c.488 3.386 3.401 6 6.92 6s6.432-2.614 6.92-6h4.079zm-15.899-1.219h9.798c-.465 2.279-2.484 4-4.899 4s-4.434-1.721-4.899-4zm24.899-5c0 1.654-1.346 3-3 3h-29.068c-.908-.765-1.894-1.436-2.949-2h31.017c1.103 0 2-.897 2-2v-22c0-1.103-.897-2-2-2h-34c-1.103 0-2 .897-2 2v22c0 .098.015.192.029.286-.664-.12-1.341-.195-2.029-.235v-23.051c0-1.654 1.346-3 3-3h36c1.654 0 3 1.346 3 3z"/></svg>