<?xml version="1.0" encoding="utf-8"?>
<!-- Generator: Adobe Illustrator 23.0.0, SVG Export Plug-In . SVG Version: 6.00 Build 0)  -->
<svg version="1.1" id="Capa_1" xmlns="http://www.w3.org/2000/svg" xmlns:xlink="http://www.w3.org/1999/xlink" x="0px" y="0px"
	 viewBox="0 0 612.1 612.1" style="enable-background:new 0 0 612.1 612.1;" xml:space="preserve">
<style type="text/css">
	.st0{fill:#FFFFFF;}
</style>
<g>
	<path class="st0" d="M237.9,0C106.6,0,0,106.5,0,237.9s106.5,237.9,237.9,237.9c50.5,0,97.4-15.8,135.9-42.6l0,0l176.4,176.4
		c3.3,3.3,8.5,3.4,11.8,0l47.6-47.6c3.3-3.3,3.1-8.7,0-11.8L433.2,373.8c26.8-38.5,42.6-85.4,42.6-135.9
		C475.8,106.5,369.3,0,237.9,0z M237.9,419.8C137.5,419.8,56,338.4,56,237.9S137.5,56,237.9,56s181.9,81.4,181.9,181.9
		S338.4,419.8,237.9,419.8z"/>
</g>
</svg>
