<?xml version="1.0"?>
<svg xmlns="http://www.w3.org/2000/svg" viewBox="0 0 64 64" width="512" height="512"><g id="flat"><path d="M36,30V28a4,4,0,0,0-8,0v2C15.213,31.634,6,42.768,6,56H58C58,42.768,48.787,31.634,36,30Z" style="fill:#f98c96"/><rect x="3" y="56" width="58" height="5" style="fill:#dd3e46"/><path d="M11.98,51.2,10.02,50.8c3.1-15.521,18.691-17.775,18.848-17.8l.266,1.982C28.55,35.07,14.8,37.1,11.98,51.2Z" style="fill:#ffd782"/><rect x="42" y="51" width="15" height="2" style="fill:#ffd782"/><rect x="38" y="51" width="2" height="2" style="fill:#ffd782"/><path d="M23,23H21a6.3,6.3,0,0,1,1.143-3.515A4.382,4.382,0,0,0,23,17a3.42,3.42,0,0,0-1.243-2.331A5.315,5.315,0,0,1,20,11a6.3,6.3,0,0,1,1.143-3.515A4.395,4.395,0,0,0,22,5h2a6.3,6.3,0,0,1-1.143,3.515A4.395,4.395,0,0,0,22,11a3.42,3.42,0,0,0,1.243,2.331A5.315,5.315,0,0,1,25,17a6.3,6.3,0,0,1-1.143,3.515A4.382,4.382,0,0,0,23,23Z" style="fill:#ffd782"/><path d="M42,23H40a6.3,6.3,0,0,1,1.143-3.515A4.382,4.382,0,0,0,42,17a3.42,3.42,0,0,0-1.243-2.331A5.315,5.315,0,0,1,39,11a6.3,6.3,0,0,1,1.143-3.515A4.395,4.395,0,0,0,41,5h2a6.3,6.3,0,0,1-1.143,3.515A4.395,4.395,0,0,0,41,11a3.42,3.42,0,0,0,1.243,2.331A5.315,5.315,0,0,1,44,17a6.3,6.3,0,0,1-1.143,3.515A4.382,4.382,0,0,0,42,23Z" style="fill:#ffd782"/><path d="M32,20H30a6.3,6.3,0,0,1,1.143-3.515A4.382,4.382,0,0,0,32,14a3.42,3.42,0,0,0-1.243-2.331A5.315,5.315,0,0,1,29,8a6.3,6.3,0,0,1,1.143-3.515A4.395,4.395,0,0,0,31,2h2a6.3,6.3,0,0,1-1.143,3.515A4.395,4.395,0,0,0,31,8a3.42,3.42,0,0,0,1.243,2.331A5.315,5.315,0,0,1,34,14a6.3,6.3,0,0,1-1.143,3.515A4.382,4.382,0,0,0,32,20Z" style="fill:#ffd782"/></g></svg>
