<svg xmlns="http://www.w3.org/2000/svg" viewBox="0 0 383.9 357.2"><defs><style>.cls-1{fill:#011c19;}.cls-1,.cls-20{opacity:0.28;}.cls-2{fill:#ffc299;}.cls-11,.cls-18,.cls-20,.cls-26,.cls-3,.cls-46,.cls-5,.cls-6,.cls-7{fill:#441304;}.cls-3{opacity:0.21;}.cls-4{fill:#95320b;}.cls-5{opacity:0.34;}.cls-34,.cls-6{opacity:0.5;}.cls-19,.cls-32,.cls-37,.cls-52,.cls-57,.cls-7,.cls-72{opacity:0.2;}.cls-8{fill:#201e1f;}.cls-9{fill:#6d5d67;}.cls-10{fill:#e89d6b;}.cls-11{opacity:0.25;}.cls-12{fill:#82320f;}.cls-13{fill:#ff6363;}.cls-14{fill:#6d170b;}.cls-15{fill:#fff;}.cls-16{fill:#601a1a;}.cls-17{opacity:0.59;}.cls-18{opacity:0.17;}.cls-19,.cls-62{fill:#f9f0ca;}.cls-21{fill:#772407;}.cls-22{fill:#f9f4e1;opacity:0.14;}.cls-23,.cls-27,.cls-65{fill:#190601;}.cls-23{opacity:0.35;}.cls-24{fill:#030f21;}.cls-25{fill:#ad6244;}.cls-27{opacity:0.46;}.cls-28{fill:#0f0f0f;}.cls-29,.cls-71{fill:#231a18;}.cls-30{fill:#332824;}.cls-31{fill:#e5e5e5;}.cls-32{fill:#262626;}.cls-33{fill:#cc8460;}.cls-35{fill:#ad2f2f;}.cls-36{fill:#303030;}.cls-37,.cls-73{fill:#3d3d3d;}.cls-38{fill:#ba704f;}.cls-39{fill:#561306;}.cls-40{fill:#585859;}.cls-41{fill:#1e0501;}.cls-42{fill:#ad4444;}.cls-43{fill:#330c03;}.cls-44{fill:#c9bdd5;}.cls-45{fill:#1e1e1e;}.cls-46{opacity:0.27;}.cls-47{fill:#090506;}.cls-48{fill:#dfddeb;}.cls-49{fill:#f9b485;}.cls-50{fill:#303135;}.cls-51{fill:#2a2627;}.cls-52{fill:#f9f9f9;}.cls-53{fill:#0c0c0c;}.cls-54{fill:#202123;}.cls-55{fill:#565659;}.cls-56{fill:#e29764;}.cls-57{fill:#661704;}.cls-58{fill:#772c12;}.cls-59{fill:#380e03;}.cls-60{opacity:0.56;}.cls-61{fill:#601f0e;}.cls-62,.cls-71{opacity:0.33;}.cls-63{fill:#54473f;}.cls-64{fill:#5e1b12;}.cls-65{opacity:0.61;}.cls-66{fill:#591200;}.cls-67{fill:#ede9f4;}.cls-68{fill:#bababa;}.cls-69{fill:#d8d8d8;}.cls-70{fill:#423732;}.cls-74{opacity:0.64;}</style></defs><title>Ativo 5</title><g id="Camada_2" data-name="Camada 2"><g id="OBJECTS"><ellipse class="cls-1" cx="149.47" cy="346.72" rx="44.43" ry="10.48"/><path class="cls-2" d="M169.51,245.4c-1,4.76-1.73,7.93-1.54,8.78.83,3.73,2.89,16.91,1.46,24.08-.82,4.07-1.63,10.83-2.18,15.91-.42,3.85-.69,6.73-.69,6.73h-9.17s1.15-4.59-.86-22.07.29-16.91-1.66-36.12c-.52-5.18-1-11.7-1.44-18.47-1.16-18.37-1.91-38.55-1.91-38.55,6.73-11.75,19.85-14.75,19.85-14.75,5.37,14.69,4.91,32.68,2.92,48.19C173,229.61,170.91,239,169.51,245.4Z"/><path class="cls-3" d="M162.09,264.18c-.69,8.75-2,29.48,1.5,30.25a10.09,10.09,0,0,0,3.66-.26c-.42,3.85-.69,6.73-.69,6.73h-9.17s1.15-4.59-.86-22.07.29-16.91-1.66-36.12c-.52-5.18-1-11.7-1.44-18.47l17.36-14.06,3.5,8.95c-1.34,10.48-3.38,19.84-4.78,26.27a29.11,29.11,0,0,0-5.92,1C159.65,247.43,162.77,255.43,162.09,264.18Z"/><path class="cls-2" d="M152,185.69s-.94,25.27-2.35,45c-.31,4.4-.65,8.52-1,12-.08.82-.16,1.61-.23,2.37-1.53,16.82.48,17-1.43,33.75a142.21,142.21,0,0,0-1.18,17.82,21.44,21.44,0,0,0,.32,4.25H137s-1.44-15.48-2.87-22.64.62-20.35,1.46-24.08c.31-1.37-1.66-8.66-3.67-18.94-3.48-17.65-7.12-44.09.27-64.3C132.17,170.94,145.28,173.94,152,185.69Z"/><path class="cls-3" d="M139.7,246.18c-.8.75,2.53,5.5.86,11.25s-1.33,32,0,36.75c.55,1.93,2.8,2.49,5.27,2.47a21.44,21.44,0,0,0,.32,4.25H137s-1.44-15.48-2.87-22.64.62-20.35,1.46-24.08c.31-1.37-1.66-8.66-3.67-18.94,6.77-2.42,12.36-4.29,12.36-4.29s2.7-.18,5.41-.27,5.4-.09,5.43.27c.05.73-6.66,14.13-6.66,14.13S140.5,245.43,139.7,246.18Z"/><path class="cls-4" d="M178.29,140.27a10.27,10.27,0,0,1-5.43,7.76c-8.19,4.22-21.6,8.23-34.88,2a39.14,39.14,0,0,1-11-7.83c-3.88-3.87-4-31.31-3.15-62.26s4.3-49.3,13.47-51.88S151.76,25,155.14,24.8a54.23,54.23,0,0,1,10,.38h0l.44.07h0c5.94,1,10.42,3.39,11.93,8.18C179.73,40.45,183.53,102.53,178.29,140.27Z"/><path class="cls-5" d="M145.54,35c-1.25,11.61,6,12.49,16,0l-6.56,46.28-2.75,19.39S139.32,145.32,138,150a38.48,38.48,0,0,1-9.47-6.4c-.5-.46-1-.94-1.5-1.43-3.88-3.87-4-31.31-3.15-62.26s4.3-49.3,13.47-51.88S151.76,25,155.14,24.8a54.23,54.23,0,0,1,10,.38h0S146.79,23.38,145.54,35Z"/><path class="cls-6" d="M154.93,81.32l-2.75,19.39S139.32,145.32,138,150a38.48,38.48,0,0,1-9.47-6.4c2.75-14.14-3.64-31.82-2-37.78a8.42,8.42,0,0,1,7.28-6.55C133,96.08,137,95.6,137,95.6c1.68-4,8.11-7.5,8.11-7.5l-.83-5.4c-12-6.23-10.52-25.29-10.52-25.29l11.35-.48,9,7.28Z"/><path class="cls-2" d="M139.7,155.63a52.38,52.38,0,0,1-2.47,9.71c-.08.21-.17.41-.26.6l-.41-.83L131,153.66s2.84-20.81,0-33.3-2.36-16.34,6.26-18.77a4.63,4.63,0,0,1,2.19,2.35c.71,1.54,1.06,4-.08,7.81-2.5,8.32-2.7,11.8.6,17.61C142.2,133.33,141.4,146,139.7,155.63Z"/><path class="cls-7" d="M139.7,155.63a52.38,52.38,0,0,1-2.47,9.71l-.67-.23L131,153.66s2.84-20.81,0-33.3-2.36-16.34,6.26-18.77a4.63,4.63,0,0,1,2.19,2.35l-3.22,9.36c.18-.87,1.47-7.19-.83-7.63-2.48-.49-2.73,1.2-2.73,7.73s2.2,15.33,2.73,20.43-.9,18-.69,19.42C134.86,154.4,137.65,155.4,139.7,155.63Z"/><path class="cls-2" d="M203,187.71c-1.65-.11-4-2.36-5.64-2.36s-2.37.12-3.17-.21a17.06,17.06,0,0,1,2.77,1.82,2.49,2.49,0,0,1,1,1.35c.12,1.29-.23,1.29-1.41.59a12.68,12.68,0,0,0-4.61-1.19c-1.3-.11-2.48-1.06-3.89-1.41s-3.86-3.24-5.59-4.75-7.61-5.83-9-6.21c-1.11-.3-4.59-7.82-5.27-11.77-.19-1.13-.15-2,.23-2.26a3,3,0,0,1,1.9-.6,6.81,6.81,0,0,1,2.59.6,44.28,44.28,0,0,0,6.23,8.1c3.51,3.43,4.69,7.09,8.59,8.39s7.79-.59,8.74,0a7.93,7.93,0,0,1,1.89,2.24,3.56,3.56,0,0,1,2.24,2.83s.83.36,1.06,1.89a6.8,6.8,0,0,0,3,1.54A1.3,1.3,0,0,1,203,187.71Z"/><path class="cls-2" d="M174.87,132.53a55,55,0,0,0-2.07,28.78l-2.13,1-2.59,1.24-.11.05c-4.68-9.33-2.87-29.86-2.87-29.86s6.25-3.92,5.74-16.85,1.26-16.56,1.26-16.56a13.13,13.13,0,0,1,1.57.58C183.6,105.28,180.05,118.42,174.87,132.53Z"/><path class="cls-3" d="M196.48,188.9a12.68,12.68,0,0,0-4.61-1.19c-1.3-.11-2.48-1.06-3.89-1.41s-3.86-3.24-5.59-4.75-7.61-5.83-9-6.21c-1.11-.3-4.59-7.82-5.27-11.77l-.11.05c-4.68-9.33-2.87-29.86-2.87-29.86s6.25-3.92,5.74-16.85,1.26-16.56,1.26-16.56a13.13,13.13,0,0,1,1.57.58h0s-1.78,3.32,0,11.49,2.52,14.18-2,20c-4.09,5.23-2.77,22.22-1.41,28.27a10.3,10.3,0,0,0,.46,1.62c1.45,3.6,3.79,11.27,11.45,16.27s4.64,6.7,9.17,7.12a17.93,17.93,0,0,1,5.64,1.24,2.49,2.49,0,0,1,1,1.35C198,189.6,197.66,189.6,196.48,188.9Z"/><path class="cls-8" d="M177.45,196.67c0,14.52-6.88,46.18-6.88,46.18a13.25,13.25,0,0,1-2.59.51,8.88,8.88,0,0,1-4.29-.51l-.95-17.52-3.44,17c-9,1.14-26,0-26,0-14.72-46.05-5-65.15.89-78s4.09-31.84,4.09-31.84c-4.56-5.11-5.37-10.75-2.12-19.13s.38-12.45.77-14,3.48-2.72,3.48-2.72c19.54-4.58,27.74,0,30.5,2.41a6.83,6.83,0,0,1,1.17,1.24c-2.49,8.44,4.2,19,1,26.4-2.27,5.17-5.35,6.68-5.35,6.68-1.53,5.73-.58,21.4,1.14,28.34S177.45,182.15,177.45,196.67Z"/><path class="cls-9" d="M167.4,108.79a14.6,14.6,0,0,0-3.52-5.14l-.15-.12a9.35,9.35,0,0,0-1-.77c-3.16-2.14-8.59,8.36-8.9,9l4.7-14.49L159,89a13.59,13.59,0,0,1,2.54,0,10.71,10.71,0,0,1,6.77,3C171.72,95.6,167.4,108.79,167.4,108.79Z"/><path class="cls-9" d="M153.83,111.75s-4.28-8.9-7.71-9-5.13,7.36-5.05,6.79-3.17-11.6,1-16,6.69-3.69,8.6-3.87a18.45,18.45,0,0,0-.38,8.42C151.27,102.1,153.83,111.75,153.83,111.75Z"/><path class="cls-10" d="M160.26,96.7c-.86,4.16-6.43,15-6.43,15a75.57,75.57,0,0,1-5-13.67V82.7h9.67a19.86,19.86,0,0,0,0,2A109.67,109.67,0,0,0,160.26,96.7Z"/><path class="cls-11" d="M160.26,96.7c-.86,4.16-6.43,15-6.43,15a75.57,75.57,0,0,1-5-13.67V82.7h9.67a19.86,19.86,0,0,0,0,2,6.38,6.38,0,0,1-4.7,1.09c-2.54-.55-2.21,13.27-.87,15.78S156.8,104,160.26,96.7Z"/><path class="cls-12" d="M141.08,193.59a.75.75,0,0,1-.21,0,1.14,1.14,0,0,1-.91-1.34c1.38-7.33,2.13-28.95-5.6-33-3.34-1.74-6.46-1.76-9,0-5.44,3.66-11.17,14.21-9.77,28.94a1.15,1.15,0,0,1-1,1.25,1.11,1.11,0,0,1-1.24-1c-1.51-15.83,4.52-26.86,10.77-31.07,3.26-2.18,7.29-2.22,11.37-.09,10.8,5.64,7,34.29,6.78,35.44A1.15,1.15,0,0,1,141.08,193.59Z"/><path class="cls-12" d="M145.73,217.12c-1.52,10.12-6.17,9.36-18.46,7.64s-11.34,1.72-19.17-5.92,1.33-30.38,6.11-33.06a37.33,37.33,0,0,1,4.89,0,54.38,54.38,0,0,1,22.23,6.1s3.88,9.88,4.55,19A28.23,28.23,0,0,1,145.73,217.12Z"/><path class="cls-2" d="M137.72,164.25s-.12,5.4-4.05,4.78c-.38-.06-1.35-.12-2.82-2s-12-20.18-13.13-22.79-1.11-14.64-.49-17a11.22,11.22,0,0,1,3.31-5c.49-.24,2.58,1.23,3.19,1.6.29.17.28.7.18,1.21v0a9.06,9.06,0,0,1-.28,1.07c.08,0,1.19-.3,1.62,1.24,0,0,2.17-.13,2.54,1.59,0,0,1.23-.61,1.72-.12s.61,2.58.73,3.43-1.35,4.3-2,4.79-1.72.74-1.84,0a8.88,8.88,0,0,0-1.19,2.94,4.57,4.57,0,0,1-1,2.34,38.16,38.16,0,0,1,4.54,7.36c1.35,3.31,3.56,5.64,6.14,8.46a11.11,11.11,0,0,1,1.7,2.48A10.5,10.5,0,0,1,137.72,164.25Z"/><rect class="cls-9" x="155.1" y="298.89" width="13.95" height="6.31" rx="1.95"/><path class="cls-9" d="M148.44,300.85v2.39a2,2,0,0,1-1.81,1.95H136.45a2,2,0,0,1-2-2v-2.39a2,2,0,0,1,2-2h10A2,2,0,0,1,148.44,300.85Z"/><path class="cls-8" d="M157.05,305.2s0,26.55-3.67,35.73a3.38,3.38,0,0,0,2.67,1.14s1.34-8.4,2.29-8,.58,7.28,0,9.28,7.65,6.6,12.42,5.82c0,0,.58-.94-3.25-5.82s-4.2-10.85-2.67-19.43,2.25-18.7,2.25-18.7Z"/><path class="cls-8" d="M146.49,305.2s0,26.55,3.67,35.73a3.41,3.41,0,0,1-2.68,1.14s-1.33-8.4-2.29-8-.57,7.28,0,9.28-7.64,6.6-12.42,5.82c0,0-.57-.94,3.25-5.82s4.2-10.85,2.68-19.43-2.25-18.7-2.25-18.7Z"/><path class="cls-13" d="M159.3,78.35a12,12,0,0,1-4.89.91,12.88,12.88,0,0,1-4.21-.63h0s2.42-2.12,4.18-.78A3.83,3.83,0,0,1,159.3,78.35Z"/><path class="cls-2" d="M176.55,59.61q0,.51-.12,1.11a26.93,26.93,0,0,1-1.33,5.16h0a33.1,33.1,0,0,1-2.84,6,23.26,23.26,0,0,1-12,10.29h0a21,21,0,0,1-7,1.16c-7.76,0-12.5-5.54-15.36-11.5a42.71,42.71,0,0,1-2.28-5.93,50.76,50.76,0,0,1-1.83-8.51C156.9,51.29,161.24,36,161.49,35a.18.18,0,0,0,0,0A26,26,0,0,0,166,49.57,34.45,34.45,0,0,0,176.55,59.61Z"/><path class="cls-14" d="M163.73,71.91a7.36,7.36,0,0,1-4.43,6.44,12,12,0,0,1-4.89.91,12.88,12.88,0,0,1-4.21-.63h0a7.38,7.38,0,0,1-5.1-6.71S155.32,69.23,163.73,71.91Z"/><path class="cls-2" d="M130.59,66.65a1.09,1.09,0,0,1-.72.3c-2.13.1-5.45-.61-5.81-5.88s2.44-6.07,4.25-5.22h0a2.34,2.34,0,0,1,1.46,2.3,21.61,21.61,0,0,0,1.11,7.16A1.19,1.19,0,0,1,130.59,66.65Z"/><path class="cls-2" d="M184.37,61.07a7,7,0,0,1-1.5,4.29l-.15.15,0,0a4.47,4.47,0,0,1-1.48,1,6.19,6.19,0,0,1-2.64.41,1.17,1.17,0,0,1-1-1.64,21.61,21.61,0,0,0,1.11-7.16c-.26-2.21,3.4-3.87,5-1.22h0A7.15,7.15,0,0,1,184.37,61.07Z"/><path class="cls-15" d="M163.21,71.76a2.22,2.22,0,0,1-.09.65,2.06,2.06,0,0,1-.42.88,2.33,2.33,0,0,1-2.42.74c-3-.72-9-.22-11.8.08a2.65,2.65,0,0,1-2.78-1.68,2.35,2.35,0,0,1-.14-.52c0-.07,0-.11,0-.11A36.76,36.76,0,0,1,163.21,71.76Z"/><path class="cls-16" d="M139.35,61.21a1.72,1.72,0,1,0,1.72-1.72A1.72,1.72,0,0,0,139.35,61.21Z"/><path class="cls-16" d="M170.84,61.21a1.72,1.72,0,1,1-1.72-1.72A1.72,1.72,0,0,1,170.84,61.21Z"/><g class="cls-17"><path class="cls-13" d="M144.53,68.59c0,1.83-2.51,3.32-5.61,3.32a9.2,9.2,0,0,1-1.07-.06,42.71,42.71,0,0,1-2.28-5.93,8.23,8.23,0,0,1,3.35-.66C142,65.26,144.53,66.75,144.53,68.59Z"/><path class="cls-13" d="M175.1,65.88h0a33.1,33.1,0,0,1-2.84,6h-.42c-3.09,0-5.6-1.49-5.6-3.32s2.51-3.33,5.6-3.33A8.42,8.42,0,0,1,175.1,65.88Z"/></g><path class="cls-13" d="M157.6,66.47h0c-.21.76-.79,1.25-2,1.25-2.78,0-1.46-3.43-1.16-5.14s.18-3.76,1.3-3.78a1.17,1.17,0,0,1,.49.08c.58.26.6,1.17.94,3.06C157.43,63.63,157.91,65.35,157.6,66.47Z"/><path class="cls-7" d="M160.24,82.19a21,21,0,0,1-7,1.16c-7.76,0-12.5-5.54-15.36-11.5a42.71,42.71,0,0,1-2.28-5.93,50.76,50.76,0,0,1-1.83-8.51C157.65,51.09,161.5,35,161.5,35s-.39,14.2-21.55,23.82C140,58.81,139.74,85.81,160.24,82.19Z"/><path class="cls-18" d="M176.55,59.61q0,.51-.12,1.11C159,50.67,161.33,36,161.49,35a.18.18,0,0,0,0,0C161.5,51.19,176.55,59.61,176.55,59.61Z"/><path class="cls-19" d="M176.55,59.61q0,.51-.12,1.11a26.93,26.93,0,0,1-1.33,5.16h0a33.1,33.1,0,0,1-2.84,6,23.26,23.26,0,0,1-12,10.29h0s8-6.27,9.37-11.72c1.81-7.2,1.44-10.44-3.58-20.9A34.45,34.45,0,0,0,176.55,59.61Z"/><path class="cls-20" d="M157.6,66.48c-.21.76-.79,1.25-2,1.25-2.78,0-1.46-3.43-1.16-5.14s.18-3.76,1.3-3.78a1.17,1.17,0,0,1,.49.08h0s-.47-.22-.44,1.22a22.87,22.87,0,0,1-.62,5.14c-.42,1.73,1.35,2.69,2.43,1.24Z"/><path class="cls-21" d="M139,55.26a4.77,4.77,0,0,1,4.29-.35c2.08,1.05,2.89-2.83-.64-3s-6.18,1.89-5.61,3.09S138,55.72,139,55.26Z"/><path class="cls-21" d="M171.18,55.26a4.78,4.78,0,0,0-4.3-.35c-2.07,1.05-2.89-2.83.64-3s6.18,1.89,5.62,3.09S172.19,55.72,171.18,55.26Z"/><path class="cls-18" d="M163.21,71.76a2.22,2.22,0,0,1-.09.65,35.73,35.73,0,0,0-17.42,0,2.35,2.35,0,0,1-.14-.52c0-.07,0-.11,0-.11A36.76,36.76,0,0,1,163.21,71.76Z"/><path class="cls-18" d="M130.59,66.65a1.09,1.09,0,0,1-.72.3c-2.13.1-5.45-.61-5.81-5.88s2.44-6.07,4.25-5.22c-.22.07-2.91.93-2.11,5.66C126.89,65.59,128.69,66.86,130.59,66.65Z"/><path class="cls-19" d="M167.4,108.79a14.6,14.6,0,0,0-3.52-5.14c2.38,1.8,3.46,1.32,3.52-5.78,0-7.44-5.9-8.85-5.9-8.85h0a10.71,10.71,0,0,1,6.77,3C171.72,95.6,167.4,108.79,167.4,108.79Z"/><path class="cls-22" d="M177.45,196.67c0,14.52-6.88,46.18-6.88,46.18a13.25,13.25,0,0,1-2.59.51c.23-1.12,4.25-20.49,6-35.83,1.78-15.8-.59-25.67-6.56-38.45s-5.68-35.6-2.65-38,8.82-5.85,6.09-16.59,0-15.39,0-15.39l.09,0a6.83,6.83,0,0,1,1.17,1.24c-2.49,8.44,4.2,19,1,26.4-2.27,5.17-5.35,6.68-5.35,6.68-1.53,5.73-.58,21.4,1.14,28.34S177.45,182.15,177.45,196.67Z"/><path class="cls-7" d="M137.72,164.25s-.12,5.4-4.05,4.78c-.38-.06-1.35-.12-2.82-2s-12-20.18-13.13-22.79-1.11-14.64-.49-17a11.22,11.22,0,0,1,3.31-5c.49-.24,2.58,1.23,3.19,1.6.29.17.28.7.18,1.21v0l-.29,1.08s-2.21.33-2.71,5.77-1.79,7.93,1.35,13.69,14.06,28.07,14.35,15A10.5,10.5,0,0,1,137.72,164.25Z"/><path class="cls-19" d="M178.29,140.27a10.27,10.27,0,0,1-5.43,7.76c8.45-17.15,5-71.6,3.69-96.93-1.18-22-9-25.33-11-25.83,5.94,1,10.42,3.39,11.93,8.18C179.73,40.45,183.53,102.53,178.29,140.27Z"/><path class="cls-6" d="M145.73,217.12c-1.52,10.12-6.17,9.36-18.46,7.64s-11.34,1.72-19.17-5.92,1.33-30.38,6.11-33.06a37.33,37.33,0,0,1,4.89,0c-.6.78-5.15,7.18-4.45,18.88.75,12.5,6.18,8.5,14.21,11.25s14.74,5.17,17-5A28.23,28.23,0,0,1,145.73,217.12Z"/><path class="cls-23" d="M146.63,305.19H136.45a2,2,0,0,1-2-2v-2.39a2,2,0,0,1,2-2h5.29S139.14,304.89,146.63,305.19Z"/><path class="cls-23" d="M167.1,305.19H156.92a2,2,0,0,1-2-2v-2.39a2,2,0,0,1,2-2h5.29S159.61,304.89,167.1,305.19Z"/><ellipse class="cls-1" cx="243.86" cy="343.64" rx="44.43" ry="10.48"/><path class="cls-18" d="M279.27,56.93c-.2-.12-2.6-1.46-2.73,1.38s.46,5.26-1,7c-.93,1.12.11,1.57,1.23,1.28a6.19,6.19,0,0,1-2.64.41,1.17,1.17,0,0,1-1-1.64,21.61,21.61,0,0,0,1.11-7.16C274,55.94,277.67,54.28,279.27,56.93Z"/><path class="cls-24" d="M228.78,333.46s-3,0-4.26,1.06,2.28,5,5.17,5,12.2-1.67,14.15-3.64,3.13-6.18-.2-7.42C243.64,328.47,235,336,228.78,333.46Z"/><path class="cls-25" d="M238.42,319.46s1,9.14-2.75,11-6.89,3-6.89,3a4.12,4.12,0,0,0,4.87,1.06c3.18-1.21,7.88-1.54,9.48-4.42s0-11.68,0-11.68Z"/><path class="cls-26" d="M295.86,60c-1.66,8.15-7.39,7.23-7.39,7.23s4.44,3.1,2.77,7a5.39,5.39,0,0,1-5.52,3.34c.23.23,3,3,0,7.94-3.14,5.17-6.66,3.37-6.66,3.37,2.59,1.89-2.77,7.16-6.47,7s-3.88-4.15-3.88-4.15-.92,3.34-7.39,2.89-6.78-5.79-6.78-5.79l-6.28,1.9-7.7,2.32a5.46,5.46,0,0,1-4.93,1.57s-.74,4.33-4.13,4c-2.89-.3-1.61-2.08-1.17-2.59-.59.64-3.22,3.35-4.69,2.38-1.66-1.11,0-4.16,0-4.16s-3.14,2.31-6.1,0,0-5.64,0-5.64-4.8-.56-6.65-4,1.85-4,1.85-4a9.8,9.8,0,0,1-5.36-2.34c-2.77-2.26.18-6.44.18-6.44s-3.69.38-4.81-4.57,2.41-6.14,2.41-6.14a4,4,0,0,1-2.4-4.12c.18-3.14,3.74-3.17,3.88-3.17-4.62-3.22.18-5.47.18-5.47s-3.69-3.14-2.4-6.65,3.33-1.92,3.33-1.92-.19-4.55,2.4-5.28a12.69,12.69,0,0,1,5.55,0s-.19-9.25,5.54-10.92c5.37-1.55,6.68,1.42,6.83,1.8a5,5,0,0,1,4.26-6c5-1,6.64,2.81,6.83,3.28-.08-.49-.56-4.57,4.82-4.57,5.73,0,6.66,4.25,6.66,4.25s1.65-4.44,9.05-1.66a13.54,13.54,0,0,1,4.52,2.77,12.62,12.62,0,0,1,3.8,6.84.75.75,0,0,1,.07-.12c.43-.69,2.63-3.94,5.28-2.28,2.94,1.84,2.18,5.54,2.18,5.54s3-4.07,8.55,0,3.32,8.32,3.32,8.32c3.33,5.36-.18,7.58-.18,7.58C291.43,48.86,297.53,51.82,295.86,60Z"/><path class="cls-27" d="M256,32.68s-5.44-2.82-7.47,1.09,7.47,6,7.47,6-10.7-1.18-7.43,6.89c2.25,5.55.77,29.44-.48,44l-7.7,2.32a5.46,5.46,0,0,1-4.93,1.57s-.74,4.33-4.13,4c-2.89-.3-1.61-2.08-1.17-2.59-.59.64-3.22,3.35-4.69,2.38-1.66-1.11,0-4.16,0-4.16s-3.14,2.31-6.1,0,0-5.64,0-5.64-4.8-.56-6.65-4,1.85-4,1.85-4a9.8,9.8,0,0,1-5.36-2.34c-2.77-2.26.18-6.44.18-6.44s-3.69.38-4.81-4.57S207,61.06,207,61.06a4,4,0,0,1-2.4-4.12c.18-3.14,3.74-3.17,3.88-3.17-4.62-3.22.18-5.47.18-5.47s-3.69-3.14-2.4-6.65,3.33-1.92,3.33-1.92-.19-4.55,2.4-5.28a12.69,12.69,0,0,1,5.55,0S217.3,25.2,223,23.53c5.37-1.55,6.68,1.42,6.83,1.8a5,5,0,0,1,4.26-6c5-1,6.64,2.81,6.83,3.28-.08-.49-.56-4.57,4.82-4.57,5.73,0,6.66,4.25,6.66,4.25s1.65-4.44,9.05-1.66A13.54,13.54,0,0,1,266,23.35C265.57,23.36,253.5,23.59,256,32.68Z"/><path class="cls-28" d="M231,105.67a6.74,6.74,0,0,0-5.22,7.14c.18,6.1,1.84,9,0,15.61C225.8,128.42,233.47,120.7,231,105.67Z"/><path class="cls-29" d="M238.46,191.42s-11.93,1.84-19.41-8.07c0,0-1.1,15.31,3.62,36.8s9.42,24.83,8,31.2,2.16,23.19,5,33.64,2.24,24.86-1.36,32.07c0,0,4.44,4.72,10,1.67,0,0-1.94-22.53,0-35.8S240.12,201.09,238.46,191.42Z"/><path class="cls-30" d="M259.82,247.06c-.28,11.5,1.8,25.82-1.59,37.93s-6.51,28.47-6.48,34.85a7.09,7.09,0,0,1-1,.38,11.58,11.58,0,0,1-10.37-1.77s0-18.58.83-29.67,1.76-28,1.57-34.65-5.5-42.63-7.14-62.21c0,0,13.34-1.36,26.37-12.42a94.26,94.26,0,0,1,3.89,13.17c1.37,6.19,2.4,13.78,1.65,21C265.92,229.73,260.1,235.56,259.82,247.06Z"/><path class="cls-22" d="M259.82,247.06c-.28,11.5,1.8,25.82-1.59,37.93s-6.51,28.47-6.48,34.85a7.09,7.09,0,0,1-1,.38,65.37,65.37,0,0,1,2.12-22.54c4-13.75,5-24.25,4.33-34.5s-2.58-22,4.67-37.39,1.36-32,1.36-32l2.67-1.1c1.37,6.19,2.4,13.78,1.65,21C265.92,229.73,260.1,235.56,259.82,247.06Z"/><path class="cls-31" d="M257.57,169.72A71.27,71.27,0,0,1,262,179.5c-1.83,1.58-3.61,3-5.31,4.21a48.35,48.35,0,0,1-12.7,6.84,23.82,23.82,0,0,1-13.33.93,19.72,19.72,0,0,1-11.65-8.13c.55-5.06,1.42-7.54,6.75-18.87s4.63-25.64,4.63-25.64c-3-1.39-5.39-6.73-2.35-10.42s6.27-16,5.84-22.75c-.28-4.4,3-6.19,6.87-6.82a30.06,30.06,0,0,1,6.4-.22c5.68.32,12.35-7,15.6,17.88,1.67,12.77-1.43,24.51-4.35,33.4-2.76,8.42-5.37,14.27-3.61,16A18.84,18.84,0,0,1,257.57,169.72Z"/><path class="cls-32" d="M258.44,149.91c-.23,6.87-.55,13.71-.87,19.81-.3,5.4-.6,10.22-.84,14a48.35,48.35,0,0,1-12.7,6.84c-3.06-17.6-2.8-52.36-1.58-59.87,1.3-8,8.1-16.28,6.45-18.93s-6.2,4.89-6.44,5.29c1.55-6.62,6.3-15.05,13.13-11.37C259,107.5,259.15,128.88,258.44,149.91Z"/><path class="cls-32" d="M242.45,117.06s-2.55-4.13-4.67-1.88-.59,11.34-2.11,20.42-2.46,27.77-3.86,37.55a122.86,122.86,0,0,0-1.11,18.33,19.72,19.72,0,0,1-11.65-8.13c.55-5.06,1.42-7.54,6.75-18.87s4.63-25.64,4.63-25.64c-3-1.39-5.39-6.73-2.35-10.42s6.27-16,5.84-22.75c-.28-4.4,3-6.19,6.87-6.82Z"/><path class="cls-33" d="M263.33,69.38c-1.33,5.05-3.62,5.74-4.79,5.73a2.46,2.46,0,0,1-.75-.12,12.3,12.3,0,0,1-.15,1.94,9.6,9.6,0,0,1-.17,1c-.1.45-.21.88-.34,1.29-.05.17-.11.33-.17.5a12.42,12.42,0,0,1-.81,1.83A13.24,13.24,0,0,1,251,86.77c-7.68,4.33-15.39,6.22-22-2.4a19.11,19.11,0,0,1-2.56-4.48,24.14,24.14,0,0,1-1.47-5.3c-1.58-9.55,1.81-19.31,1.81-19.31,3.33,2.73,7.4-1.51,7.4-1.51,5.17,1.77,8.87-2.32,8.87-2.32,4.33,0,5.58-4.23,5.72-4.76-1,4.22,6.11,6.24,6.11,6.24-2.52,6.84,2.51,12.82,2.76,13.12h0a3.76,3.76,0,0,1,1.83-2.18C261.65,62.76,264.69,64.21,263.33,69.38Z"/><g class="cls-34"><path class="cls-35" d="M224.92,74.59a24.14,24.14,0,0,0,1.47,5.3,8.49,8.49,0,0,0,2.2.28c3,0,5.43-1.44,5.43-3.22s-2.43-3.21-5.43-3.21A7.71,7.71,0,0,0,224.92,74.59Z"/><path class="cls-35" d="M248.68,77c0,1.78,2.43,3.22,5.43,3.22a8.22,8.22,0,0,0,2.85-.49c.06-.17.12-.33.17-.5a14.31,14.31,0,0,0,.66-4.19,2.46,2.46,0,0,0,.75.12,7,7,0,0,0-4.43-1.37C251.11,73.74,248.68,75.18,248.68,77Z"/></g><path class="cls-36" d="M233.92,137.4c-1.14,4.06-2.38,32.16-4.23,39.37s-.55,23.15-.55,23.15a13,13,0,0,1-1.68-.15,14.63,14.63,0,0,1-8.86-5.63c-.37-8.31.92-19,5.55-28.46s6.1-27.54,3.93-28.84a6.4,6.4,0,0,1-2.83-7.11c.93-2.68,5.18-9,5.18-18.46,0-4.38.74-6.63,1.54-7.78.94-1.36,1.95-1.21,1.95-1.21C237.22,109.86,235.05,133.33,233.92,137.4Z"/><path class="cls-22" d="M233.92,137.4c-1.14,4.06-2.38,32.16-4.23,39.37s-.55,23.15-.55,23.15a13,13,0,0,1-1.68-.15c-2-6.9-2.7-17.4-.56-21.88,3-6.28,2.5-19.71,3.53-27.86s.72-12.35,3.48-23.6-1.83-22.67-1.94-22.94c.94-1.36,1.95-1.21,1.95-1.21C237.22,109.86,235.05,133.33,233.92,137.4Z"/><path class="cls-15" d="M244.08,94.62l-1.5,20.61-.14,1.86s-1.1-8-5.36-7.06a3.5,3.5,0,0,0-2.78,2.58,8.34,8.34,0,0,0,0,3.88c-.23-.52-5.43-12.31-1.1-18.09A10,10,0,0,1,244.08,94.62Z"/><path class="cls-37" d="M244.08,94.62l-1.5,20.61c-1.85-4.26-6.15-14.8-4.8-17.36,1.72-3.23,0-2.66,0-2.66-7.73,5.81-3.7,16.83-3.48,17.4a8.34,8.34,0,0,0,0,3.88c-.23-.52-5.43-12.31-1.1-18.09A10,10,0,0,1,244.08,94.62Z"/><path class="cls-38" d="M256.15,98.4s-11.86,11.13-13.71,18.69c0,0-3.69-15.37-3.32-19.43,0,0,1.7-2.14,1.5-7.27,0,0,10.76-1.47,15.52-8.86a26.27,26.27,0,0,0-1.44,5.63,21.41,21.41,0,0,0,.14,7.46h0A15,15,0,0,0,256.15,98.4Z"/><path class="cls-7" d="M256.15,98.4s-11.86,11.13-13.71,18.69c0,0-3.69-15.37-3.32-19.43,0,0,1.7-2.14,1.5-7.27,0,0,10.76-1.47,15.52-8.86a26.27,26.27,0,0,0-1.44,5.63,44.42,44.42,0,0,1-8.55,5.07c-4.75,2-4.56,15.11-1.66,13.62s3.9-11.23,10.35-11.23h0A15,15,0,0,0,256.15,98.4Z"/><path class="cls-39" d="M247.2,79.49a14.83,14.83,0,0,1-.86,2.09,13.33,13.33,0,0,1-2.65,3.76,6.77,6.77,0,0,1-4.88,2,8.15,8.15,0,0,1-4.9-1.61,9.39,9.39,0,0,1-3.48-6.29Z"/><path class="cls-15" d="M247.2,79.49a14.83,14.83,0,0,1-.86,2.09c-3.09.23-13.56.94-14.4-.07-1-1.18-.46-2-.46-2Z"/><path class="cls-13" d="M243.7,85.32a0,0,0,0,1,0,0,6.77,6.77,0,0,1-4.88,2,8.15,8.15,0,0,1-4.9-1.61s2.27-1,3.87,0C237.78,85.78,241.1,83.74,243.7,85.32Z"/><path class="cls-36" d="M275.07,191.19c-.08.61-1.82,1.54-4.37,2.58h0c-6.76,2.76-19.15,6.24-20.86,6.14-2.36-.14-4.58-15.11-4.72-19.82s-5.12-40.21,0-53.79a125.65,125.65,0,0,1,13.59-25.37c3.67,1.45,5.55,5.68,5.55,5.68,1.53,7.88,1,16.41,0,23.35a79.67,79.67,0,0,1-3,13.25c-1.53,4.3-.84,9.57,3.18,17.33S275.35,189,275.07,191.19Z"/><path class="cls-22" d="M275.07,191.19c-.08.61-1.82,1.54-4.37,2.58,2.92-12.19-16.3-45.34-13.11-50s6.08-15.39,6.08-15.39l.57,1.55a79.67,79.67,0,0,1-3,13.25c-1.53,4.3-.84,9.57,3.18,17.33S275.35,189,275.07,191.19Z"/><path class="cls-40" d="M222.15,170.38l4.17,2.11a1.07,1.07,0,0,1,.54,1.25l-.18.63a1.08,1.08,0,0,1-1.41.7l-4.16-1.59Z"/><path class="cls-40" d="M251,176.55,264.28,172a1.11,1.11,0,0,1,1.42.73l.45,1.48a1.11,1.11,0,0,1-.75,1.39L252,179.46a1.11,1.11,0,0,1-1.31-.59l-.37-.8A1.11,1.11,0,0,1,251,176.55Z"/><path class="cls-24" d="M248.84,334.52a42.52,42.52,0,0,1,2.27,8.51c.91,5.31-1.83,6.53-3,7.29s-6.08,2-8.81-.76,2-8.28,3.26-14.17Z"/><path class="cls-33" d="M248.83,339.84c-.15,2.88-3.34,6.53-5.63,5s-1.66-3.28-.51-10.42a53.93,53.93,0,0,0,0-14.62l6.14,1a17.77,17.77,0,0,0-.3,2.2c-.41,4.83.22,12.11.3,15.59C248.85,339.06,248.85,339.51,248.83,339.84Z"/><path class="cls-33" d="M269.71,175.69c-.91-.09-1-.5-.33-2.24s1.74-3.38,1.53-3.59-4.34,4.54-5.54,3.92.65-2.43,1.36-3.17a25.07,25.07,0,0,0,2.56-2.61,34.92,34.92,0,0,0-3.08,2.42,0,0,0,0,0,0,0,22,22,0,0,1-3.06,2.28c-1,.38-2-.5,0-2.39,2.15-2,4.38-3.43,4.13-3.76s-5.7,4.17-6.56,3c-1-1.39,5.41-5.45,6.09-5.57A5.63,5.63,0,0,1,269,164a1.14,1.14,0,0,1,.43.18,15.12,15.12,0,0,1,1.25,1,15.85,15.85,0,0,1,1.19,1.11c.17.17.29.31.36.39a11.82,11.82,0,0,1,.71,3C273.05,170.61,270.62,175.77,269.71,175.69Z"/><path class="cls-33" d="M283.35,152.74a109.72,109.72,0,0,1-11.53,13.55c-.43.32-1-.1-1.59-.65A11.17,11.17,0,0,1,269,164a89.39,89.39,0,0,0,6.3-9.09c3-5.06,4.3-10,5.06-11.14a44.87,44.87,0,0,1-3.8-4.56c-1-1.6,4.31-4.55,5.74-3.37a8.92,8.92,0,0,1,1.44,1.75,47,47,0,0,1,3.2,5.73C287.73,145.15,286.81,147.68,283.35,152.74Z"/><path class="cls-15" d="M262.78,102.09c-.36,3.79-9.38,12.54-9.79,12.93.11-.25,1.9-4.14-1.86-6.46a2.5,2.5,0,0,0-2.83.22c-2.94,1.87-5.65,7.85-5.85,8.28,1.86-9.41,10.35-22.55,12.39-22.44a6.85,6.85,0,0,1,2.33.76C259.76,96.61,263.05,99.24,262.78,102.09Z"/><path class="cls-41" d="M250.33,68.56A1.66,1.66,0,1,0,252,66.89,1.66,1.66,0,0,0,250.33,68.56Z"/><path class="cls-41" d="M227.1,67.81a1.67,1.67,0,1,0,1.66-1.66A1.66,1.66,0,0,0,227.1,67.81Z"/><path class="cls-42" d="M241.48,73.56a4.87,4.87,0,0,1-1.51,3,2.05,2.05,0,0,1-2.64.28c-1.83-1.24-.43-2.34.89-4.33s.52-5.13,2.2-5.06c.59,0,.94.46,1.12,1.11a0,0,0,0,0,0,0A16,16,0,0,1,241.48,73.56Z"/><path class="cls-43" d="M255.48,64.42a4.63,4.63,0,0,0-4.08-.84c-2.12.77-2.46-3,.95-2.77s5.72,2.52,5,3.61S256.4,65,255.48,64.42Z"/><path class="cls-43" d="M226.25,64.42a4.65,4.65,0,0,1,4.09-.84c2.11.77,2.45-3-1-2.77s-5.72,2.52-5,3.61S225.33,65,226.25,64.42Z"/><path class="cls-7" d="M257.59,66.05A13.74,13.74,0,0,1,252,54.76a5.64,5.64,0,0,1-4.37-3.66s-1,3.18-4.24,2.76c0,0-1.22,2.24-6.69,2.07,0,0-.52,1.35-2.78,1.42,0,0-6.63,9.94,0,22.82s17,6.18,22.24,1.34A13.24,13.24,0,0,1,251,86.77c-7.68,4.33-15.39,6.22-22-2.4a19.11,19.11,0,0,1-2.56-4.48,24.14,24.14,0,0,1-1.47-5.3c-1.58-9.55,1.81-19.31,1.81-19.31,3.33,2.73,7.4-1.51,7.4-1.51,5.17,1.77,8.87-2.32,8.87-2.32,4.33,0,5.58-4.23,5.72-4.76-1,4.22,6.11,6.24,6.11,6.24C252.31,59.77,257.34,65.75,257.59,66.05Z"/><path class="cls-7" d="M259.43,63.88l-1.83,2.18A3.76,3.76,0,0,1,259.43,63.88Z"/><path class="cls-44" d="M228.08,75.55A8.54,8.54,0,1,1,236.69,67,8.58,8.58,0,0,1,228.08,75.55Zm0-16a7.43,7.43,0,1,0,7.5,7.43A7.48,7.48,0,0,0,228.08,59.58Z"/><path class="cls-44" d="M252,75.55A8.54,8.54,0,1,1,260.6,67,8.58,8.58,0,0,1,252,75.55Zm0-16a7.43,7.43,0,1,0,7.5,7.43A7.48,7.48,0,0,0,252,59.58Z"/><path class="cls-44" d="M244.21,65.51c-5.38-3.25-8.19-.15-8.22-.11l-.83-.73s3.46-3.84,9.62-.11Z"/><path class="cls-45" d="M282.35,135.29a13.33,13.33,0,0,1-3,2.33,18.73,18.73,0,0,1-2.06,1,2.42,2.42,0,0,1-2.58-.44c-2.86-2.59-10.61-9.66-14.3-13.57-4.4-4.67-.33-15.11,2.14-17.24a1.79,1.79,0,0,1,.28-.22c2.42-1.53,4.93,1.52,9.65,10.53a78.09,78.09,0,0,0,9.93,14.37A2.4,2.4,0,0,1,282.35,135.29Z"/><path class="cls-22" d="M282.35,135.29a13.33,13.33,0,0,1-3,2.33,2.54,2.54,0,0,1,0-1.51c1.2-5.18-8.37-12.93-10.32-19s-6.16-8.3-6.16-8.3a4.77,4.77,0,0,0-.28-1.39,1.79,1.79,0,0,1,.28-.22c2.42-1.53,4.93,1.52,9.65,10.53a78.09,78.09,0,0,0,9.93,14.37A2.4,2.4,0,0,1,282.35,135.29Z"/><path class="cls-37" d="M257.17,95.38c-4.65,3.79-7.46,9.71-8.87,13.4-2.94,1.87-5.65,7.85-5.85,8.28,1.86-9.41,10.35-22.55,12.39-22.44A6.85,6.85,0,0,1,257.17,95.38Z"/><path class="cls-46" d="M248.83,339.84c-.15,2.88-3.34,6.53-5.63,5s-1.66-3.28-.51-10.42a53.93,53.93,0,0,0,0-14.62l6.14,1a17.77,17.77,0,0,0-.3,2.2s-3.43.08-3.28,1.28-1,6.88-1.41,11.67c-.41,4.43,2.13,10.32,5,2.64C248.85,339.06,248.85,339.51,248.83,339.84Z"/><path class="cls-7" d="M281.57,141.45c2.33,3.65,1.47,6.21-5.4,16.38a83.12,83.12,0,0,1-5.54,7.35l-.4.46c-1.5,1.77-2.77,3.14-4,4.78a0,0,0,0,0,0,0,22,22,0,0,1-3.06,2.28c-1,.38-2-.5,0-2.39,2.15-2,4.38-3.43,4.13-3.76s-5.7,4.17-6.56,3c-1-1.39,5.41-5.45,6.09-5.57A5.63,5.63,0,0,1,269,164a89.39,89.39,0,0,0,6.3-9.09c3-5.06,4.3-10,5.06-11.14a44.87,44.87,0,0,1-3.8-4.56c-1-1.6,4.31-4.55,5.74-3.37a8.92,8.92,0,0,1,1.44,1.75S279.23,137.81,281.57,141.45Z"/><path class="cls-19" d="M295.86,60c-1.66,8.15-7.39,7.23-7.39,7.23s4.44,3.1,2.77,7a5.39,5.39,0,0,1-5.52,3.34c.23.23,3,3,0,7.94-3.14,5.17-6.66,3.37-6.66,3.37,2.59,1.89-2.77,7.16-6.47,7s-3.88-4.15-3.88-4.15-.92,3.34-7.39,2.89C267.1,92.34,269,89,269,89s.51,5.14,4.12,3.22,3.1-6.17,3.1-6.17,3.55,4.09,6.8-.78-1.68-6.34-1.68-6.34,3.11.49,5.89-4.5c2.65-4.74-1.14-7-1.5-7.22.28.14,2.47.92,5.94-6.5,3.71-8-4.44-11.15-4.44-11.15,3.53-5.61,0-6.68,0-6.68s2.64-3.72-2.28-7.58-8.73,0-8.73,0c-.48-10.37-6.18-5.12-6.18-5.12a.75.75,0,0,1,.07-.12c.43-.69,2.63-3.94,5.28-2.28,2.94,1.84,2.18,5.54,2.18,5.54s3-4.07,8.55,0,3.32,8.32,3.32,8.32c3.33,5.36-.18,7.58-.18,7.58C291.43,48.86,297.53,51.82,295.86,60Z"/><path class="cls-19" d="M257.47,77.89a3.24,3.24,0,0,1,.17-1A9.6,9.6,0,0,1,257.47,77.89Z"/><path class="cls-19" d="M263.33,69.38c-1.33,5.05-3.62,5.74-4.79,5.73,5.93-9.25.89-11.23.89-11.23C261.65,62.76,264.69,64.21,263.33,69.38Z"/><path class="cls-20" d="M241.54,68.58c-.33-.36-1-.69-1.57,1.91-.74,3.54-4.6,6.13,0,6.09a2.05,2.05,0,0,1-2.64.28c-1.83-1.24-.43-2.34.89-4.33s.52-5.13,2.2-5.06C241,67.49,241.36,67.93,241.54,68.58Z"/><ellipse class="cls-1" cx="333.13" cy="330.52" rx="50.76" ry="10.48"/><path class="cls-47" d="M318.15,315.13s2.14,7.61.67,10.46-7.12,2.08-7.12,2.08l.09-2.36-2.52,2.3s-16.31,1.3-18.39-.72,8.09-6.22,11.94-7.7,2.65-7.48,2.65-7.48Z"/><path class="cls-48" d="M308.65,101.16c1.8-12.26,2.74-18.16,7.54-20.78s12.23-3.12,17.57-1.17,7.72,1.3,9.3,4.63-10.55,68.94-11.09,83,4.73,20.64-4.41,20.25-18.23.18-20.95-9-2.19-37.46-2.33-44.87S308.65,101.16,308.65,101.16Z"/><path class="cls-49" d="M305.5,194.34l-.15,3.83-.38,9.66s-2-.23-1.79-2.92a7,7,0,0,0-1.51-4.76,12.42,12.42,0,0,0-2.48,3.88c-.52,1.78-.14,5.77,2.08,6.4,1.54.44,1.81,1.61,1.53,2.21a.54.54,0,0,1-.62.35c-.89-.21-2.52-.1-3.3-1s-3.91-3.94-4.41-5.59a10.81,10.81,0,0,1-.41-7.42c1.06-3.93,1.64-5.87,1.64-5.87Z"/><path class="cls-7" d="M305.5,194.34l-.15,3.83a13.08,13.08,0,0,1-5.81-.61c-3-1.08-6.55,12,3.26,15.08a.54.54,0,0,1-.62.35c-.89-.21-2.52-.1-3.3-1s-3.91-3.94-4.41-5.59a10.81,10.81,0,0,1-.41-7.42c1.06-3.93,1.64-5.87,1.64-5.87Z"/><path class="cls-50" d="M305.91,91.48s-9.81,4.26-8.87,28.68-.3,56.32-5.43,69.67a20.9,20.9,0,0,0,16,6.28S310.79,102.47,305.91,91.48Z"/><path class="cls-10" d="M334.61,78.28a36,36,0,0,1-3,5.9c-2,3.12-4.87,6.22-8.2,5.77-6.47-.89-8.19-12.24-7.21-13.2s4.77-.77,3.56-8.87c0,0,4.49,2,14.13.55a16.21,16.21,0,0,0-.74,3.15C332.85,73.7,332.92,76.45,334.61,78.28Z"/><path class="cls-47" d="M370.61,324.87s3.8,6.05,8,9.47-.24,6.22-5.93,6.27-12.73,0-14.28-1.91,3.8-14.16,3.8-14.16Z"/><path class="cls-51" d="M375.86,321.77a20.44,20.44,0,0,1-3.51,2.28c-10.69,5.59-24.39,1.78-24.39,1.78.39-5.67-6.71-54.43-11.31-75.47s-8-50.42-8-50.42a8.7,8.7,0,0,0-8.7-1.43h0c-1.85,3.76.54,37.41,3,62.14s.39,53.92.39,53.92a27.65,27.65,0,0,1-5.17.55,35.36,35.36,0,0,1-17.66-4.69s8.68-56.82,5.86-81.58a251.7,251.7,0,0,1-.6-47.33L343.17,183l3.45.13c1,2.3,3.53,26.87,4.67,33.68s8.7,39.62,12.95,62.53A279.08,279.08,0,0,0,375.86,321.77Z"/><path class="cls-52" d="M323.32,314.58a27.65,27.65,0,0,1-5.17.55c8.24-20.3-1.58-66.37-1.54-89.37.05-22.28,3.09-27,3.28-27.24-1.85,3.76.54,37.41,3,62.14S323.32,314.58,323.32,314.58Z"/><path class="cls-52" d="M375.86,321.77a20.44,20.44,0,0,1-3.51,2.28c-6-10.57-9.91-34.39-14.23-60.29-5.11-30.66-16.48-76.56-17.5-77.15l2.55-3.62,3.45.13c1,2.3,3.53,26.87,4.67,33.68s8.7,39.62,12.95,62.53A279.08,279.08,0,0,0,375.86,321.77Z"/><polygon class="cls-47" points="332.95 173.92 313.05 173.15 312.71 181.8 334.24 182.64 332.95 173.92"/><path class="cls-53" d="M325.9,178.24a22.6,22.6,0,0,0-2,2.91c-1.63,2.57-3.65,5.84-3.63,5.42,0-.7-5.74-9.59-5.74-9.59l6.8-75.92.16-1.81,4.15.94.19,0v1C325.9,110.13,326.29,178.13,325.9,178.24Z"/><path class="cls-54" d="M348.83,153.79c-1.29,14.66-1,28,1.82,34.2,0,0-1.06,2.61-6.67,4.14-3.52,1-8.84,1.51-16.82.71,0,0-.43-44.62,1-63.88s18-41.9,13.28-47a29.41,29.41,0,0,1,7.69,4.63,27.84,27.84,0,0,1,5.2,5.62,21.06,21.06,0,0,1,.82,3.87c.66,4.75,1,14.07-2.1,28.94-1.29,6.11-2.39,12.67-3.23,19.2v.05C349.45,147.49,349.11,150.67,348.83,153.79Z"/><path class="cls-50" d="M360.36,198.11a18.93,18.93,0,0,1-6-.74A33.7,33.7,0,0,1,344,192.13a35.42,35.42,0,0,1-3.36-2.74c2.86-5.13,6.21-20.07,8.21-35.6.41-3.16.76-6.35,1-9.49v-.05c1.63-18.52-7.21-24.66-6-36.53,1-9.8,3.74-14.85,7.8-15.58a6.73,6.73,0,0,1,2.74.1c1.62.37,10.13,4,12.91,34.81S360.36,198.11,360.36,198.11Z"/><path class="cls-54" d="M320.19,190.94s-11.38.28-17.06-2.47c0,0,4.3-25.65-.25-50.75s.7-47.37,7.35-52.44L314,91.69s-1.35,24.38,1.38,42.18S320.19,190.94,320.19,190.94Z"/><path class="cls-55" d="M320.19,190.85c0-1.85-.1-31.17-6.55-53.79C307,113.82,307,108,307,107.91l4.79-2.53-5.59-.21c-2.51-14.37,4.21-21.39,4.21-21.39l3.47,6.65,1.47,2.81c-1.63,5,1.22,40.66,3.29,54.12a178.5,178.5,0,0,1,1.4,19.45C320.38,178.39,320.21,189.72,320.19,190.85Z"/><path class="cls-52" d="M320,166.81c-1.19-10.2-2.72-21.94-4.48-31.68-4.07-22.53-1.68-44.7-1.68-44.7l1.47,2.81c-1.63,5,1.22,40.66,3.29,54.12A178.5,178.5,0,0,1,320,166.81Z"/><path class="cls-12" d="M359.17,218.26a1.48,1.48,0,0,0,1.92-.91c1-3,2.07-7.83-.41-12.17-2.06-3.62-6.18-6-12.24-7.2-5.41-1-9.57-.19-12.37,2.51-4.72,4.55-4,11.5-4,11.84a1.47,1.47,0,1,0,2.91-.45h0c0-.07-.5-5.8,3.13-9.28,2.07-2,5.36-2.57,9.77-1.73,5.18,1,8.62,2.93,10.24,5.76,1.88,3.31,1,7.31.16,9.8a1.47,1.47,0,0,0,.88,1.83Z"/><path class="cls-12" d="M373.58,223.89a59.62,59.62,0,0,1-2.94,19.61c-.59,1.79-1.19,3.31-1.71,4.51a7.53,7.53,0,0,1-5.16,4.35c-13.32,3-32.66-2.92-42.59-6.55a10.33,10.33,0,0,1-6.81-9.59,75.12,75.12,0,0,1,2.55-19.87,10.42,10.42,0,0,1,10.36-7.64c2.4.06,4.75.2,7,.4l2.09.2A129.85,129.85,0,0,1,368.66,217,7.59,7.59,0,0,1,373.58,223.89Z"/><path class="cls-49" d="M356,197.53c-.25.85-.51,1.64-.79,2.37-3.11,8.27-7.61,8.93-9.55,8.34-2.12-.63-.58-1.15-2.52-1.13s-.42-1.67-2.35-2.21a2.56,2.56,0,0,1-1.75-2.66,1.67,1.67,0,0,0,1.2-2.55c-1-2.17-2.36-.83-2.36-.83s-.72-3,1.37-4.21a17.61,17.61,0,0,0,3.81-3.23Z"/><path class="cls-7" d="M356,197.53c-.25.85-.51,1.64-.79,2.37h0a70.74,70.74,0,0,1-9.28-3.78c-3-1.7,2.43,5.66-2.78,11-1.95,0-.42-1.67-2.35-2.21a2.56,2.56,0,0,1-1.75-2.66,1.67,1.67,0,0,0,1.2-2.55c-1-2.17-2.36-.83-2.36-.83s-.72-3,1.37-4.21a17.61,17.61,0,0,0,3.81-3.23Z"/><path class="cls-56" d="M310.22,41.32c-.18,2.85-2.06,7.83-2.06,7.83-4.94-2.83-6.33-10.06-2.77-11.14a3.47,3.47,0,0,1,1.39-.15,3.7,3.7,0,0,1,2.7,1.88A6.86,6.86,0,0,1,310.22,41.32Z"/><path class="cls-57" d="M310.22,41.32c-.18,2.85-2.06,7.83-2.06,7.83-4.94-2.83-6.33-10.06-2.77-11.14a3.47,3.47,0,0,1,1.39-.15l0,.32a5.48,5.48,0,0,0-1.17,6.33c1.11,2.78,2.89-.8,3.84-4.77A6.86,6.86,0,0,1,310.22,41.32Z"/><path class="cls-44" d="M319.72,73.16s-7.35-.83-9.12,7.17c-1.21,5.46,1.94,10.15,6.29,14.69.44.29-2.75-9.49,5.6-5.29a22.59,22.59,0,0,1-4.85-6.88,9,9,0,0,1-.45-6.67A4.66,4.66,0,0,0,319.72,73.16Z"/><path class="cls-44" d="M323.41,90a14.91,14.91,0,0,1,1.52-.73A10.09,10.09,0,0,1,323.41,90Z"/><path class="cls-44" d="M333.21,93.91l0,0c-.05-7.25-5.52-5.87-8.25-4.72,5.5-3.13,9.68-10.94,9.68-10.94C332.79,76.23,333,73,333,73l.07,0c7.64,1.49,8.46,5.58,8.46,5.58C342.82,86.37,333.81,93.46,333.21,93.91Z"/><path class="cls-7" d="M333.15,71.58A55.43,55.43,0,0,0,324.23,73s.32,2-2.13,5.26,1.3,12.82,9.51,6c-2,3.12-4.87,6.22-8.2,5.77-6.47-.89-8.19-12.24-7.21-13.2s4.77-.77,3.56-8.87c0,0,4.49,2,14.13.55A16.21,16.21,0,0,0,333.15,71.58Z"/><path class="cls-58" d="M350.05,42.19q-.26,1.2-.45,2.34c-.93,5.17-1.29,9.3-3.81,13.33-2.89,4.63-7.31,10.15-14.66,11.22S314,68.27,309.68,63.5s-3.85-9.09-3.07-11.5,2.44-3.56,6.64-3.67a54.1,54.1,0,0,1,15,1.81c5.09,1.41,4.76,3,7.31,3.67l.28,0A11.71,11.71,0,0,0,340.06,52c2.78-1.78,3.78-6.76,5.12-13.2s2.24-8.86.56-14.34c-1.05-3.4-2.64-4.95-3.69-5.63a3.48,3.48,0,0,0-1.08-.51s0,0,0,0c-.08-.51-1.08-6.81,1.75-6.83a2.8,2.8,0,0,1,1,.19c.3.11.6.23.91.37a24,24,0,0,1,10.63,9.29C357.61,25.55,351.38,35.87,350.05,42.19Z"/><path class="cls-5" d="M345.79,57.86c-2.89,4.63-7.31,10.15-14.66,11.22S314,68.27,309.68,63.5s-3.85-9.09-3.07-11.5,2.44-3.56,6.64-3.67a54.1,54.1,0,0,1,15,1.81c5.09,1.41,4.76,3,7.31,3.67l.28,0-.45,1s-9-5.69-16.7-3.43-4.48,13.77,4.63,14.2S338.06,65.08,345.79,57.86Z"/><path class="cls-59" d="M323.08,58.77a14.79,14.79,0,0,0,6.73-1.33.54.54,0,1,0-.48-1A13.7,13.7,0,0,1,317.26,56a.54.54,0,0,0-.74.2.56.56,0,0,0,.2.74A13.87,13.87,0,0,0,323.08,58.77Z"/><path class="cls-49" d="M353.51,50.65c-1.71,3.58-3.75,4.51-5.36,4.57a4.93,4.93,0,0,1-2.77-.76,9.63,9.63,0,0,1,2.21-8.17c1.4-2.4,5.74-2.46,6.56.38A5.66,5.66,0,0,1,353.51,50.65Z"/><path class="cls-58" d="M309.3,40.05a22.91,22.91,0,0,0-.79-7.88c-1.21-4.92,1.57-13.62,6.29-16.82s2.48,1.07,2.48,1.07A19.82,19.82,0,0,0,311.47,28c-1.22,7.67.45,10.05-1.25,13.37Z"/><path class="cls-5" d="M309.3,40.05a22.91,22.91,0,0,0-.79-7.88c-1.21-4.92,1.57-13.62,6.29-16.82s2.48,1.07,2.48,1.07A19.82,19.82,0,0,0,311.47,28c-1.22,7.67.45,10.05-1.25,13.37Z"/><path class="cls-49" d="M346.8,35.42c-.49,3.53-1.18,8.69-2.93,12.8a14.17,14.17,0,0,1-2.57,4.14,7.15,7.15,0,0,1-5.95,2.38,15.67,15.67,0,0,0-4.76-3,.51.51,0,0,0-.15-.07c-4.27-1.83-11.54-3.51-22.62-1.79,0,0,.34-.69.78-1.89a31.66,31.66,0,0,0,1.52-6,23.8,23.8,0,0,0,0-7.4c-1.32-7.91,3.44-15.44,6.38-17.76s16.22-4.84,24.31.31S347.75,28.55,346.8,35.42Z"/><path class="cls-7" d="M346.8,35.42c-.49,3.53-1.18,8.69-2.93,12.8a14.17,14.17,0,0,1-2.57,4.14,7.15,7.15,0,0,1-5.95,2.38s7.35-1,9.83-17.92-1.85-16.53-6.32-18-5.33-2.56-10.27-.87-4.94.87-6.49,1.94-5.63,11.34-3.64,17.91-2.51,10-2.51,10a46.31,46.31,0,0,1,14.49,3.87c-4.27-1.83-11.54-3.51-22.62-1.79,0,0,.34-.69.78-1.89a31.66,31.66,0,0,0,1.52-6,23.8,23.8,0,0,0,0-7.4c-1.32-7.91,3.44-15.44,6.38-17.76s16.22-4.84,24.31.31S347.75,28.55,346.8,35.42Z"/><g class="cls-60"><path class="cls-13" d="M333.81,49.24c-.07,1.74,2.24,3.23,5.17,3.35a8.24,8.24,0,0,0,2.32-.23,14.17,14.17,0,0,0,2.57-4.14,6.29,6.29,0,0,0-4.64-1.91C336.3,46.2,333.87,47.52,333.81,49.24Z"/><path class="cls-13" d="M308.6,48a9.15,9.15,0,0,0,1.95.3c2.91.11,5.34-1.2,5.4-2.93s-2.24-3.23-5.16-3.35a5,5,0,0,0-.67,0A31.66,31.66,0,0,1,308.6,48Z"/></g><path class="cls-58" d="M345,14.69c0,2.1-.71,3.72-1.89,4.09h0a1.69,1.69,0,0,1-1,0,2.92,2.92,0,0,1-1.08-.51s0,0,0,0-.84-.56-6.55-2.13c-6.86-1.88-12.31,3.32-19.6-.76s-4-13.16.57-14.74,2.52,1.32,6.3,1.74c2.54.28,8.78-.09,14.05,1.39h0a12.54,12.54,0,0,1,6.45,3.73A12,12,0,0,1,344.57,12,10,10,0,0,1,345,14.69Z"/><path class="cls-59" d="M335.24,41.2a1.63,1.63,0,1,0,1.69-1.56A1.62,1.62,0,0,0,335.24,41.2Z"/><path class="cls-59" d="M313.65,38.11a1.63,1.63,0,1,0,1.69-1.56A1.64,1.64,0,0,0,313.65,38.11Z"/><path class="cls-13" d="M326.54,42.85a5.8,5.8,0,0,1-2.28,3.84,2.43,2.43,0,0,1-3,0c-2.19-1.62-.42-2.91,1.3-5.28s.88-6.28,3-6.11a1.43,1.43,0,0,1,1.24,1.12v0C327.3,38,326.85,40.83,326.54,42.85Z"/><path class="cls-61" d="M341.22,35.93s-2.53-2.23-5.36-1.32-3.09-4.16,1.4-3.62,7.45,3.63,6.49,5S342.4,36.71,341.22,35.93Z"/><path class="cls-61" d="M314.47,33.14a5,5,0,0,1,4.42-.73c2.24.92,2.76-3.17-.91-3s-6.25,2.47-5.56,3.67S313.46,33.7,314.47,33.14Z"/><path class="cls-7" d="M335.73,55.22a13.33,13.33,0,0,1,1,1A9.36,9.36,0,0,1,335.73,55.22Z"/><path class="cls-7" d="M354.15,46.67c-.69-.58-1.92-.82-3.92,1.14-2.6,2.54-3.23,5.94-2.08,7.41a4.93,4.93,0,0,1-2.77-.76,9.63,9.63,0,0,1,2.21-8.17C349,43.89,353.33,43.83,354.15,46.67Z"/><path class="cls-5" d="M343.07,18.78a2.37,2.37,0,0,1-2.1-.51s.31-.27-6.56-2.16-12.31,3.32-19.6-.76-4-13.16.57-14.74,2.52,1.32,6.3,1.74c2.54.28,8.78-.09,14.05,1.39,0,0-12.32-1.56-15.07,2.69s1.52,8.08,11.88,7.73A13.47,13.47,0,0,1,343.07,18.78Z"/><path class="cls-53" d="M329.71,97.46a13.82,13.82,0,0,1-3.87,3.73l-.13.08a6.17,6.17,0,0,1-2,.28,6.83,6.83,0,0,1-2.36-.45l0,0a14.24,14.24,0,0,1-3.19-3.41,4.45,4.45,0,0,1,0-4.77,10.69,10.69,0,0,1,5.25-4.25l1.84.49.58.16s1.68.52,4,4A3.64,3.64,0,0,1,329.71,97.46Z"/><path class="cls-6" d="M370.64,243.5c-.59,1.79-1.19,3.31-1.71,4.51a7.53,7.53,0,0,1-5.16,4.35c-13.32,3-32.66-2.92-42.59-6.55a10.33,10.33,0,0,1-6.81-9.59,75.12,75.12,0,0,1,2.55-19.87,10.42,10.42,0,0,1,10.36-7.64c2.4.06,4.75.2,7,.4-2.69.33-7.3,3-9.67,16.68C321.27,245.32,350.41,245.3,370.64,243.5Z"/><path class="cls-22" d="M329.71,97.46a13.82,13.82,0,0,1-3.87,3.73c.06,8.94.45,76.94.06,77.05a22.6,22.6,0,0,0-2,2.91l-.26-79.56.09,0a7,7,0,0,0,3.91-5.67c.2-2.35-1.16-4.93-2.41-6.76l.58.16s1.68.52,4,4A3.64,3.64,0,0,1,329.71,97.46Z"/><path class="cls-62" d="M333.21,93.91c.27-.26,2.56-2.58,5.65-10.13S334,73.27,333.09,73c7.64,1.49,8.46,5.58,8.46,5.58C342.82,86.37,333.81,93.46,333.21,93.91Z"/><path class="cls-19" d="M345.19,81.72h0Z"/><path class="cls-52" d="M360.36,198.11a18.93,18.93,0,0,1-6-.74c6.15-11.58,9.88-37,9.88-64.81,0-23.25-5.51-32.75-9-36.45a9,9,0,0,0-2.88-2.2,5.79,5.79,0,0,0-.68-1.77,12.78,12.78,0,0,0-3-3.51l.52-2a27.84,27.84,0,0,1,5.2,5.62c1.62.37,10.13,4,12.91,34.81S360.36,198.11,360.36,198.11Z"/><path class="cls-55" d="M341.67,108.3l-4.8-1.58,3.79,3.23,2.2,1.88s-3.42,2.22-8,16.85c-4.33,13.94-7.44,59.59-7.72,63.84,0,.11,0,.22,0,.32s-1.18-58.73.37-70S341.71,93,341.65,80.55a8.93,8.93,0,0,1,3.53,1.17h0A11,11,0,0,1,350,87.34s1.91,8.77-5.66,21.84Z"/><path class="cls-52" d="M340.66,110l2.2,1.88s-3.42,2.22-8,16.85c-4.33,13.94-7.44,59.59-7.72,63.84C328.14,173.76,328.28,131.14,340.66,110Z"/><path class="cls-52" d="M344.35,109.18l-2.68-.88C354.89,88,345.54,82,345.19,81.73A11,11,0,0,1,350,87.34S351.92,96.11,344.35,109.18Z"/><path class="cls-19" d="M350.05,42.19q-.26,1.2-.45,2.34v0c-1.06-9.82,3.88-14.32,3.56-20.83-.24-4.83-5.15-8-8.19-9-1.06-.36-1.77-.53-1.77-.53a8.59,8.59,0,0,0-.49-2.75c-1.6-4.61-6.59-7.46-7-7.66a12.54,12.54,0,0,1,6.45,3.73A12,12,0,0,1,344.57,12a24,24,0,0,1,10.63,9.29C357.61,25.55,351.38,35.87,350.05,42.19Z"/><path class="cls-20" d="M326.78,36.44c-.41-.53-1.23-1.13-1.5,1.74-.38,3.92-4.83,7.94-1,8.51a2.43,2.43,0,0,1-3,0c-2.19-1.62-.42-2.91,1.3-5.28s.88-6.28,3-6.11A1.43,1.43,0,0,1,326.78,36.44Z"/><ellipse class="cls-1" cx="64.93" cy="330.75" rx="54.01" ry="10.48"/><path class="cls-63" d="M91.7,312.28a17.16,17.16,0,0,1-2.4,2c-7.87,5.45-15.36-.59-15.36-.59-3.94-9.17-2.36-43.32-5.52-59.11-2.74-13.7-4.37-44.79-4.75-52.72-.06-1.21-.09-1.88-.09-1.88l2.2-30.52.4-5.48.18,0,12.15-2.11,4.59-.8a23.64,23.64,0,0,1,.56,3.4c1.77,15.59,3,71.83,3.91,81.86C88.57,257.36,91.7,312.28,91.7,312.28Z"/><path class="cls-22" d="M91.7,312.28a17.16,17.16,0,0,1-2.4,2C88,298,85,247.25,84.08,218.35c-.9-27.21-1-48.53-2.1-56.49l1.12-.8a23.64,23.64,0,0,1,.56,3.4c1.77,15.59,3,71.83,3.91,81.86C88.57,257.36,91.7,312.28,91.7,312.28Z"/><path class="cls-64" d="M46.15,323.54s-2.35,4.46-6.72,4.58l-1.17-4.47-1.75,5.08A27.09,27.09,0,0,1,29.77,334c-2.39,1.25-5.1,1.94-7.57.88-6.36-2.74-2-10.78,4.36-12.61s9.87-13.95,9.87-13.95l10.35,5.56a22.12,22.12,0,0,0-.94,4.54A13.94,13.94,0,0,0,46.15,323.54Z"/><path class="cls-64" d="M106.36,333.53A34.5,34.5,0,0,1,89.2,332l-1-3.57-.64-2.4L87,328.29l-.77,2.76s-5.47,1-9.94-1.75c0,0-1.55-10.32,2.46-13.24,3.27-2.39,7.42-1.53,8.82-1.14l.49.15a2.8,2.8,0,0,0-.44,1.49v0c0,1.13.76,2.66,4.1,3.77C97.66,322.34,108.85,322.84,106.36,333.53Z"/><path class="cls-6" d="M87.55,314.92l0,1.64v0s-6.89,1-7.78,7.47c-.37,2.68,2.78,3.6,7.16,4.24l-.77,2.76s-5.47,1-9.94-1.75c0,0-1.55-10.32,2.46-13.24C82,313.67,86.15,314.53,87.55,314.92Z"/><path class="cls-26" d="M106.36,333.53A34.5,34.5,0,0,1,89.2,332l-1-3.57C94.27,329.26,102.05,329.82,106.36,333.53Z"/><path class="cls-6" d="M46.78,313.88a22.12,22.12,0,0,0-.94,4.54s-5.53,1.79-8.4,1.07-6.69,4-10.45,7.16-3.32,7.91,2.78,7.35c-2.39,1.25-5.1,1.94-7.57.88-6.36-2.74-2-10.78,4.36-12.61s9.87-13.95,9.87-13.95Z"/><path class="cls-26" d="M85.29,5.81c-.3,2.37-1.49,10.6-1.49,10.6s-.83.17-2.09.36c-3.46.55-10.16,1.34-12.11-.36a1.77,1.77,0,0,0-.71-.4c-2.36-.68-4.56,5.27-10,4.2C53,19,53,25.83,55.39,33.91s-3.25,11.45-4.73,7a16,16,0,0,0-4.93-7S43.85,23.46,40,18.73,37.93,8.07,57.46,2.15C66.78-.67,73.59-.33,78.14,1,83.12,2.4,85.39,5,85.29,5.81Z"/><path class="cls-19" d="M85.29,5.81c-.3,2.37-1.49,10.6-1.49,10.6s-.83.17-2.09.36C84.25,4,78.14,1,78.14,1,83.12,2.4,85.39,5,85.29,5.81Z"/><path class="cls-65" d="M62.86,6.68c-1.46,6.75-.89,8.88,5.07,8.57a.9.9,0,0,1,1,.76c-2.36-.68-4.56,5.27-10,4.2C53,19,53,25.83,55.39,33.91s-3.25,11.45-4.73,7a16,16,0,0,0-4.93-7S43.85,23.46,40,18.73,37.93,8.07,57.46,2.15C66.78-.67,73.59-.33,78.14,1,78.14,1,64.32-.07,62.86,6.68Z"/><path class="cls-66" d="M56.62,75.06c-1.47-3.17,1.11-7.63,2-8.24a2.75,2.75,0,0,1,1.8-.47s6.27.88,6.9.81a2.82,2.82,0,0,1,1.11.09,6.61,6.61,0,0,1,3,5.5c.23,4,3.68,8.51-1,10.2s-7.06,1.9-9.57-.62S56.62,75.06,56.62,75.06Z"/><path class="cls-67" d="M70.86,99.13a44.85,44.85,0,0,1-11.33-5.82,50.38,50.38,0,0,1-14.2-15.19c.5-.42,1-.79,1.4-1.13a19.48,19.48,0,0,1,4.53-2.94C69.81,68.51,76.9,79.4,76.9,79.4h0a.43.43,0,0,1,0,0,14.79,14.79,0,0,1,.55,1.67C80.4,91.84,70.86,99.13,70.86,99.13Z"/><path class="cls-33" d="M103.29,182.4c.11.3,1.91,4.95,3,7.41l.22.49s-.71.47-1.69-.58a1.73,1.73,0,0,1-1.77-.62s-.2.37-1.39-.6-2.44-2.6-3.91-3.88-3.5-5.3-4-8.32-1.33-6-2.46-7.24-9.93-12.95-11.48-23.69c0,0-.3-3.54,9.17-5.55,0,0,.27,3.34,1.09,7.84A68.56,68.56,0,0,0,93.37,160c3.48,9,4.14,10.69,5.73,12s4.41,1.86,5.12,2.37,2.47,2.9,3.63,3.44-.57,1.45-1.88.9-3.06-1.15-3.06-1.15a29.88,29.88,0,0,1,2.35,2.59c.53.8,2.55,5.77,4.64,7.58C111,188.7,107.73,188.74,103.29,182.4Z"/><path class="cls-7" d="M106.49,190.3s-.71.47-1.69-.58a1.73,1.73,0,0,1-1.77-.62s-.2.37-1.39-.6-2.44-2.6-3.91-3.88-3.5-5.3-4-8.32-1.33-6-2.46-7.24-9.93-12.95-11.48-23.69c0,0-.3-3.54,9.17-5.55,0,0,.27,3.34,1.09,7.84L88,151.1s-1.16,8.09,1,10.54,6.87,13.39,8.2,16.25c1.16,2.49,4.82,8.87,9,11.92Z"/><path class="cls-68" d="M73.59,140l16.13-8.67A3,3,0,0,1,93.93,133l1.22,3.54a3,3,0,0,1-1.58,3.67L77.3,147.55a3,3,0,0,1-3.9-1.42l-1.08-2.26A3,3,0,0,1,73.59,140Z"/><path class="cls-69" d="M89.72,131.31S83.65,115.39,82,92.23l-5.5,46.21Z"/><path class="cls-70" d="M68.42,164.67,68,169.38,67,182c-.47,3.3-1.85,11.06-3.36,19.88-2.1,12.19-4.45,26.44-5,33.8,0,.68-.09,1.3-.11,1.85-.39,10.95-2.76,32.07-4.07,43.12s-4.93,34.11-4.93,34.11a18.71,18.71,0,0,1-3.31,1,12.4,12.4,0,0,1-8.38-1,13.09,13.09,0,0,1-5.54-5.72c2.57-11.84,6.5-64.72,8.28-91.16s7.77-60.07,7.77-60.07l18,6.14Z"/><path class="cls-22" d="M58.66,235.68c0,.68-.09,1.3-.11,1.85-.39,10.95-2.76,32.07-4.07,43.12s-4.93,34.11-4.93,34.11a18.71,18.71,0,0,1-3.31,1Z"/><path class="cls-71" d="M83.66,164.46A36.61,36.61,0,0,1,68,169.38c-.74.06-1.49.09-2.26.1a38.4,38.4,0,0,1-6.21-.4s-5.67-1.86-6.34,15.08c-.47,12.14-10,88.38-15.37,130.62a13.09,13.09,0,0,1-5.54-5.72c2.57-11.84,6.5-64.72,8.28-91.16s7.77-60.07,7.77-60.07l18,6.14,16.74-2.91A23.64,23.64,0,0,1,83.66,164.46Z"/><path class="cls-67" d="M84.6,160.6c-18.35,12.55-36.79-2.87-36.79-2.87s6.6-14.8,7.19-29.8S38.63,94,40.8,87.29s4.53-9.17,4.53-9.17L46.73,77a43.66,43.66,0,0,0,12,13.67,45.05,45.05,0,0,0,12.13,6.69c6.77-6.57,6.9-13,6.46-16.1a10.47,10.47,0,0,0-.4-1.78.43.43,0,0,0,0,0s.23.3,1,1.37l2.32,3.11c3.35,4.5,5,28.08,5.91,39.89A171.59,171.59,0,0,1,84.6,160.6Z"/><path class="cls-37" d="M84.6,160.6c-18.35,12.55-36.79-2.87-36.79-2.87s6.6-14.8,7.19-29.8S38.63,94,40.8,87.29s4.53-9.17,4.53-9.17c.5-.42,1-.79,1.4-1.13a19.48,19.48,0,0,1,4.53-2.94C69.81,68.51,76.9,79.4,76.9,79.4h0s.23.3,1,1.37l-.47.35-.15.11L73.78,83.9s-.32-10.33-7.44-1.6c0,0-3.26-7.62-4.52,1.92,0,0-1.92,2.58-4.25,1.06-1.1-.71,0,1.66,1.16,5.38.27.82.54,1.71.8,2.65,1,3.83,1.86,8.44.92,12.53-2.22,9.59,6.29,28.87,1.37,45.39S73.63,165.44,84.6,160.6Z"/><g class="cls-72"><path class="cls-73" d="M66.34,82.29h0A1.5,1.5,0,0,0,67.63,82c1.86-1.63,2-4.1,1.86-5.71C67.7,77.81,66.42,82,66.34,82.29Z"/><path class="cls-73" d="M60.79,77.23c1.75,2.46,3.9,4.78,5.54,5.07-.09-.35-1.59-5.52-3.47-7C62.05,74.6,61.34,75.7,60.79,77.23Z"/></g><path class="cls-15" d="M50.46,71.31c.8,6.51,9.08,11,9.08,11a31.69,31.69,0,0,1,1.25-5.07c.55-1.53,1.26-2.63,2.07-2,1.88,1.53,3.38,6.7,3.47,7h0v0c-1.3-7.91-3.48-7-5.9-10.12a4.4,4.4,0,0,1,0-5.78C58,65.93,49.67,64.8,50.46,71.31Z"/><path class="cls-15" d="M66.34,82.27v0c.08-.29,1.36-4.48,3.15-6a1.67,1.67,0,0,1,2.28-.21c3,2.16,2,7.85,2,7.85s6.15-13-5.62-16.74c0,0,.75,4.38,1,7.5A16,16,0,0,0,66.34,82.27Z"/><path class="cls-12" d="M47.88,182.08s5.15,2.47,3.77,13.32L56,196s2.75-17.35-9.47-19.13c0,0-3.94-2.37-4.33,1.78s2,3.77,3.54,2.67Z"/><path class="cls-12" d="M34.86,180.86s-4.1,1.11-5.21,11.23l-4-.4s.17-16.3,11.62-15.26c0,0,4.08-1.29,3.53,2.54s-2.59,3-3.79,1.66Z"/><path class="cls-33" d="M47.88,182.08s-.6.77-1.37,2-3.12,1.07-5,1.23c0,0-.67,1.22-2.67,0,0,0-.61.76-2.3-.46,0,0,.11.46-1.1-1.23s1.25-7.68.64-9.83-12.13-31.22-8.3-39.31,13.36.21,11.06,5.71a25.77,25.77,0,0,0-.5,4.67c-.21,4.59,0,13,2,26.78a11.07,11.07,0,0,0,3.61,2.15c2.6,1.08,2.6,3.07,2.6,3.07a14.56,14.56,0,0,0-2.6,0c-.63.15-1.06,4,0,4.45a2,2,0,0,0,1.81,0A2.83,2.83,0,0,1,47.88,182.08Z"/><path class="cls-7" d="M41.5,185.31s-.67,1.22-2.67,0c0,0-.61.76-2.3-.46,0,0,.11.46-1.1-1.23s1.25-7.68.64-9.83-12.13-31.22-8.3-39.31,13.36.21,11.06,5.71a25.77,25.77,0,0,0-.5,4.67s-4.81-2.77-5.12-1.93-1.9,11.86,2.56,22.18S36.76,184.18,41.5,185.31Z"/><path class="cls-68" d="M43.32,137.81,42.06,140a3,3,0,0,1-4,1.1l-3.17-1.76-12.45-6.9a3,3,0,0,1-1.28-3.78l1.5-3.44A3,3,0,0,1,27,123.9l14.3,9.23,1.08.7A3,3,0,0,1,43.32,137.81Z"/><path class="cls-31" d="M54.48,102.77c-9,6.54-11.34,20-11.92,26.87-.21,2.56-.19,4.19-.19,4.19L27,123.9C39.62,83.37,42,80.3,48.42,86.3a15.22,15.22,0,0,1,1.93,2.19l0,0C54.79,94.56,54.48,102.77,54.48,102.77Z"/><path class="cls-12" d="M74.47,227.64c0,.92,0,1.81-.09,2.65a10.19,10.19,0,0,1-9.26,9.77c-28.38,2.38-48.79-4.84-59.34-10A10.21,10.21,0,0,1,.79,217c2.9-6.94,6.53-14.46,9.07-19.57a11,11,0,0,1,10.18-6q3,.1,5.93.32a270.65,270.65,0,0,1,38.61,5.87,10.91,10.91,0,0,1,8.27,8.26C74.41,212.73,74.63,221.06,74.47,227.64Z"/><path class="cls-38" d="M69.49,76.26c-1.78,1.54-3,5.67-3.15,6v0h0c-.09-.34-1.59-5.52-3.47-7-.81-.65-1.52.45-2.07,2-1.89-2.63-3.32-5.41-3.22-6.12a9.58,9.58,0,0,0,1.8-2,5.9,5.9,0,0,0,1.07-2.77c.29-2.73.33-7.7.33-7.7L68.62,61a20.19,20.19,0,0,0-.32,2.32,33.87,33.87,0,0,0-.14,3.89,31.26,31.26,0,0,0,.48,4.93c.14.83.33,1.7.56,2.57A10,10,0,0,1,69.49,76.26Z"/><path class="cls-7" d="M69.49,76.26c-1.78,1.54-3,5.67-3.15,6v0h0c-.09-.34-1.59-5.52-3.47-7-.81-.65-1.52.45-2.07,2-1.89-2.63-3.32-5.41-3.22-6.12a9.58,9.58,0,0,0,1.8-2,5.9,5.9,0,0,0,1.07-2.77c.29-2.73.33-7.7.33-7.7L68.62,61a20.19,20.19,0,0,0-.32,2.32s-2.11-.1-3.75-.34-2.28,6-1,8.65,2.21,4.65,4.84.77a1.88,1.88,0,0,1,.22-.26c.14.83.33,1.7.56,2.57A10,10,0,0,1,69.49,76.26Z"/><path class="cls-33" d="M87.91,40.16a33.46,33.46,0,0,1-1,6.8,20.27,20.27,0,0,1-5.32,9.45,19.45,19.45,0,0,1-3.46,2.71c-11.94,7.38-25-3.93-25.25-12.56,0,0-4.74,2.39-8-5.62s4.14-9.66,7.1-3.06c0,0,2.66.8,2.37-.59S49,21.39,55.2,18.14s5.63,2.47,10.8-1.73,6.36,2.42,11.1,0,7.1,0,7.1,0,.33.9.79,2.45h0c.2.67.43,1.46.66,2.35.44,1.67.91,3.7,1.32,6,.15.82.29,1.68.4,2.56A53.22,53.22,0,0,1,87.91,40.16Z"/><circle class="cls-41" cx="83.02" cy="34.63" r="1.78"/><circle class="cls-41" cx="60.44" cy="35.89" r="1.78"/><path class="cls-26" d="M87.9,29a1.56,1.56,0,0,1-.53.71c-.31.17-.65,0-1.17-.31l-.32-.16a5,5,0,0,0-4.44-.36c-2.14,1.08-3-2.92.66-3.07A8.34,8.34,0,0,1,86,26.6a5.68,5.68,0,0,1,1,.57C87.78,27.78,88.15,28.48,87.9,29Z"/><path class="cls-26" d="M56.58,30.05A5,5,0,0,1,61,29.68c2.14,1.08,3-2.92-.66-3.06S54,28.56,54.56,29.8,55.54,30.52,56.58,30.05Z"/><g class="cls-74"><ellipse class="cls-35" cx="58.67" cy="45.26" rx="5.79" ry="3.43"/><path class="cls-35" d="M87.91,40.16a33.46,33.46,0,0,1-1,6.8,9.27,9.27,0,0,1-2.1-.27c-2.07-.52-3.52-1.73-3.52-3.15,0-1.68,2-3.07,4.69-3.37a9.87,9.87,0,0,1,1.1-.06A6.4,6.4,0,0,1,87.91,40.16Z"/></g><path class="cls-39" d="M66.34,48.83A13.19,13.19,0,0,0,69.44,54v0a6,6,0,0,0,4.33,1.81,7.22,7.22,0,0,0,4.35-1.41h0a8.48,8.48,0,0,0,3.1-5.6Z"/><path class="cls-15" d="M66.34,48.83a12.13,12.13,0,0,0,.75,1.86c2.74.2,12.06.84,12.81-.06.88-1.06.41-1.8.41-1.8Z"/><path class="cls-13" d="M69.44,54v0a6,6,0,0,0,4.33,1.81,7.22,7.22,0,0,0,4.35-1.41h0s-2-.91-3.43,0C74.71,54.42,71.75,52.6,69.44,54Z"/><path class="cls-42" d="M73,43.49c-2.57-1.78-2.54-9.33-1.17-10.75A1.82,1.82,0,0,1,73.39,32a2,2,0,0,1,1.34,1.89c.12,1.77,0,4.34,2.17,7.1a3,3,0,0,1,.51.9C78.05,43.9,75.19,45,73,43.49Z"/><path class="cls-7" d="M85.65,21.22a5.25,5.25,0,0,0-6.05.23c-4.7,3.23-7.94-.75-10.07.37s-6.24,3-7.31,14.07C61.29,45.53,64.67,59,78.08,59.12c-11.94,7.38-25-3.93-25.25-12.56,0,0-4.74,2.39-8-5.62s4.14-9.66,7.1-3.06c0,0,2.66.8,2.37-.59S49,21.39,55.2,18.14s5.63,2.47,10.8-1.73,6.36,2.42,11.1,0,7.1,0,7.1,0S84.87,18.26,85.65,21.22Z"/><path class="cls-19" d="M87.91,40.16a33.46,33.46,0,0,1-1,6.8,20.27,20.27,0,0,1-5.32,9.45,19.45,19.45,0,0,1-3.46,2.71,26,26,0,0,0,6.68-12.43,45.48,45.48,0,0,0,1.17-6.52,66.87,66.87,0,0,0,.27-10.75c0-1-.11-1.93-.18-2.82a69.63,69.63,0,0,0-1-7.73c.2.67.43,1.46.66,2.35.44,1.67.91,3.7,1.32,6,.81.61,1.18,1.31.93,1.85a1.56,1.56,0,0,1-.53.71A53.22,53.22,0,0,1,87.91,40.16Z"/><path class="cls-37" d="M50.35,88.49c-.32-.24-4.5-3-9.53,11.84-5.25,15.43-9.92,24.43-5.92,26.43,1.89.95,4.89,1.76,7.66,2.88-.21,2.56-.19,4.19-.19,4.19L27,123.9C39.62,83.37,42,80.3,48.42,86.3A15.22,15.22,0,0,1,50.35,88.49Z"/><path class="cls-37" d="M41.29,133.13l-.47.33s-5.72-5.84-8.5-1.48c-1.47,2.32.23,5.05,2.57,7.34l-12.45-6.9a3,3,0,0,1-1.28-3.78l1.5-3.44A3,3,0,0,1,27,123.9Z"/><path class="cls-6" d="M74.47,227.64c0,.92,0,1.81-.09,2.65a10.19,10.19,0,0,1-9.26,9.77c-28.38,2.38-48.79-4.84-59.34-10A10.21,10.21,0,0,1,.79,217c2.9-6.94,6.53-14.46,9.07-19.57a11,11,0,0,1,10.18-6q3,.1,5.93.32c-3.27,5.83-12.73,21.12-6.87,28.77C25.24,228.46,54.55,234.77,74.47,227.64Z"/><path class="cls-20" d="M73,43.49c-2.57-1.78-2.54-9.33-1.17-10.75A1.82,1.82,0,0,1,73.39,32c-.65,2.18-1.25,5.55,0,8.09,1.49,3,2.3,3.26,4,1.8C78.05,43.9,75.19,45,73,43.49Z"/></g></g></svg>