<svg xmlns="http://www.w3.org/2000/svg" xmlns:xlink="http://www.w3.org/1999/xlink" viewBox="0 0 750 500"><defs><style>.cls-1,.cls-26,.cls-28{fill:none;}.cls-2{isolation:isolate;}.cls-3{clip-path:url(#clip-path);}.cls-4{fill:url(#Degradado_sin_nombre_40);}.cls-5{opacity:0.6;}.cls-11,.cls-14,.cls-16,.cls-18,.cls-30,.cls-5{mix-blend-mode:multiply;}.cls-6{fill:url(#Degradado_sin_nombre_27);}.cls-7{fill:url(#Degradado_sin_nombre_27-2);}.cls-8{fill:url(#Degradado_sin_nombre_27-3);}.cls-9{fill:url(#Degradado_sin_nombre_27-4);}.cls-10{fill:url(#Degradado_sin_nombre_27-5);}.cls-12{fill:url(#Degradado_sin_nombre_27-7);}.cls-13,.cls-14{fill:url(#Degradado_sin_nombre_26);}.cls-15,.cls-16{fill:url(#Degradado_sin_nombre_26-3);}.cls-17,.cls-18{fill:url(#Degradado_sin_nombre_26-5);}.cls-19{fill:url(#Degradado_sin_nombre_42);}.cls-20{fill:url(#Degradado_sin_nombre_42-2);}.cls-21{fill:url(#Degradado_sin_nombre_27-10);}.cls-22{opacity:0.7;}.cls-23{fill:#fff;}.cls-24{opacity:0.5;mix-blend-mode:soft-light;}.cls-25{clip-path:url(#clip-path-2);}.cls-26,.cls-28{stroke:#fff;stroke-width:2px;}.cls-26{stroke-miterlimit:10;}.cls-27{fill:url(#Degradado_sin_nombre_54);}.cls-28{stroke-linecap:round;stroke-linejoin:round;}.cls-29,.cls-30{fill:url(#Degradado_sin_nombre_26-9);}.cls-31{clip-path:url(#clip-path-3);}</style><clipPath id="clip-path"><rect class="cls-1" width="750" height="500"/></clipPath><radialGradient id="Degradado_sin_nombre_40" cx="-5.78" cy="371.16" r="1015.51" gradientTransform="translate(-72.51 -53.16) scale(1.24 1.27)" gradientUnits="userSpaceOnUse"><stop offset="0" stop-color="#4900b9"/><stop offset="0.24" stop-color="#2e56d2"/><stop offset="0.44" stop-color="#189ce7"/><stop offset="0.59" stop-color="#0ac7f3"/><stop offset="0.66" stop-color="#05d7f8"/><stop offset="0.82" stop-color="#1c94d0"/><stop offset="1" stop-color="#364aa3"/></radialGradient><linearGradient id="Degradado_sin_nombre_27" x1="649.46" y1="747.06" x2="649.46" y2="271.04" gradientUnits="userSpaceOnUse"><stop offset="0" stop-color="#05d7f8" stop-opacity="0"/><stop offset="0.1" stop-color="#11c9f8" stop-opacity="0.07"/><stop offset="0.3" stop-color="#32a6f7" stop-opacity="0.25"/><stop offset="0.58" stop-color="#676cf5" stop-opacity="0.53"/><stop offset="0.93" stop-color="#ae1df3" stop-opacity="0.92"/><stop offset="1" stop-color="#bd0df3"/></linearGradient><linearGradient id="Degradado_sin_nombre_27-2" x1="749.55" y1="403.14" x2="749.55" y2="-246.5" xlink:href="#Degradado_sin_nombre_27"/><linearGradient id="Degradado_sin_nombre_27-3" x1="698.46" y1="214.15" x2="698.46" y2="-111.83" xlink:href="#Degradado_sin_nombre_27"/><linearGradient id="Degradado_sin_nombre_27-4" x1="378.78" y1="102.76" x2="378.78" y2="-153.29" xlink:href="#Degradado_sin_nombre_27"/><linearGradient id="Degradado_sin_nombre_27-5" x1="426.62" y1="158.06" x2="426.62" y2="512.24" xlink:href="#Degradado_sin_nombre_27"/><linearGradient id="Degradado_sin_nombre_27-7" x1="239.93" y1="66.86" x2="239.93" y2="313.99" xlink:href="#Degradado_sin_nombre_27"/><linearGradient id="Degradado_sin_nombre_26" x1="20.06" y1="647.24" x2="300.15" y2="301.36" gradientTransform="matrix(0.77, -0.63, 0.63, 0.77, -264.24, 231.45)" gradientUnits="userSpaceOnUse"><stop offset="0" stop-color="#bd0df3"/><stop offset="0.07" stop-color="#ae1df3" stop-opacity="0.92"/><stop offset="0.42" stop-color="#676cf5" stop-opacity="0.53"/><stop offset="0.7" stop-color="#32a6f7" stop-opacity="0.25"/><stop offset="0.9" stop-color="#11c9f8" stop-opacity="0.07"/><stop offset="1" stop-color="#05d7f8" stop-opacity="0"/></linearGradient><linearGradient id="Degradado_sin_nombre_26-3" x1="158.22" y1="599.96" x2="438.29" y2="254.1" gradientTransform="matrix(0.77, -0.82, 0.63, 1, -292.32, 396.57)" xlink:href="#Degradado_sin_nombre_26"/><linearGradient id="Degradado_sin_nombre_26-5" x1="-58.3" y1="305.71" x2="221.78" y2="-40.16" gradientTransform="translate(-28.74 98.09) rotate(-39.32)" xlink:href="#Degradado_sin_nombre_26"/><radialGradient id="Degradado_sin_nombre_42" cx="396.36" cy="155.06" r="347.33" xlink:href="#Degradado_sin_nombre_27"/><radialGradient id="Degradado_sin_nombre_42-2" cx="240.36" cy="61.06" r="234.14" xlink:href="#Degradado_sin_nombre_27"/><linearGradient id="Degradado_sin_nombre_27-10" x1="0" y1="569.06" x2="0" y2="226.35" xlink:href="#Degradado_sin_nombre_27"/><clipPath id="clip-path-2"><circle class="cls-1" cx="633.1" cy="536.98" r="102.47" transform="translate(-194.27 604.94) rotate(-45)"/></clipPath><radialGradient id="Degradado_sin_nombre_54" cx="645.93" cy="69.49" r="82.05" gradientUnits="userSpaceOnUse"><stop offset="0" stop-color="#fff"/><stop offset="0.11" stop-color="#fff" stop-opacity="0.88"/><stop offset="0.44" stop-color="#fff" stop-opacity="0.51"/><stop offset="0.71" stop-color="#fff" stop-opacity="0.23"/><stop offset="0.9" stop-color="#fff" stop-opacity="0.06"/><stop offset="1" stop-color="#fff" stop-opacity="0"/></radialGradient><linearGradient id="Degradado_sin_nombre_26-9" x1="-196.2" y1="337.48" x2="83.88" y2="-8.39" gradientTransform="matrix(0.77, -0.63, 0.63, 0.77, -82.68, 3.03)" xlink:href="#Degradado_sin_nombre_26"/><clipPath id="clip-path-3"><circle class="cls-1" cx="181.46" cy="-5.79" r="102.47" transform="translate(57.24 126.62) rotate(-45)"/></clipPath></defs><title>2544607</title><g class="cls-2"><g id="BACKGROUND_2" data-name="BACKGROUND 2"><g class="cls-3"><rect class="cls-4" width="750" height="500"/><g class="cls-5"><path class="cls-6" d="M649.46,722.89,435.74,509.16,649.46,295.43,863.18,509.16ZM519.17,509.16,649.46,639.45,779.75,509.16,649.46,378.87Z"/></g><path class="cls-7" d="M749.55,360.77,317.73-71.06,749.55-502.88,1181.37-71.06ZM486.32-71.06,749.55,192.18,1012.79-71.06,749.55-334.29Z"/><path class="cls-8" d="M698.45,184.42,474.9-39.14,698.45-262.7,922-39.14Zm-112-223.56,112,112,112-112-112-112Z"/><path class="cls-9" d="M378.78,89.76l-115-115,115-115,115,115Zm-57.6-115,57.6,57.6,57.6-57.6-57.6-57.6Z"/><path class="cls-10" d="M426.62,420.8l-115-115,115-115,115,115Zm-57.6-115,57.6,57.6,57.6-57.6-57.6-57.6Z"/><g class="cls-11"><path class="cls-10" d="M426.62,420.8l-115-115,115-115,115,115Zm-57.6-115,57.6,57.6,57.6-57.6-57.6-57.6Z"/></g><path class="cls-12" d="M239.93,250.18,159.72,170l80.21-80.21L320.14,170ZM199.74,170l40.19,40.19L280.12,170l-40.19-40.19Z"/><rect class="cls-13" x="99.72" y="187.56" width="119.99" height="466.48" transform="translate(347.44 11.73) rotate(45.43)"/><rect class="cls-14" x="99.72" y="187.56" width="119.99" height="466.48" transform="translate(347.44 11.73) rotate(45.43)"/><rect class="cls-15" x="148.59" y="179.17" width="119.99" height="603.66" transform="translate(404.91 -5.13) rotate(45.43)"/><rect class="cls-16" x="148.59" y="179.17" width="119.99" height="603.66" transform="translate(404.91 -5.13) rotate(45.43)"/><rect class="cls-17" x="58.21" y="-160.37" width="119.99" height="466.48" transform="translate(87.17 -62.48) rotate(45.43)"/><rect class="cls-18" x="58.21" y="-160.37" width="119.99" height="466.48" transform="translate(87.17 -62.48) rotate(45.43)"/><rect class="cls-17" x="58.21" y="-160.37" width="119.99" height="466.48" transform="translate(87.17 -62.48) rotate(45.43)"/><rect class="cls-18" x="58.21" y="-160.37" width="119.99" height="466.48" transform="translate(87.17 -62.48) rotate(45.43)"/><path class="cls-7" d="M749.55,360.77,317.73-71.06,749.55-502.88,1181.37-71.06ZM486.32-71.06,749.55,192.18,1012.79-71.06,749.55-334.29Z"/><g class="cls-11"><path class="cls-8" d="M698.45,184.42,474.9-39.14,698.45-262.7,922-39.14Zm-112-223.56,112,112,112-112-112-112Z"/></g><g class="cls-11"><path class="cls-19" d="M378.78,89.76l-115-115,115-115,115,115Zm-57.6-115,57.6,57.6,57.6-57.6-57.6-57.6Z"/></g><g class="cls-11"><path class="cls-20" d="M239.93,250.18,159.72,170l80.21-80.21L320.14,170ZM199.74,170l40.19,40.19L280.12,170l-40.19-40.19Z"/></g><path class="cls-21" d="M0,722.89-213.72,509.16,0,295.43,213.72,509.16ZM-130.29,509.16,0,639.45,130.29,509.16,0,378.87Z"/><g class="cls-11"><path class="cls-21" d="M0,722.89-213.72,509.16,0,295.43,213.72,509.16ZM-130.29,509.16,0,639.45,130.29,509.16,0,378.87Z"/></g><g class="cls-22"><rect class="cls-23" x="-173.89" y="491.92" width="303.2" height="2" transform="translate(-352.55 126.32) rotate(-44.6)"/><rect class="cls-23" x="-151.71" y="488.62" width="303.2" height="2" transform="translate(-343.84 140.94) rotate(-44.6)"/><rect class="cls-23" x="-153.71" y="509.38" width="303.2" height="2" transform="translate(-359 145.52) rotate(-44.6)"/></g><g class="cls-22"><rect class="cls-23" x="542.84" y="200.08" width="303.2" height="2" transform="translate(58.82 545.56) rotate(-44.6)"/><rect class="cls-23" x="565.02" y="196.78" width="303.2" height="2" transform="translate(67.53 560.19) rotate(-44.6)"/><rect class="cls-23" x="563.02" y="217.54" width="303.2" height="2" transform="translate(52.37 564.76) rotate(-44.6)"/></g><g class="cls-24"><g class="cls-25"><line class="cls-26" x1="458.15" y1="546.53" x2="628.9" y2="378.31"/><line class="cls-26" x1="475.69" y1="543.93" x2="646.43" y2="375.7"/><line class="cls-26" x1="474.11" y1="560.34" x2="644.85" y2="392.12"/><line class="cls-26" x1="479.94" y1="570.63" x2="650.69" y2="402.4"/><line class="cls-26" x1="497.48" y1="568.02" x2="668.23" y2="399.79"/><line class="cls-26" x1="495.9" y1="584.43" x2="666.64" y2="416.21"/><line class="cls-26" x1="501.74" y1="594.72" x2="672.48" y2="426.49"/><line class="cls-26" x1="519.28" y1="592.11" x2="690.02" y2="423.89"/><line class="cls-26" x1="517.69" y1="608.52" x2="688.44" y2="440.3"/><line class="cls-26" x1="523.53" y1="618.81" x2="694.27" y2="450.59"/><line class="cls-26" x1="541.07" y1="616.2" x2="711.81" y2="447.98"/><line class="cls-26" x1="539.49" y1="632.62" x2="710.23" y2="464.39"/><line class="cls-26" x1="545.32" y1="642.9" x2="716.07" y2="474.68"/><line class="cls-26" x1="562.86" y1="640.29" x2="733.6" y2="472.07"/><line class="cls-26" x1="561.28" y1="656.71" x2="732.02" y2="488.48"/><line class="cls-26" x1="567.12" y1="666.99" x2="737.86" y2="498.77"/><line class="cls-26" x1="584.65" y1="664.39" x2="755.4" y2="496.16"/></g></g><path class="cls-27" d="M650.86,65l-1.4-1.42Q657,56.17,664.53,48.7C675.38,38,686.6,26.85,697.72,16l1.4,1.43c-11.12,10.84-22.33,22-33.18,32.69Q658.41,57.59,650.86,65Z"/><path class="cls-23" d="M18.06,109.7A1.75,1.75,0,1,1,16.31,108,1.75,1.75,0,0,1,18.06,109.7Z"/><path class="cls-23" d="M18.06,120.13a1.75,1.75,0,1,1-1.75-1.75A1.75,1.75,0,0,1,18.06,120.13Z"/><path class="cls-23" d="M18.06,130.56a1.75,1.75,0,1,1-1.75-1.75A1.75,1.75,0,0,1,18.06,130.56Z"/><path class="cls-23" d="M18.06,141a1.75,1.75,0,1,1-1.75-1.75A1.76,1.76,0,0,1,18.06,141Z"/><path class="cls-23" d="M18.06,151.42a1.75,1.75,0,1,1-1.75-1.75A1.76,1.76,0,0,1,18.06,151.42Z"/><path class="cls-23" d="M18.06,161.85a1.75,1.75,0,1,1-1.75-1.75A1.75,1.75,0,0,1,18.06,161.85Z"/><path class="cls-23" d="M18.06,172.28a1.75,1.75,0,1,1-1.75-1.74A1.75,1.75,0,0,1,18.06,172.28Z"/><path class="cls-23" d="M18.06,182.71A1.75,1.75,0,1,1,16.31,181,1.75,1.75,0,0,1,18.06,182.71Z"/><path class="cls-23" d="M18.06,192.42a1.75,1.75,0,1,1-1.75-1.75A1.75,1.75,0,0,1,18.06,192.42Z"/><path class="cls-23" d="M18.06,202.85a1.75,1.75,0,1,1-1.75-1.75A1.75,1.75,0,0,1,18.06,202.85Z"/><path class="cls-23" d="M18.06,213.28a1.75,1.75,0,1,1-1.75-1.75A1.75,1.75,0,0,1,18.06,213.28Z"/><path class="cls-23" d="M18.06,223.71A1.75,1.75,0,1,1,16.31,222,1.75,1.75,0,0,1,18.06,223.71Z"/><path class="cls-23" d="M18.06,234.14a1.75,1.75,0,1,1-1.75-1.75A1.76,1.76,0,0,1,18.06,234.14Z"/><path class="cls-23" d="M18.06,244.57a1.75,1.75,0,1,1-1.75-1.75A1.76,1.76,0,0,1,18.06,244.57Z"/><path class="cls-23" d="M18.06,255a1.75,1.75,0,1,1-1.75-1.75A1.75,1.75,0,0,1,18.06,255Z"/><path class="cls-23" d="M18.06,265.43a1.75,1.75,0,1,1-1.75-1.74A1.75,1.75,0,0,1,18.06,265.43Z"/><path class="cls-23" d="M42.61,109.7A1.75,1.75,0,1,1,40.86,108,1.74,1.74,0,0,1,42.61,109.7Z"/><path class="cls-23" d="M42.61,120.13a1.75,1.75,0,1,1-1.75-1.75A1.74,1.74,0,0,1,42.61,120.13Z"/><path class="cls-23" d="M42.61,130.56a1.75,1.75,0,1,1-1.75-1.75A1.74,1.74,0,0,1,42.61,130.56Z"/><path class="cls-23" d="M42.61,141a1.75,1.75,0,1,1-1.75-1.75A1.75,1.75,0,0,1,42.61,141Z"/><path class="cls-23" d="M42.61,151.42a1.75,1.75,0,1,1-1.75-1.75A1.75,1.75,0,0,1,42.61,151.42Z"/><path class="cls-23" d="M42.61,161.85a1.75,1.75,0,1,1-1.75-1.75A1.75,1.75,0,0,1,42.61,161.85Z"/><path class="cls-23" d="M42.61,172.28a1.75,1.75,0,1,1-1.75-1.74A1.75,1.75,0,0,1,42.61,172.28Z"/><path class="cls-23" d="M42.61,182.71A1.75,1.75,0,1,1,40.86,181,1.75,1.75,0,0,1,42.61,182.71Z"/><path class="cls-23" d="M42.61,192.42a1.75,1.75,0,1,1-1.75-1.75A1.74,1.74,0,0,1,42.61,192.42Z"/><path class="cls-23" d="M42.61,202.85a1.75,1.75,0,1,1-1.75-1.75A1.74,1.74,0,0,1,42.61,202.85Z"/><path class="cls-23" d="M42.61,213.28a1.75,1.75,0,1,1-1.75-1.75A1.74,1.74,0,0,1,42.61,213.28Z"/><path class="cls-23" d="M42.61,223.71A1.75,1.75,0,1,1,40.86,222,1.74,1.74,0,0,1,42.61,223.71Z"/><path class="cls-23" d="M42.61,234.14a1.75,1.75,0,1,1-1.75-1.75A1.75,1.75,0,0,1,42.61,234.14Z"/><path class="cls-23" d="M42.61,244.57a1.75,1.75,0,1,1-1.75-1.75A1.75,1.75,0,0,1,42.61,244.57Z"/><path class="cls-23" d="M42.61,255a1.75,1.75,0,1,1-1.75-1.75A1.75,1.75,0,0,1,42.61,255Z"/><path class="cls-23" d="M42.61,265.43a1.75,1.75,0,1,1-1.75-1.74A1.75,1.75,0,0,1,42.61,265.43Z"/><path class="cls-23" d="M29.67,127a1.75,1.75,0,1,1-1.74-1.75A1.74,1.74,0,0,1,29.67,127Z"/><path class="cls-23" d="M29.67,137.44a1.75,1.75,0,1,1-1.74-1.75A1.74,1.74,0,0,1,29.67,137.44Z"/><path class="cls-23" d="M29.67,147.87a1.75,1.75,0,1,1-1.74-1.75A1.74,1.74,0,0,1,29.67,147.87Z"/><path class="cls-23" d="M29.67,158.3a1.75,1.75,0,1,1-1.74-1.75A1.74,1.74,0,0,1,29.67,158.3Z"/><path class="cls-23" d="M29.67,168.73A1.75,1.75,0,1,1,27.93,167,1.75,1.75,0,0,1,29.67,168.73Z"/><path class="cls-23" d="M29.67,179.16a1.75,1.75,0,1,1-1.74-1.75A1.74,1.74,0,0,1,29.67,179.16Z"/><path class="cls-23" d="M29.67,189.59a1.75,1.75,0,1,1-1.74-1.74A1.74,1.74,0,0,1,29.67,189.59Z"/><path class="cls-23" d="M29.67,200a1.75,1.75,0,1,1-1.74-1.74A1.74,1.74,0,0,1,29.67,200Z"/><path class="cls-23" d="M29.67,209.72A1.75,1.75,0,1,1,27.93,208,1.74,1.74,0,0,1,29.67,209.72Z"/><path class="cls-23" d="M29.67,220.16a1.75,1.75,0,1,1-1.74-1.75A1.74,1.74,0,0,1,29.67,220.16Z"/><path class="cls-23" d="M29.67,230.59a1.75,1.75,0,1,1-1.74-1.75A1.74,1.74,0,0,1,29.67,230.59Z"/><path class="cls-23" d="M29.67,241a1.75,1.75,0,1,1-1.74-1.75A1.74,1.74,0,0,1,29.67,241Z"/><path class="cls-23" d="M29.67,251.45a1.75,1.75,0,1,1-1.74-1.75A1.75,1.75,0,0,1,29.67,251.45Z"/><path class="cls-23" d="M29.67,261.88a1.75,1.75,0,1,1-1.74-1.75A1.75,1.75,0,0,1,29.67,261.88Z"/><path class="cls-23" d="M29.67,272.31a1.75,1.75,0,1,1-1.74-1.75A1.74,1.74,0,0,1,29.67,272.31Z"/><path class="cls-23" d="M29.67,282.74A1.75,1.75,0,1,1,27.93,281,1.74,1.74,0,0,1,29.67,282.74Z"/><path class="cls-23" d="M710.89,270.15a1.75,1.75,0,1,1-1.75-1.74A1.75,1.75,0,0,1,710.89,270.15Z"/><path class="cls-23" d="M710.89,280.59a1.75,1.75,0,1,1-1.75-1.75A1.75,1.75,0,0,1,710.89,280.59Z"/><path class="cls-23" d="M710.89,291a1.75,1.75,0,1,1-1.75-1.75A1.75,1.75,0,0,1,710.89,291Z"/><path class="cls-23" d="M710.89,301.45a1.75,1.75,0,1,1-1.75-1.75A1.75,1.75,0,0,1,710.89,301.45Z"/><path class="cls-23" d="M710.89,311.88a1.75,1.75,0,1,1-1.75-1.75A1.76,1.76,0,0,1,710.89,311.88Z"/><path class="cls-23" d="M710.89,322.31a1.75,1.75,0,1,1-1.75-1.75A1.76,1.76,0,0,1,710.89,322.31Z"/><path class="cls-23" d="M710.89,332.74a1.75,1.75,0,1,1-1.75-1.75A1.75,1.75,0,0,1,710.89,332.74Z"/><path class="cls-23" d="M710.89,343.17a1.75,1.75,0,1,1-1.75-1.74A1.75,1.75,0,0,1,710.89,343.17Z"/><path class="cls-23" d="M710.89,352.87a1.75,1.75,0,1,1-1.75-1.74A1.75,1.75,0,0,1,710.89,352.87Z"/><path class="cls-23" d="M710.89,363.31a1.75,1.75,0,1,1-1.75-1.75A1.75,1.75,0,0,1,710.89,363.31Z"/><path class="cls-23" d="M710.89,373.74a1.75,1.75,0,1,1-1.75-1.75A1.75,1.75,0,0,1,710.89,373.74Z"/><path class="cls-23" d="M710.89,384.17a1.75,1.75,0,1,1-1.75-1.75A1.75,1.75,0,0,1,710.89,384.17Z"/><path class="cls-23" d="M710.89,394.6a1.75,1.75,0,1,1-1.75-1.75A1.75,1.75,0,0,1,710.89,394.6Z"/><path class="cls-23" d="M710.89,405a1.75,1.75,0,1,1-1.75-1.75A1.76,1.76,0,0,1,710.89,405Z"/><path class="cls-23" d="M710.89,415.46a1.75,1.75,0,1,1-1.75-1.75A1.75,1.75,0,0,1,710.89,415.46Z"/><path class="cls-23" d="M710.89,425.89a1.75,1.75,0,1,1-1.75-1.74A1.75,1.75,0,0,1,710.89,425.89Z"/><path class="cls-23" d="M735.44,270.15a1.75,1.75,0,1,1-1.75-1.74A1.75,1.75,0,0,1,735.44,270.15Z"/><path class="cls-23" d="M735.44,280.59a1.75,1.75,0,1,1-1.75-1.75A1.75,1.75,0,0,1,735.44,280.59Z"/><path class="cls-23" d="M735.44,291a1.75,1.75,0,1,1-1.75-1.75A1.75,1.75,0,0,1,735.44,291Z"/><path class="cls-23" d="M735.44,301.45a1.75,1.75,0,1,1-1.75-1.75A1.75,1.75,0,0,1,735.44,301.45Z"/><path class="cls-23" d="M735.44,311.88a1.75,1.75,0,1,1-1.75-1.75A1.76,1.76,0,0,1,735.44,311.88Z"/><path class="cls-23" d="M735.44,322.31a1.75,1.75,0,1,1-1.75-1.75A1.76,1.76,0,0,1,735.44,322.31Z"/><path class="cls-23" d="M735.44,332.74a1.75,1.75,0,1,1-1.75-1.75A1.75,1.75,0,0,1,735.44,332.74Z"/><path class="cls-23" d="M735.44,343.17a1.75,1.75,0,1,1-1.75-1.74A1.75,1.75,0,0,1,735.44,343.17Z"/><path class="cls-23" d="M735.44,352.87a1.75,1.75,0,1,1-1.75-1.74A1.75,1.75,0,0,1,735.44,352.87Z"/><path class="cls-23" d="M735.44,363.31a1.75,1.75,0,1,1-1.75-1.75A1.75,1.75,0,0,1,735.44,363.31Z"/><path class="cls-23" d="M735.44,373.74a1.75,1.75,0,1,1-1.75-1.75A1.75,1.75,0,0,1,735.44,373.74Z"/><path class="cls-23" d="M735.44,384.17a1.75,1.75,0,1,1-1.75-1.75A1.75,1.75,0,0,1,735.44,384.17Z"/><path class="cls-23" d="M735.44,394.6a1.75,1.75,0,1,1-1.75-1.75A1.75,1.75,0,0,1,735.44,394.6Z"/><path class="cls-23" d="M735.44,405a1.75,1.75,0,1,1-1.75-1.75A1.76,1.76,0,0,1,735.44,405Z"/><path class="cls-23" d="M735.44,415.46a1.75,1.75,0,1,1-1.75-1.75A1.75,1.75,0,0,1,735.44,415.46Z"/><path class="cls-23" d="M735.44,425.89a1.75,1.75,0,1,1-1.75-1.74A1.75,1.75,0,0,1,735.44,425.89Z"/><path class="cls-23" d="M722.5,287.46a1.75,1.75,0,1,1-1.74-1.74A1.74,1.74,0,0,1,722.5,287.46Z"/><path class="cls-23" d="M722.5,297.9a1.75,1.75,0,1,1-1.74-1.75A1.74,1.74,0,0,1,722.5,297.9Z"/><path class="cls-23" d="M722.5,308.33a1.75,1.75,0,1,1-1.74-1.75A1.74,1.74,0,0,1,722.5,308.33Z"/><path class="cls-23" d="M722.5,318.76a1.75,1.75,0,1,1-1.74-1.75A1.74,1.74,0,0,1,722.5,318.76Z"/><path class="cls-23" d="M722.5,329.19a1.75,1.75,0,1,1-1.74-1.75A1.75,1.75,0,0,1,722.5,329.19Z"/><path class="cls-23" d="M722.5,339.62a1.75,1.75,0,1,1-1.74-1.75A1.75,1.75,0,0,1,722.5,339.62Z"/><path class="cls-23" d="M722.5,350.05a1.75,1.75,0,1,1-1.74-1.75A1.74,1.74,0,0,1,722.5,350.05Z"/><path class="cls-23" d="M722.5,360.48a1.75,1.75,0,1,1-1.74-1.74A1.74,1.74,0,0,1,722.5,360.48Z"/><path class="cls-23" d="M722.5,370.18a1.75,1.75,0,1,1-1.74-1.74A1.74,1.74,0,0,1,722.5,370.18Z"/><path class="cls-23" d="M722.5,380.62a1.75,1.75,0,1,1-1.74-1.75A1.74,1.74,0,0,1,722.5,380.62Z"/><path class="cls-23" d="M722.5,391.05a1.75,1.75,0,1,1-1.74-1.75A1.74,1.74,0,0,1,722.5,391.05Z"/><path class="cls-23" d="M722.5,401.48a1.75,1.75,0,1,1-1.74-1.75A1.74,1.74,0,0,1,722.5,401.48Z"/><path class="cls-23" d="M722.5,411.91a1.75,1.75,0,1,1-1.74-1.75A1.74,1.74,0,0,1,722.5,411.91Z"/><path class="cls-23" d="M722.5,422.34a1.75,1.75,0,1,1-1.74-1.75A1.75,1.75,0,0,1,722.5,422.34Z"/><path class="cls-23" d="M722.5,432.77a1.75,1.75,0,1,1-1.74-1.75A1.75,1.75,0,0,1,722.5,432.77Z"/><path class="cls-23" d="M722.5,443.2a1.75,1.75,0,1,1-1.74-1.75A1.74,1.74,0,0,1,722.5,443.2Z"/><line class="cls-28" x1="526" y1="374.25" x2="535.25" y2="383.5"/><line class="cls-28" x1="535.25" y1="374.25" x2="526" y2="383.5"/><rect class="cls-1" width="750" height="500"/><rect class="cls-29" x="-82.29" y="-143.48" width="119.99" height="466.48" transform="translate(57.3 42.66) rotate(45.43)"/><rect class="cls-30" x="-82.29" y="-143.48" width="119.99" height="466.48" transform="translate(57.3 42.66) rotate(45.43)"/><g class="cls-24"><g class="cls-31"><line class="cls-26" x1="6.52" y1="3.77" x2="177.26" y2="-164.46"/><line class="cls-26" x1="24.06" y1="1.16" x2="194.8" y2="-167.06"/><line class="cls-26" x1="22.48" y1="17.57" x2="193.22" y2="-150.65"/><line class="cls-26" x1="28.31" y1="27.86" x2="199.06" y2="-140.36"/><line class="cls-26" x1="45.85" y1="25.25" x2="216.59" y2="-142.97"/><line class="cls-26" x1="44.27" y1="41.67" x2="215.01" y2="-126.56"/><line class="cls-26" x1="50.11" y1="51.95" x2="220.85" y2="-116.27"/><line class="cls-26" x1="67.64" y1="49.34" x2="238.39" y2="-118.88"/><line class="cls-26" x1="66.06" y1="65.76" x2="236.81" y2="-102.47"/><line class="cls-26" x1="71.9" y1="76.04" x2="242.64" y2="-92.18"/><line class="cls-26" x1="89.44" y1="73.44" x2="260.18" y2="-94.79"/><line class="cls-26" x1="87.86" y1="89.85" x2="258.6" y2="-78.37"/><line class="cls-26" x1="93.69" y1="100.13" x2="264.44" y2="-68.09"/><line class="cls-26" x1="111.23" y1="97.53" x2="281.97" y2="-70.7"/><line class="cls-26" x1="109.65" y1="113.94" x2="280.39" y2="-54.28"/><line class="cls-26" x1="115.48" y1="124.23" x2="286.23" y2="-44"/><line class="cls-26" x1="133.02" y1="121.62" x2="303.77" y2="-46.6"/><line class="cls-26" x1="131.44" y1="138.03" x2="302.19" y2="-30.19"/><line class="cls-26" x1="137.28" y1="148.32" x2="308.02" y2="-19.91"/><line class="cls-26" x1="154.82" y1="145.71" x2="325.56" y2="-22.51"/><line class="cls-26" x1="153.23" y1="162.13" x2="323.98" y2="-6.1"/><line class="cls-26" x1="159.07" y1="172.41" x2="329.81" y2="4.19"/><line class="cls-26" x1="176.61" y1="169.8" x2="347.35" y2="1.58"/><line class="cls-26" x1="175.03" y1="186.22" x2="345.77" y2="17.99"/></g></g></g></g></g></svg>